<!DOCTYPE svg PUBLIC "-//W3C//DTD SVG 1.1//EN" "http://www.w3.org/Graphics/SVG/1.1/DTD/svg11.dtd">
<svg xmlns="http://www.w3.org/2000/svg" xmlns:xlink="http://www.w3.org/1999/xlink" version="1.1" width="51px" height="51px" viewBox="-0.5 -0.5 51 51"><defs/><g><ellipse cx="25" cy="25" rx="25" ry="25" fill="#ffffff" stroke="#000000" pointer-events="none"/><ellipse cx="25" cy="25" rx="19.5" ry="19.5" fill="#ffffff" stroke="#000000" pointer-events="none"/><path d="M 25 5.5 L 25 8 M 34.69 8.05 L 33.29 10.5 M 41.77 15.14 L 39.32 16.63 M 44.5 25 L 41.92 25 M 41.77 34.79 L 39.32 33.29 M 34.69 41.87 L 33.29 39.43 M 25 41.92 L 25 44.5 M 15.23 41.87 L 16.63 39.43 M 8.15 34.79 L 10.6 33.29 M 5.5 25 L 8 25 M 8.15 15.14 L 10.6 16.63 M 15.23 8.05 L 16.63 10.5 M 25.96 8.25 L 25 25 L 35.94 25.46" fill="none" stroke="#000000" stroke-miterlimit="10" pointer-events="none"/></g></svg>