<svg xmlns="http://www.w3.org/2000/svg" viewBox="0 0 318.96 318.96"><path d="M303.672 253.512c-11.151-37.754-67.121-33.566-91.279-44.408-24.157-10.842-20.386-47.219-23.449-53.548h-58.933c-3.058 6.329.714 42.711-23.449 53.548-24.157 10.842-80.133 6.655-91.279 44.408-6.149 20.824-5.857 27.193-7.554 50.26 0 0 76.8 15.187 150.014 15.187s153.488-15.187 153.488-15.187c-1.703-23.073-1.41-29.435-7.559-50.26z" fill="#636358"/><path d="M303.672 253.512c-11.151-37.754-67.121-33.566-91.279-44.408-24.157-10.842-20.386-47.219-23.449-53.548h-31.206s-.719 51.024 23.438 61.866 80.133 6.655 91.279 44.408c5.857 19.83 5.868 26.552 7.324 47.073 19.234-2.816 31.442-5.126 31.442-5.126-1.693-23.078-1.4-29.44-7.549-50.265z" fill="#515147"/><path d="M186.291 318.262l14.282-100.929h-82.196l14.304 101.076c8.324.354 16.716.551 25.062.551 9.46-.001 19.043-.254 28.548-.698z" fill="#eae5dc"/><path d="M190.09 226.376c9.741-3.805 17.756-9.409 23.168-16.21l.416-.517c-.433-.18-.86-.36-1.276-.545-24.157-10.842-20.386-47.219-23.449-53.548h-58.938c-3.058 6.329.714 42.711-23.449 53.548-.416.185-.843.371-1.276.545l.416.517c5.413 6.795 13.428 12.399 23.168 16.21 9.229 3.603 19.813 5.508 30.61 5.508 10.798 0 21.381-1.905 30.61-5.508z" fill="#393c3d"/><path d="M212.393 209.104c-4.345-1.95-7.779-4.727-10.516-8.004-5.064 6.357-13.827 11.404-24.573 14.096a22.82 22.82 0 003.878 2.22c4.71 2.113 10.634 3.659 17.199 5.053 6.031-3.378 11.089-7.548 14.872-12.304l.416-.517c-.433-.173-.86-.359-1.276-.544z" fill="#2f3233"/><path d="M201.877 201.1c-12.5-14.951-10.421-40.356-12.927-45.549h-58.939c-2.512 5.193-.427 30.599-12.927 45.549 7.655 9.611 23.764 16.232 42.396 16.232s34.741-6.621 42.397-16.232z" fill="#dbb491"/><path d="M177.303 215.196c10.747-2.692 19.509-7.74 24.573-14.096-12.5-14.951-10.421-40.356-12.927-45.549h-31.206c.001.005-.64 45.392 19.56 59.645z" fill="#cca483"/><path d="M122.081 193.152c9.78 7.959 21.24 15.85 37.338 18.132 16.137-2.288 27.569-10.342 37.36-18.334-8.144-14.973-5.626-32.83-7.83-37.4h-58.938c-2.214 4.576.253 22.623-7.93 37.602z" fill="#c69e7f"/><path d="M233.29 250.724l-15.333-5.559 13.776-3.794-13.13-29.969-40.749 107.208c4.778-.163 9.549-.377 14.293-.635l41.143-67.251zM86.188 241.366l13.776 3.794-15.333 5.559 41.216 67.369c4.716.247 9.471.444 14.237.59L99.239 211.729l-13.051 29.637z" fill="#515147"/><path d="M228.979 251.556l-14.833-6.239 13.461-4.783-9.004-29.137-16.907-13.147-32.111 120.579c6.97-.146 13.962-.41 20.903-.776l38.491-66.497z" fill="#72726a"/><path d="M201.691 198.25l-6.278 23.567c8.538 1.945 18.385 3.507 28.171 5.711l-4.985-16.131-16.908-13.147z" fill="#636358"/><path d="M99.233 211.734l-8.926 28.806 13.461 4.783-14.833 6.239 38.563 66.621a638.48 638.48 0 0020.847.703l-32.127-120.624-16.985 13.472z" fill="#72726a"/><ellipse transform="rotate(100.195 228.521 118.55)" cx="228.52" cy="118.551" rx="21.386" ry="11.629" fill="#cca483"/><ellipse transform="rotate(169.801 90.263 118.559)" cx="90.263" cy="118.558" rx="11.629" ry="21.386" fill="#dbb491"/><path d="M223.64 47.359H95.231s-35.989 146.614 64.187 160.806C259.634 193.973 223.64 47.359 223.64 47.359z" fill="#dbb491"/><path d="M159.418 208.165c100.216-14.192 64.221-160.806 64.221-160.806h-15.024c4.114 61.242 9.808 93.774-13.815 129.24-18.716 28.104-35.382 31.566-35.382 31.566z" fill="#cca483"/><path d="M235.786 53.3c-5.722-22.769-34.595-48.725-76.305-48.725S88.897 30.531 83.175 53.3l7.683 63.26c.056-6.93.27-20.139.95-28.643.956-11.888 6.75-34.567 26.237-34.275 7.262.112 24.275 11.888 41.43 11.888 16.536 0 33.212-11.764 41.43-11.888 19.487-.292 25.282 22.387 26.237 34.275.686 8.515.916 21.797.972 28.721l7.672-63.338z" fill="#cca483"/><path d="M228.119 116.633c18.593-20.459 7.667-67.908 7.667-67.908C230.064 25.956 201.191 0 159.48 0S88.897 25.956 83.169 48.725c0 0-10.932 47.483 7.683 67.931 0 0-.006-21.431.956-33.313s6.75-34.567 26.237-34.275c7.262.112 24.275 11.888 41.43 11.888 16.536 0 33.212-11.764 41.43-11.888 19.487-.292 25.282 22.387 26.237 34.275s.955 33.313.955 33.313l.022-.023z" fill="#3b3b3b"/></svg>