<svg xmlns="http://www.w3.org/2000/svg" viewBox="0 0 318.543 318.543"><ellipse cx="159.45" cy="191.388" rx="55.312" ry="23.528" fill="#359686"/><path d="M303.462 253.096c-11.151-37.754-67.121-33.566-91.279-44.408-24.157-10.842-20.386-47.219-23.449-53.548h-58.932c-3.058 6.329.714 42.711-23.449 53.548-24.157 10.842-80.133 6.655-91.279 44.408-6.149 20.824-5.857 27.193-7.554 50.26 0 0 76.8 15.187 150.014 15.187s153.488-15.187 153.488-15.187c-1.704-23.073-1.411-29.435-7.56-50.26z" fill="#39788e"/><path d="M180.972 217.001c24.157 10.842 80.133 6.655 91.279 44.408 5.857 19.83 5.868 26.552 7.324 47.073 19.234-2.816 31.442-5.126 31.442-5.126-1.697-23.067-1.405-29.435-7.554-50.26-11.151-37.754-67.121-33.566-91.279-44.408-24.157-10.842-20.386-47.219-23.449-53.548H157.53c.004 0-.716 51.024 23.442 61.861z" fill="#2a6d7f"/><path d="M201.667 200.684c-12.5-14.951-10.421-40.356-12.927-45.549h-58.938c-2.512 5.193-.427 30.599-12.927 45.549 5.963 14.029 37.99 51.575 42.396 51.575 4.4 0 35.938-36.405 42.396-51.575z" fill="#e8c59e"/><path d="M121.871 192.736c9.78 7.959 21.24 15.85 37.338 18.132 16.137-2.288 27.569-10.342 37.36-18.334-8.144-14.973-5.626-32.83-7.83-37.4h-58.938c-2.214 4.576.253 22.624-7.93 37.602z" fill="#c69e7f"/><path d="M110.748 200.032s12.703-.405 34.814 6.953 52.974-11.045 66.245-14.389c0 0-28.311 44.931-58.381 43.813-30.071-1.113-42.678-36.377-42.678-36.377z" fill="#44ada0"/><path d="M211.806 192.602c-2.81.708-6.986 2.327-7.026 2.366-6.464 5.851-10.747 10.162-15.502 14.805-11.078.804-15.794 2.979-19.97 4.901-3.884 1.787-7.239 3.333-15.682 3.339-1.394 0-2.923-.045-4.541-.129-8.667-.455-15.384-5.902-25.102-16.474-10.308-2.057-13.231-1.366-13.231-1.366s12.607 35.258 42.677 36.377c30.066 1.112 58.377-43.819 58.377-43.819z" fill="#3ca092"/><path d="M115.188 178.494s8.29 40.12 33.786 41.463 15.963-8.049 48.264-8.42l-35.112 36.748s-77.362-13.754-56.212-74.074l9.274 4.283z" fill="#4eb7ad"/><path d="M162.126 248.285l35.106-36.753c-4.064.045-4.159-.039-7.054.259-6.278 4.272-15.17 10.758-23.247 16.171-2.304-1.27-4.659-1.866-7.312-1.866-2.451 0-4.851.511-7.391 1.051-2.951.63-6.008 1.276-9.645 1.276-4.53 0-12.051-5.531-19.638-14.434-7.312-8.588-12.141-17.261-12.585-20.684-.556-4.322-.365-5.851-.624-13.445l-3.822-5.643c-21.151 60.32 56.212 74.068 56.212 74.068z" fill="#44ada0"/><path d="M199.458 175.892s7.453 6.076 7.998 12.877-30.644 41.621-62.94 53.171l43.981 26.158s30.374-21.802 29.193-34.932c-.719-8.026-5.132-10.988-5.132-10.988s23.843-35.786-13.265-57.926l.165 11.64z" fill="#4eb7ad"/><path d="M214.42 224.055c-1.012-1.31-1.855-1.877-1.855-1.877s-5.997 7.891-6.301 14.254c-.005-.001 3.935-8.437 8.156-12.377zM211.806 246.627c-8.437-.006-26.867-5.812-35.786-11.449-5.261-3.322-9.032-4.761-9.032-4.761.719 9.679 23.556 24.214 32.004 29.272 4.31-3.754 9.138-8.38 12.814-13.062z" fill="#44ada0"/><path d="M172.147 234.621s14.462-3.204 25.197-10.87c0 0-9.296 9.448-21.763 13.034l-3.434-2.164z" fill="#44ada0"/><path d="M207.922 251.14s-28.058-8.628-37.602-17.992-15.726-2.647-27.738-2.647-33.15-28.131-34.28-36.933c-.854-6.638-.388-15.76 9.634-25.782l-1.484-13.501s-14.85 9.785-20.049 19.813c-5.199 10.027-2.439 28.35-5.115 35.893-2.681 7.543-10.848 7.234-7.133 18.711s36.011 26.698 41.581 34.128c5.57 7.425 25.939 32.802 38.771 30.323 12.828-2.483 37.008-9.419 43.415-42.013z" fill="#56beb7"/><path d="M202.594 266.99a53.636 53.636 0 003.074-7.329c-21.617-1.012-46.46-12.646-46.46-12.646 15.519 12.208 34.359 17.828 43.386 19.975zM105.79 230.271c-14.501-11.438-13.658-24.056-13.658-24.056-.197 1.433-.467 2.709-.843 3.771-.489 1.383-1.169 2.501-1.922 3.479 6.419 12.658 16.423 16.806 16.423 16.806zM157.05 266.636c-.32-.219-.776-.556-1.366-.95-.287-.214-.596-.461-.933-.719l-.528-.405c-.09-.067-.185-.135-.275-.214-.09-.079-.18-.157-.27-.242-.365-.326-.764-.652-1.163-1.017-.382-.388-.793-.776-1.203-1.197-.793-.877-1.613-1.832-2.394-2.951-.399-.54-.798-1.135-1.203-1.731-.405-.613-.826-1.225-1.27-1.872a40.788 40.788 0 00-2.962-3.861c-.568-.618-1.118-1.265-1.748-1.844l-.922-.888-.989-.849-.5-.416c-.169-.135-.337-.287-.495-.399-.326-.242-.652-.489-.978-.731l-.489-.365-.247-.18-.124-.09-.017-.011c.006 0-.079-.056-.051-.039l-.034-.022-.067-.045-1.062-.691c-.348-.236-.708-.438-1.068-.646-.36-.202-.714-.416-1.068-.601-.354-.191-.708-.382-1.057-.568-.348-.18-.697-.354-1.04-.528-1.36-.686-2.687-1.338-3.749-1.967-.292-.197-.585-.388-.866-.573l-.107-.073c-.039-.034.039.034.028.022l-.011-.011-.022-.017-.051-.039-.197-.146-.388-.287a14.994 14.994 0 01-.748-.579c-.242-.197-.483-.382-.708-.573a32.416 32.416 0 01-2.406-2.203 29.692 29.692 0 01-1.709-1.883c-.444-.551-.781-1-.995-1.321s-.32-.495-.32-.495.034.202.152.579c.118.371.298.922.601 1.591.304.669.719 1.461 1.27 2.327.551.866 1.231 1.81 2.057 2.771.197.247.422.478.646.725.225.242.45.495.691.731.118.124.242.242.365.365l.185.185.045.045.022.022.011.011c-.006-.006.084.067.051.045l.096.084.787.686c1.253.972 2.524 1.754 3.839 2.557.646.393 1.298.798 1.962 1.203.332.197.646.416.967.624.32.214.652.41.961.641.315.219.63.444.944.663l.062.039.017.011.006.006.118.096.242.185.483.371c.326.247.646.495.972.742.169.124.304.247.45.377l.433.377.877.736c.281.27.568.534.849.798.579.523 1.107 1.085 1.647 1.636.275.27.517.568.776.854.253.287.523.556.764.854.247.292.489.585.736.877.242.298.483.59.725.882.483.579.95 1.18 1.433 1.748.495.573.956 1.141 1.467 1.669.253.264.483.534.748.781.259.247.511.495.764.731.247.242.511.455.77.669.259.214.511.422.759.618.523.377 1.029.714 1.512 1.04a61.839 61.839 0 001.76.989c.112.056.225.101.332.152.219.096.427.191.63.281.405.174.77.348 1.113.478.686.242 1.237.416 1.602.54l.568.18s-.18-.124-.495-.355z" fill="#4eb7ad"/><g><ellipse transform="rotate(100.195 228.312 118.135)" cx="228.31" cy="118.135" rx="21.386" ry="11.629" fill="#ddb58e"/><ellipse transform="rotate(169.801 90.054 118.143)" cx="90.053" cy="118.142" rx="11.629" ry="21.386" fill="#e8c59e"/><path d="M223.43 46.943l-63.653 9.218-65.396-8.33s-5.48 31.83-5.48 46.438c0 44.184 7.931 104.645 70.303 113.48 100.22-14.192 64.226-160.806 64.226-160.806z" fill="#e8c59e"/><path d="M159.209 207.749C259.426 193.557 223.43 46.943 223.43 46.943h-15.024c4.114 61.242 9.808 93.774-13.815 129.24-18.717 28.104-35.382 31.566-35.382 31.566z" fill="#ddb58e"/><path d="M99.832 58.966s15.794 14.636 59.146 14.636 57.28-10.106 57.28-10.106V52.727L99.832 58.966z" fill="#ddb58e"/><path d="M231.613 49.473C229.522 28.131 208.928 0 159.209 0S88.895 28.131 86.804 49.473c0 0-3.367 11.371-.961 47.719 4.339-.472 8.611.719 11.663 2.102l2.518-43.582h118.37l2.518 43.582c3.052-1.383 7.324-2.574 11.663-2.102 2.405-36.343-.962-47.719-.962-47.719z" fill="#917f77"/><path d="M176.216 69.139c25.641-2.085 66.11-8.729 59.871-65.801 0 0-6.093 10.1-18.059 8.476C201.61 9.583 188.16.016 160.934.016c-26.338 0-74.99 7.914-73.388 41.109 1.36 28.014 58.825 30.448 88.67 28.014z" fill="#4c3626"/><path d="M198.648 96.557c-16.378-.056-31.532 5.238-39.665 5.238s-23.286-5.3-39.665-5.238c-14.546.051-28.232 2.394-32.678 3.603a1.66 1.66 0 00-1.225 1.596v6.953c0 .652.382 1.242.978 1.506.63.275 1.416.719 1.933 1.355.972 1.197 2.737 13.467 8.161 17.75 3.507 2.765 13.467 5.25 22.145 5.081 8.673-.169 18.863-.59 24.483-4.851 7.762-5.879 8.819-16.744 10.713-19.554 1.518-2.248 3.873-2.602 5.154-2.602s3.637.348 5.154 2.602c1.894 2.81 2.951 13.675 10.713 19.554 5.626 4.26 15.811 4.682 24.483 4.851 8.673.169 18.638-2.31 22.145-5.081 5.424-4.283 7.189-16.553 8.161-17.75.517-.635 1.304-1.079 1.934-1.355.596-.264.978-.854.978-1.506v-6.953c0-.748-.5-1.4-1.225-1.596-4.444-1.209-18.136-3.553-32.677-3.603zm-51.827 20.492c-1.332 4.778-4.024 8.566-7.29 10.477-3.311 1.939-14.569 3.103-19.824 3.108-6.913.006-18.323-1.883-20.892-4.165-2.569-2.282-3.367-6.391-3.94-9.875-.573-3.479-1.669-9.426 1.265-12.157 3.648-3.389 19.335-4.525 23.505-4.333 8.673.399 25.343 2.338 27.85 6.391 1.596 2.556.439 6.564-.674 10.554zm76.255-.461c-.573 3.479-1.371 7.593-3.94 9.875s-13.973 4.17-20.892 4.165c-5.25 0-16.513-1.163-19.824-3.108-3.266-1.911-5.958-5.699-7.29-10.477-1.113-3.991-2.271-7.998-.686-10.561 2.512-4.052 19.178-5.992 27.85-6.391 4.165-.191 19.852.944 23.505 4.333 2.946 2.739 1.844 8.685 1.277 12.164z" fill="#3a3a38"/></g></svg>