<svg xmlns="http://www.w3.org/2000/svg" viewBox="0 0 318.965 318.965"><path d="M94.317 139.672s6.166 44.92-45.639 43.054c0 0 9.802 17.255 34.533 10.263 0 0-13.534 20.667-46.668 10.803 0 0 17.93 34.319 68.937 27.395h22.067v-91.414l-33.23-.101z" fill="#e59a23"/><path d="M116.276 192.989s-3.142 11.134-22.511 20.178l30.475 2.985 9.431-22.078-39.277-46.319-.006-.006c.007 0 4.465 29.744 21.888 45.24z" fill="#d88832"/><path d="M81.474 195.131c9.117-1.36 14.119-8.543 14.119-8.543-7.059 4.716-12.377 6.396-12.377 6.396s-.562.86-1.742 2.147z" fill="#d88832"/><path d="M224.609 139.672s-6.166 44.92 45.639 43.054c0 0-9.802 17.255-34.533 10.263 0 0 13.534 20.667 46.668 10.803 0 0-17.93 34.319-68.937 27.395h-22.067v-91.414l33.23-.101z" fill="#e59a23"/><path d="M202.644 192.989s3.142 11.134 22.511 20.178l-30.475 2.985-9.431-22.078 39.277-46.319.006-.006c-.001 0-4.464 29.744-21.888 45.24z" fill="#d88832"/><path d="M237.447 195.131c-9.117-1.36-14.119-8.543-14.119-8.543 7.059 4.716 12.377 6.396 12.377 6.396s.566.86 1.742 2.147z" fill="#d88832"/><path d="M303.673 253.518c-11.151-37.754-67.121-33.566-91.279-44.408-24.157-10.842-20.386-47.219-23.449-53.548h-58.932c-3.058 6.329.714 42.711-23.449 53.548-24.157 10.842-80.133 6.655-91.279 44.408-6.149 20.824-5.857 27.193-7.554 50.26 0 0 76.8 15.187 150.014 15.187s153.488-15.187 153.488-15.187c-1.703-23.073-1.411-29.436-7.56-50.26z" fill="#eae5dc"/><path d="M303.673 253.518c-11.151-37.754-67.121-33.566-91.279-44.408-24.157-10.842-20.386-47.219-23.449-53.548H157.74s-.719 51.024 23.438 61.866 80.133 6.655 91.279 44.408c5.857 19.83 5.868 26.552 7.324 47.073 19.234-2.816 31.442-5.126 31.442-5.126-1.693-23.078-1.401-29.441-7.55-50.265z" fill="#e0dbd3"/><path d="M212.396 209.109c-4.345-1.95-7.779-4.727-10.516-8.004-5.064 6.357-13.827 11.404-24.573 14.096a22.82 22.82 0 003.878 2.22c4.71 2.113 10.634 3.659 17.199 5.053 6.031-3.378 11.089-7.548 14.872-12.304l.416-.517c-.433-.173-.86-.358-1.276-.544z" fill="#d15852"/><g fill="#c6c1ba"><path d="M309.024 277.074c-7.357 1.726-16.963 3.777-28.53 5.817-26.501 4.676-69.016 10.252-121.079 10.252s-94.55-5.576-121.023-10.246c-11.539-2.04-21.117-4.086-28.463-5.812-.523 3.912-.866 7.869-1.208 12.534 7.217 1.664 16.339 3.58 27.209 5.508 27.024 4.783 70.381 10.488 123.485 10.488s96.489-5.705 123.535-10.488c10.898-1.928 20.043-3.85 27.277-5.519-.332-4.665-.68-8.622-1.203-12.534z"/><path d="M159.421 280.665c53.104 0 96.489-5.705 123.536-10.488a556.061 556.061 0 0023.916-4.755c-.815-3.496-1.855-7.357-3.198-11.904a4.897 4.897 0 00-.051-.157 539.453 539.453 0 01-23.129 4.586c-26.501 4.676-69.016 10.252-121.079 10.252s-94.55-5.576-121.023-10.246a531.195 531.195 0 01-23.067-4.581c-.017.051-.034.101-.045.152-1.343 4.553-2.383 8.42-3.198 11.916a548.259 548.259 0 0023.848 4.744c27.028 4.776 70.386 10.481 123.49 10.481zM91.962 215.174a843.76 843.76 0 01-5.109-.495c-11.275 2.288-24.157 4.305-35.949 8.054 13.186 2.001 28.912 3.974 46.724 5.463-2.345-4.563-4.149-9.026-5.666-13.022zM221.344 228.186c17.795-1.489 33.51-3.457 46.69-5.458-11.803-3.749-24.686-5.767-35.961-8.054-1.669.169-3.361.332-5.07.489-1.517 3.996-3.321 8.459-5.659 13.023z"/><g><path d="M106.036 241.293c-27.845-2.04-50.928-5.345-67.638-8.296a539.9 539.9 0 01-6.908-1.265c-4.227 2.895-7.925 6.363-10.865 10.578 4.631.95 9.741 1.933 15.305 2.923 20.257 3.586 49.692 7.689 85.535 9.521-6.346-3.794-11.377-8.459-15.429-13.461zM287.458 231.721c-2.231.422-4.553.849-6.958 1.27-16.699 2.945-39.76 6.25-67.565 8.29-4.052 5.002-9.083 9.667-15.434 13.461 35.792-1.832 65.205-5.93 85.456-9.516a588.94 588.94 0 0015.372-2.928c-2.946-4.214-6.644-7.682-10.871-10.577z"/></g></g><path d="M159.482 264.034c47.629 0 60.978-31.369 68.071-50.321-5.75-1.281-10.938-2.715-15.153-4.609-24.157-10.842-20.386-47.219-23.449-53.548h-58.938c-3.058 6.329.714 42.711-23.449 53.548-4.215 1.894-9.403 3.327-15.153 4.609 7.093 18.952 20.442 50.321 68.071 50.321z" fill="#e8c59e"/><g fill="#d15852"><path d="M303.673 253.518c-8.678-29.385-44.51-33.358-71.365-38.793 11.91 24.365 20.673 53.806 23.337 97.445 32.594-4.041 55.582-8.392 55.582-8.392-1.697-23.073-1.405-29.436-7.554-50.26zM86.504 214.752c-26.833 5.418-62.557 9.431-71.219 38.765-6.149 20.824-5.857 27.193-7.554 50.26 0 0 22.735 4.496 55.256 8.594l.191-.202c2.665-43.622 11.422-73.057 23.326-97.417z"/></g><path d="M86.532 214.747c16.075 56.223 58.398 55.661 72.882 55.661 14.49 0 56.824.562 72.894-55.683.006 0 .017 0 .022.006-4.193-.849-8.167-1.731-11.781-2.748-13.512 46.37-46.235 46.376-60.247 46.376h-1.771c-14.007 0-46.719 0-60.236-46.342-3.62 1.017-7.588 1.894-11.775 2.743.007-.013.012-.013.012-.013z" fill="#d15852"/><path d="M122.083 193.158c9.78 7.959 21.24 15.85 37.338 18.132 16.137-2.288 27.569-10.342 37.36-18.334-8.144-14.973-5.626-32.83-7.83-37.4h-58.938c-2.214 4.575.254 22.623-7.93 37.602z" fill="#cca281"/><ellipse transform="rotate(100.195 228.524 118.557)" cx="228.522" cy="118.557" rx="21.386" ry="11.629" fill="#ddb58e"/><ellipse transform="rotate(169.801 90.265 118.565)" cx="90.265" cy="118.565" rx="11.629" ry="21.386" fill="#e8c59e"/><path d="M223.642 47.365l-64.221-30.16-64.187 30.16s-35.989 146.614 64.187 160.806c100.215-14.192 64.221-160.806 64.221-160.806z" fill="#e8c59e"/><path d="M159.421 208.171c100.216-14.192 64.221-160.806 64.221-160.806h-15.024c4.114 61.242 9.808 93.774-13.815 129.24-18.717 28.103-35.382 31.566-35.382 31.566z" fill="#ddb58e"/><path d="M216.06 75.035c-26.867-1.619-56.695 12.27-56.695 12.27s-29.817-13.889-56.684-12.27c0 0-13.433 12.045-3.35 41.688-6.537-30.16 3.35-37.518 3.35-37.518 26.867-1.619 56.684 12.27 56.684 12.27s29.829-13.889 56.695-12.27c0 0 10.353 8.262 3.35 37.518 10.083-29.643-3.35-41.688-3.35-41.688z" fill="#ddb58e"/><path d="M231.359 39.457S222.192.045 159.421 0h-.102C96.548.045 87.381 39.457 87.381 39.457c-7.593 26.883-2.136 60.152-2.136 60.152l6.998 40.064 6.93.354.152-23.309c-10.083-29.643 3.35-41.688 3.35-41.688 26.867-1.619 56.684 12.27 56.684 12.27s29.829-13.889 56.695-12.27c0 0 13.433 12.045 3.35 41.688l.354 23.309 6.857-.36 6.874-40.058c.012 0 5.463-33.275-2.13-60.152z" fill="#e59a23"/><path d="M159.376 47.803C145.29 40.26 105.58 40.26 105.58 40.26c39.361 4.716 53.795 13.433 53.795 13.433s14.434-8.718 53.795-13.433c-.005.006-39.714.006-53.794 7.543z" fill="#f2ac2f"/></svg>