<svg xmlns="http://www.w3.org/2000/svg" viewBox="0 0 318.538 318.538"><circle cx="213.427" cy="184.603" r="41.581" fill="#2f3233"/><circle cx="105.112" cy="184.603" r="41.581" fill="#2f3233"/><path d="M129.359 236.836s-19.256-23.123-33.887-57.932c-12.573-29.907-27.384-60.422-26.833-100.721C69.163 39.867 91.33 0 157.946 0c58.32 0 72.135 26.653 69.364 44.841 0 0 8.813.781 13.467 6.835 7.891 10.269 8.836 53.93-.731 85.113-21.729 70.831-50.788 100.047-50.788 100.047h-59.899z" fill="#2f3233"/><path d="M295.387 253.091c-10.522-37.754-63.361-33.566-86.164-44.408s-19.245-47.219-22.134-53.548h-55.638c-2.889 6.329.674 42.711-22.134 53.548-22.803 10.842-75.642 6.655-86.164 44.408-5.806 20.824-5.525 27.187-7.133 50.26 0 0 72.5 15.187 141.611 15.187s144.888-15.187 144.888-15.187c-1.602-23.073-1.326-29.436-7.132-50.26z" fill="#606060"/><path d="M179.759 216.995c22.803 10.842 75.642 6.655 86.164 44.408 5.531 19.83 5.542 26.552 6.913 47.073 18.155-2.816 29.682-5.126 29.682-5.126-1.602-23.067-1.326-29.435-7.133-50.26-10.522-37.754-63.361-33.566-86.164-44.408-22.803-10.842-19.245-47.219-22.134-53.548h-29.456c0 .001-.68 51.025 22.128 61.861zM109.322 208.682s-17.008 20.088-33.24 24.882c0 0 33.83 55.582 83.191 80.431l-49.951-105.313z" fill="#515151"/><path d="M209.223 208.682s17.008 20.088 33.24 24.882c0 0-33.83 55.582-83.191 80.431l49.951-105.313z" fill="#515151"/><path d="M209.223 208.682c-6.396-3.041-10.713-8.088-13.686-13.917h-72.529c-2.973 5.829-7.29 10.876-13.686 13.917-.393.185-8.897 17.503-29.233 25.883 0 0 9.454 14.9 29.8 37.512s49.377 41.919 49.377 41.919 29.03-19.307 49.377-41.919 29.801-37.512 29.801-37.512c-20.324-8.38-28.828-25.697-29.221-25.883z" fill="#6d6d6d"/><path d="M209.223 208.682c-6.396-3.041-10.713-8.088-13.686-13.917h-32.128c3.266 9.724 8.369 18.441 16.35 22.235 11.736 5.576 31.419 7.178 49.203 12.562-13.54-8.846-19.413-20.728-19.739-20.88z" fill="#606060"/><path d="M199.291 200.678c-11.803-14.951-9.836-40.356-12.202-45.549h-55.638c-2.372 5.193-.405 30.599-12.202 45.549 4.721 53.171 40.024 113.312 40.024 113.312s35.207-59.612 40.018-113.312z" fill="#e8c59e"/><path d="M134.53 261.336c11.382 29.896 24.742 52.654 24.742 52.654s13.394-22.679 24.787-52.654H134.53z" fill="#eae5dc"/><path d="M179.759 216.995c4.44 2.113 10.022 3.653 16.204 5.042 1.534-7.121 2.698-14.293 3.333-21.364-11.803-14.951-9.836-40.356-12.202-45.549h-29.458c-.005.011-.685 51.035 22.123 61.871z" fill="#ddb58e"/><path d="M123.969 192.731c9.229 7.959 20.054 15.85 35.241 18.132 15.237-2.288 26.023-10.342 35.269-18.334-7.689-14.973-5.311-32.83-7.391-37.4H131.45c-2.085 4.575.242 22.623-7.481 37.602z" fill="#cca281"/><ellipse transform="rotate(100.195 224.155 118.131)" cx="224.153" cy="118.132" rx="21.386" ry="11.629" fill="#ddb58e"/><ellipse transform="rotate(169.801 94.214 118.138)" cx="94.213" cy="118.137" rx="11.629" ry="21.386" fill="#e8c59e"/><path d="M219.643 46.938l-59.91 9.218s-21.229.922-38.552 9.729c-15.901 8.088-28.002 23.91-28.159 28.378-1.551 44.156 7.464 104.645 66.171 113.48 94.331-14.192 60.45-160.805 60.45-160.805z" fill="#e8c59e"/><path d="M159.194 207.744c94.331-14.192 60.45-160.806 60.45-160.806h-14.141c3.873 61.242 9.229 93.774-13.006 129.24-17.616 28.103-33.303 31.566-33.303 31.566z" fill="#ddb58e"/><path d="M217.401 40.407S184.7 56.128 135.891 55.29c-43.031-.736-41.317 69.555-41.694 72.045 0 0 10.91-43.464 40.828-52.924 25.641-8.111 41.699-1.057 59.871.652 20.223 1.9 26.968-13.445 26.968-13.445l-4.463-21.211z" fill="#ddb58e"/><path d="M238.45 77.992l-11.584-28.525s-3.569-8.29-11.202-15.063c0 0-30.975 18.171-79.773 16.733-52.154-1.54-47.663 45.847-41.694 76.204 0 0 2.04-33.066 27.833-50.726 17.711-12.129 39.389-11.994 57.325-8.437 17.087 3.389 27.575 1.051 33.988-2.771 4.558 5.93 10.325 16.171 12.214 31.571l12.893-18.986z" fill="#2f3233"/><circle cx="228.22" cy="134.917" r="4.367" fill="#cc7d2e"/><circle cx="90.38" cy="134.917" r="4.367" fill="#cc7d2e"/></svg>