<svg xmlns="http://www.w3.org/2000/svg" viewBox="0 0 318.549 318.549"><path d="M295.51 253.102c-10.533-37.754-63.417-33.566-86.243-44.408-22.825-10.842-19.262-47.219-22.151-53.548h-55.683c-2.889 6.329.674 42.711-22.151 53.548-22.825 10.842-75.71 6.655-86.243 44.408-5.812 20.824-5.531 27.193-7.138 50.26 0 0 72.562 15.187 141.735 15.187s145.017-15.187 145.017-15.187c-1.612-23.073-1.336-29.436-7.143-50.26z" fill="#348789"/><path d="M179.776 217.006c22.825 10.842 75.71 6.655 86.243 44.408 5.536 19.83 5.548 26.552 6.919 47.073 18.171-2.816 29.705-5.126 29.705-5.126-1.608-23.067-1.326-29.435-7.138-50.26-10.533-37.754-63.417-33.566-86.243-44.408-22.825-10.842-19.262-47.219-22.151-53.548h-29.48c0 .001-.68 51.025 22.145 61.861zM111.801 207.328l-3.637 28.378 51.047 30.261z" fill="#2e7f7f"/><path fill="#2e7f7f" d="M159.211 265.967l49.95-30.261-2.957-28.716z"/><path fill="#e8c59e" d="M159.211 265.967L195.3 192.04h-72.623z"/><path d="M162.549 192.04c3.204 10.797 8.498 20.824 17.227 24.967.877.416 1.799.809 2.754 1.186l12.764-26.153h-32.745z" fill="#ddb58e"/><path d="M159.211 265.967l-36.225-74.85s-3.204 4.817-11.191 16.21l.506 24.933 46.91 33.707z" fill="#5c9ea0"/><path d="M159.211 265.967l35.354-74.85s3.648 4.48 11.635 15.873l-.955 25.27-46.034 33.707z" fill="#5c9ea0"/><path d="M205.558 224.06l.646-17.07c-7.987-11.393-11.635-15.873-11.635-15.873l-12.668 26.822c6.413 2.614 14.732 4.317 23.657 6.121z" fill="#51989e"/><g fill="#e0dbd3"><ellipse cx="159.211" cy="281.43" rx="6.329" ry="6.7"/><ellipse cx="159.211" cy="306.374" rx="6.329" ry="6.7"/></g><path d="M123.936 192.742c9.24 7.959 20.071 15.85 35.275 18.132 15.249-2.288 26.046-10.342 35.297-18.334-7.695-14.973-5.311-32.83-7.402-37.4h-55.683c-2.086 4.575.247 22.623-7.487 37.602z" fill="#cca281"/><path d="M15.896 303.361s24.399 5.109 58.393 9.398l-56.161-37.265c-1.046 7.689-1.361 15.3-2.232 27.867zM300.412 275.489l-55.706 36.961c33.639-4.221 57.943-9.089 57.943-9.089-.877-12.573-1.192-20.183-2.237-27.872z" fill="#e8c59e"/><path d="M302.649 303.361c-.877-12.568-1.192-20.178-2.237-27.873l-28.423 18.857c.309 4.058.579 8.594.95 14.141 18.176-2.814 29.71-5.125 29.71-5.125z" fill="#ddb58e"/><path d="M248.561 218.052l-21.297-4.345s-4.53 43.374-5.93 101.373a906.177 906.177 0 0021.667-2.422c1.412-54.885 5.56-94.606 5.56-94.606zM69.961 218.052s4.165 39.845 5.57 94.859c6.88.86 14.141 1.681 21.667 2.422-1.394-58.128-5.935-101.626-5.935-101.626l-21.302 4.345z" fill="#eae5dc"/><path d="M225.905 228.669c7.459 2.063 14.687 4.693 20.982 8.453.95-12.112 1.675-19.071 1.675-19.071l-21.297-4.345c0 .001-.568 5.414-1.36 14.963z" fill="#e0dbd3"/><path d="M112.475 183.738s-56.358-35.646-47.73-107.444C69.32 38.248 91.325 0 157.94 0c58.319 0 72.135 25.534 68.993 44.47 0 0 8.504-.146 14.063 5.092 8.071 7.605 15.355 52.097 2.467 87.232-14.524 39.586-37.422 46.943-37.422 46.943h-93.566v.001z" fill="#2f3233"/><ellipse transform="rotate(100.195 224.155 118.142)" cx="224.154" cy="118.142" rx="21.386" ry="11.629" fill="#ddb58e"/><ellipse transform="rotate(169.801 94.214 118.15)" cx="94.214" cy="118.149" rx="11.629" ry="21.386" fill="#e8c59e"/><path d="M219.643 46.949l-59.91 9.218s-21.229.922-38.552 9.729c-15.901 8.088-28.002 23.91-28.159 28.378-1.551 44.156 7.464 104.645 66.172 113.48 94.33-14.191 60.449-160.805 60.449-160.805z" fill="#e8c59e"/><path d="M159.194 207.755c94.331-14.192 60.45-160.806 60.45-160.806h-14.141c3.873 61.242 9.229 93.774-13.006 129.24-17.616 28.103-33.303 31.566-33.303 31.566z" fill="#ddb58e"/><path d="M217.401 40.418s-32.701 15.721-81.51 14.883c-43.031-.736-42.464 36.146-42.84 38.636 0 0 10.033-18.593 38.012-23.685 25.422-4.626 45.662 3.114 63.839 4.822 20.223 1.9 26.968-13.445 26.968-13.445l-4.469-21.211z" fill="#ddb58e"/><path d="M215.664 34.415s-30.975 18.171-79.773 16.733c-52.154-1.54-43.11 41.654-42.84 42.795 0 0 5.379-20.24 33.094-26.76 17.992-4.232 35.286-2.552 53.222 1.006 40.339 8.004 43.897-15.918 43.897-15.918s2.022-9.318-7.6-17.856z" fill="#2f3233"/></svg>