<svg xmlns="http://www.w3.org/2000/svg" viewBox="0 0 303.502 303.502"><path d="M295.942 234.663c-11.151-37.754-67.121-33.566-91.279-44.408-24.157-10.842-20.386-47.219-23.449-53.548h-58.932c-3.058 6.329.714 42.711-23.449 53.548-24.158 10.842-80.133 6.655-91.279 44.408-6.149 20.825-5.857 27.193-7.554 50.26 0 0 76.8 15.187 150.014 15.187s153.488-15.187 153.488-15.187c-1.703-23.073-1.411-29.435-7.56-50.26z" fill="#c6c1ba"/><path d="M173.452 198.568c24.157 10.842 80.133 6.655 91.279 44.408 5.857 19.83 5.868 26.552 7.324 47.073 19.234-2.816 31.442-5.126 31.442-5.126-1.697-23.067-1.405-29.435-7.554-50.26-11.151-37.754-67.121-33.566-91.279-44.408-24.157-10.842-20.386-47.219-23.449-53.548h-31.206c.005 0-.714 51.024 23.443 61.861z" fill="#bcb6af"/><path fill="#afa9a3" d="M201.426 188.552l-33.049 28.716-16.688-27.952z"/><path fill="#afa9a3" d="M101.503 188.889l33.583 28.379 16.603-27.952z"/><path d="M151.689 189.316l-38.344-16.637s-3.389 4.817-11.843 16.21l31.723 22.853 18.464-22.426zM151.689 189.316l37.422-16.637s3.861 4.48 12.315 15.873l-32.195 23.191-17.542-22.427z" fill="#515151"/><path d="M189.111 172.679l-28.867 12.832c3.26 5.778 7.548 10.516 13.208 13.057 2.799 1.253 6.02 2.31 9.555 3.249l18.419-13.265c-8.453-11.393-12.315-15.873-12.315-15.873z" fill="#494948"/><g fill="#2f3233"><circle cx="151.689" cy="228.655" r="6.346"/><circle cx="151.689" cy="260.423" r="6.346"/><circle cx="151.689" cy="292.19" r="6.346"/></g><path d="M210.492 88.78H92.746c-7.858 0-14.434-5.947-15.226-13.765l-2.248-22.213c0-8.24 6.683-14.923 14.923-14.923h122.844c8.24 0 14.923 6.683 14.923 14.923l-2.243 22.207c-.793 7.819-7.375 13.771-15.227 13.771z" fill="#e0dbd3"/><ellipse transform="rotate(100.195 220.793 99.702)" cx="220.791" cy="99.703" rx="21.386" ry="11.629" fill="#ddb58e"/><ellipse transform="rotate(169.801 82.534 99.71)" cx="82.534" cy="99.71" rx="11.629" ry="21.386" fill="#e8c59e"/><path d="M152.262 3.392c-70.213 0-71.517 41.952-70.865 75.164.866 43.903 9.19 102.104 70.291 110.76 61.276-8.678 71.629-66.857 70.426-110.76-.769-27.906.361-75.164-69.852-75.164z" fill="#e8c59e"/><path d="M222.115 78.557c-.534-19.464-.152-48.349-23.697-64.036 5.992 30.306 7.475 75.344 5.396 95.91-1.714 16.969-6.441 31.869-16.738 47.326-18.717 28.103-35.387 31.565-35.387 31.565 61.276-8.684 71.629-66.863 70.426-110.765z" fill="#ddb58e"/><path d="M163.931 140.102c-6.143.006-12.27 5.84-12.27 5.84s-6.126-5.834-12.27-5.84c-9.932-.011-17.525 26.288-42.059 25.995 0 0 12.562 9.347 27.164 9.347s27.164-11.978 27.164-11.978 12.562 11.978 27.164 11.978 27.164-9.347 27.164-9.347c-24.532.293-32.131-26-42.057-25.995z" fill="#e0dbd3"/><path d="M197.413 60.149c-.365 0-.731-.141-1.006-.416-.056-.051-5.514-5.311-16.165-5.311-5.491 0-9.555 1.355-13.86 2.788-4.328 1.444-8.808 2.934-14.765 2.934-5.958 0-10.432-1.495-14.765-2.934-4.305-1.433-8.369-2.788-13.86-2.788-10.651 0-16.114 5.255-16.165 5.311-.562.556-1.467.551-2.023-.011s-.556-1.461 0-2.018c.253-.253 6.278-6.143 18.188-6.143 5.958 0 10.432 1.495 14.765 2.934 4.305 1.433 8.369 2.788 13.86 2.788s9.555-1.355 13.86-2.788c4.328-1.444 8.808-2.934 14.765-2.934 11.904 0 17.935 5.89 18.188 6.143a1.435 1.435 0 01-1.017 2.445zM197.413 50.808c-.365 0-.731-.141-1.006-.416-.056-.051-5.514-5.311-16.165-5.311-5.491 0-9.555 1.355-13.86 2.788-4.328 1.444-8.808 2.934-14.765 2.934-5.958 0-10.432-1.495-14.765-2.934-4.305-1.433-8.369-2.788-13.86-2.788-10.651 0-16.114 5.255-16.165 5.311-.562.556-1.467.551-2.023-.011s-.556-1.461 0-2.018c.253-.253 6.278-6.143 18.188-6.143 5.958 0 10.432 1.495 14.765 2.934 4.305 1.433 8.369 2.788 13.86 2.788s9.555-1.355 13.86-2.788c4.328-1.444 8.808-2.934 14.765-2.934 11.904 0 17.935 5.89 18.188 6.143a1.435 1.435 0 01-1.017 2.445z" fill="#ddb58e"/><path d="M219.541 39.904l-1.551-1.18c-5.042-.826-8.532 3.653-8.628 8.763l-.5 27.603c-.09 4.845 3.934 8.757 8.779 8.532.86-2.569 2.349-4.215 4.48-4.941l.41-16.069-2.99-22.708zM82.927 41.084l2.602-2.456c5.042-.826 8.29 3.749 8.38 8.858l.5 27.603c.09 4.845-3.934 8.757-8.779 8.532-1.062-2.681-2.467-4.339-4.232-4.901l-.658-16.104 2.187-21.532z" fill="#e0dbd3"/><path d="M219.586 85.987c-2.484-1.118-11.798-4.817-26.94-5.12-17.868-.354-33.971 5.435-33.971 5.435s-2.771-.568-6.919-.568c-4.154 0-6.919.568-6.919.568s-16.103-5.789-33.971-5.435c-15.142.298-24.455 3.996-26.94 5.12a1.14 1.14 0 00-.674 1.04v10.595c0 .562.416 1.029.967 1.124.332.056.641.191.725.489.214.708 2.4 21.184 6.003 23.59s14.102 3.322 21.847 3.322 17.845-1.203 21.656-3.884c2.119-1.489 6.526-8.392 9.038-14.76 2.012-5.104 2.608-9.218 3.018-10.258.916-2.333 4.013-2.518 5.244-2.518 1.237 0 4.328.191 5.244 2.518.41 1.034 1 5.154 3.018 10.258 2.512 6.368 6.925 13.27 9.038 14.76 3.811 2.681 13.911 3.884 21.656 3.884s18.245-.916 21.847-3.322c3.603-2.406 5.789-22.882 6.003-23.59.09-.292.399-.427.725-.489.556-.096.967-.562.967-1.124V87.027a1.109 1.109 0 00-.662-1.04zm-79.824 19.262c-1.366 4.002-4.98 11.179-7.723 13.652-2.473 2.231-9.561 3.811-18.126 3.811s-17.267-1.169-19.801-2.76c-2.541-1.585-4.317-9.898-4.631-12.882-.315-2.985-1.652-12.124.573-16.058s16.693-6.031 21.004-6.031c15.614 0 28.047 3.282 30.267 6.076 2.226 2.804-.349 10.634-1.563 14.192zm74.271 1.827c-.315 2.985-2.096 11.297-4.631 12.882-2.541 1.585-11.236 2.76-19.801 2.76-8.566 0-15.653-1.579-18.126-3.811-2.743-2.473-6.357-9.651-7.723-13.652-1.214-3.558-3.783-11.393-1.563-14.186s14.659-6.076 30.267-6.076c4.317 0 18.784 2.096 21.004 6.031 2.22 3.933.888 13.067.573 16.052z" fill="#4c3626"/></svg>