<svg xmlns="http://www.w3.org/2000/svg" viewBox="0 0 317.987 317.987"><path d="M303.184 252.54c-11.151-37.754-67.121-33.566-91.279-44.408-24.157-10.842-20.386-47.219-23.449-53.548h-58.932c-3.058 6.329.714 42.711-23.449 53.548-24.157 10.842-80.133 6.655-91.279 44.408-6.149 20.824-5.857 27.193-7.554 50.26 0 0 76.8 15.187 150.014 15.187S310.745 302.8 310.745 302.8c-1.704-23.073-1.412-29.436-7.561-50.26z" fill="#c65044"/><g fill="#eae5dc"><path d="M87.544 213.46c-1.838.382-3.721.753-5.643 1.124.646.41 1.411.658 2.237.658a4.16 4.16 0 003.406-1.782zM104.928 211.082c0 2.299 1.86 4.159 4.159 4.159s4.159-1.86 4.159-4.159a4.156 4.156 0 00-4.901-4.092 30.4 30.4 0 01-2.096 1.057 4.14 4.14 0 00-1.321 3.035z"/><circle cx="134.038" cy="211.082" r="4.159"/><circle cx="158.982" cy="211.082" r="4.159"/><circle cx="183.932" cy="211.082" r="4.159"/><path d="M204.722 211.082c0 2.299 1.86 4.159 4.159 4.159a4.156 4.156 0 002.827-7.205c-.708-.326-1.4-.669-2.063-1.04a4.157 4.157 0 00-4.923 4.086zM233.826 215.241c.826 0 1.591-.242 2.237-.658a425.116 425.116 0 01-5.649-1.124 4.165 4.165 0 003.412 1.782z"/><circle cx="34.244" cy="236.026" r="4.159"/><circle cx="59.188" cy="236.026" r="4.159"/><circle cx="84.138" cy="236.026" r="4.159"/><circle cx="109.088" cy="236.026" r="4.159"/><circle cx="134.038" cy="236.026" r="4.159"/><circle cx="158.982" cy="236.026" r="4.159"/><circle cx="183.932" cy="236.026" r="4.159"/><circle cx="208.882" cy="236.026" r="4.159"/><circle cx="233.826" cy="236.026" r="4.159"/><circle cx="258.776" cy="236.026" r="4.159"/><circle cx="283.727" cy="236.026" r="4.159"/><path d="M13.453 260.976a4.13 4.13 0 00-.489-1.95c-.511 1.917-.961 3.71-1.36 5.413a4.166 4.166 0 001.849-3.463z"/><circle cx="34.244" cy="260.976" r="4.159"/><circle cx="59.188" cy="260.976" r="4.159"/><circle cx="84.138" cy="260.976" r="4.159"/><circle cx="109.088" cy="260.976" r="4.159"/><circle cx="134.038" cy="260.976" r="4.159"/><circle cx="158.982" cy="260.976" r="4.159"/><circle cx="183.932" cy="260.976" r="4.159"/><circle cx="208.882" cy="260.976" r="4.159"/><circle cx="233.826" cy="260.976" r="4.159"/><circle cx="258.776" cy="260.976" r="4.159"/><circle cx="283.727" cy="260.976" r="4.159"/><path d="M306.383 264.444a168.745 168.745 0 00-1.371-5.441 4.16 4.16 0 00-.5 1.973 4.159 4.159 0 001.871 3.468zM13.453 285.926a4.156 4.156 0 00-4.159-4.159c-.169 0-.332.011-.495.034a326.41 326.41 0 00-.652 8.116 4.152 4.152 0 005.306-3.991z"/><circle cx="34.244" cy="285.926" r="4.159"/><circle cx="59.188" cy="285.926" r="4.159"/><circle cx="84.138" cy="285.926" r="4.159"/><circle cx="109.088" cy="285.926" r="4.159"/><circle cx="134.038" cy="285.926" r="4.159"/><circle cx="158.982" cy="285.926" r="4.159"/><circle cx="183.932" cy="285.926" r="4.159"/><circle cx="208.882" cy="285.926" r="4.159"/><circle cx="233.826" cy="285.926" r="4.159"/><circle cx="258.776" cy="285.926" r="4.159"/><circle cx="283.727" cy="285.926" r="4.159"/><path d="M308.671 281.767c-2.299 0-4.159 1.86-4.159 4.159a4.156 4.156 0 005.322 3.99 357.62 357.62 0 00-.652-8.116c-.169-.016-.338-.033-.511-.033zM32.423 307.138c1.506.236 3.069.478 4.682.725a4.152 4.152 0 00-2.861-1.147 4.132 4.132 0 00-1.821.422zM59.188 306.717a4.15 4.15 0 00-4.131 3.71c2.67.354 5.418.714 8.24 1.068.028-.202.051-.41.051-.618a4.158 4.158 0 00-4.16-4.16zM88.297 310.876c0-2.299-1.86-4.159-4.159-4.159a4.156 4.156 0 00-3.187 6.829c1.9.202 3.816.399 5.761.596a4.174 4.174 0 001.585-3.266z"/><circle cx="109.088" cy="310.876" r="4.159"/><circle cx="134.038" cy="310.876" r="4.159"/><circle cx="158.982" cy="310.876" r="4.159"/><circle cx="183.932" cy="310.876" r="4.159"/><circle cx="208.882" cy="310.876" r="4.159"/><path d="M233.826 306.717a4.156 4.156 0 00-2.838 7.194c2.102-.214 4.182-.427 6.239-.646a4.121 4.121 0 00.759-2.389 4.158 4.158 0 00-4.16-4.159zM258.776 306.717a4.156 4.156 0 00-4.142 4.541c2.822-.348 5.57-.697 8.24-1.051a4.155 4.155 0 00-4.098-3.49zM281.085 307.661c1.45-.214 2.855-.427 4.221-.635a4.108 4.108 0 00-1.579-.315 4.181 4.181 0 00-2.642.95z"/></g><path d="M303.184 252.54c-11.151-37.754-67.121-33.566-91.279-44.408-24.157-10.842-20.386-47.219-23.449-53.548H157.25s-.719 51.024 23.438 61.866 80.133 6.655 91.279 44.408c5.857 19.83 5.868 26.552 7.324 47.073 19.234-2.816 31.442-5.126 31.442-5.126-1.692-23.078-1.4-29.441-7.549-50.265z" opacity=".25" fill="#a02d2a"/><path opacity=".25" fill="#a02d2a" d="M208.668 206.428l-33.049 28.716-16.688-27.951zM108.745 206.766l33.583 28.378 16.603-27.951z"/><path d="M158.931 207.193l-38.344-16.637s-3.389 4.817-11.843 16.21l31.723 22.853 18.464-22.426zM158.931 207.193l37.422-16.637s3.861 4.48 12.315 15.873l-32.195 23.191-17.542-22.427z" fill="#c65044"/><path d="M196.353 190.556l-28.867 12.832c3.26 5.778 7.548 10.516 13.208 13.057 2.799 1.253 6.02 2.31 9.555 3.249l18.419-13.265c-8.453-11.394-12.315-15.873-12.315-15.873z" fill="#ba443e"/><g fill="#4c3626"><circle cx="158.931" cy="246.531" r="6.346"/><circle cx="158.931" cy="278.299" r="6.346"/><circle cx="158.931" cy="310.067" r="6.346"/></g><path d="M121.594 192.18c9.78 7.959 21.24 15.85 37.338 18.132 16.137-2.288 27.569-10.342 37.36-18.334-8.144-14.973-5.626-32.83-7.83-37.4h-58.938c-2.214 4.575.253 22.623-7.93 37.602z" fill="#c69e7f"/><path d="M91.647 125.289s-28.176-36.793-9.083-58.921c0 0-2.827-66.368 77.182-66.368 35.949 0 45.544 23.056 45.544 23.056s-.916-6.874 4.092-7.588c0 0-1.832 4.615 0 7.796 0 0 6.363-4.851 11.775.635 0 0-8.037-.399-9.072 5.727 0 0 51.637 16.57 14.394 92.043l-134.832 3.62z" fill="#393c3d"/><ellipse transform="rotate(100.195 228.034 117.579)" cx="228.033" cy="117.579" rx="21.386" ry="11.629" fill="#ddb58e"/><ellipse transform="rotate(169.801 89.776 117.587)" cx="89.776" cy="117.587" rx="11.629" ry="21.386" fill="#e8c59e"/><path d="M206.47 46.162s-8.487 29.789-39.316 40.35c-19.076 6.537-44.763 1.731-61.574-2.878-8.583-2.355-17.047 3.631-17.328 12.433v.36c0 44.184 8.302 101.924 70.674 110.76 61.214-8.667 71.607-66.739 70.426-110.631-16.418-6.058-21.645-29.221-22.882-50.394z" fill="#e8c59e"/><path d="M229.358 96.562c-16.423-6.059-21.651-29.227-22.887-50.4 0 0-8.487 29.789-39.316 40.35-19.076 6.537-44.763 1.731-61.574-2.878-8.583-2.355-17.047 3.631-17.328 12.433v.185c1.827-7.144 9.325-11.584 16.912-9.504 16.806 4.615 42.492 9.415 61.574 2.878 30.829-10.567 38.181-33.223 38.181-33.223 1.237 21.173 7.593 37.208 24.017 43.273.163-.067.315-.141.478-.214-.012-.966-.029-1.939-.057-2.9z" fill="#ddb58e"/><path d="M209.77 69.207c3.468 47.056 5.047 75.642-15.457 106.421-18.717 28.103-35.387 31.565-35.387 31.565 61.214-8.667 71.607-66.739 70.426-110.631-10.426-3.85-16.339-14.602-19.582-27.355z" fill="#ddb58e"/></svg>