<svg xmlns="http://www.w3.org/2000/svg" viewBox="0 0 318.538 318.538"><path d="M295.387 253.091c-10.522-37.754-63.361-33.566-86.164-44.408s-19.245-47.219-22.134-53.548h-55.638c-2.889 6.329.674 42.711-22.134 53.548-22.803 10.842-75.642 6.655-86.164 44.408-5.806 20.824-5.525 27.187-7.133 50.26 0 0 72.5 15.187 141.611 15.187s144.888-15.187 144.888-15.187c-1.602-23.073-1.326-29.436-7.132-50.26z" fill="#e8c59e"/><path d="M179.759 216.995c22.803 10.842 75.642 6.655 86.164 44.408 5.531 19.83 5.542 26.552 6.913 47.073 18.155-2.816 29.682-5.126 29.682-5.126-1.602-23.067-1.326-29.435-7.133-50.26-10.522-37.754-63.361-33.566-86.164-44.408-22.803-10.842-19.245-47.219-22.134-53.548h-29.456c0 .001-.68 51.025 22.128 61.861z" fill="#ddb58e"/><path d="M255.835 296.723c-.163-7.492-4.884-11.938-12.056-14.147.792-26.67 5.705-50.614 8.695-62.985-6.852-1.759-13.821-3.097-20.369-4.44-3.221 13.332-8.184 38.012-9.083 66.003-8.56.748-17.711 2.737-26.018 5.413-21.156 6.823-54.458 6.823-75.614 0-8.307-2.681-17.458-4.665-26.018-5.413-.905-28.092-5.868-52.676-9.083-65.975-6.542 1.338-13.501 2.681-20.341 4.44 2.985 12.332 7.869 36.186 8.667 62.957-7.172 2.209-11.893 6.66-12.056 14.147-.09 4.215-.32 9.836-.618 14.366 26.636 3.749 61.574 7.447 95.691 7.447 34.741 0 71.168-3.839 98.805-7.655a363.621 363.621 0 01-.602-14.158z" fill="#f4e9d7"/><path d="M228.974 229.563c7.031 2.13 13.765 4.851 19.593 8.645a325.706 325.706 0 013.906-18.621c-6.852-1.759-13.821-3.097-20.369-4.44a325.3 325.3 0 00-3.13 14.416z" fill="#ede2d1"/><path d="M89.953 304.519c-1.287-.039-2.237-1.175-3.007-2.215-.067 1.422-.989 3.344-2.456 3.698-1.405.343-3.333.073-3.805-1.529-.163-.556-.281-1.079-.135-1.658.073-.304.511-1.428.837-1.473-1.304.18-2.681-.461-3.389-1.568s-.703-2.63.011-3.738 2.096-1.737 3.4-1.546c-1.124-1.057-1.298-2.979-.371-4.21.922-1.237 2.816-1.619 4.142-.837 1.326.781 1.922 2.614 1.298 4.024.399-1 1.18-1.86 2.175-2.276s2.192-.354 3.103.225 1.478 1.686 1.343 2.754c-.191 1.518-1.607 2.569-3.013 3.164.63-.27 1.872.568 2.299.984 1.947 1.885.418 6.286-2.432 6.201z" fill="#e0605c"/><path d="M83.467 295.594c.545-.483 1.242-.804 1.967-.837.725-.034 1.473.242 1.962.776.523.579.708 1.4.658 2.181-.067.95-.483 1.889-1.208 2.507-.725.618-1.765.877-2.675.585-1.012-.326-1.748-1.315-1.86-2.372-.12-1.053.358-2.138 1.156-2.84z" fill="#f2ac2f"/><path d="M125.717 311.264c.135-1.068-.433-2.175-1.343-2.754-.911-.579-2.108-.641-3.103-.225s-1.776 1.276-2.175 2.276c.624-1.411.034-3.249-1.298-4.024-1.332-.781-3.221-.399-4.142.837s-.753 3.159.371 4.21c-1.304-.185-2.687.444-3.4 1.546-.635.989-.708 2.304-.214 3.367 5.081.41 10.246.77 15.457 1.074-.022-.821-.292-1.602-.871-2.164-.427-.416-1.669-1.253-2.299-.984 1.41-.59 2.826-1.647 3.017-3.159z" fill="#e0605c"/><path d="M120.67 314.811c.056-.776-.135-1.602-.658-2.181-.489-.54-1.237-.809-1.962-.776-.725.034-1.422.354-1.967.837-.798.703-1.27 1.787-1.158 2.844.051.489.236.956.517 1.36 1.383.101 2.765.197 4.159.292.636-.617 1.007-1.488 1.069-2.376z" fill="#f2ac2f"/><path d="M142.899 300.63c-.753.298-1.585-.129-2.288-.54.315.837.253 2.175-.506 2.748-.731.545-1.911.866-2.58.056-.236-.281-.427-.556-.489-.922-.034-.191-.056-.95.118-1.057a2.228 2.228 0 01-2.349-.067c-.686-.466-1.057-1.349-.916-2.164s.787-1.523 1.585-1.737c-.911-.332-1.484-1.4-1.259-2.344.23-.944 1.225-1.63 2.186-1.512.961.124 1.759 1.034 1.748 2.007-.017-.68.219-1.371.691-1.855.472-.489 1.18-.748 1.849-.641.669.112 1.27.607 1.461 1.259.264.922-.292 1.883-.956 2.574.298-.309 1.22-.135 1.574 0 1.598.614 1.801 3.543.131 4.195z" fill="#e0605c"/><path d="M136.942 297.078c.197-.41.517-.77.933-.972.41-.197.911-.225 1.326-.034.444.202.759.635.916 1.096.197.568.191 1.214-.079 1.748-.264.534-.804.944-1.4 1-.663.062-1.338-.326-1.664-.911-.33-.584-.319-1.326-.032-1.927z" fill="#f2ac2f"/><path d="M166.838 306.335c1.889.63 4.26-.877 5.328-2.422.135 1.697.399 3.625 1.815 4.57 3.125 2.085 7.908-1.765 7.048-5.238-.191-.764-.995-2.563-1.883-2.704 1.99.315 4.305.124 5.576-1.439.894-1.102 1.034-2.737.422-4.019-.613-1.282-1.911-2.186-3.311-2.411s-2.878.185-4.019 1.029c1.096-.742 1.737-2.04 1.793-3.35-2.675.36-5.413.652-8.195.866.006.034.011.067.022.096-.039-.034-.079-.062-.118-.09-1.99.152-4.002.264-6.02.343-.854.86-1.377 2.057-1.366 3.271.017 1.731 1.113 3.412 2.698 4.12-.393-.174-1.669.781-1.962 1.062-.568.545-.798 1.208-1 1.95-.605 2.123 1.362 3.764 3.172 4.366z" fill="#e0605c"/><path d="M172.953 293.986c.944-.157 1.95-.034 2.782.438s1.478 1.298 1.647 2.237c.185 1.012-.185 2.063-.787 2.895-.736 1.017-1.86 1.776-3.103 1.962-1.242.185-2.585-.253-3.395-1.208-.905-1.068-1.04-2.692-.427-3.951.613-1.26 1.9-2.142 3.283-2.373z" fill="#f2ac2f"/><path d="M202.253 308.982c.264-.585.972-.804 1.602-.961-.641-.304-1.349-1.096-1.231-1.844.112-.714.607-1.551 1.439-1.461.292.034.551.079.793.253.124.096.562.511.517.669a1.772 1.772 0 011.377-1.265 1.764 1.764 0 011.72.725c.371.54.399 1.304.062 1.866.703-.315 1.624-.028 2.012.641s.208 1.607-.41 2.074-1.574.382-2.108-.174c.388.377.63.905.635 1.439 0 .54-.259 1.079-.697 1.388-.444.309-1.062.36-1.529.09-.663-.377-.877-1.237-.882-2.001 0 .343-.624.753-.894.871-1.259.54-2.996-1.012-2.406-2.31z" fill="#e0605c"/><path d="M207.615 307.706c.118.343.129.725.006 1.068a1.236 1.236 0 01-.736.753c-.365.129-.781.056-1.13-.118-.427-.214-.781-.585-.922-1.04-.146-.455-.067-.984.242-1.343.343-.405.944-.556 1.45-.405.511.158.922.585 1.09 1.085z" fill="#f2ac2f"/><path d="M237.073 289.849c-.326.045-.759 1.169-.837 1.473-.146.579-.028 1.096.135 1.658.472 1.602 2.4 1.872 3.805 1.529 1.467-.354 2.394-2.276 2.456-3.698.77 1.04 1.714 2.175 3.007 2.215 2.85.09 4.384-4.311 2.428-6.205-.427-.416-1.669-1.253-2.299-.984.826-.354 1.658-.866 2.243-1.534-1.287-.686-2.704-1.259-4.238-1.731.028-.882.056-1.759.09-2.636a4.182 4.182 0 00-1.709 2.035c.624-1.411.034-3.249-1.298-4.024-1.332-.781-3.221-.399-4.142.837-.922 1.237-.753 3.159.371 4.21-1.304-.185-2.687.444-3.4 1.546-.714 1.102-.719 2.625-.011 3.738.712 1.111 2.095 1.751 3.399 1.571z" fill="#e0605c"/><path d="M239.153 284.1c.545-.483 1.242-.804 1.967-.837.725-.034 1.473.242 1.962.776.523.579.708 1.4.658 2.181-.067.95-.483 1.889-1.208 2.507-.725.618-1.765.877-2.675.585-1.012-.326-1.748-1.315-1.86-2.372-.115-1.053.357-2.138 1.156-2.84z" fill="#f2ac2f"/><g><path d="M247.437 308.763c-.911-.579-2.108-.641-3.103-.225s-1.776 1.276-2.175 2.276c.624-1.411.034-3.249-1.298-4.024-1.332-.781-3.221-.399-4.142.837s-.753 3.159.371 4.21c-1.304-.185-2.687.444-3.4 1.546a3.478 3.478 0 00-.208.377 921.635 921.635 0 0015.215-1.855c.034-.129.067-.264.084-.399.135-1.057-.433-2.164-1.344-2.743z" fill="#e0605c"/><path d="M242.834 312.664a2.575 2.575 0 00-1.714-.551c-.725.034-1.422.354-1.967.837-.067.062-.129.124-.191.185 1.303-.157 2.596-.314 3.872-.471z" fill="#f2ac2f"/></g><g><path d="M72.451 255.266c1.023-.871 1.641-2.422 1.697-3.659.882 1.192 1.973 2.501 3.457 2.546 3.277.101 5.042-4.963 2.793-7.133-.495-.478-1.922-1.439-2.647-1.13 1.619-.686 3.249-1.9 3.462-3.642.152-1.231-.5-2.501-1.546-3.17-1.045-.663-2.422-.736-3.569-.259s-2.046 1.467-2.501 2.619c.719-1.624.039-3.732-1.489-4.631-.776-.455-1.714-.562-2.591-.382a331.917 331.917 0 012.934 18.841z" fill="#e0605c"/><path d="M71.748 250.022a3.428 3.428 0 002.276-.809c.837-.708 1.315-1.793 1.388-2.883.062-.894-.152-1.844-.753-2.507-.562-.618-1.422-.933-2.254-.894a3.543 3.543 0 00-1.658.523c.338 2.118.675 4.31 1.001 6.57z" fill="#f2ac2f"/></g><g><path d="M91.527 272.386c-.219.028-.517.793-.568.995-.096.393-.017.742.09 1.118.32 1.085 1.624 1.265 2.574 1.034.658-.157 1.152-.781 1.422-1.467a307.639 307.639 0 00-.691-9.538 1.794 1.794 0 00-.27-.197c-.899-.528-2.181-.27-2.805.568-.624.837-.511 2.136.253 2.85a2.39 2.39 0 00-2.299 1.045 2.392 2.392 0 00-.006 2.524c.485.759 1.423 1.192 2.3 1.068z" fill="#e0605c"/><path d="M93.41 272.026a1.89 1.89 0 001.506-.191 271.096 271.096 0 00-.275-3.878c-.124-.022-.253-.028-.382-.022-.489.022-.961.242-1.332.562-.54.478-.86 1.208-.787 1.922.084.719.584 1.388 1.27 1.607z" fill="#f2ac2f"/></g><g><path d="M227.259 247.077c1.467-.354 2.394-2.276 2.456-3.698.77 1.04 1.714 2.175 3.007 2.215 2.85.09 4.384-4.311 2.428-6.205-.427-.416-1.669-1.253-2.299-.984 1.405-.596 2.822-1.652 3.013-3.164.135-1.068-.433-2.175-1.343-2.754s-2.108-.641-3.103-.225-1.776 1.276-2.175 2.276c.495-1.119.225-2.501-.568-3.417a348.007 348.007 0 00-2.659 16.075c.423.021.855-.024 1.243-.119z" fill="#e0605c"/><path d="M226.933 241.883c.905.292 1.95.034 2.675-.585s1.141-1.557 1.208-2.507c.056-.776-.135-1.602-.658-2.181-.489-.54-1.237-.809-1.962-.776a2.224 2.224 0 00-.393.051 319.4 319.4 0 00-.989 5.958c.041.012.08.029.119.04z" fill="#f2ac2f"/></g><g><path d="M223.527 275.539c1.658.051 2.552-2.512 1.416-3.608-.247-.242-.972-.731-1.338-.573.821-.348 1.641-.961 1.754-1.844.079-.624-.253-1.265-.781-1.602a1.804 1.804 0 00-.809-.27c-.202 2.58-.371 5.205-.511 7.863.084.018.174.034.269.034z" fill="#e0605c"/></g><g><path d="M242.958 257.132c-.157.022-.371.573-.41.719-.073.281-.011.534.067.809.23.781 1.169.911 1.855.748.601-.146 1.017-.832 1.152-1.461.225-1.934.467-3.828.719-5.682-.41.219-.731.601-.905 1.034.304-.686.017-1.585-.63-1.962-.646-.382-1.568-.191-2.023.41-.45.601-.365 1.54.18 2.052a1.728 1.728 0 00-1.658.753 1.731 1.731 0 00-.006 1.821 1.745 1.745 0 001.659.759z" fill="#e0605c"/><path d="M244.312 256.873c.444.141.95.017 1.304-.287.073-.062.135-.129.191-.197.079-.624.157-1.248.236-1.86a1.296 1.296 0 00-.157-.225c-.236-.264-.601-.393-.955-.377a1.62 1.62 0 00-.961.405c-.388.343-.618.871-.568 1.388.062.513.421.996.91 1.153z" fill="#f2ac2f"/></g><path d="M123.969 192.731c9.229 7.959 20.054 15.85 35.241 18.132 15.237-2.288 26.023-10.342 35.269-18.334-7.689-14.973-5.311-32.83-7.391-37.4H131.45c-2.085 4.575.242 22.623-7.481 37.602z" fill="#cca281"/><g><ellipse transform="rotate(100.195 224.155 118.131)" cx="224.153" cy="118.132" rx="21.386" ry="11.629" fill="#ddb58e"/><ellipse transform="rotate(169.801 94.214 118.138)" cx="94.213" cy="118.137" rx="11.629" ry="21.386" fill="#e8c59e"/><path d="M208.537 55.29s-12.472 3.485-41.255 3.653c-18.644.107-33.724 2.13-51.046 10.938-15.901 8.088-23.056 19.914-23.213 24.382-1.551 44.156 7.464 104.645 66.171 113.48 57.617-8.667 67.402-66.745 66.29-110.636-.709-27.962-16.947-41.817-16.947-41.817z" fill="#e8c59e"/><path d="M225.483 97.113c-.708-27.963-16.952-41.823-16.952-41.823s-.781.455-2.406 1.141c3.738 55.2 7.43 86.164-13.63 119.747-17.621 28.103-33.308 31.565-33.308 31.565 57.624-8.666 67.409-66.744 66.296-110.63z" fill="#ddb58e"/><path d="M92.044 122.069h7.048c.601-21.077 14.057-31.054 27.979-34.927 23.809-6.627 31.307-18.66 32.127-20.262.815 1.602 8.313 13.63 32.127 20.262 13.922 3.873 27.372 13.849 27.979 34.927h7.048V39.653H92.044v82.416z" fill="#ddb58e"/><path d="M251.462 99.367C248.753 61.141 236.983 0 159.194 0S69.635 61.141 66.926 99.367c-3.979 56.161 3.103 93.061 10.488 103.318 10.837 15.052 27.395 23.095 40.322 19.346s11.236-17.874 25.838-23.82c-21.533-8.538-38.743-38.355-43.605-67.655s10.803-42.194 27.103-46.735c23.809-6.627 31.307-20.116 32.127-21.718.815 1.602 8.313 15.086 32.127 21.718 16.3 4.536 31.964 17.435 27.103 46.735s-22.072 59.118-43.605 67.655c14.602 5.947 12.916 20.071 25.838 23.82 12.927 3.749 29.486-4.294 40.322-19.346 7.375-10.263 14.457-47.157 10.478-103.318z" fill="#2f3233"/></g></svg>