<svg xmlns="http://www.w3.org/2000/svg" viewBox="0 0 318.543 318.543"><path d="M159.195 207.749c-65.536 0-85.928-10.376-85.928-10.376 25.939-33.263 2.765-61.737-1.512-89.789C65.095 63.923 77.697 0 157.948 0c51.918 0 71.112 22.898 78.273 32.875 16.395 22.837 16.238 68.881 3.091 103.92-11.702 31.183 4.159 58.213 4.159 58.213s-18.739 12.741-84.276 12.741z" fill="#2f3233"/><path d="M295.389 253.096c-10.522-37.754-63.361-33.566-86.164-44.408-22.803-10.842-19.245-47.219-22.134-53.548h-55.638c-2.889 6.329.674 42.711-22.134 53.548-22.803 10.842-75.642 6.655-86.164 44.408-5.806 20.824-5.525 27.187-7.133 50.26 0 0 72.5 15.187 141.611 15.187s144.888-15.187 144.888-15.187c-1.602-23.073-1.326-29.435-7.132-50.26z" fill="#e8c59e"/><path d="M179.761 217.001c22.803 10.842 75.642 6.655 86.164 44.408 5.531 19.83 5.542 26.552 6.913 47.073 18.155-2.816 29.682-5.126 29.682-5.126-1.602-23.067-1.326-29.435-7.133-50.26-10.522-37.754-63.361-33.566-86.164-44.408-22.803-10.842-19.245-47.219-22.134-53.548h-29.458c.002 0-.678 51.024 22.13 61.861z" fill="#ddb58e"/><path d="M61.661 311.056c26.675 3.76 61.737 7.487 95.972 7.487 35.326 0 72.388-3.968 100.187-7.846 13.383-11.792 33.156-14.361 44.201-14.81-1.124-17.283-1.506-24.405-6.632-42.79-9.724-34.887-55.582-33.96-80.482-42.171 3.058 17.874 12.36 95.14-55.363 95.14-67.97 0-58.359-77.829-55.335-95.331-24.764 8.42-71.253 7.211-81.049 42.363-5.12 18.374-5.508 25.495-6.632 42.767 11.038.392 31.537 2.893 45.133 15.191z" fill="#d15852"/><path d="M295.389 253.096c-9.724-34.887-55.582-33.96-80.482-42.171.573 3.361 1.371 8.83 1.832 15.485 21.207 4.761 42.852 12.292 49.186 35.005 4.89 17.536 5.463 24.821 6.481 40.452 10.747-4.407 22.168-5.677 29.615-5.98-1.124-17.29-1.506-24.411-6.632-42.791z" fill="#c65044"/><path d="M123.971 192.737c9.229 7.959 20.054 15.85 35.241 18.132 15.237-2.288 26.023-10.342 35.269-18.334-7.689-14.973-5.311-32.83-7.391-37.4h-55.638c-2.085 4.575.242 22.623-7.481 37.602z" fill="#cca281"/><ellipse transform="rotate(100.195 224.157 118.136)" cx="224.155" cy="118.137" rx="21.386" ry="11.629" fill="#ddb58e"/><ellipse transform="rotate(169.801 94.216 118.143)" cx="94.216" cy="118.143" rx="11.629" ry="21.386" fill="#e8c59e"/><path d="M159.735 56.161s-65.874-7.487-66.683 11.927c-.793 19.02.124 21.712-.028 26.181-1.551 44.156 7.464 104.645 66.171 113.48 62.979-9.476 68.808-77.969 65.727-122.456-1.533-22.151-65.187-29.132-65.187-29.132z" fill="#e8c59e"/><path d="M159.195 207.749c94.331-14.192 60.45-160.806 60.45-160.806h-14.141c3.873 61.242 9.229 93.774-13.006 129.24-17.615 28.104-33.303 31.566-33.303 31.566z" fill="#ddb58e"/><path d="M91.709 96.989s37.248 10.123 67.565-19.009c0 0 19.408 26.209 66.216 19.133V60.905H91.709v36.084z" fill="#ddb58e"/><path d="M228.076 52.266c-8.538-26.355-68.869-31.925-68.881-31.925-.011 0-60.343 5.57-68.881 31.925-8.538 26.361 1.394 44.723 1.394 44.723 20.234 2.383 48.354-4.817 67.487-24.304 19.138 19.492 46.055 26.816 66.29 24.433 0 .001 11.129-18.491 2.591-44.852z" fill="#2f3233"/><path d="M91.709 76.395s23.517-20.234 67.492-20.234 67.391 20.234 67.391 20.234-16.727-38.979-67.391-38.979-67.492 38.979-67.492 38.979z" fill="#e0605c"/></svg>