<svg xmlns="http://www.w3.org/2000/svg" viewBox="0 0 307.797 307.797"><path d="M214.995 181.967s-43.144 9.133-61.158 18.155v42.666h72.804s16.497-61.737-11.646-60.821zM88.627 181.967s43.144 9.133 61.158 18.155v42.666h-72.81s-16.491-61.737 11.652-60.821z" fill="#ba443e"/><path d="M298.09 242.35c-11.151-37.754-67.121-33.566-91.279-44.408-24.157-10.842-20.386-47.219-23.449-53.548H124.43c-3.058 6.329.714 42.711-23.449 53.548-24.157 10.842-80.133 6.655-91.279 44.408-6.149 20.824-5.857 27.193-7.554 50.26 0 0 76.8 15.187 150.014 15.187S305.65 292.61 305.65 292.61c-1.703-23.073-1.411-29.436-7.56-50.26z" fill="#eae5dc"/><path d="M298.09 242.35c-11.151-37.754-67.121-33.566-91.279-44.408-24.157-10.842-20.386-47.219-23.449-53.548h-31.206s-.719 51.024 23.438 61.866 80.133 6.655 91.279 44.408c5.857 19.83 5.868 26.552 7.324 47.073 19.234-2.816 31.442-5.126 31.442-5.126-1.692-23.078-1.4-29.441-7.549-50.265z" fill="#e0dbd3"/><path d="M184.509 215.213c9.741-3.805 17.756-9.409 23.168-16.21l.416-.517c-.433-.18-.86-.36-1.276-.545-24.157-10.842-20.386-47.219-23.449-53.548H124.43c-3.058 6.329.714 42.711-23.449 53.548-.416.185-.843.371-1.276.545l.416.517c5.413 6.795 13.428 12.399 23.168 16.21 9.229 3.603 19.813 5.508 30.61 5.508 10.797.001 21.381-1.905 30.61-5.508z" fill="#9e6f4c"/><path d="M206.812 197.941c-4.345-1.95-7.779-4.727-10.516-8.004-5.064 6.357-13.827 11.404-24.573 14.096a22.82 22.82 0 003.878 2.22c4.71 2.113 10.634 3.659 17.199 5.053 6.031-3.378 11.089-7.548 14.872-12.304l.416-.517a33.727 33.727 0 01-1.276-.544z" fill="#8e633f"/><path d="M196.295 189.937c-12.5-14.951-10.421-40.356-12.927-45.549H124.43c-2.512 5.193-.427 30.599-12.927 45.549 7.655 9.611 23.764 16.232 42.396 16.232s34.741-6.62 42.396-16.232z" fill="#bc9173"/><path d="M171.722 204.034c10.747-2.692 19.509-7.74 24.573-14.096-12.5-14.951-10.421-40.356-12.927-45.549h-31.206c0 .005-.64 45.391 19.56 59.645z" fill="#af8468"/><path d="M116.499 181.99c9.78 7.959 21.24 15.85 37.338 18.132 16.137-2.288 27.569-10.342 37.36-18.334-8.144-14.973-5.626-32.83-7.83-37.4h-58.938c-2.213 4.575.254 22.623-7.93 37.602z" fill="#a87b62"/><ellipse transform="rotate(100.195 222.94 107.389)" cx="222.938" cy="107.389" rx="21.386" ry="11.629" fill="#af8468"/><ellipse transform="rotate(169.801 84.681 107.397)" cx="84.681" cy="107.397" rx="11.629" ry="21.386" fill="#bc9173"/><path d="M218.058 36.197H89.65s-35.989 146.614 64.187 160.806c100.216-14.193 64.221-160.806 64.221-160.806z" fill="#bc9173"/><path d="M153.837 197.003c100.216-14.192 64.221-160.806 64.221-160.806h-15.024c4.114 61.242 9.808 93.774-13.815 129.24-18.717 28.103-35.382 31.566-35.382 31.566z" fill="#af8468"/><path d="M214.63 51.996H93.399v16.525l.096.141s29.312 9.763 60.45 9.763 60.32-9.763 60.32-9.763.135-.197.365-.556v-16.11z" fill="#af8468"/><path d="M224.275 37.141C208.554 2.141 178.433 0 153.877 0S99.199 2.141 83.478 37.141c-3.378 7.526-3.569 28.008-3.569 44.926 0 26.574 6.767 46.477 6.767 46.477h5.727c2.81-22.96 1.09-64.041 1.09-64.041s29.312 9.763 60.45 9.763 60.32-9.763 60.32-9.763-1.197 41.036 1.613 63.996l5.16.006s6.807-19.858 6.807-46.432c.001-16.924-.19-37.406-3.568-44.932z" fill="#393c3d"/><path d="M191.473 71.994l-3.755-26.602-3.968 27.766c2.507-.41 5.435-.714 7.723-1.164z" fill="#af8468"/><path d="M298.09 242.35c-7.492-25.371-35.236-31.801-59.955-36.579-4.783 10.668-11.011 21.583-18.475 28.39-18.711 17.047-65.823 28.069-65.823 28.069l-2.13.337-1.922-.337s-46.415-11.016-65.126-28.069c-7.324-6.672-13.445-17.295-18.194-27.766-23.871 4.738-49.591 11.668-56.763 35.955-6.149 20.824-5.857 27.193-7.554 50.26 0 0 76.8 15.187 150.014 15.187S305.65 292.61 305.65 292.61c-1.703-23.073-1.411-29.436-7.56-50.26z" fill="#e0605c"/><path d="M298.09 242.35c-7.492-25.371-35.236-31.801-59.955-36.579-2.13 4.749-4.547 9.544-7.228 14.007 16.468 5.177 30.885 13.669 35.966 30.891 5.857 19.83 5.868 26.552 7.324 47.073 19.234-2.816 31.442-5.126 31.442-5.126-1.692-23.079-1.4-29.442-7.549-50.266zM88.627 181.967c-9.459 1.815-12.894 8.161-9.358 21.004 10.353 37.591 70.516 59.253 70.516 59.253s-81.207-9.825-98.501-52.39c6.503-21.189 18.323-31.835 37.343-27.867z" fill="#d15852"/><path d="M214.995 181.967c9.459 1.815 12.894 8.161 9.358 21.004-10.353 37.591-70.516 59.253-70.516 59.253s81.611-10.786 98.9-53.351c-6.497-21.184-18.722-30.874-37.742-26.906z" fill="#d15852"/><path d="M214.995 181.967c9.459 1.815 12.894 8.161 9.358 21.004-1.304 4.744-3.406 9.229-6.076 13.456 8.493 1.922 16.924 4.328 24.405 7.891 4.272-4.615 7.745-9.746 10.061-15.445-6.503-21.184-18.728-30.874-37.748-26.906z" fill="#c65044"/><path d="M160.835 264.832c-2.17 0-4.002 2.046-3.519 4.373.141.112 12.124 10.089 15.895 38.203 1.877-.067 3.755-.141 5.632-.225-3.968-30.694-17.356-41.828-18.008-42.351zM142.787 264.832c2.17 0 4.002 2.046 3.518 4.373-.141.112-12.124 10.089-15.895 38.203a623.442 623.442 0 01-5.632-.225c3.969-30.694 17.351-41.828 18.009-42.351z" fill="#eae5dc"/></svg>