<svg xmlns="http://www.w3.org/2000/svg" viewBox="0 0 318.965 318.965"><path d="M303.673 253.518c-11.151-37.754-67.121-33.566-91.279-44.408-24.157-10.842-20.386-47.219-23.449-53.548h-58.932c-3.058 6.329.714 42.711-23.449 53.548-24.157 10.842-80.133 6.655-91.279 44.408-6.149 20.824-5.857 27.193-7.554 50.26 0 0 76.8 15.187 150.014 15.187s153.488-15.187 153.488-15.187c-1.703-23.073-1.411-29.436-7.56-50.26z" fill="#f9f5ed"/><path d="M303.673 253.518c-11.151-37.754-67.121-33.566-91.279-44.408-24.157-10.842-20.386-47.219-23.449-53.548H157.74s-.719 51.024 23.438 61.866 80.133 6.655 91.279 44.408c5.857 19.83 5.868 26.552 7.324 47.073 19.234-2.816 31.442-5.126 31.442-5.126-1.693-23.078-1.401-29.441-7.55-50.265z" fill="#eae5dc"/><path d="M60.621 312.068c27.631 3.552 62.771 6.897 97.124 6.897 35.112 0 71.854-3.496 100.581-7.133v-22.853s-56.852 8.526-100.721 8.526-96.978-8.526-96.978-8.526v23.089h-.006z" fill="#e0dbd3"/><path d="M190.092 226.382c9.741-3.805 17.756-9.409 23.168-16.21l.416-.517c-.433-.18-.86-.36-1.276-.545-24.157-10.842-20.386-47.219-23.449-53.548h-58.938c-3.058 6.329.714 42.711-23.449 53.548-.416.185-.843.371-1.276.545l.416.517c5.413 6.795 13.428 12.399 23.168 16.21 9.229 3.603 19.813 5.508 30.61 5.508s21.381-1.906 30.61-5.508z" fill="#c6c1ba"/><path d="M212.395 209.109c-4.345-1.95-7.779-4.727-10.516-8.004-5.064 6.357-13.827 11.404-24.573 14.096a22.82 22.82 0 003.878 2.22c4.71 2.113 10.634 3.659 17.199 5.053 6.031-3.378 11.089-7.548 14.872-12.304l.416-.517c-.433-.173-.86-.358-1.276-.544z" fill="#bab6b1"/><path d="M201.878 201.106c-12.5-14.951-10.421-40.356-12.927-45.549h-58.938c-2.512 5.193-.427 30.599-12.927 45.549 7.655 9.611 23.764 16.232 42.396 16.232s34.741-6.621 42.396-16.232z" fill="#dbb491"/><path d="M177.305 215.202c10.747-2.692 19.509-7.74 24.573-14.096-12.5-14.951-10.421-40.356-12.927-45.549h-31.206c0 .005-.64 45.391 19.56 59.645z" fill="#cca483"/><path d="M122.083 193.158c9.78 7.959 21.24 15.85 37.338 18.132 16.137-2.288 27.569-10.342 37.36-18.334-8.144-14.973-5.626-32.83-7.83-37.4h-58.938c-2.214 4.575.253 22.623-7.93 37.602z" fill="#c69e7f"/><ellipse transform="rotate(100.195 228.524 118.557)" cx="228.522" cy="118.557" rx="21.386" ry="11.629" fill="#cca483"/><ellipse transform="rotate(169.801 90.265 118.565)" cx="90.265" cy="118.565" rx="11.629" ry="21.386" fill="#dbb491"/><path d="M223.641 47.365H95.233S59.244 193.979 159.42 208.171c100.216-14.192 64.221-160.806 64.221-160.806z" fill="#dbb491"/><path d="M159.42 208.171c100.216-14.192 64.221-160.806 64.221-160.806h-15.024c4.114 61.242 9.808 93.774-13.815 129.24-18.717 28.103-35.382 31.566-35.382 31.566z" fill="#cca483"/><path d="M211.563 43.504L86.841 53.823V84.27s3.417 2.366 6.216 3.232c0 0 34.19 7.655 57.735-1.343 21.049-8.043 30.346-32.611 51.361-32.931 3.58-.056 6.694.669 9.403 1.956l.007-11.68z" fill="#cca483"/><path d="M235.788 48.731C230.066 25.962 201.193.006 159.483.006S88.898 25.962 83.171 48.731c0 0-10.932 47.483 7.683 67.931 0 0-.916-18.548.956-33.313 0 0 34.19 7.655 57.735-1.343 21.049-8.043 30.346-32.611 51.361-32.931 19.487-.292 25.282 22.387 26.237 34.275s.955 33.313.955 33.313c18.622-20.449 7.69-67.932 7.69-67.932z" fill="#3b3b3b"/><path d="M160.764 109.327c-.433 0-.866 0-1.293-.006-.433 0-.86.006-1.293.006-35.955 0-66.447 34.033-77.098 13.641 10.145 24.371 40.665-4.581 77.098-4.581.433 0 .866 0 1.293-.006.433 0 .86.006 1.293.006 36.427 0 66.953 28.952 77.098 4.581-10.646 20.391-41.138-13.641-77.098-13.641z" fill="#cca483"/><path d="M159.471.006c-94.252 0-82.432 97.956-82.432 97.956l82.432-12.764 82.432 12.764S253.723.006 159.471.006z" fill="#9e6f4c"/><path d="M208.263 92.751C200.293 5.699 159.662.028 159.477 0c-.191.028-40.817 5.699-48.787 92.751l48.759-7.548h.056l48.758 7.548z" fill="#e0dbd3"/><path d="M160.764 70.786h-2.591c-44.813 0-81.139 19.846-81.139 25.894 0 65.508 36.326 12.646 81.139 12.646h2.591c44.813 0 81.139 52.862 81.139-12.646 0-6.048-36.326-25.894-81.139-25.894z" fill="#7f5732"/></svg>