<svg xmlns="http://www.w3.org/2000/svg" viewBox="0 0 318.959 318.959"><path d="M231.721 137.21l-14.94-9.443-27.153 54.357 7.149 10.988c6.244-2.698 12.989-9.212 16.081-12.304 1.675 1.877 1.518 4.277 1.518 4.277 7.166-7.571 7.65-24.787 7.65-24.787 2.338 2.209 2.659 4.974 2.659 4.974 7.036-12.948 7.036-28.062 7.036-28.062zM87.132 137.21l14.94-9.443 27.153 54.357-7.149 10.988c-6.245-2.698-12.989-9.212-16.081-12.304-1.675 1.877-1.518 4.277-1.518 4.277-7.166-7.571-7.65-24.787-7.65-24.787-2.338 2.209-2.659 4.974-2.659 4.974-7.036-12.948-7.036-28.062-7.036-28.062z" fill="#4c3626"/><path d="M303.671 253.512c-11.151-37.754-67.121-33.566-91.279-44.408-24.157-10.842-20.386-47.219-23.449-53.548H130.01c-3.058 6.329.714 42.711-23.449 53.548-24.157 10.842-80.133 6.655-91.279 44.408-6.149 20.824-5.857 27.193-7.554 50.26 0 0 76.8 15.187 150.014 15.187s153.488-15.187 153.488-15.187c-1.703-23.073-1.41-29.435-7.559-50.26z" fill="#5c9ea0"/><path d="M303.671 253.512c-11.151-37.754-67.121-33.566-91.279-44.408-24.157-10.842-20.386-47.219-23.449-53.548h-31.206s-.719 51.024 23.438 61.866 80.133 6.655 91.279 44.408c5.857 19.83 5.868 26.552 7.324 47.073 19.234-2.816 31.442-5.126 31.442-5.126-1.693-23.078-1.4-29.44-7.549-50.265z" fill="#51989e"/><path d="M213.674 209.649c-.433-.18-.86-.36-1.276-.545-24.157-10.842-20.386-47.219-23.449-53.548H130.01c-3.058 6.329.714 42.711-23.449 53.548-.416.185-.843.371-1.276.545 0 0 7.29 13.332 18.408 27.608 12.804 16.44 30.003 34.134 35.786 34.134 5.778 0 22.977-17.688 35.786-34.134 11.114-14.276 18.409-27.608 18.409-27.608z" fill="#eae5dc"/><path d="M181.182 217.417c6.239 2.799 14.602 4.598 23.77 6.374 5.469-8.2 8.723-14.141 8.723-14.141-.433-.18-.86-.36-1.276-.545-24.157-10.842-20.386-47.219-23.449-53.548h-31.206c-.001-.001-.721 51.023 23.438 61.86z" fill="#e0dbd3"/><path d="M201.877 201.1c-12.5-14.951-10.421-40.356-12.927-45.549h-58.94c-2.512 5.193-.427 30.599-12.927 45.549 5.959 14.029 78.336 15.17 84.794 0z" fill="#dbb491"/><path d="M173.122 211.526c14.271-1.237 26.293-4.648 28.749-10.421-12.5-14.951-10.421-40.356-12.927-45.549h-31.206c.005 0-.545 38.872 15.384 55.97z" fill="#dbb491"/><path d="M122.081 193.152c9.78 7.959 21.24 15.85 37.338 18.132 16.137-2.288 27.569-10.342 37.36-18.334-8.144-14.973-5.626-32.83-7.83-37.4H130.01c-2.213 4.576.254 22.623-7.929 37.602z" fill="#c69e7f"/><ellipse transform="rotate(100.195 228.52 118.55)" cx="228.519" cy="118.551" rx="21.386" ry="11.629" fill="#cca483"/><ellipse transform="rotate(169.801 90.263 118.559)" cx="90.262" cy="118.558" rx="11.629" ry="21.386" fill="#dbb491"/><path d="M223.64 47.359H95.231s-35.989 146.614 64.187 160.806C259.633 193.973 223.64 47.359 223.64 47.359z" fill="#dbb491"/><path d="M159.418 208.165c100.216-14.192 64.221-160.806 64.221-160.806h-15.024c4.114 61.242 9.808 93.774-13.815 129.24-18.717 28.104-35.382 31.566-35.382 31.566z" fill="#cca483"/><path d="M214.101 133.124s-3.906-29.115-13.675-43.807c0 0-29.042 38.164-101.283 26.361V69.083h122.771v56.824l-7.813 7.217z" fill="#cca483"/><path d="M235.786 48.725C230.064 25.956 201.191 0 159.48 0S88.897 25.956 83.169 48.725c0 0-2.614 61.124 6.852 94.134l.247 6.211 5.199 6.975c.776 1.242 1.591 2.349 2.462 3.299-2.085-28.362 1.214-43.672 1.214-43.672 74.973 4.946 102.509-32.212 102.509-32.212 14.85 21.415 12.455 49.658 12.455 49.658 6.481-2.417 7.874-5.362 7.874-5.362.461 11.208-5.508 24.911-5.508 24.911 2.434-1.445 4.317-3.288 5.682-4.952-.719 7.071-1.22 11.623-1.22 11.623 18.611-20.43 14.851-110.613 14.851-110.613z" fill="#4c3626"/><path d="M171.879 300l-12.399-25.124L147.081 300l-27.726 4.03 14.816 14.439c7.83.315 15.721.489 23.573.489 9.01 0 18.132-.23 27.198-.635l14.664-14.293-27.727-4.03z" fill="#f2ac2f"/></svg>