<svg xmlns="http://www.w3.org/2000/svg" viewBox="0 0 318.959 318.959"><path d="M303.671 253.512c-11.151-37.754-67.121-33.566-91.279-44.408-24.157-10.842-20.386-47.219-23.449-53.548H130.01c-3.058 6.329.714 42.711-23.449 53.548-24.157 10.842-80.133 6.655-91.279 44.408-6.149 20.824-5.857 27.193-7.554 50.26 0 0 76.8 15.187 150.014 15.187s153.488-15.187 153.488-15.187c-1.703-23.073-1.41-29.435-7.559-50.26z" fill="#636358"/><path d="M303.671 253.512c-11.151-37.754-67.121-33.566-91.279-44.408-24.157-10.842-20.386-47.219-23.449-53.548h-31.206s-.719 51.024 23.438 61.866 80.133 6.655 91.279 44.408c5.857 19.83 5.868 26.552 7.324 47.073 19.234-2.816 31.442-5.126 31.442-5.126-1.693-23.078-1.4-29.44-7.549-50.265z" fill="#515147"/><path d="M201.877 201.1c-12.5-14.951-10.421-40.356-12.927-45.549h-58.94c-2.512 5.193-.427 30.599-12.927 45.549 7.655 9.611 23.764 16.232 42.396 16.232s34.742-6.621 42.398-16.232z" fill="#dbb491"/><path d="M177.303 215.196c10.747-2.692 19.509-7.74 24.573-14.096-12.5-14.951-10.421-40.356-12.927-45.549h-31.206c0 .005-.64 45.392 19.56 59.645z" fill="#cca483"/><path d="M122.081 193.152c9.78 7.959 21.24 15.85 37.338 18.132 16.137-2.288 27.569-10.342 37.36-18.334-8.144-14.973-5.626-32.83-7.83-37.4H130.01c-2.213 4.576.254 22.623-7.929 37.602z" fill="#c69e7f"/><ellipse transform="rotate(100.195 228.52 118.55)" cx="228.519" cy="118.551" rx="21.386" ry="11.629" fill="#cca483"/><ellipse transform="rotate(169.801 90.263 118.559)" cx="90.262" cy="118.558" rx="11.629" ry="21.386" fill="#dbb491"/><path d="M223.64 47.359l-64.221-30.16-64.188 30.16s-35.989 146.614 64.187 160.806C259.633 193.973 223.64 47.359 223.64 47.359z" fill="#dbb491"/><path d="M159.418 208.165c100.216-14.192 64.221-160.806 64.221-160.806h-15.024c4.114 61.242 9.808 93.774-13.815 129.24-18.717 28.104-35.382 31.566-35.382 31.566z" fill="#cca483"/><path d="M229.124 121.928c-9.712 41.57-36.68 55.076-36.68 55.076-5.75-14.85-17.25-14.85-33.027-14.85-15.777 0-27.277 0-33.027 14.85 0 0-26.968-13.506-36.68-55.076 3.429 38.58 19.397 79.11 69.707 86.237 50.312-7.127 66.28-47.657 69.707-86.237z" fill="#999896"/><path d="M159.418 208.165c50.31-7.127 66.278-47.657 69.707-86.237-7.554 32.341-25.557 47.691-33.173 52.918-.377.585-.753 1.169-1.147 1.754-18.676 28.035-35.302 31.548-35.387 31.565z" fill="#8e8d8d"/><path d="M181.439 179.596c0 4.03-3.62 7.093-7.593 6.43-4.227-.703-9.623-1.388-14.585-1.388-4.963 0-10.359.686-14.585 1.388-3.974.663-7.593-2.4-7.593-6.43v-1.748a6.517 6.517 0 016.52-6.52h31.307a6.517 6.517 0 016.52 6.52v1.748h.009z" fill="#dbb491"/><path d="M235.786 52.884c-5.722-22.769-34.595-48.725-76.305-48.725S88.897 30.115 83.175 52.884l7.683 63.771c.051-6.801.253-20.482.956-29.154.956-11.888 6.75-40.806 26.237-40.508 7.262.112 24.275 11.888 41.43 11.888 16.536 0 33.212-11.764 41.43-11.888 19.487-.292 25.282 28.626 26.237 40.508.697 8.673.905 22.353.956 29.154l7.682-63.771z" fill="#cca483"/><path d="M228.118 116.633c18.593-20.459 7.667-67.908 7.667-67.908C230.064 25.956 201.191 0 159.48 0S88.897 25.956 83.169 48.725c0 0-10.932 47.483 7.683 67.931 0 0-.006-21.431.956-33.313s6.75-40.806 26.237-40.508c7.262.112 24.275 11.888 41.43 11.888 16.536 0 33.212-11.764 41.43-11.888 19.487-.292 25.282 28.626 26.237 40.508s.955 33.313.955 33.313c.01-.011.017-.017.021-.023z" fill="#999896"/><path d="M237.382 96.32l-26.973 10.128c-2.732-7.059-9.594-12.079-17.604-12.079-8.543 0-15.771 5.705-18.087 13.506-2.822-1.18-8.673-3.226-15.299-3.226-6.604 0-12.377 2.035-15.176 3.215-2.321-7.796-9.549-13.495-18.087-13.495-8.009 0-14.872 5.019-17.604 12.079L81.579 96.32c.242 1.203.511 2.394.815 3.569-.017.017-.028.034-.045.051l25.321 9.504a18.698 18.698 0 00-.382 3.788c0 10.404 8.465 18.868 18.868 18.868s18.868-8.465 18.868-18.868c0-.759-.045-1.512-.135-2.248 2.243-.989 7.998-3.221 14.535-3.221 6.52 0 12.377 2.237 14.653 3.226-.09.736-.135 1.484-.135 2.243 0 10.404 8.465 18.868 18.868 18.868s18.868-8.465 18.868-18.868c0-1.298-.129-2.563-.382-3.788l25.253-9.482c.305-1.197.586-2.411.833-3.642zM126.15 128.982c-8.684 0-15.749-7.065-15.749-15.749s7.065-15.749 15.749-15.749 15.749 7.065 15.749 15.749-7.066 15.749-15.749 15.749zm66.655 0c-8.684 0-15.749-7.065-15.749-15.749s7.065-15.749 15.749-15.749c8.684 0 15.749 7.065 15.749 15.749s-7.065 15.749-15.749 15.749z" fill="#393c3d"/></svg>