<svg xmlns="http://www.w3.org/2000/svg" viewBox="0 0 317.85 317.85"><path d="M93.759 138.558s6.166 44.92-45.639 43.054c0 0 9.802 17.255 34.533 10.263 0 0-13.534 20.667-46.668 10.803 0 0 17.93 34.319 68.937 27.395h22.067v-91.414l-33.23-.101z" fill="#545251"/><path d="M115.719 191.875s-3.142 11.134-22.511 20.178l30.475 2.985 9.431-22.078-39.276-46.32-.006-.006c.006.001 4.463 29.745 21.887 45.241z" fill="#3b3b3b"/><path d="M80.916 194.016c9.117-1.36 14.119-8.543 14.119-8.543-7.059 4.716-12.377 6.396-12.377 6.396s-.561.86-1.742 2.147z" fill="#3b3b3b"/><path d="M224.051 138.558s-6.166 44.92 45.639 43.054c0 0-9.802 17.255-34.533 10.263 0 0 13.534 20.667 46.668 10.803 0 0-17.93 34.319-68.937 27.395h-22.067v-91.414l33.23-.101z" fill="#545251"/><path d="M202.086 191.875s3.142 11.134 22.511 20.178l-30.475 2.985-9.431-22.078 39.277-46.319.006-.006c-.002 0-4.465 29.744-21.888 45.24z" fill="#3b3b3b"/><path d="M236.888 194.016c-9.117-1.36-14.119-8.543-14.119-8.543 7.059 4.716 12.377 6.396 12.377 6.396s.568.86 1.742 2.147z" fill="#3b3b3b"/><path d="M303.116 252.403c-11.151-37.754-67.121-33.566-91.279-44.408-24.157-10.842-20.386-47.219-23.449-53.548h-58.932c-3.058 6.329.714 42.711-23.449 53.548-24.157 10.842-80.133 6.655-91.279 44.408-6.149 20.824-5.857 27.193-7.554 50.26 0 0 76.8 15.187 150.014 15.187s153.488-15.187 153.488-15.187c-1.703-23.073-1.411-29.435-7.56-50.26z" fill="#eae5dc"/><path d="M182.087 317.316c20.92-.86 41.615-2.675 60.09-4.738V287.87h-60.09v29.446z" fill="#c6c1ba"/><path d="M303.116 252.403c-11.151-37.754-67.121-33.566-91.279-44.408-24.157-10.842-20.386-47.219-23.449-53.548h-31.206s-.719 51.024 23.438 61.866 80.133 6.655 91.279 44.408c5.857 19.83 5.868 26.552 7.324 47.073 19.234-2.816 31.442-5.126 31.442-5.126-1.692-23.078-1.4-29.44-7.549-50.265z" fill="#e0dbd3"/><path d="M189.535 225.267c9.741-3.805 17.756-9.409 23.168-16.21l.416-.517c-.433-.18-.86-.36-1.276-.545-24.157-10.842-20.386-47.219-23.449-53.548h-58.938c-3.058 6.329.714 42.711-23.449 53.548-.416.185-.843.371-1.276.545l.416.517c5.413 6.795 13.428 12.399 23.168 16.21 9.229 3.603 19.813 5.508 30.61 5.508s21.381-1.905 30.61-5.508z" fill="#e0605c"/><path d="M211.837 207.995c-4.345-1.95-7.779-4.727-10.516-8.004-5.064 6.357-13.827 11.404-24.573 14.097a22.82 22.82 0 003.878 2.22c4.71 2.113 10.634 3.659 17.199 5.053 6.031-3.378 11.089-7.548 14.872-12.304l.416-.517c-.433-.174-.86-.36-1.276-.545z" fill="#d15852"/><path d="M201.321 199.991c-12.5-14.951-10.421-40.356-12.927-45.549h-58.938c-2.512 5.193-.427 30.599-12.927 45.549 7.655 9.611 23.764 16.232 42.396 16.232s34.741-6.621 42.396-16.232z" fill="#dbb491"/><path d="M176.748 214.088c10.747-2.692 19.509-7.74 24.573-14.097-12.5-14.951-10.421-40.356-12.927-45.549h-31.206c0 .005-.641 45.392 19.56 59.646z" fill="#cca483"/><path d="M121.525 192.043c9.78 7.959 21.24 15.85 37.338 18.132 16.137-2.288 27.569-10.342 37.36-18.334-8.144-14.973-5.626-32.83-7.83-37.4h-58.938c-2.214 4.576.254 22.624-7.93 37.602z" fill="#c69e7f"/><ellipse transform="rotate(100.195 227.966 117.442)" cx="227.965" cy="117.443" rx="21.386" ry="11.629" fill="#cca483"/><ellipse transform="rotate(169.801 89.708 117.45)" cx="89.708" cy="117.45" rx="11.629" ry="21.386" fill="#dbb491"/><path d="M223.084 46.25l-64.221-30.16-64.187 30.16s-35.989 146.614 64.187 160.806C259.079 192.864 223.084 46.25 223.084 46.25z" fill="#dbb491"/><path d="M158.863 207.056C259.079 192.864 223.084 46.25 223.084 46.25H208.06c4.114 61.242 9.808 93.774-13.815 129.24-18.717 28.104-35.382 31.566-35.382 31.566z" fill="#cca483"/><path d="M88.262 68.081l12.658-4.721s2.063 10.488 2.035 33.201c-.006 4.879-.09 9.415-.225 13.636-.483 15.434-.888 16.052-1.416 25.085l-10.134-2.085s-.646-1.933-2.198-20.926c-.719-8.807-1.242-18.441-1.237-27.788.012-5.695.203-11.192.517-16.402z" fill="#545251"/><path d="M96.98 108.358s1.933-2.687 5.941-6.306l-.067 3.738s-1.467 1.118-2.855 2.569c-1.394 1.45-3.136 3.67-3.136 3.67s-1.978-2.119-4.665-5.598c-2.687-3.479-3.974-5.598-3.974-5.598l-.236-5.075c2.433 4.113 5.406 8.323 8.992 12.6z" fill="#3b3b3b"/><path d="M90.747 24.729S105.383 1.836 141.838.06c0 0 43.745-2.136 61.669 19.048 0 0 9.139-.523 17.924 6.531 0 0 8.195 6.711 9.128 18.964.922 12.129 1.692 27.648 1.102 41.39-1.321 30.458-5.362 47.303-5.362 47.303l-9.881 1.995s-2.591-5.784-4.873-27.535c-1.911-18.261-1.405-37.754-1.405-37.754s-14.844 15.018-39.091 15.85c-15.85.545-28.609 2.518-38.765 5.081 0 0 .427-1.495 2.029-3.378 1.602-1.883 3.108-2.675 3.108-2.675-27.738 5.845-40.446 23.477-40.446 23.477-38.507-45.97-6.228-83.628-6.228-83.628z" fill="#545251"/><path d="M165.934 68.401s-5.21 15.237-32.352 20.099c.214-.298.455-.618.736-.944 1.602-1.889 3.108-2.675 3.108-2.675s17.323-3.333 28.508-16.48z" fill="#3b3b3b"/></svg>