<svg xmlns="http://www.w3.org/2000/svg" viewBox="0 0 318.966 318.966"><path d="M109.229 207.745v109.298c15.76 1.169 32.223 1.922 48.517 1.922 17.064 0 34.511-.826 51.238-2.091l.174-109.467-99.929.338z" fill="#eaeae1"/><path d="M303.674 253.519c-11.151-37.754-67.121-33.566-91.279-44.408-24.157-10.842-20.386-47.219-23.449-53.548h-58.932c-3.058 6.329.714 42.711-23.449 53.548-24.157 10.842-80.133 6.655-91.279 44.408-6.149 20.824-5.857 27.193-7.554 50.26 0 0 76.8 15.187 150.014 15.187s153.488-15.187 153.488-15.187c-1.703-23.073-1.411-29.436-7.56-50.26z" fill="#eaeae1"/><path d="M173.433 318.741l.579-7.987-6.082-80.51h-16.024l-7.099 80.515.585 8.066c4.12.084 8.24.141 12.354.141 5.205 0 10.443-.085 15.687-.225z" fill="#4c4c4c"/><path d="M303.674 253.519c-11.151-37.754-67.121-33.566-91.279-44.408a28.297 28.297 0 01-3.237-1.703s-37.731 52.114-49.046 52.114c-11.314 0-50.878-51.777-50.878-51.777h-.017c-.849.489-1.726.944-2.653 1.36-24.157 10.842-80.133 6.655-91.279 44.408-6.149 20.824-5.857 27.193-7.554 50.26 0 0 76.8 15.187 150.014 15.187s153.488-15.187 153.488-15.187c-1.702-23.067-1.41-29.43-7.559-50.254z" fill="#9e6f4c"/><path d="M303.674 253.519c-11.151-37.754-67.121-33.566-91.279-44.408a28.297 28.297 0 01-3.237-1.703s-4.721 6.52-11.326 14.951c27.119 5.829 65.598 8.881 74.631 39.474 5.857 19.83 5.868 26.552 7.324 47.073 19.234-2.816 31.442-5.126 31.442-5.126-1.698-23.074-1.406-29.437-7.555-50.261z" fill="#8e633f"/><path d="M209.158 207.408l-43.498-1.315 20.24 30.902c4.227-4.952 8.352-10.072 11.933-14.636l11.325-14.951z" fill="#c6c5af"/><path d="M200.406 222.898c-.871-.18-1.726-.36-2.574-.54-3.575 4.564-7.7 9.684-11.933 14.636l3.513 5.362 10.994-19.458z" fill="#8e633f"/><path d="M153.182 206.092l-43.948 1.652s11.174 14.625 23.342 28.328l20.606-29.98z" fill="#c6c5af"/><path d="M132.583 236.073c-12.169-13.703-23.342-28.328-23.342-28.328l19.026 34.612 4.316-6.284z" fill="#8e633f"/><path fill="#c6c5af" d="M172.005 205.519h-25.208l-1.911 6.183 29.075.168z"/><path d="M200.406 222.898l8.751-15.49s-4.721 6.52-11.326 14.951c.844.185 1.704.359 2.575.539z" fill="#7f5732"/><path fill="#3a3a38" d="M151.968 230.598l15.963-.359.326 4.496z"/><path fill="#4c4c4c" d="M140.541 208.183l37.715-.022-.068 10.791-10.595 11.646h-15.625l-11.354-11.646z"/><path d="M153.182 206.092l-32.105-14.557s-3.389 4.817-11.843 16.21l19.251 29.092 24.697-30.745zM165.66 206.092l31.183-14.557s3.861 4.48 12.315 15.873l-19.723 29.43-23.775-30.746z" fill="#eaeae1"/><path d="M209.158 207.408c-8.453-11.393-12.315-15.873-12.315-15.873l-28.575 13.338c3.221 5.548 7.425 10.089 12.916 12.551 4.851 2.175 10.988 3.749 17.789 5.177l10.185-15.193z" fill="#e0dbd3"/><path d="M81.272 107.805S64.539 51.576 86.426 47.49c0 0 2.563-54.655 88.57-45.268 0 0 28.418 4.659 37.844-.821s36.838 3.429 25.529 57.229c0 0 14.394.742-.259 50.76l-37.956 46.05h-87.552l-31.33-47.635z" fill="#4c453f"/><ellipse transform="rotate(100.195 228.525 118.557)" cx="228.523" cy="118.558" rx="21.386" ry="11.629" fill="#ddb58e"/><ellipse transform="rotate(169.801 90.265 118.566)" cx="90.265" cy="118.566" rx="11.629" ry="21.386" fill="#e8c59e"/><path d="M223.642 47.366l-63.653 9.218s-22.556.922-40.957 9.729c-16.89 8.088-29.75 23.91-29.919 28.378-1.647 44.156 7.931 104.645 70.303 113.48 100.221-14.191 64.226-160.805 64.226-160.805z" fill="#e8c59e"/><path d="M159.421 208.172c100.216-14.192 64.221-160.806 64.221-160.806h-15.024c4.114 61.242 9.808 93.774-13.815 129.24-18.717 28.104-35.382 31.566-35.382 31.566z" fill="#ddb58e"/><path d="M221.259 40.835s-34.741 15.721-86.597 14.883c-45.712-.736-45.117 36.147-45.516 38.637 0 0 6.25-15.743 35.972-20.836 27.007-4.626 42.211 2.63 59.23 11.904 17.025 9.274 26.102 6.672 33.538 3.968 5.306-1.922 13.597-40.018 3.373-48.556z" fill="#ddb58e"/><path d="M221.259 36.681s-34.752 16.328-86.597 14.883C79.254 50.025 88.86 93.219 89.146 94.36c0 0 6.25-19.903 35.972-24.995 27.007-4.626 42.211 2.63 59.23 11.904 17.025 9.274 26.102 6.672 33.538 3.968 5.3-1.928 16.631-9.566 20.476-26.608.006.001-6.879-13.41-17.103-21.948z" fill="#4c453f"/></svg>