<svg xmlns="http://www.w3.org/2000/svg" viewBox="0 0 318.543 318.543"><path d="M243.465 195.007s-5.89-10.033-7.841-24.933c1.355-9.898 3.833-20.965 7.841-33.28 7.301-22.432 7.627-48.219 4.845-66.127-1.371-14.951-5.317-28.356-12.096-37.793-5.188-7.228-16.699-21.24-42.396-28.412-9.19-2.709-20.605-4.367-34.64-4.457-.41-.005-.82-.005-1.23-.005-66.616 0-90.487 38.068-93.196 76.294-3.979 56.161 13.883 74.726 17.025 102.942.112.995.202 1.99.27 2.973-1.917 4.952-4.755 9.999-8.785 15.164 0 0 2.406 1.225 8.212 2.827-2.67 20.757-11.208 36.635-11.208 36.635l178.943 1.827s-12.045-12.09-14.49-39.845c6.279-2.135 8.746-3.81 8.746-3.81z" fill="#2f3233"/><path d="M295.389 253.096c-10.522-37.754-63.361-33.566-86.164-44.408-22.803-10.842-19.245-47.219-22.134-53.548h-55.638c-2.889 6.329.674 42.711-22.134 53.548-22.803 10.842-75.642 6.655-86.164 44.408-5.806 20.824-5.525 27.187-7.133 50.26 0 0 72.5 15.187 141.611 15.187s144.888-15.187 144.888-15.187c-1.602-23.073-1.326-29.435-7.132-50.26z" fill="#e8c59e"/><path d="M255.988 296.729c-.304-14.175 1.652-56.875-6.115-77.784-7.903-1.911-15.873-3.333-23.095-4.912-7.824 10.179-15.541 30.368-27.687 48.815-15.018 22.808-38.012 42.784-39.822 42.784-3.738 0-16.586-12.186-37.883-19.054-25.293-8.156-58.398-9.892-58.831 10.156-.09 4.215-.32 9.836-.618 14.366 26.642 3.743 61.579 7.442 95.697 7.442 34.803 0 71.303-3.85 98.957-7.678-.288-4.49-.513-9.993-.603-14.135z" fill="#eae5dc"/><path d="M179.761 217.001c22.803 10.842 75.642 6.655 86.164 44.408 5.531 19.83 5.542 26.552 6.913 47.073 18.155-2.816 29.682-5.126 29.682-5.126-1.602-23.067-1.326-29.435-7.133-50.26-10.522-37.754-63.361-33.566-86.164-44.408-22.803-10.842-19.245-47.219-22.134-53.548h-29.458c.002 0-.678 51.024 22.13 61.861z" fill="#ddb58e"/><path d="M226.778 214.033c-2.574 3.35-5.137 7.779-7.846 12.877 13.203 3.086 26.361 7.419 35.691 15.974-.899-9.06-2.366-17.525-4.749-23.938-7.909-1.912-15.879-3.334-23.096-4.913z" fill="#e0dbd3"/><path d="M123.971 192.736c9.229 7.959 20.054 15.85 35.241 18.132 15.237-2.288 26.023-10.342 35.269-18.334-7.689-14.973-5.311-32.83-7.391-37.4h-55.638c-2.085 4.576.242 22.624-7.481 37.602z" fill="#cca281"/><ellipse transform="rotate(100.195 224.157 118.136)" cx="224.155" cy="118.137" rx="21.386" ry="11.629" fill="#ddb58e"/><ellipse transform="rotate(169.801 94.217 118.143)" cx="94.216" cy="118.143" rx="11.629" ry="21.386" fill="#e8c59e"/><path d="M208.539 55.296s-12.472 7.279-41.255 7.442c-18.644.107-33.724-1.664-51.046 7.149-15.901 8.088-23.056 19.914-23.213 24.382-1.551 44.156 7.464 104.645 66.171 113.48 57.617-8.667 67.402-66.745 66.29-110.636-.709-27.963-16.947-41.817-16.947-41.817z" fill="#e8c59e"/><path d="M225.485 97.119c-.708-27.963-16.952-41.823-16.952-41.823s-.781.455-2.406 1.141c3.738 55.2 7.43 86.164-13.63 119.747-17.621 28.103-33.308 31.565-33.308 31.565 57.623-8.667 67.409-66.745 66.296-110.63z" fill="#ddb58e"/><path d="M211.793 58.719c-1.922-2.282-3.254-3.423-3.254-3.423s-12.472 7.279-41.255 7.442c-18.644.107-33.724-1.664-51.046 7.149-15.901 8.088-23.056 19.914-23.213 24.382 0 0 11.151-20.937 35.994-25.416 23.078-4.165 58.639 3.186 82.774-10.134z" fill="#ddb58e"/><path d="M225.541 143.348h-.034a1.625 1.625 0 01-1.624-1.624v-4.929c0-.894.725-1.624 1.624-1.624h.034c.894 0 1.624.725 1.624 1.624v4.929a1.62 1.62 0 01-1.624 1.624zM93.108 143.348h-.034a1.625 1.625 0 01-1.624-1.624v-4.929c0-.894.725-1.624 1.624-1.624h.034c.894 0 1.624.725 1.624 1.624v4.929a1.62 1.62 0 01-1.624 1.624zM245.804 208.48c3.592 1.518 3.985 4.142 2.271 6.424-1.765 2.349-6.183 2.855-6.183 2.855s-2.743-3.53-2.271-6.424c.461-2.816 2.597-4.373 6.183-2.855z" fill="#eae5dc"/><path d="M236.215 206.305c-3.895-.18-5.385 2.018-4.817 4.817.579 2.883 4.345 5.244 4.345 5.244s3.996-2.001 4.817-4.817c.798-2.738-.456-5.064-4.345-5.244zM246.248 233.137c-3.681 1.281-6.447-2.462-7.577-7.813-1.158-5.508 1.09-10.825 1.09-10.825s5.087 2.76 7.577 7.813c2.417 4.907 2.591 9.55-1.09 10.825z" fill="#eae5dc"/><path d="M225.586 228.456c2.765 2.743 6.88.562 10.201-3.777 3.423-4.474 3.687-10.235 3.687-10.235s-5.778.298-10.201 3.777c-4.299 3.377-6.458 7.492-3.687 10.235z" fill="#eae5dc"/><path d="M265.554 221.121c-.86 3.8-7.06 3.816-14.097 1.506-7.251-2.378-12.067-7.442-12.067-7.442s6.537-2.512 14.096-1.506c7.341.978 12.928 3.642 12.068 7.442zM213.226 209.255c-.86 3.8 4.721 6.486 12.067 7.442 7.565.984 14.096-1.506 14.096-1.506s-4.817-5.087-12.067-7.442c-7.042-2.287-13.23-2.293-14.096 1.506z" fill="#eae5dc"/><ellipse transform="scale(-1) rotate(-77.22 -269.502 299.78)" cx="239.39" cy="215.212" rx="3.417" ry="9.279" fill="#ffbc36"/></svg>