<?xml version="1.0" encoding="utf-8"?>
<!-- Generator: Adobe Illustrator 24.0.1, SVG Export Plug-In . SVG Version: 6.00 Build 0)  -->
<svg version="1.1" id="Layer_1" xmlns="http://www.w3.org/2000/svg" xmlns:xlink="http://www.w3.org/1999/xlink" x="0px" y="0px"
	 viewBox="0 0 318.5 318.5" style="enable-background:new 0 0 318.5 318.5;" xml:space="preserve">
<style type="text/css">
	.st0{fill:#FFFFFF;stroke:#000000;stroke-width:13;stroke-miterlimit:10;}
	.st1{fill:#F9EFE8;}
	.st2{fill:#FFFFFF;}
</style>
<path class="st0" d="M255.6,92.3c32.7,42.7,31.3,113.6-3.6,144.8c-13.7,12.2-16.1,3.7-139.2,7.2c-25.3,0.7-54.4,1.9-74.2-17.7
	c-7.9-7.8-11.3-15.8-14.8-24.5c-12.5-30.4-18.3-84,13.9-118.9c14.7-15.9,31.8-22,48.7-28c31.4-11.1,58.8-9.9,72.2-8.4
	C178.5,49.2,226.5,54.4,255.6,92.3z"/>
<path d="M68.3,128.7c-6.4-6.9-7.4-19.1-2-27.2c4.1-6.2,10.5-8.3,12.4-8.9c1.5-0.5,9.1-2.9,16.5,0.3c10.6,4.7,17.1,19.3,12.4,29.8
	C101.6,136.4,78.5,139.6,68.3,128.7z"/>
<path d="M207.2,202.7c-11.6,19.4-43.2,20.9-49.1,21.2c-10,0.5-26.6,1.3-40.9-9.2c-10.4-7.7-17.3-19.6-15.3-21.8
	c1.6-1.7,7.7,3.8,20.1,8.1c14.5,5.1,27,4.9,32.5,4.8c19.5-0.4,35.6-6.9,37.3-7.6c9.2-3.8,15.9-8.2,18.1-6
	C212,194.5,207.6,202,207.2,202.7z"/>
<path class="st1" d="M238.9,115.6"/>
<path class="st1" d="M202,110.5"/>
<path d="M183,125.9c-6.4-6.9-7.4-19.1-2-27.2c4.1-6.2,10.5-8.3,12.4-8.9c1.5-0.5,9.1-2.9,16.5,0.3c10.6,4.7,17.1,19.3,12.4,29.8
	C216.2,133.6,193.2,136.9,183,125.9z"/>
<path d="M194.2,237.4"/>
<path class="st2" d="M83.9,113c-2.8-2.8-3.2-7.6-0.9-10.9c1.8-2.5,4.6-3.3,5.4-3.5c0.7-0.2,4-1.2,7.2,0.1c4.6,1.9,7.4,7.7,5.4,11.9
	C98.4,116.1,88.4,117.4,83.9,113z"/>
<path class="st2" d="M200.9,110.6c-2.8-2.8-3.2-7.6-0.9-10.9c1.8-2.5,4.6-3.3,5.4-3.5c0.7-0.2,4-1.2,7.2,0.1
	c4.6,1.9,7.4,7.7,5.4,11.9C215.3,113.7,205.3,115,200.9,110.6z"/>
<path d="M168.1,181.8c-1,1.8-3.7,1.8-14.8,1.6c-12.1-0.3-14.7-0.4-16-2.4c-1.7-2.5-0.3-5.9,0.8-9.2c6.9-20,3.7-29.3,7.6-30.1
	c4.8-1,7.2,13.3,20.5,33.3C167.1,176.5,169.3,179.7,168.1,181.8z"/>
<path d="M72,64.3c-2.2,4.1-12.5,5.2-14.8,1.6c-1.5-2.3-15-40.2-7.6-41.7c4.8-1,7.2,13.3,20.5,33.3C71,58.9,73.1,62.1,72,64.3z"/>
<path d="M36.1,33.9c-3.7-4.2-4.3-11.5-1.2-16.4c2.4-3.7,6.1-5,7.2-5.3c0.9-0.3,5.3-1.8,9.6,0.2c6.2,2.8,9.9,11.6,7.2,18
	C55.4,38.5,42,40.5,36.1,33.9z"/>
<path d="M199.3,60.4c2.2,4.1,12.5,5.2,14.8,1.6c1.5-2.3,15-40.2,7.6-41.7c-4.8-1-7.2,13.3-20.5,33.3C200.3,55,198.1,58.2,199.3,60.4
	z"/>
<path d="M235.2,30c3.7-4.2,4.3-11.5,1.2-16.4c-2.4-3.7-6.1-5-7.2-5.3c-0.9-0.3-5.3-1.8-9.6,0.2c-6.2,2.8-9.9,11.6-7.2,18
	C215.8,34.6,229.2,36.6,235.2,30z"/>
</svg>
