<svg xmlns="http://www.w3.org/2000/svg" viewBox="0 0 318.975 318.975"><path d="M303.678 253.528c-11.151-37.754-67.121-33.566-91.279-44.408-24.157-10.842-20.386-47.219-23.449-53.548h-58.932c-3.058 6.329.714 42.711-23.449 53.548-24.157 10.842-80.133 6.655-91.279 44.408-6.149 20.824-5.857 27.193-7.554 50.26 0 0 76.8 15.187 150.014 15.187s153.488-15.187 153.488-15.187c-1.702-23.073-1.41-29.436-7.56-50.26z" fill="#e8c59e"/><path d="M303.678 253.528c-11.151-37.754-67.121-33.566-91.279-44.408-24.157-10.842-20.386-47.219-23.449-53.548h-31.206s-.719 51.024 23.438 61.866 80.133 6.655 91.279 44.408c5.857 19.83 5.868 26.552 7.324 47.073 19.234-2.816 31.442-5.126 31.442-5.126-1.691-23.078-1.399-29.441-7.549-50.265z" fill="#ddb58e"/><path d="M122.088 193.168c9.78 7.959 21.24 15.85 37.338 18.132 16.137-2.288 27.569-10.342 37.36-18.334-8.144-14.973-5.626-32.83-7.83-37.4h-58.938c-2.214 4.576.254 22.623-7.93 37.602z" fill="#cca281"/><ellipse transform="rotate(100.195 228.529 118.567)" cx="228.527" cy="118.567" rx="21.386" ry="11.629" fill="#ddb58e"/><ellipse transform="rotate(169.801 90.27 118.575)" cx="90.269" cy="118.575" rx="11.629" ry="21.386" fill="#e8c59e"/><path d="M223.647 47.375l-64.221-30.16-64.187 30.16S59.25 193.989 159.426 208.181c100.215-14.192 64.221-160.806 64.221-160.806z" fill="#e8c59e"/><path d="M159.426 208.181c100.216-14.192 64.221-160.806 64.221-160.806h-15.024c4.114 61.242 9.808 93.774-13.815 129.24-18.717 28.104-35.382 31.566-35.382 31.566z" fill="#ddb58e"/><path d="M102.332 89.215s41.744 27.429 114.936 17.868V89.215H102.332z" fill="#ddb58e"/><path d="M151.164 101.878c33.358 5.008 65.165-.18 65.165-.18 2.585 6.762 3.586 28.069 3.861 38.018l6.441-.045c3.041-10.156 6.863-43.178 6.863-43.178 16.525-9.538 27.726-24.759 30.127-38.743 0 0-8.504 4.699-22.218-2.9 13.242-10.713 10.05-28.215 10.05-28.215s-13.669 7.059-20.897 5.014c0 0 6.7-5.059 5.632-18.452 0 0-8.656 8.656-16.62 7.065 0 0 6.823-5.238.899-15.035 0 0-10.022 7.745-23.297 5.632 0 0 6.334-2.9 6.334-10.859 0 0-17.205 11.393-40.896 7.728-22.095-3.417-37.113 4.373-48.86 16.339 0 0-9.864-1.585-19.2 7.655s-8.892 9.24-14.709 10.134c0 0 1.102 9.049 6.458 10.308 0 0-1.759 7.599-8.92 8.268 0 0 1.681 17.907 7.779 18.582 0 0-1.163 8.909-6.936 11.438 0 0 1.709 10.752 9.055 17.907l4.991 31.346h7.133c-.697-27.923 2.94-50.507 2.94-50.507s19.092 8.223 48.825 12.68z" fill="#f2ac2f"/><path d="M226.013 59.325c8.841.45 15.389-4.468 15.389-4.468.95.528 1.872.989 2.765 1.4-8.711 6.007-18.154 3.068-18.154 3.068zM217.268 35.712c8.38.781 13.287-4.052 13.287-4.052 1.175.332 2.518.422 3.946.343-5.396 6.919-17.233 3.709-17.233 3.709zM208.55 22.392c5.598 1.343 11.016-2.125 11.016-2.125 1.518.304 3.058.236 4.558-.073 0 .045-.017.073-.017.073-6.041 5.598-15.557 2.125-15.557 2.125zM187.731 12.763c4.586.225 9.437-1.9 9.437-1.9 1.489.236 2.934.343 4.333.36-7.497 3.272-13.77 1.54-13.77 1.54z" fill="#e59a23"/><path d="M86.538 214.757c-8.043 1.624-16.884 3.119-25.557 5.21 1.09 11.489 5.143 58.404 2.226 92.442 27.221 3.423 61.253 6.565 94.544 6.565 34.022 0 69.566-3.282 97.872-6.79-2.878-34.044 1.169-80.83 2.248-92.246-8.678-2.085-17.519-3.58-25.551-5.205-16.069 56.245-58.404 55.683-72.894 55.683-14.49.002-56.813.564-72.888-55.659z" fill="#eae5dc"/><path d="M227.435 228.443c10.454 2.557 20.628 6.008 28.817 11.607.624-9.257 1.27-16.48 1.619-20.116-8.678-2.085-17.519-3.58-25.551-5.205-1.434 5.014-3.075 9.566-4.885 13.714z" fill="#e0dbd3"/></svg>