<svg xmlns="http://www.w3.org/2000/svg" viewBox="0 0 318.549 318.549"><path d="M90.69 151.352l15.592 31.655C61.947 149.272 63.813 105.038 64.6 93.943 67.308 55.717 91.33 0 157.946 0c58.319 0 72.135 26.653 69.364 44.841 0 0 6.042-1.742 11.792 3.282 14.153 12.388 18.239 53.907 4.367 88.665-19.307 48.382-48.984 55.745-48.984 55.745L90.69 151.352z" fill="#2f3233"/><path d="M295.392 253.102c-10.522-37.754-63.361-33.566-86.164-44.408-22.803-10.842-19.245-47.219-22.134-53.548h-55.638c-2.889 6.329.674 42.711-22.134 53.548-22.803 10.842-75.642 6.655-86.164 44.408-5.806 20.824-5.525 27.187-7.133 50.26 0 0 72.5 15.187 141.611 15.187s144.888-15.187 144.888-15.187c-1.601-23.073-1.325-29.436-7.132-50.26z" fill="#e8c59e"/><path d="M157.637 318.548c34.803 0 71.303-3.85 98.957-7.678a366.467 366.467 0 01-.601-14.136c-.433-20.049-33.538-18.312-58.831-10.156-21.302 6.868-34.151 19.054-37.883 19.054-3.738 0-16.586-12.185-37.883-19.054-25.293-8.155-58.398-9.892-58.831 10.156-.09 4.215-.32 9.836-.618 14.366 26.635 3.75 61.573 7.448 95.69 7.448z" fill="#393c3d"/><path d="M179.765 217.006c22.803 10.842 75.642 6.655 86.164 44.408 5.531 19.83 5.542 26.552 6.913 47.073 18.155-2.816 29.682-5.126 29.682-5.126-1.602-23.067-1.326-29.435-7.133-50.26-10.522-37.754-63.361-33.566-86.164-44.408-22.803-10.842-19.245-47.219-22.134-53.548h-29.458c.002.001-.678 51.025 22.13 61.861z" fill="#ddb58e"/><path d="M123.975 192.742c9.229 7.959 20.054 15.85 35.241 18.132 15.237-2.288 26.023-10.342 35.269-18.334-7.689-14.973-5.311-32.83-7.391-37.4h-55.638c-2.085 4.575.242 22.623-7.481 37.602z" fill="#cca281"/><ellipse transform="rotate(100.195 224.162 118.142)" cx="224.16" cy="118.142" rx="21.386" ry="11.629" fill="#ddb58e"/><ellipse transform="rotate(169.801 94.22 118.149)" cx="94.219" cy="118.148" rx="11.629" ry="21.386" fill="#e8c59e"/><path d="M219.649 46.949l-59.91 9.218s-21.229.922-38.552 9.729c-15.901 8.088-28.002 23.91-28.159 28.378-1.551 44.156 7.464 104.645 66.171 113.48 94.331-14.191 60.45-160.805 60.45-160.805z" fill="#e8c59e"/><path d="M159.199 207.755c94.331-14.192 60.45-160.806 60.45-160.806h-14.141c3.873 61.242 9.229 93.774-13.006 129.24-17.616 28.103-33.303 31.566-33.303 31.566z" fill="#ddb58e"/><path d="M217.406 40.418s-34.983.107-81.51 14.883c-65.025 20.65-35.933 100.693-34.865 102.638 0 0 .59-58.606 34.207-76.98 17.8-9.729 36.028-10.336 55.762-8.144 21.33 2.372 30.863-11.185 30.863-11.185l-4.457-21.212z" fill="#ddb58e"/><path d="M215.67 34.415s-33.257 6.43-81.853 11.101c-74.501 7.161-63.861 76.142-46.095 111.822 9.038 18.155 18.503 25.956 18.559 25.675 0 0-12.056-27.867-.613-66.925 8.032-27.412 30.689-50.822 73.703-47.893 41.03 2.793 43.897-15.918 43.897-15.918s2.024-9.324-7.598-17.862z" fill="#2f3233"/><g fill="#eae5dc"><circle cx="216.693" cy="211.762" r="4.721"/><circle cx="214.916" cy="220.991" r="4.721"/><circle cx="212.37" cy="230.052" r="4.721"/><circle cx="209.762" cy="239.056" r="4.721"/><circle cx="205.474" cy="247.436" r="4.721"/><circle cx="200.325" cy="255.373" r="4.721"/><circle cx="194.441" cy="263.039" r="4.721"/><circle cx="188.511" cy="270.56" r="4.721"/><circle cx="181.311" cy="276.495" r="4.721"/><circle cx="173.993" cy="282.475" r="4.721"/><circle cx="166.669" cy="288.602" r="4.721"/><circle cx="159.216" cy="294.385" r="4.721"/><circle cx="101.74" cy="211.762" r="4.721"/><circle cx="103.516" cy="220.991" r="4.721"/><circle cx="106.056" cy="230.052" r="4.721"/><circle cx="108.67" cy="239.056" r="4.721"/><circle cx="112.953" cy="247.436" r="4.721"/><circle cx="118.107" cy="255.373" r="4.721"/><circle cx="123.992" cy="263.039" r="4.721"/><circle cx="129.922" cy="270.56" r="4.721"/><circle cx="137.122" cy="276.495" r="4.721"/><circle cx="144.44" cy="282.475" r="4.721"/><circle cx="151.763" cy="288.602" r="4.721"/></g><circle cx="228.226" cy="134.928" r="4.367" fill="#eae5dc"/></svg>