<svg version="1.1" id="Layer_1" xmlns="http://www.w3.org/2000/svg" x="0" y="0" viewBox="0 0 318.5 318.5" xml:space="preserve"><style>.st1{fill:#f9efe8}.st2{fill:#fff}</style><path d="M255.6 92.3c32.7 42.7 31.3 113.6-3.6 144.8-13.7 12.2-16.1 3.7-139.2 7.2-25.3.7-54.4 1.9-74.2-17.7-7.9-7.8-11.3-15.8-14.8-24.5-12.5-30.4-18.3-84 13.9-118.9 14.7-15.9 31.8-22 48.7-28 31.4-11.1 58.8-9.9 72.2-8.4 19.9 2.4 67.9 7.6 97 45.5z" fill="#fff" stroke="#000" stroke-width="13" stroke-miterlimit="10"/><path d="M68.3 128.7c-6.4-6.9-7.4-19.1-2-27.2 4.1-6.2 10.5-8.3 12.4-8.9 1.5-.5 9.1-2.9 16.5.3 10.6 4.7 17.1 19.3 12.4 29.8-6 13.7-29.1 16.9-39.3 6zM207.2 202.7c-11.6 19.4-43.2 20.9-49.1 21.2-10 .5-26.6 1.3-40.9-9.2-10.4-7.7-17.3-19.6-15.3-21.8 1.6-1.7 7.7 3.8 20.1 8.1 14.5 5.1 27 4.9 32.5 4.8 19.5-.4 35.6-6.9 37.3-7.6 9.2-3.8 15.9-8.2 18.1-6 2.1 2.3-2.3 9.8-2.7 10.5zM183 125.9c-6.4-6.9-7.4-19.1-2-27.2 4.1-6.2 10.5-8.3 12.4-8.9 1.5-.5 9.1-2.9 16.5.3 10.6 4.7 17.1 19.3 12.4 29.8-6.1 13.7-29.1 17-39.3 6z"/><path class="st2" d="M83.9 113c-2.8-2.8-3.2-7.6-.9-10.9 1.8-2.5 4.6-3.3 5.4-3.5.7-.2 4-1.2 7.2.1 4.6 1.9 7.4 7.7 5.4 11.9-2.6 5.5-12.6 6.8-17.1 2.4zM200.9 110.6c-2.8-2.8-3.2-7.6-.9-10.9 1.8-2.5 4.6-3.3 5.4-3.5.7-.2 4-1.2 7.2.1 4.6 1.9 7.4 7.7 5.4 11.9-2.7 5.5-12.7 6.8-17.1 2.4z"/><path d="M168.1 181.8c-1 1.8-3.7 1.8-14.8 1.6-12.1-.3-14.7-.4-16-2.4-1.7-2.5-.3-5.9.8-9.2 6.9-20 3.7-29.3 7.6-30.1 4.8-1 7.2 13.3 20.5 33.3.9 1.5 3.1 4.7 1.9 6.8zM72 64.3c-2.2 4.1-12.5 5.2-14.8 1.6-1.5-2.3-15-40.2-7.6-41.7 4.8-1 7.2 13.3 20.5 33.3.9 1.4 3 4.6 1.9 6.8z"/><path d="M36.1 33.9c-3.7-4.2-4.3-11.5-1.2-16.4 2.4-3.7 6.1-5 7.2-5.3.9-.3 5.3-1.8 9.6.2 6.2 2.8 9.9 11.6 7.2 18-3.5 8.1-16.9 10.1-22.8 3.5zM199.3 60.4c2.2 4.1 12.5 5.2 14.8 1.6 1.5-2.3 15-40.2 7.6-41.7-4.8-1-7.2 13.3-20.5 33.3-.9 1.4-3.1 4.6-1.9 6.8z"/><path d="M235.2 30c3.7-4.2 4.3-11.5 1.2-16.4-2.4-3.7-6.1-5-7.2-5.3-.9-.3-5.3-1.8-9.6.2-6.2 2.8-9.9 11.6-7.2 18 3.4 8.1 16.8 10.1 22.8 3.5z"/></svg>