<svg xmlns="http://www.w3.org/2000/svg" viewBox="0 0 319.049 319.049"><path d="M295.642 253.602c-10.522-37.754-63.361-33.566-86.164-44.408-22.803-10.842-19.245-47.219-22.134-53.548h-55.638c-2.889 6.329.674 42.711-22.134 53.548-22.803 10.842-75.642 6.655-86.164 44.408-5.806 20.824-5.525 27.187-7.133 50.26 0 0 72.5 15.187 141.611 15.187s144.888-15.187 144.888-15.187c-1.601-23.073-1.326-29.436-7.132-50.26z" fill="#e8c59e"/><path d="M180.015 217.506c22.803 10.842 75.642 6.655 86.164 44.408 5.531 19.83 5.542 26.552 6.913 47.073 18.155-2.816 29.682-5.126 29.682-5.126-1.602-23.067-1.326-29.435-7.133-50.26-10.522-37.754-63.361-33.566-86.164-44.408-22.803-10.842-19.245-47.219-22.134-53.548h-29.458c.002.001-.678 51.025 22.13 61.861z" fill="#ddb58e"/><path d="M61.915 311.561c26.675 3.76 61.737 7.487 95.972 7.487 35.326 0 72.388-3.968 100.187-7.846 13.383-11.792 33.156-14.361 44.201-14.81-1.124-17.283-1.506-24.405-6.632-42.79-9.724-34.887-55.582-33.96-80.482-42.171 3.058 17.874-48.877 37.366-55.363 37.366-6.486 0-58.359-20.054-55.335-37.557-24.764 8.42-71.253 7.211-81.049 42.363-5.12 18.374-5.508 25.495-6.632 42.767 11.038.392 31.536 2.894 45.133 15.191z" fill="#e0605c"/><g fill="#f9f5ed"><circle cx="55.569" cy="243.327" r="10.393"/><circle cx="97.145" cy="243.327" r="10.393"/><path d="M138.726 253.725c4.924 0 9.044-3.423 10.117-8.021a165.353 165.353 0 01-18.677-8.279 10.347 10.347 0 00-1.838 5.902c.005 5.745 4.659 10.398 10.398 10.398zM180.307 253.725c5.739 0 10.393-4.654 10.393-10.393 0-2.023-.579-3.912-1.579-5.508-6.649 3.389-13.439 6.211-18.874 8.144 1.168 4.458 5.232 7.757 10.06 7.757z"/><circle cx="221.889" cy="243.327" r="10.393"/><circle cx="263.47" cy="243.327" r="10.393"/><path d="M24.38 284.909c0-4.097-2.372-7.638-5.812-9.33-.809 5.812-1.192 11.528-1.697 19.318 4.339-1.254 7.509-5.25 7.509-9.988z"/><circle cx="55.569" cy="284.909" r="10.393"/><circle cx="97.145" cy="284.909" r="10.393"/><circle cx="138.726" cy="284.909" r="10.393"/><circle cx="180.307" cy="284.909" r="10.393"/><circle cx="221.889" cy="284.909" r="10.393"/><circle cx="263.47" cy="284.909" r="10.393"/><path d="M294.653 284.909c0 4.744 3.181 8.746 7.526 9.988-.506-7.796-.888-13.512-1.697-19.329a10.396 10.396 0 00-5.829 9.341zM132.195 318.407c4.525.219 9.077.382 13.636.495a10.372 10.372 0 00-7.099-2.805 10.32 10.32 0 00-6.537 2.31zM173.304 318.812c4.457-.135 8.914-.32 13.355-.551a10.35 10.35 0 00-6.346-2.164 10.328 10.328 0 00-7.009 2.715z"/></g><path d="M295.642 253.602c-9.724-34.887-55.582-33.96-80.482-42.171.545 3.181-.658 8.251-3.035 14.434 22.662 4.744 47.236 11.601 54.053 36.056 4.89 17.536 5.463 24.821 6.481 40.452 10.747-4.407 22.168-5.677 29.615-5.98-1.123-17.291-1.506-24.412-6.632-42.791z" opacity=".25" fill="#b53c39"/><path d="M225.739 257.879c15.603-11.899 20.774-29.03 22.488-38.883-11.966-2.777-23.927-4.558-33.072-7.571 3.058 17.874-48.877 37.366-55.363 37.366 9.831 36.011 41.413 27.799 65.947 9.088z" fill="#f9f5ed"/><path d="M208.405 225.094c11.725 2.383 24.264 5.115 34.808 10.415 2.788-6.216 4.249-12.096 5.019-16.508-11.966-2.777-23.927-4.558-33.072-7.571.782 4.564-2.028 9.235-6.755 13.664z" fill="#eae5dc"/><path d="M71.34 218.878c1.692 9.83 6.846 27.058 22.511 39.001 24.54 18.711 56.116 26.923 65.947-9.089-6.486 0-58.359-20.054-55.335-37.557-9.083 3.092-21.078 4.885-33.123 7.645z" fill="#f9f5ed"/><path d="M124.225 193.242c9.229 7.959 20.054 15.85 35.241 18.132 15.237-2.288 26.023-10.342 35.269-18.334-7.689-14.973-5.311-32.83-7.391-37.4h-55.638c-2.085 4.575.242 22.623-7.481 37.602z" fill="#cca281"/><ellipse transform="rotate(100.195 224.412 118.642)" cx="224.41" cy="118.642" rx="21.386" ry="11.629" fill="#ddb58e"/><ellipse transform="rotate(169.801 94.47 118.649)" cx="94.469" cy="118.648" rx="11.629" ry="21.386" fill="#e8c59e"/><path d="M159.989 27.895c-40.092 0-65.874 21.28-66.683 40.699-.793 19.02.124 21.712-.028 26.181-1.551 44.156 7.464 104.645 66.171 113.48 62.979-9.476 68.808-77.969 65.727-122.456-.573-8.274-.843-11.297-.809-21.471.045-14.35-24.286-36.433-64.378-36.433z" fill="#e8c59e"/><path d="M159.449 208.255c94.331-14.192 60.45-160.806 60.45-160.806h-14.141c3.873 61.242 9.229 93.774-13.006 129.24-17.616 28.103-33.303 31.566-33.303 31.566z" fill="#ddb58e"/><path d="M205.656 26.04h-92.813v67.599h2.602c3.367-26.479 4.519-61.422 44.004-47.106 39.485-14.321 40.637 20.628 44.004 47.106h2.209V26.04h-.006z" fill="#ddb58e"/><path d="M248.497 100.198c-7.869-40.468-23.567-83.826-57.268-95.539C175.8-.703 165.256-.416 159.444.578c-5.812-1-16.356-1.282-31.785 4.081-33.701 11.713-49.4 55.071-57.268 95.539s-32.594 126.003 78.127 109.029c0 0-26.563-1.321-34.887-23.534-6.407-17.104-1.27-68.195 2.226-95.298 3.423-26.535 3.856-62.012 43.588-47.601 39.732-14.406 40.165 21.066 43.588 47.601 3.496 27.103 8.633 78.194 2.226 95.298-8.324 22.213-34.887 23.534-34.887 23.534 110.719 16.974 85.993-68.56 78.125-109.029z" fill="#393c3d"/></svg>