<svg xmlns="http://www.w3.org/2000/svg" viewBox="0 0 318.55 318.55"><path d="M303.466 253.103c-11.151-37.754-67.121-33.566-91.279-44.408-24.157-10.842-20.386-47.219-23.449-53.548h-58.932c-3.058 6.329.714 42.711-23.449 53.548-24.157 10.842-80.133 6.655-91.279 44.408-6.149 20.824-5.857 27.193-7.554 50.26 0 0 76.8 15.187 150.014 15.187s153.488-15.187 153.488-15.187c-1.703-23.073-1.411-29.436-7.56-50.26z" fill="#dd491b"/><path fill="#e55420" d="M150.951 200.623h16.631v8.319h-16.631zM106.357 208.694c-.185.084-.371.163-.562.247h11.888v-8.319h-.753c-2.749 3.306-6.2 6.111-10.573 8.072zM175.895 200.623h16.631v8.319h-16.631zM126.001 200.623h16.631v8.319h-16.631zM200.845 208.942h11.904c-.191-.084-.377-.163-.562-.247-4.373-1.962-7.824-4.761-10.572-8.071h-.77v8.318zM275.689 233.892h14.996c-4.114-3.395-8.881-6.098-14.035-8.318h-.961v8.318zM101.051 225.573h16.631v8.319h-16.631zM200.845 225.573h16.631v8.319h-16.631zM150.951 225.573h16.631v8.319h-16.631zM76.107 225.573h16.631v8.319H76.107zM225.795 225.573h16.631v8.319h-16.631zM41.894 225.573c-5.154 2.22-9.92 4.924-14.035 8.318h14.979v-8.318h-.944zM175.895 225.573h16.631v8.319h-16.631zM126.001 225.573h16.631v8.319h-16.631zM250.739 225.573h16.631v8.319h-16.631zM51.157 225.573h16.631v8.319H51.157zM200.845 250.523h16.631v8.319h-16.631zM175.895 250.523h16.631v8.319h-16.631zM250.739 250.523h16.631v8.319h-16.631zM17.894 250.523h-1.962a39.167 39.167 0 00-.854 2.58 294.406 294.406 0 00-1.63 5.739h4.446v-8.319zM275.689 250.523h16.631v8.319h-16.631zM300.639 258.836h4.457a306.888 306.888 0 00-1.63-5.739 40.175 40.175 0 00-.854-2.58h-1.973v8.319zM126.001 250.523h16.631v8.319h-16.631zM76.107 250.523h16.631v8.319H76.107zM101.051 250.523h16.631v8.319h-16.631zM26.207 250.523h16.631v8.319H26.207zM225.795 250.523h16.631v8.319h-16.631zM150.951 250.523h16.631v8.319h-16.631zM51.157 250.523h16.631v8.319H51.157zM26.207 275.467h16.631v8.319H26.207zM51.157 275.467h16.631v8.319H51.157zM275.689 275.467h16.631v8.319h-16.631zM250.739 275.467h16.631v8.319h-16.631zM76.107 275.467h16.631v8.319H76.107zM300.639 283.786h8.959c-.259-2.906-.551-5.609-.944-8.319h-8.015v8.319zM175.895 275.467h16.631v8.319h-16.631zM150.951 275.467h16.631v8.319h-16.631zM126.001 275.467h16.631v8.319h-16.631zM200.845 275.467h16.631v8.319h-16.631zM225.795 275.467h16.631v8.319h-16.631zM17.894 275.467H9.89a153.646 153.646 0 00-.944 8.319h8.942v-8.319h.006zM101.051 275.467h16.631v8.319h-16.631zM126.001 300.417h16.631v8.319h-16.631zM101.051 300.417h16.631v8.319h-16.631zM17.894 305.257v-4.839H7.738c-.067.95-.141 1.928-.214 2.945 0-.001 3.744.736 10.37 1.894zM150.951 300.417h16.631v8.319h-16.631zM300.639 305.184c6.627-1.113 10.387-1.827 10.387-1.827-.073-1.012-.146-1.99-.214-2.945h-10.173v4.772zM200.845 300.417h16.631v8.319h-16.631zM175.895 300.417h16.631v8.319h-16.631zM51.157 300.417h16.631v8.319H51.157zM76.107 300.417h16.631v8.319H76.107zM42.839 300.417H26.207v6.245c3.906.641 8.335 1.343 13.22 2.074h3.417v-8.318h-.005v-.001zM292.321 300.417H275.69v8.318h2.203c5.356-.776 10.201-1.518 14.428-2.192v-6.126zM225.795 300.417h16.631v8.319h-16.631zM250.739 300.417h16.631v8.319h-16.631z"/><path fill="#e55420" d="M17.894 283.786h8.319v16.631h-8.319zM26.207 250.523v-15.198c-3.322 3.035-6.149 6.582-8.319 10.758v4.44h8.319zM17.894 258.836h8.319v16.631h-8.319z"/><path fill="#ef6535" d="M17.894 250.523h8.319v8.319h-8.319zM17.894 275.467h8.319v8.319h-8.319zM17.894 305.257c2.406.422 5.193.894 8.319 1.405v-6.245h-8.319v4.84z"/><path d="M51.157 225.573v-3.395a100.57 100.57 0 00-8.319 2.996v.399h8.319zM42.839 233.892h8.319v16.631h-8.319zM42.839 283.786h8.319v16.631h-8.319zM42.839 258.836h8.319v16.631h-8.319zM42.839 308.736v.506c2.659.388 5.435.787 8.319 1.18v-1.686h-8.319z" fill="#e55420"/><path fill="#ef6535" d="M42.839 225.573h8.319v8.319h-8.319zM42.839 250.523h8.319v8.319h-8.319zM42.839 275.467h8.319v8.319h-8.319zM42.839 300.417h8.319v8.319h-8.319z"/><path fill="#e55420" d="M67.788 233.892h8.319v16.631h-8.319zM67.788 258.836h8.319v16.631h-8.319zM76.107 225.573v-9.263a533.566 533.566 0 00-8.319 1.658v7.605h8.319zM67.788 308.736v3.839c2.715.326 5.491.652 8.319.967v-4.811h-8.319v.005zM67.788 283.786h8.319v16.631h-8.319z"/><path fill="#ef6535" d="M67.788 225.573h8.319v8.319h-8.319zM67.788 250.523h8.319v8.319h-8.319zM67.788 275.467h8.319v8.319h-8.319zM67.788 300.417h8.319v8.319h-8.319z"/><path fill="#e55420" d="M92.738 233.892h8.319v16.631h-8.319zM92.738 308.736v6.526c2.743.259 5.514.506 8.319.742v-7.262h-8.319v-.006zM101.051 225.573v-14.872c-2.569.832-5.362 1.563-8.319 2.254v12.618h8.319zM92.738 258.836h8.319v16.631h-8.319zM92.738 283.786h8.319v16.631h-8.319z"/><path fill="#ef6535" d="M92.738 225.573h8.319v8.319h-8.319zM92.738 250.523h8.319v8.319h-8.319zM92.738 275.467h8.319v8.319h-8.319zM92.738 300.417h8.319v8.319h-8.319z"/><path fill="#e55420" d="M117.683 283.786h8.319v16.631h-8.319zM117.683 233.892h8.319v16.631h-8.319zM117.683 308.736v8.487c2.76.174 5.531.332 8.319.478v-8.965h-8.319zM117.683 208.942h8.319v16.631h-8.319zM117.683 258.836h8.319v16.631h-8.319zM117.683 200.623h8.319v8.319h-8.319z"/><path fill="#ef6535" d="M117.683 225.573h8.319v8.319h-8.319zM117.683 250.523h8.319v8.319h-8.319zM117.683 275.467h8.319v8.319h-8.319zM117.683 300.417h8.319v8.319h-8.319z"/><path fill="#e55420" d="M142.633 233.892h8.319v16.631h-8.319zM142.633 308.736v9.617c2.771.073 5.542.124 8.319.157v-9.774h-8.319zM142.633 258.836h8.319v16.631h-8.319zM142.633 283.786h8.319v16.631h-8.319zM142.633 208.942h8.319v16.631h-8.319zM142.633 200.623h8.319v8.319h-8.319z"/><path fill="#ef6535" d="M142.633 225.573h8.319v8.319h-8.319zM142.633 250.523h8.319v8.319h-8.319zM142.633 275.467h8.319v8.319h-8.319zM142.633 300.417h8.319v8.319h-8.319z"/><path fill="#e55420" d="M167.582 283.786h8.319v16.631h-8.319zM167.582 233.892h8.319v16.631h-8.319zM167.582 258.836h8.319v16.631h-8.319zM167.582 208.942h8.319v16.631h-8.319zM167.582 308.736v9.724a594.35 594.35 0 008.319-.208v-9.516h-8.319zM167.582 200.623h8.319v8.319h-8.319z"/><path fill="#ef6535" d="M167.582 225.573h8.319v8.319h-8.319zM167.582 250.523h8.319v8.319h-8.319zM167.582 275.467h8.319v8.319h-8.319zM167.582 300.417h8.319v8.319h-8.319z"/><path fill="#e55420" d="M192.532 208.942h8.319v16.631h-8.319zM192.532 258.836h8.319v16.631h-8.319zM192.532 308.736v8.791c2.782-.152 5.559-.32 8.319-.506v-8.285h-8.319zM192.532 233.892h8.319v16.631h-8.319zM192.532 283.786h8.319v16.631h-8.319zM192.532 200.623h8.319v8.319h-8.319z"/><path fill="#ef6535" d="M192.532 225.573h8.319v8.319h-8.319zM192.532 250.523h8.319v8.319h-8.319zM192.532 275.467h8.319v8.319h-8.319zM192.532 300.417h8.319v8.319h-8.319z"/><path fill="#e55420" d="M217.477 258.836h8.319v16.631h-8.319zM217.477 283.786h8.319v16.631h-8.319zM217.477 308.736v7.02c2.799-.242 5.576-.489 8.318-.748v-6.273h-8.318v.001zM225.795 212.949c-2.956-.686-5.75-1.422-8.318-2.254v14.878h8.318v-12.624zM217.477 233.892h8.319v16.631h-8.319z"/><path fill="#ef6535" d="M217.477 225.573h8.319v8.319h-8.319zM217.477 250.523h8.319v8.319h-8.319zM217.477 275.467h8.319v8.319h-8.319zM217.477 300.417h8.319v8.319h-8.319z"/><path fill="#e55420" d="M242.427 283.786h8.319v16.631h-8.319zM250.739 225.573v-7.605a519.962 519.962 0 00-8.319-1.658v9.263h8.319zM242.427 233.892h8.319v16.631h-8.319zM242.427 308.736v4.553c2.827-.315 5.598-.635 8.319-.961v-3.592h-8.319zM242.427 258.836h8.319v16.631h-8.319z"/><path fill="#ef6535" d="M242.427 225.573h8.319v8.319h-8.319zM242.427 250.523h8.319v8.319h-8.319zM242.427 275.467h8.319v8.319h-8.319zM242.427 300.417h8.319v8.319h-8.319z"/><path fill="#e55420" d="M267.376 258.836h8.319v16.631h-8.319zM267.376 283.786h8.319v16.631h-8.319zM267.376 308.736v1.473c2.883-.388 5.654-.776 8.319-1.158v-.315h-8.319zM267.376 233.892h8.319v16.631h-8.319zM267.376 225.573h8.319v-.405a97.68 97.68 0 00-8.319-2.996v3.401z"/><path fill="#ef6535" d="M267.376 225.573h8.319v8.319h-8.319zM267.376 250.523h8.319v8.319h-8.319zM267.376 275.467h8.319v8.319h-8.319zM267.376 300.417h8.319v8.319h-8.319z"/><path d="M292.321 235.308v15.215h8.319v-4.468c-2.17-4.176-4.997-7.717-8.319-10.747zM292.321 258.836h8.319v16.631h-8.319zM292.321 283.786h8.319v16.631h-8.319z" fill="#e55420"/><path fill="#ef6535" d="M292.321 250.523h8.319v8.319h-8.319zM292.321 275.467h8.319v8.319h-8.319zM292.321 306.544c3.125-.495 5.907-.956 8.319-1.36v-4.766h-8.319v6.126z"/><path d="M303.466 253.103c-11.151-37.754-67.121-33.566-91.279-44.408a28.297 28.297 0 01-3.237-1.703s-4.721 6.52-11.326 14.951c27.119 5.829 65.598 8.881 74.631 39.474 5.857 19.83 5.868 26.552 7.324 47.073 19.234-2.816 31.442-5.126 31.442-5.126-1.698-23.074-1.406-29.437-7.555-50.261z" opacity=".25" fill="#b22904"/><path fill="#b22904" d="M109.027 207.329l19.026 34.617 24.921-36.27zM165.452 205.676l20.24 30.902 3.513 5.368 10.994-19.464 8.751-15.491z"/><path d="M152.974 205.676l-32.105-14.557s-3.389 4.817-11.843 16.21l19.251 29.092 24.697-30.745zM165.452 205.676l31.183-14.557s3.861 4.48 12.315 15.873l-19.723 29.43-23.775-30.746z" fill="#eaeae1"/><path d="M208.95 206.991c-8.453-11.393-12.315-15.873-12.315-15.873l-28.575 13.338c3.221 5.548 7.425 10.083 12.916 12.551 4.851 2.175 10.988 3.749 17.789 5.177l10.185-15.193z" fill="#e0dbd3"/><circle cx="159.213" cy="225.292" r="6.7" fill="#e0dbd3"/><circle cx="159.213" cy="250.242" r="6.7" fill="#e0dbd3"/><circle cx="159.213" cy="275.192" r="6.7" fill="#e0dbd3"/><circle cx="159.213" cy="300.142" r="6.7" fill="#e0dbd3"/><path d="M81.064 107.388s-16.733-56.229 5.154-60.315c0 0 5.109-47.073 71.725-47.073 58.32 0 73.624 27.766 75.755 49.478 0 0 20.622 0 4.204 59.489l-37.956 46.05h-87.552l-31.33-47.629z" fill="#4c3626"/><ellipse transform="rotate(100.195 228.316 118.141)" cx="228.314" cy="118.142" rx="21.386" ry="11.629" fill="#ddb58e"/><ellipse transform="rotate(169.801 90.058 118.15)" cx="90.057" cy="118.15" rx="11.629" ry="21.386" fill="#e8c59e"/><path d="M223.434 46.95l-63.653 9.218s-22.556.922-40.957 9.729c-16.89 8.088-29.75 23.91-29.919 28.378-1.647 44.156 7.931 104.645 70.303 113.48C259.429 193.564 223.434 46.95 223.434 46.95z" fill="#e8c59e"/><path d="M159.213 207.756C259.429 193.564 223.434 46.95 223.434 46.95h-15.023c4.114 61.242 9.808 93.774-13.815 129.24-18.718 28.103-35.383 31.566-35.383 31.566z" fill="#ddb58e"/><path d="M221.051 40.419S186.31 56.14 134.454 55.302c-45.712-.736-45.117 36.146-45.516 38.636 0 0 10.662-18.593 40.384-23.685 27.007-4.626 48.512 3.114 67.818 4.822 21.488 1.9 28.648-13.445 28.648-13.445l-4.737-21.211z" fill="#ddb58e"/><path d="M219.208 34.416s-32.909 18.171-84.748 16.733c-55.408-1.54-45.802 41.654-45.516 42.795 0 0 5.711-20.24 35.157-26.76 19.116-4.232 37.484-2.552 56.538 1.006 42.857 8.004 46.64-15.918 46.64-15.918s2.147-9.318-8.071-17.856z" fill="#4c3626"/></svg>