<svg xmlns="http://www.w3.org/2000/svg" viewBox="0 0 339.376 339.376"><path d="M313.879 273.929c-11.151-37.754-67.121-33.566-91.279-44.408-24.157-10.842-20.386-47.219-23.449-53.548h-58.932c-3.058 6.329.714 42.711-23.449 53.548-24.157 10.842-80.133 6.655-91.279 44.408-6.149 20.824-5.857 27.193-7.554 50.26 0 0 76.8 15.187 150.014 15.187s153.488-15.187 153.488-15.187c-1.703-23.073-1.411-29.436-7.56-50.26z" fill="#515151"/><g fill="#6d6d6d"><path d="M17.937 324.188s1.45.287 4.131.781v-38.147c-2.698 11.933-2.839 19.819-4.131 37.366zM30.381 263.379v63.058c1.298.225 2.687.455 4.159.703v-68.954a38.567 38.567 0 00-4.159 5.193zM42.859 251.373v77.115c1.343.214 2.726.427 4.159.646v-80.201a57.506 57.506 0 00-4.159 2.44zM55.331 245.168v85.203c1.36.197 2.743.393 4.159.59v-87.288a98.318 98.318 0 00-4.159 1.495zM67.808 241.217v90.874c1.366.18 2.754.36 4.159.54v-92.448c-1.393.326-2.782.674-4.159 1.034zM80.281 238.367v95.281c1.371.163 2.76.326 4.159.483v-96.59a610.6 610.6 0 00-4.159.826zM92.753 235.945v99.103c1.377.146 2.76.287 4.159.427v-100.35c-1.366.275-2.754.544-4.159.82zM105.23 233.281v102.998c1.377.124 2.765.247 4.159.371V232.168c-1.343.388-2.731.759-4.159 1.113zM117.703 229.076v108.247c1.383.107 2.765.208 4.159.309v-111.04a28.59 28.59 0 01-4.159 2.484zM130.175 217.498v120.675c1.383.084 2.771.163 4.159.236V208.533c-1.074 3.114-2.428 6.155-4.159 8.965zM142.653 175.973v162.846c1.383.056 2.771.112 4.159.163V175.973h-4.159zM155.125 175.973v163.256c1.388.034 2.771.056 4.159.079V175.973h-4.159zM167.597 175.973v163.402h.348c1.265 0 2.535-.006 3.805-.011V175.973h-4.153zM180.075 175.973v163.273c1.383-.028 2.771-.062 4.159-.101V175.979h-4.159v-.006zM192.547 175.973v162.88c1.388-.056 2.771-.118 4.159-.18v-162.7h-4.159zM205.019 208.488v129.746c1.388-.079 2.777-.163 4.159-.253V217.476c-1.731-2.822-3.086-5.868-4.159-8.988zM217.497 226.581v110.827a901 901 0 004.159-.315V229.071a28.832 28.832 0 01-4.159-2.49zM229.969 232.162v104.24c1.394-.124 2.782-.247 4.159-.377v-102.75a107.142 107.142 0 01-4.159-1.113zM242.441 235.119v100.103c1.394-.141 2.782-.287 4.159-.427V235.94a521.92 521.92 0 01-4.159-.821zM254.919 237.535v96.343c1.4-.157 2.788-.32 4.159-.483v-95.033a802.012 802.012 0 00-4.159-.827zM267.391 240.177v92.212c1.405-.174 2.793-.354 4.159-.528v-90.649c-1.383-.36-2.765-.703-4.159-1.035zM279.869 243.668v87.08c1.411-.191 2.799-.388 4.159-.579v-85.006a103.73 103.73 0 00-4.159-1.495zM292.341 248.928v80.043l4.159-.624v-76.986a58.192 58.192 0 00-4.159-2.433zM304.813 258.169v68.869c1.473-.236 2.861-.466 4.159-.68v-63.001a38.506 38.506 0 00-4.159-5.188zM317.291 286.755v38.181c2.692-.478 4.148-.753 4.148-.753-1.299-17.576-1.439-25.456-4.148-37.428z"/></g><path d="M191.389 237.833c24.157 10.842 80.133 6.655 91.279 44.408 5.857 19.83 5.868 26.552 7.324 47.073 19.234-2.816 31.442-5.126 31.442-5.126-1.697-23.067-1.405-29.435-7.554-50.26-11.151-37.754-67.121-33.566-91.279-44.408-24.157-10.842-20.386-47.219-23.449-53.548h-31.206c.005.001-.715 51.025 23.443 61.861z" opacity=".25" fill="#303233"/><path opacity=".25" fill="#303233" d="M219.363 227.817l-33.05 28.716-16.687-27.951z"/><path opacity=".25" fill="#303233" d="M119.439 228.155l33.584 28.378 16.603-27.951z"/><path d="M169.626 228.582l-38.344-16.637s-3.389 4.817-11.843 16.21l31.723 22.853 18.464-22.426zM169.626 228.582l37.422-16.637s3.861 4.48 12.315 15.873l-32.195 23.191-17.542-22.427z" fill="#515151"/><path d="M207.048 211.945l-28.867 12.832c3.26 5.778 7.548 10.516 13.208 13.057 2.799 1.253 6.02 2.31 9.555 3.249l18.419-13.265c-8.454-11.394-12.315-15.873-12.315-15.873z" fill="#474747"/><g fill="#2f3233"><circle cx="169.626" cy="267.921" r="6.346"/><circle cx="169.626" cy="299.688" r="6.346"/><circle cx="169.626" cy="331.456" r="6.346"/></g><path d="M132.288 213.569c9.78 7.959 21.24 15.85 37.338 18.132 16.137-2.288 27.569-10.342 37.36-18.334-8.144-14.973-5.626-32.83-7.83-37.4h-58.938c-2.214 4.575.254 22.623-7.93 37.602z" fill="#c69e7f"/><ellipse transform="rotate(100.195 238.73 138.968)" cx="238.728" cy="138.968" rx="21.386" ry="11.629" fill="#ddb58e"/><ellipse transform="rotate(169.801 100.47 138.977)" cx="100.469" cy="138.976" rx="11.629" ry="21.386" fill="#e8c59e"/><path d="M233.847 67.776l-63.653 9.218-65.396-8.33s-5.48 31.83-5.48 46.438c0 44.184 7.931 104.645 70.303 113.48 100.22-14.192 64.226-160.806 64.226-160.806z" fill="#e8c59e"/><path d="M169.626 228.582c100.216-14.192 64.221-160.806 64.221-160.806h-15.024c4.114 61.242 9.808 93.774-13.815 129.24-18.717 28.104-35.382 31.566-35.382 31.566z" fill="#ddb58e"/><path d="M108.052 87.105s42.284 13.13 114.222-5.615V70.097L108.052 87.105z" fill="#ddb58e"/><path d="M96.929 133.116l4.322 13.995h8.706c.236-13.776.051-34.724-1.905-60.006 18.846 3.119 40.058 2.557 40.058 2.557 42.593-2.383 84.877-14.9 84.877-14.9-2.962 30.801-3.254 56.392-2.979 72.349h8.723l4.924-13.995c-6.183-16.699 7.7-94.511 7.7-94.511-15.299-5.935-26.883-1.647-26.883-1.647C190.737 15.347 156.659 20.4 156.659 20.4s-4.828-10.432-15.963-16.828C129.95-2.6 103.724-2.802 84.361 19.635c-16.244 18.818-15.03 51.552 3.097 61.355 1.467.793 3.091 1.512 4.839 2.17 3.12 17.407 6.532 40.305 4.632 49.956z" fill="#e0dbd3"/><path d="M159.211 59.12c10.572-9.358 7.088-29.795 5.812-39.232-5.261.051-8.369.511-8.369.511s10.359 23.224-.905 35.741c-5.059 5.615-13.293 8.212-25.096 7.155-1.017-.146-20.229-3.041-25.512-13.591-2.153-4.294-1.652-9.493 1.489-15.457 3.119-5.919 7.234-9.015 12.225-9.218 8.763-.348 22.297 6.801 22.297 6.801-1.726-2.788-12.084-11.798-22.404-11.427-6.745.242-12.157 4.165-16.103 11.646-3.889 7.385-4.407 14.035-1.529 19.768 6.492 12.944 28.081 15.946 28.997 16.064l.09.011c7.402.669 13.692.062 18.829-1.799 4.159-1.498 7.121-4.264 10.179-6.973z" fill="#c6c1ba"/><g fill="#eae5dc"><path d="M229.946 132.784c3.743-.877 8.38-2.327 12.601-4.659-.236-1.838-.377-3.934-.444-6.245-3.67 2.512-8.245 4.114-12.09 5.104-.027 1.995-.05 3.934-.067 5.8zM230.413 113.011a582.759 582.759 0 00-.202 5.896c3.766-1.023 8.099-2.591 11.938-4.963.073-2.288.191-4.688.348-7.166-3.294 3.001-7.914 4.968-12.084 6.233zM97.44 128.136c4.215 2.327 8.847 3.771 12.585 4.648a732.21 732.21 0 00-.073-5.8c-4.019-1.034-8.836-2.732-12.585-5.452.113 2.4.141 4.62.073 6.604zM95.749 104.934c.377 2.827.703 5.609.972 8.29 4.092 2.777 8.909 4.558 13.034 5.677a619.163 619.163 0 00-.202-5.896c-4.963-1.501-10.561-4.002-13.804-8.071z"/></g><g><path d="M181.868 179.368c-6.143.006-12.27 5.84-12.27 5.84s-6.126-5.834-12.27-5.84c-9.932-.011-17.525 26.288-42.059 25.995 0 0 12.562 9.347 27.164 9.347s27.164-11.978 27.164-11.978 12.562 11.978 27.164 11.978 27.164-9.347 27.164-9.347c-24.532.292-32.131-26.001-42.057-25.995z" fill="#e0dbd3"/></g></svg>