<svg xmlns="http://www.w3.org/2000/svg" viewBox="0 0 318.965 318.965"><path d="M303.676 253.518c-11.151-37.754-67.121-33.566-91.279-44.408-24.157-10.842-20.386-47.219-23.449-53.548h-58.932c-3.058 6.329.714 42.711-23.449 53.548-24.157 10.842-80.133 6.655-91.279 44.408-6.149 20.824-5.857 27.193-7.554 50.26 0 0 76.8 15.187 150.014 15.187s153.488-15.187 153.488-15.187c-1.703-23.073-1.411-29.436-7.56-50.26z" fill="#5c9ea0"/><path d="M181.186 217.422c24.157 10.842 80.133 6.655 91.279 44.408 5.857 19.83 5.868 26.552 7.324 47.073 19.234-2.816 31.442-5.126 31.442-5.126-1.697-23.067-1.405-29.435-7.554-50.26-11.151-37.754-67.121-33.566-91.279-44.408-24.157-10.842-20.386-47.219-23.449-53.548h-31.206c.005.001-.714 51.025 23.443 61.861z" fill="#44919b"/><path d="M310.247 289.743l-54.559 22.404.067.006c32.538-4.041 55.475-8.38 55.475-8.38-.399-5.481-.691-10.017-.983-14.03zM8.718 289.748c-.292 4.013-.585 8.549-.989 14.029 0 0 22.359 4.423 54.447 8.493l1.085-.118-54.543-22.404z" fill="#e8c59e"/><path d="M279.789 308.903c19.234-2.816 31.442-5.126 31.442-5.126-.405-5.48-.697-10.022-.989-14.035l-30.902 12.691c.139 2.008.286 4.149.449 6.47z" fill="#ddb58e"/><path d="M159.423 206.619a44.11 44.11 0 01-1.928-.045l-3.125 22.584a72.284 72.284 0 0010.24-.005l-3.125-22.589c-.685.039-1.371.055-2.062.055zM173.615 204.422L180.809 226a65.698 65.698 0 008.172-3.299l-9.409-20.453a58.916 58.916 0 01-5.957 2.174zM165.628 206.187l3.125 22.55a66.91 66.91 0 008.066-1.574l-7.228-21.69a47.773 47.773 0 01-3.963.714zM139.346 202.387l-9.415 20.465a68.593 68.593 0 008.217 3.221l7.189-21.572a63.107 63.107 0 01-5.991-2.114zM121.079 191.534s-3.389 4.817-11.843 16.21c0 0 2.085 2.569 6.155 5.93l11.061-18.166c-3.406-2.266-5.373-3.974-5.373-3.974zM149.385 205.518l-7.228 21.69a69.855 69.855 0 008.077 1.54l3.119-22.539a49.5 49.5 0 01-3.968-.691zM129.977 197.722l-11.275 18.514a68.98 68.98 0 007.515 4.738l9.33-20.279a74.73 74.73 0 01-5.57-2.973zM183.344 200.499l9.325 20.274a65.813 65.813 0 007.414-4.856l-11.264-18.497a71.288 71.288 0 01-5.475 3.079zM209.16 207.406c-8.453-11.393-12.315-15.873-12.315-15.873s-1.647 1.512-4.558 3.575l11.061 18.16c3.856-3.332 5.812-5.862 5.812-5.862z" fill="#348789"/><path d="M181.186 217.422c3.17 1.422 6.891 2.585 10.983 3.62.169-.09.337-.185.5-.275a65.813 65.813 0 007.414-4.856 62.243 62.243 0 003.26-2.636c3.856-3.339 5.812-5.868 5.812-5.868-8.453-11.393-12.315-15.873-12.315-15.873s-1.647 1.512-4.558 3.575a69.897 69.897 0 01-3.468 2.304 67.728 67.728 0 01-9.245 4.834 59.228 59.228 0 01-5.958 2.175 52.421 52.421 0 01-4.879 1.237c3.163 5.187 7.221 9.419 12.454 11.763z" fill="#2f7f7f"/><path d="M126.453 195.513l-11.061 18.166a67.277 67.277 0 003.311 2.563l11.275-18.514a80.7 80.7 0 01-3.525-2.215zM135.547 200.695l-9.33 20.279c1.18.641 2.417 1.27 3.715 1.877l9.415-20.465a64.584 64.584 0 01-3.8-1.691zM145.343 204.495l-7.189 21.572c1.293.41 2.625.792 4.002 1.141l7.228-21.69a52.785 52.785 0 01-4.041-1.023zM153.353 206.209l-3.119 22.539c1.349.174 2.726.315 4.142.41l3.125-22.584a45.365 45.365 0 01-4.148-.365zM192.287 195.114a69.897 69.897 0 01-3.468 2.304l11.264 18.497a62.243 62.243 0 003.26-2.636l-11.056-18.165zM179.573 202.247l9.409 20.453a63.85 63.85 0 003.687-1.928l-9.325-20.274a67.023 67.023 0 01-3.771 1.749zM169.585 205.478l7.228 21.69a65.585 65.585 0 003.991-1.169l-7.194-21.578c-1.299.4-2.648.754-4.025 1.057zM161.486 206.569l3.125 22.589a67.513 67.513 0 004.137-.422l-3.125-22.55a44.751 44.751 0 01-4.137.383z" fill="#db8c19"/><g><ellipse transform="rotate(100.195 228.527 118.557)" cx="228.525" cy="118.558" rx="21.386" ry="11.629" fill="#ddb58e"/><ellipse transform="rotate(169.801 90.268 118.565)" cx="90.267" cy="118.565" rx="11.629" ry="21.386" fill="#e8c59e"/><path d="M159.996 22.246c-70.213 0-71.517 41.952-70.865 75.164.866 43.903 9.19 102.104 70.291 110.76 61.276-8.678 71.629-66.857 70.426-110.76-.769-27.905.361-75.164-69.852-75.164z" fill="#e8c59e"/><path d="M229.849 97.411c-.534-19.464-.152-48.349-23.697-64.036 5.992 30.306 7.475 75.344 5.396 95.91-1.714 16.969-6.441 31.869-16.738 47.326-18.717 28.103-35.387 31.565-35.387 31.565 61.276-8.684 71.629-66.863 70.426-110.765z" fill="#ddb58e"/></g><path d="M89.132 97.579s8.526-30.902 35.545-30.711c22.286.157 21.96 19.672 34.735 19.678 12.776-.006 12.455-19.52 34.735-19.678 27.024-.191 35.545 30.711 35.545 30.711V56.133H89.12v41.446h.012z" fill="#ddb58e"/><path d="M240.624 61.225c-1.675 2.597-3.681 4.474-5.997 5.57.815-23.32-14.479-38.979-14.479-38.979 2.023 3.586 1.259 8.538.742 10.022-7.796-9.651-18.374-16.058-36.759-20.043C166.522 13.973 159.552.276 159.417.006V0v.006V0v.006c-.135.264-7.099 13.967-24.714 17.789-18.385 3.985-28.963 10.393-36.759 20.043-.517-1.489-1.282-6.436.742-10.022 0 0-15.294 15.659-14.479 38.979-2.316-1.09-4.322-2.973-5.997-5.57-1.102 17.019-1.04 22.977 1.709 42.75 1.99-2.985 5.812-6.891 9.207-6.402 0 0 1.141-35.112 35.545-34.865 22.286.157 21.96 19.672 34.735 19.678 12.776-.006 12.455-19.52 34.735-19.678 34.409-.247 35.545 34.865 35.545 34.865 3.395-.489 7.222 3.417 9.207 6.402 2.771-19.773 2.833-25.73 1.731-42.75z" fill="#393c3d"/></svg>