<svg xmlns="http://www.w3.org/2000/svg" viewBox="0 0 318.543 318.543"><path d="M79.922 131.247c-1.512-6.784-22.679-88.328 28.643-119.477 17.205-10.443 28.159-1.804 28.159-1.804S140.518 0 157.948 0c111.316 0 88.963 114.059 86.361 122.928-11.23 38.299-30.694 76.727-84.916 76.727s-75.463-50.388-79.471-68.408z" fill="#8e633f"/><path d="M295.389 253.096c-10.522-37.754-63.361-33.566-86.164-44.408-22.803-10.842-19.245-47.219-22.134-53.548h-55.638c-2.889 6.329.674 42.711-22.134 53.548-22.803 10.842-75.642 6.655-86.164 44.408-5.806 20.824-5.525 27.187-7.133 50.26 0 0 72.5 15.187 141.611 15.187s144.888-15.187 144.888-15.187c-1.602-23.073-1.326-29.435-7.132-50.26z" fill="#e8c59e"/><path d="M179.761 217.001c22.803 10.842 75.642 6.655 86.164 44.408 5.531 19.83 5.542 26.552 6.913 47.073 18.155-2.816 29.682-5.126 29.682-5.126-1.602-23.067-1.326-29.435-7.133-50.26-10.522-37.754-63.361-33.566-86.164-44.408-22.803-10.842-19.245-47.219-22.134-53.548h-29.458c.002 0-.678 51.024 22.13 61.861z" fill="#ddb58e"/><path d="M157.633 318.543c35.292 0 72.32-3.963 100.114-7.835-.348-6.385-1.574-35.933 4.834-51.282 9.28-22.246 27.496-17.952 27.496-17.952-11.893-17.576-36.467-21.937-57.134-26.147 13.304 10.865 21.842 28.508 10.28 69.718 0 0-15.906-2.72-36.618 5.21-10.64 4.075-32.785 15.766-47.326 15.766s-36.68-11.691-47.326-15.766c-20.712-7.931-36.618-5.21-36.618-5.21-11.567-41.21-3.024-58.853 10.28-69.718-20.667 4.21-45.24 8.571-57.134 26.147 0 0 18.211-4.289 27.496 17.952 6.481 15.535 5.148 45.623 4.817 51.507 26.772 3.799 62.227 7.61 96.839 7.61z" fill="#515151"/><path d="M290.071 241.473c-11.893-17.576-36.467-21.937-57.134-26.147 6.334 5.171 11.584 11.882 14.102 21.932 7.357 4.446 13.422 10.454 17.053 18.925 9.607-18.566 25.979-14.71 25.979-14.71z" fill="#474747"/><path d="M123.971 192.736c9.229 7.959 20.054 15.85 35.241 18.132 15.237-2.288 26.023-10.342 35.269-18.334-7.689-14.973-5.311-32.83-7.391-37.4h-55.638c-2.085 4.576.242 22.624-7.481 37.602z" fill="#cca281"/><g fill="#f4f4f2"><circle cx="115.303" cy="207.332" r="3.187"/><circle cx="117.323" cy="214.847" r="3.187"/><circle cx="120.613" cy="221.889" r="3.187"/><circle cx="125.073" cy="228.25" r="3.187"/><circle cx="130.566" cy="233.778" r="3.187"/><circle cx="136.943" cy="238.234" r="3.187"/><circle cx="143.999" cy="241.513" r="3.187"/><circle cx="151.503" cy="243.521" r="3.187"/><circle cx="159.263" cy="244.21" r="3.187"/><circle cx="166.999" cy="243.537" r="3.187"/><circle cx="174.525" cy="241.524" r="3.187"/><circle cx="181.572" cy="238.224" r="3.187"/><circle cx="187.945" cy="233.754" r="3.187"/><circle cx="193.443" cy="228.278" r="3.187"/><circle cx="197.911" cy="221.9" r="3.187"/><circle cx="201.199" cy="214.835" r="3.187"/><circle cx="203.202" cy="207.319" r="3.187"/></g><ellipse transform="rotate(100.195 224.157 118.136)" cx="224.155" cy="118.137" rx="21.386" ry="11.629" fill="#ddb58e"/><ellipse transform="rotate(169.801 94.217 118.143)" cx="94.216" cy="118.143" rx="11.629" ry="21.386" fill="#e8c59e"/><path d="M159.735 56.161s-65.874-7.487-66.683 11.927c-.793 19.02.124 21.712-.028 26.181-1.551 44.156 7.464 104.645 66.171 113.48 62.979-9.476 68.808-77.969 65.727-122.456-1.533-22.151-65.187-29.132-65.187-29.132z" fill="#e8c59e"/><path d="M159.195 207.749c94.331-14.192 60.45-160.806 60.45-160.806h-14.141c3.873 61.242 9.229 93.774-13.006 129.24-17.615 28.104-33.303 31.566-33.303 31.566z" fill="#ddb58e"/><path d="M222.781 133.782V58.522H90.843v75.26H98.6c-.68-39.266 27.221-38.423 34.033-60.781 9.69 23.989 35.64 20.139 61.557 48.247 12.146 13.18 16.232 26.248 16.362 37.726h12.23l-.001-25.192z" fill="#ddb58e"/><path d="M78.877 65.289c8.538-26.355 85.04-44.948 85.046-44.948.011 0 57.027 6.885 68.881 31.925 16.39 34.629 11.511 68.622-1.394 99.08-11.719 27.67-34.662 39.271-34.662 39.271s32.706-37.355-2.557-75.609c-25.917-28.109-49.304-18.02-61.557-50.119-8.667 32.099-38.895 23.14-33.415 71.905 6.053 53.823 42.992 74.074 42.992 74.074s-45.398-9.139-62.198-78.211c-9.646-39.692-2.21-64.063-1.136-67.368z" fill="#8e633f"/></svg>