<svg xmlns="http://www.w3.org/2000/svg" viewBox="0 0 318.538 318.538"><path d="M69.573 236.836s-1.012-23.123-1.557-57.932c-.506-32.442.073-60.422.624-100.721C69.163 39.867 91.33 0 157.946 0c58.319 0 72.135 26.653 69.364 44.841 0 0 8.813.781 13.467 6.835 7.891 10.269 7.807 47.348 7.172 85.113-1.248 74.074-1.602 100.047-1.602 100.047H69.573z" fill="#2f3233"/><path d="M295.387 253.091c-10.522-37.754-63.361-33.566-86.164-44.408s-19.245-47.219-22.134-53.548h-55.638c-2.889 6.329.674 42.711-22.134 53.548-22.803 10.842-75.642 6.655-86.164 44.408-5.806 20.824-5.525 27.187-7.133 50.26 0 0 72.5 15.187 141.611 15.187s144.888-15.187 144.888-15.187c-1.602-23.073-1.326-29.436-7.132-50.26z" fill="#515151"/><path d="M179.759 216.995c22.803 10.842 75.642 6.655 86.164 44.408 5.531 19.83 5.542 26.552 6.913 47.073 18.155-2.816 29.682-5.126 29.682-5.126-1.602-23.067-1.326-29.435-7.133-50.26-10.522-37.754-63.361-33.566-86.164-44.408-22.803-10.842-19.245-47.219-22.134-53.548h-29.456c0 .001-.68 51.025 22.128 61.861zM58.011 276.079l49.237-6.25 52.024 44.167-49.354-56.892z" fill="#393c3d"/><path fill="#393c3d" d="M260.511 276.079l-49.231-6.25-52.025 44.167 49.349-56.892z"/><path d="M260.511 276.079c-10.404-21.853-23.77-44.195-50.097-66.852-.41-.18-.815-.36-1.208-.545-6.396-3.041-10.713-8.088-13.686-13.917h-72.512c-2.973 5.829-7.29 10.876-13.686 13.917-.393.185-.798.371-1.208.545-26.327 22.657-39.693 44.999-50.097 66.852l50.591-12.472 50.664 50.389 50.653-50.389 50.586 12.472z" fill="#eae5dc"/><path d="M210.414 209.227c-.41-.18-.815-.36-1.208-.545-6.396-3.041-10.713-8.088-13.686-13.917H163.409c3.266 9.724 8.369 18.441 16.35 22.235 12.326 5.857 33.42 7.329 51.867 13.4-6.008-7.026-12.977-14.079-21.212-21.173z" fill="#e0dbd3"/><path d="M199.291 200.678c-11.803-14.951-9.836-40.356-12.202-45.549h-55.638c-2.372 5.193-.405 30.599-12.202 45.549 4.721 53.171 40.024 113.312 40.024 113.312s35.207-59.612 40.018-113.312z" fill="#e8c59e"/><path d="M179.759 216.995c4.44 2.113 10.022 3.653 16.204 5.042 1.534-7.121 2.698-14.293 3.333-21.364-11.803-14.951-9.836-40.356-12.202-45.549h-29.458c-.005.011-.685 51.035 22.123 61.871z" fill="#ddb58e"/><path d="M123.969 192.731c9.229 7.959 20.054 15.85 35.241 18.132 15.237-2.288 26.023-10.342 35.269-18.334-7.689-14.973-5.311-32.83-7.391-37.4H131.45c-2.085 4.575.242 22.623-7.481 37.602z" fill="#cca281"/><ellipse transform="rotate(100.195 224.155 118.131)" cx="224.153" cy="118.132" rx="21.386" ry="11.629" fill="#ddb58e"/><ellipse transform="rotate(169.801 94.214 118.138)" cx="94.213" cy="118.137" rx="11.629" ry="21.386" fill="#e8c59e"/><path d="M219.643 46.938l-59.91 9.218s-21.229.922-38.552 9.729c-15.901 8.088-28.002 23.91-28.159 28.378-1.551 44.156 7.464 104.645 66.171 113.48 94.331-14.192 60.45-160.805 60.45-160.805z" fill="#e8c59e"/><path d="M159.194 207.744c94.331-14.192 60.45-160.806 60.45-160.806h-14.141c3.873 61.242 9.229 93.774-13.006 129.24-17.616 28.103-33.303 31.566-33.303 31.566z" fill="#ddb58e"/><path d="M217.401 40.407S184.7 56.128 135.891 55.29c-43.031-.736-42.464 36.146-42.84 38.636 0 0 10.033-18.593 38.012-23.685 25.422-4.626 45.662 3.114 63.839 4.822 20.223 1.9 26.968-13.445 26.968-13.445l-4.469-21.211z" fill="#ddb58e"/><path d="M215.664 34.404s-30.975 18.171-79.773 16.733c-52.154-1.54-43.11 41.654-42.84 42.795 0 0 5.379-20.24 33.089-26.76 17.992-4.232 35.286-2.552 53.222 1.006 40.339 8.004 43.897-15.918 43.897-15.918s2.027-9.319-7.595-17.856z" fill="#2f3233"/><circle cx="228.22" cy="134.917" r="4.367" fill="#cc7d2e"/><circle cx="90.38" cy="134.917" r="4.367" fill="#cc7d2e"/></svg>