<svg xmlns="http://www.w3.org/2000/svg" viewBox="0 0 337.676 337.676"><path d="M313.029 272.229c-11.151-37.754-67.121-33.566-91.279-44.408-24.157-10.842-20.386-47.219-23.449-53.548h-58.932c-3.058 6.329.714 42.711-23.449 53.548-24.157 10.842-80.133 6.655-91.279 44.408-6.149 20.824-5.857 27.193-7.554 50.26 0 0 76.8 15.187 150.014 15.187s153.488-15.187 153.488-15.187c-1.703-23.073-1.411-29.436-7.56-50.26z" fill="#d3cec7"/><path d="M313.029 272.229c-11.151-37.754-67.121-33.566-91.279-44.408-24.157-10.842-20.386-47.219-23.449-53.548h-31.206s-.719 51.024 23.438 61.866c24.157 10.842 80.133 6.655 91.279 44.408 5.857 19.829 5.868 26.552 7.324 47.073 19.234-2.816 31.442-5.126 31.442-5.126-1.692-23.078-1.4-29.441-7.549-50.265z" fill="#c6c1ba"/><path d="M166.747 300.416c-50.67 0-92.42-5.536-118.528-10.173-10.758-1.911-19.818-3.839-26.923-5.491-1.534 6.694-2.259 12.09-2.822 18.559a551.8 551.8 0 0026.04 5.278c26.934 4.806 69.999 10.539 122.232 10.539 52.21 0 96.388-5.727 124.249-10.533 11.168-1.928 20.628-3.845 28.171-5.514-.568-6.43-1.304-11.826-2.85-18.542-7.565 1.697-17.3 3.693-28.862 5.677-27.068 4.658-69.981 10.2-120.707 10.2zM297.583 250.972a702.497 702.497 0 01-10.123 1.827c-27.069 4.654-69.988 10.196-120.708 10.196-50.67 0-92.42-5.536-118.528-10.173-2.968-.528-5.8-1.057-8.504-1.579-5.739 4.165-10.415 9.471-13.405 16.378a581.09 581.09 0 0018.211 3.552c26.928 4.811 69.994 10.539 122.226 10.539 52.21 0 96.388-5.727 124.249-10.533a644.691 644.691 0 0020.245-3.822c-3.062-6.931-7.828-12.232-13.663-16.385zM263.882 237.864c-15.867-3.547-31.869-5.441-42.132-10.044a28.983 28.983 0 01-6.374-3.912 720.435 720.435 0 01-48.63 1.664c-15.856 0-30.84-.54-44.74-1.428a28.91 28.91 0 01-6.087 3.676c-10.494 4.71-26.99 6.582-43.211 10.291 25.22 3.35 57.37 6.171 94.039 6.171 37.568.001 70.971-2.961 97.135-6.418z" fill="#eb5f24"/><path d="M319.172 303.086c-.568-6.43-1.304-11.826-2.85-18.542-7.565 1.697-17.3 3.693-28.862 5.677-.933.163-1.889.32-2.861.483 1.703 6.919 2.546 12.315 3.153 18.441 1.107-.185 2.192-.371 3.249-.551a616.757 616.757 0 0028.171-5.508zM311.247 267.356c-3.058-6.925-7.83-12.23-13.664-16.378a702.497 702.497 0 01-10.123 1.827 682.372 682.372 0 01-25.22 3.833c6.93 4.03 12.748 9.325 16.581 16.525a674.012 674.012 0 0012.186-1.984 655.99 655.99 0 0020.24-3.823zM221.75 227.82a28.983 28.983 0 01-6.374-3.912 733.139 733.139 0 01-36.596 1.563c3.052 4.688 6.902 8.487 11.758 10.668 6.43 2.883 15.119 4.704 24.613 6.537a754.958 754.958 0 0048.731-4.806c-15.867-3.552-31.869-5.446-42.132-10.05z" fill="#e55420"/><path d="M199.448 245.093c9.741-3.805 17.756-9.409 23.168-16.21l.416-.517c-.433-.18-.86-.36-1.276-.545-24.157-10.842-20.386-47.219-23.449-53.548h-58.938c-3.058 6.329.714 42.711-23.449 53.548-.416.185-.843.371-1.276.545l.416.517c5.413 6.795 13.428 12.399 23.168 16.21 9.229 3.603 19.813 5.508 30.61 5.508s21.38-1.906 30.61-5.508z" fill="#eae5dc"/><path d="M190.539 236.133c4.71 2.113 10.634 3.659 17.199 5.053 6.031-3.378 11.089-7.548 14.872-12.304l.416-.517c-.433-.18-.86-.36-1.276-.545-24.157-10.842-20.386-47.219-23.449-53.548h-31.206c.006.001-.714 51.025 23.444 61.861z" fill="#e0dbd3"/><path d="M211.234 219.817c-12.5-14.951-10.421-40.356-12.927-45.549h-58.938c-2.512 5.193-.427 30.599-12.927 45.549 7.655 9.611 23.764 16.232 42.396 16.232s34.741-6.621 42.396-16.232z" fill="#dbb491"/><path d="M186.661 233.913c10.747-2.692 19.509-7.74 24.573-14.096-12.5-14.951-10.421-40.356-12.927-45.549h-31.206c0 .005-.641 45.391 19.56 59.645z" fill="#cca483"/><path d="M131.438 211.869c9.78 7.959 21.24 15.85 37.338 18.132 16.137-2.288 27.569-10.342 37.36-18.334-8.144-14.973-5.626-32.83-7.83-37.4h-58.938c-2.214 4.575.254 22.623-7.93 37.602z" fill="#c69e7f"/><ellipse transform="rotate(100.195 237.88 137.269)" cx="237.877" cy="137.269" rx="21.386" ry="11.629" fill="#cca483"/><ellipse transform="rotate(169.801 99.62 137.276)" cx="99.619" cy="137.276" rx="11.629" ry="21.386" fill="#dbb491"/><path d="M232.997 66.076H104.589S68.6 212.69 168.776 226.882c100.215-14.192 64.221-160.806 64.221-160.806z" fill="#dbb491"/><path d="M168.776 226.882c100.216-14.192 64.221-160.806 64.221-160.806h-15.024c4.114 61.242 9.808 93.774-13.815 129.24-18.717 28.103-35.382 31.566-35.382 31.566z" fill="#cca483"/><path d="M238.629 102.284s-28.013 9.769-69.802 9.769-69.786-9.769-69.786-9.769V75.878h139.588v26.406z" fill="#cca483"/><path d="M232.148 55.194c6.689-6.452 7.301-16.631 5.531-28.266-4.794 6.835-10.91 11.337-19.2 12 7.082-13.192 4.401-26.102-1.068-38.928-9.499 33.971-105.061 12.534-122.94 62.973-2.94 8.29-5.267 29.913-3.805 47.882 1.607 19.807 7.931 36.478 7.931 36.478l6.632 1.776c1.304-22.494-.084-50.732-.084-50.732s28.328 8.33 64.474 8.33 62.923-8.296 62.923-8.296c-.107 10.145-1 33.403.191 50.507l7.723-1.523s6.233-20.302 6.233-32.779c.005-5.722 2.923-54.745-14.541-59.422z" fill="#393c3d"/></svg>