<svg xmlns="http://www.w3.org/2000/svg" viewBox="0 0 318.543 318.543"><path d="M303.462 253.096c-11.151-37.754-67.121-33.566-91.279-44.408-24.157-10.842-20.386-47.219-23.449-53.548h-58.932c-3.058 6.329.714 42.711-23.449 53.548-24.157 10.842-80.133 6.655-91.279 44.408-6.149 20.824-5.857 27.193-7.554 50.26 0 0 76.8 15.187 150.014 15.187s153.488-15.187 153.488-15.187c-1.704-23.073-1.411-29.435-7.56-50.26z" fill="#76c4bb"/><g fill="#39788e"><path d="M68.711 282.323l-12.933 25.872 1.523 3.046c6.733.888 13.95 1.765 21.527 2.597l2.822-5.643-12.939-25.872zM94.583 282.323L81.65 308.195l3.136 6.273a864.393 864.393 0 0018.734 1.726l4.002-7.998-12.939-25.873z"/><path d="M120.454 282.323l-12.933 25.872 4.317 8.628c5.514.388 11.106.725 16.744.995l4.811-9.622-12.939-25.873zM146.326 282.323l-12.933 25.872 5.014 10.022c5.222.174 10.466.281 15.693.315l5.171-10.336-12.945-25.873z"/><path d="M172.198 282.323l-12.933 25.872 5.154 10.303a612.096 612.096 0 0015.771-.405l4.952-9.904-12.944-25.866z"/><path d="M198.069 282.323l-12.933 25.872 4.733 9.465a768.777 768.777 0 0016.935-1.062l4.204-8.403-12.939-25.872zM223.941 282.323l-12.933 25.872 3.884 7.773a958.74 958.74 0 0018.981-1.765l3.001-6.003-12.933-25.877zM249.807 282.323l-12.933 25.872 2.698 5.401c7.655-.832 14.956-1.714 21.769-2.597l1.4-2.805-12.934-25.871z"/></g><path d="M180.972 217.001c24.157 10.842 80.133 6.655 91.279 44.408 5.857 19.83 5.868 26.552 7.324 47.073 19.234-2.816 31.442-5.126 31.442-5.126-1.697-23.067-1.405-29.435-7.554-50.26-11.151-37.754-67.121-33.566-91.279-44.408-24.157-10.842-20.386-47.219-23.449-53.548H157.53c.004 0-.716 51.024 23.442 61.861z" fill="#56beb7"/><path d="M201.667 200.684c-12.5-14.951-10.421-40.356-12.927-45.549h-58.938c-2.512 5.193-.427 30.599-12.927 45.549 5.963 14.029 37.99 51.575 42.396 51.575 4.4 0 35.938-36.405 42.396-51.575z" fill="#e8c59e"/><path d="M180.972 217.001c2.501 1.124 5.345 2.085 8.448 2.951 5.514-7.341 10.173-14.4 12.247-19.267-12.5-14.951-10.421-40.356-12.927-45.549h-31.206c0 .004-.72 51.028 23.438 61.865z" fill="#ddb58e"/><path d="M121.871 192.736c9.78 7.959 21.24 15.85 37.338 18.132 16.137-2.288 27.569-10.342 37.36-18.334-8.144-14.973-5.626-32.83-7.83-37.4h-58.938c-2.214 4.576.253 22.624-7.93 37.602z" fill="#c69e7f"/><ellipse transform="rotate(100.195 228.312 118.135)" cx="228.31" cy="118.135" rx="21.386" ry="11.629" fill="#ddb58e"/><ellipse transform="rotate(169.801 90.054 118.143)" cx="90.053" cy="118.142" rx="11.629" ry="21.386" fill="#e8c59e"/><path d="M223.43 46.943l-63.653 9.218-65.396-8.33s-5.48 31.83-5.48 46.438c0 44.184 7.931 104.645 70.303 113.48 100.22-14.192 64.226-160.806 64.226-160.806z" fill="#e8c59e"/><path d="M209.378 60.658H79.458a98.864 98.864 0 00-.607 3.086v23.354c.264-.169.399-.275.399-.275-.135.219-.27.438-.399.658v22.904c.821-.719 1.411-1.034 1.411-1.034.843 4.367-.017 8.476-1.411 11.893l1.467 5.283c24.247-14.608 32.881-50.625 32.881-50.625 21.853 2.299 42.475 21.089 42.475 21.089-.371-10.01-1.99-14.484-1.99-14.484 12.877 11.033 22.556 23.82 22.556 23.82-2.226-17.677-3.271-21.448-3.271-21.448 19.048 31.133 30.509 54.891 36.416 68.296V60.658h-.007z" fill="#ddb58e"/><path d="M159.209 207.749C259.426 193.557 223.43 46.943 223.43 46.943h-15.024c4.114 61.242 9.808 93.774-13.815 129.24-18.717 28.104-35.382 31.566-35.382 31.566z" fill="#ddb58e"/><path d="M111.945 72.157s-10.499 46.842-39.086 58.398c0 0 8.38-13.439 6.155-24.95 0 0-5.042 2.72-6.155 10.145 0 0-4.12-17.8 5.143-32.673 0 0-6.256 4.828-15.906 1.113 0 0 11.758-2.777 15.378-23.494C81.324 38.664 94.819 0 159.203 0c31.655 0 44.875 8.324 54.323 15.951 9.774 7.886 19.29 22.887 33.448 11.438 0 0 .393 15.726-13.54 15.845 0 0 4.244 6.413 4.721 15.502.792 15.058 10.876 22.033 20.324 19.515 0 0-5.21 13.624-21.162 8.645 0 0 .703 15.665 16.333 40.452 0 0-10.269 1.473-18.795-8.403 0 0 2.091 12.528 9.145 17.845 0 0-22.645-3.592-32.673-27.356 0 0 7.532 32.06 1.855 52.3 0 0-12.056-47.106-48.911-90.913 0 0 7.83 12.281 10.055 29.958 0 0-12.944-17.508-25.838-26.085 0 0 4.575 7.914 4.946 17.924.019.01-19.636-18.162-41.489-20.461z" fill="#4c3626"/></svg>