<svg xmlns="http://www.w3.org/2000/svg" viewBox="0 0 318.55 318.55"><path d="M109.021 207.329v109.298c15.76 1.169 32.223 1.922 48.517 1.922 17.064 0 34.511-.826 51.238-2.091l.174-109.467-99.929.338z" fill="#eaeae1"/><path d="M303.466 253.103c-11.151-37.754-67.121-33.566-91.279-44.408-24.157-10.842-20.386-47.219-23.449-53.548h-58.932c-3.058 6.329.714 42.711-23.449 53.548-24.157 10.842-80.133 6.655-91.279 44.408-6.149 20.824-5.857 27.193-7.554 50.26 0 0 76.8 15.187 150.014 15.187s153.488-15.187 153.488-15.187c-1.703-23.073-1.411-29.436-7.56-50.26z" fill="#eaeae1"/><path d="M303.466 253.103c-11.151-37.754-67.121-33.566-91.279-44.408a28.297 28.297 0 01-3.237-1.703s-37.731 52.114-49.045 52.114-50.878-51.777-50.878-51.777h-.017c-.849.489-1.726.944-2.653 1.36-24.157 10.842-80.133 6.655-91.279 44.408-6.149 20.824-5.857 27.193-7.554 50.26 0 0 76.8 15.187 150.014 15.187s153.488-15.187 153.488-15.187c-1.703-23.067-1.411-29.43-7.56-50.254z" fill="#6d6d6d"/><path d="M303.466 253.103c-11.151-37.754-67.121-33.566-91.279-44.408a28.297 28.297 0 01-3.237-1.703s-4.721 6.52-11.326 14.951c27.119 5.829 65.598 8.881 74.631 39.474 5.857 19.83 5.868 26.552 7.324 47.073 19.234-2.816 31.442-5.126 31.442-5.126-1.698-23.074-1.406-29.437-7.555-50.261z" fill="#606060"/><path d="M208.95 206.991l-43.498-1.315 20.24 30.902c4.227-4.952 8.352-10.072 11.933-14.636l11.325-14.951z" fill="#c6c5af"/><path d="M200.199 222.482c-.871-.18-1.726-.36-2.574-.54-3.575 4.564-7.7 9.684-11.933 14.636l3.513 5.362 10.994-19.458z" fill="#606060"/><path d="M152.974 205.676l-43.948 1.652s11.174 14.625 23.342 28.328l20.606-29.98z" fill="#c6c5af"/><path d="M132.375 235.657c-12.169-13.703-23.342-28.328-23.342-28.328l19.026 34.612 4.316-6.284z" fill="#606060"/><path d="M200.199 222.482l8.751-15.49s-4.721 6.52-11.326 14.951c.844.185 1.704.359 2.575.539z" fill="#515151"/><path d="M152.974 205.676l-32.105-14.557s-3.389 4.817-11.843 16.21l19.251 29.092 24.697-30.745zM165.452 205.676l31.183-14.557s3.861 4.48 12.315 15.873l-19.723 29.43-23.775-30.746z" fill="#eaeae1"/><path d="M208.95 206.991c-8.453-11.393-12.315-15.873-12.315-15.873l-28.575 13.338c3.221 5.548 7.425 10.089 12.916 12.551 4.851 2.175 10.988 3.749 17.789 5.177l10.185-15.193z" fill="#e0dbd3"/><path d="M81.064 107.388s-16.733-56.229 5.154-60.315c0 0 5.109-47.073 71.725-47.073 58.32 0 73.624 27.766 75.755 49.478 0 0 20.622 0 4.204 59.489l-37.956 46.05h-87.552l-31.33-47.629z" fill="#393c3d"/><ellipse transform="rotate(100.195 228.316 118.141)" cx="228.314" cy="118.142" rx="21.386" ry="11.629" fill="#ddb58e"/><ellipse transform="rotate(169.801 90.058 118.15)" cx="90.057" cy="118.15" rx="11.629" ry="21.386" fill="#e8c59e"/><path d="M223.434 46.95l-63.653 9.218s-22.556.922-40.957 9.729c-16.89 8.088-29.75 23.91-29.919 28.378-1.647 44.156 7.931 104.645 70.303 113.48C259.429 193.564 223.434 46.95 223.434 46.95z" fill="#e8c59e"/><path d="M159.213 207.756C259.429 193.564 223.434 46.95 223.434 46.95h-15.023c4.114 61.242 9.808 93.774-13.815 129.24-18.718 28.103-35.383 31.566-35.383 31.566z" fill="#ddb58e"/><path d="M221.051 40.419S186.31 56.14 134.454 55.302c-45.712-.736-45.117 36.146-45.516 38.636 0 0 6.25-15.743 35.972-20.836 27.007-4.626 42.211 2.63 59.23 11.904 17.025 9.274 26.102 6.672 33.538 3.968 5.307-1.921 13.597-40.017 3.373-48.555z" fill="#ddb58e"/><path d="M221.051 36.265s-34.752 16.328-86.597 14.883c-55.408-1.54-45.802 41.654-45.516 42.795 0 0 6.25-19.903 35.972-24.995 27.007-4.626 42.211 2.63 59.23 11.904 17.025 9.274 26.102 6.672 33.538 3.968 5.3-1.928 16.631-9.566 20.476-26.608.006.002-6.879-13.409-17.103-21.947z" fill="#393c3d"/><path d="M181.64 201.584c0-1.461-4.294-1.321-9.01-2.878-4.109-1.36-8.29-4.525-13.54-4.525-4.957 0-8.83 2.962-12.832 4.266-5.092 1.664-9.718 1.86-9.718 3.136 0 4.733 4.626 9.038 9.712 12.236 0 0-1.265-2.614-.377-3.946 0 0 2.687 4.907 5.216 6.632 3.513 2.394 7.104 2.951 7.998 2.951.978 0 3.873-.798 8.088-3.03 2.715-1.439 5.233-6.57 5.233-6.57 1.04 1.456-.601 3.895-.601 3.895 5.059-3.269 9.831-7.653 9.831-12.167z" fill="#515151"/><path d="M174.558 204.631c-.568 2.58-2.153 5.227-2.153 5.227.348.483.393 1.079.304 1.658 2.096-3.041 1.849-6.885 1.849-6.885zM143.729 204.631s-.247 3.85 1.855 6.896v-.006c-.062-.596-.011-1.192.292-1.647 0 .001-1.58-2.669-2.147-5.243z" fill="#393c3d"/><path d="M228.976 99.739h-1.922c-10.91-7.751-21.746-8.2-27.67-8.453-5.924-.247-24.112 2.001-30.986 2.4-6.874.399-7.667.298-9.409.298s-2.541.101-9.409-.298c-6.874-.399-25.062-2.653-30.986-2.4-5.924.247-16.761.703-27.67 8.453h-1.923c-.703 0-1.27.54-1.27 1.203v9.504c0 .663.568 1.203 1.27 1.203 0 0 1.54.073 1.922.298.371.219 1.057.433 1.804 4.26.804 4.103 3.254 24.006 26.552 24.18 23.303.169 29.312-14.389 31.818-20.397 2.299-5.514 2.585-11.011 2.49-12.416-.073-1.051-1.102-2.333-.63-4.086.472-1.754 4.62-2.153 6.025-2.153s5.553.399 6.025 2.153-.556 3.035-.63 4.086c-.096 1.405.185 6.902 2.49 12.416 2.507 6.003 8.515 20.566 31.818 20.397 23.303-.169 25.748-20.077 26.552-24.18.748-3.828 1.433-4.041 1.804-4.26.382-.225 1.922-.298 1.922-.298.703 0 1.27-.54 1.27-1.203v-9.504c.008-.664-.56-1.203-1.257-1.203zm-89.856 31.279c-4.912 3.985-12.365 6.256-19.908 6.228-21.566-.067-22.151-17.283-22.325-23.045-.54-17.829 13.934-19.745 21.252-19.655 7.667.096 27.024.365 30.391 10.533 2.185 6.615-.271 18.531-9.41 25.939zm81.959-16.817c-.174 5.761-.759 22.977-22.325 23.045-7.543.022-14.996-2.248-19.908-6.228-9.139-7.408-11.595-19.324-9.403-25.939 3.367-10.168 22.724-10.443 30.391-10.533 7.318-.091 21.791 1.832 21.245 19.655z" fill="#3a3a38"/></svg>