<svg xmlns="http://www.w3.org/2000/svg" viewBox="0 0 318.661 318.661"><path d="M303.529 253.214c-11.151-37.754-67.121-33.566-91.279-44.408-24.157-10.842-20.386-47.219-23.449-53.548h-58.932c-3.058 6.329.714 42.711-23.449 53.548-24.157 10.842-80.133 6.655-91.279 44.408-6.149 20.824-5.857 27.193-7.554 50.26 0 0 76.8 15.187 150.014 15.187s153.488-15.187 153.488-15.187c-1.703-23.073-1.411-29.435-7.56-50.26z" fill="#dbb491"/><path d="M303.237 253.276c-11.14-37.714-67.054-33.533-91.195-44.364-3.367-1.512-6.115-3.58-8.493-5.935l-44.217 48.236-44.352-48.388c-2.411 2.422-5.222 4.536-8.667 6.082-24.135 10.831-80.054 6.649-91.194 44.369-6.143 20.802-5.851 27.164-7.548 50.209 0 0 76.727 15.176 149.868 15.176s153.342-15.176 153.342-15.176c-1.699-23.044-1.401-29.407-7.544-50.209z" fill="#636358"/><path d="M203.679 202.842c-14.614-14.541-12.242-42.149-14.872-47.59h-31.206s-.719 51.024 23.438 61.866c2.147.961 4.615 1.782 7.211 2.546l15.299-16.693c.04-.039.09-.084.13-.129z" fill="#cca483"/><path d="M272.318 261.527c5.857 19.83 5.868 26.552 7.324 47.073 19.234-2.816 31.442-5.126 31.442-5.126-1.697-23.067-1.405-29.435-7.554-50.26-11.151-37.754-67.121-33.566-91.279-44.408-3.395-1.523-6.183-3.586-8.571-5.963-.039.045-.09.09-.129.135l-15.299 16.693c26.613 7.851 73.909 7.458 84.066 41.856z" fill="#515147"/><path d="M121.938 192.855c9.78 7.959 21.24 15.85 37.338 18.132 16.137-2.288 27.569-10.342 37.36-18.334-8.144-14.973-5.626-32.83-7.83-37.4h-58.937c-2.215 4.575.253 22.623-7.931 37.602z" fill="#c69e7f"/><ellipse transform="rotate(100.195 228.38 118.253)" cx="228.378" cy="118.254" rx="21.386" ry="11.629" fill="#cca483"/><ellipse transform="rotate(169.801 90.121 118.262)" cx="90.121" cy="118.261" rx="11.629" ry="21.386" fill="#dbb491"/><path d="M223.497 47.061H95.089S59.1 193.675 159.276 207.867c100.216-14.192 64.221-160.806 64.221-160.806z" fill="#dbb491"/><path d="M159.276 207.867c100.216-14.192 64.221-160.806 64.221-160.806h-15.024c4.114 61.242 9.808 93.774-13.815 129.24-18.717 28.104-35.382 31.566-35.382 31.566z" fill="#cca483"/><path d="M219.406 139.897l-2.81-61.321c-.54-11.826-10.572-20.071-22.235-18.048-7.459 1.293-14.451 3.215-20.212 5.087a48.843 48.843 0 01-30.171 0c-5.744-1.866-12.714-3.783-20.15-5.075-11.309-1.967-21.741 6.627-22.235 18.093l-2.653 61.265 6.587-61.096c.348-8.06 7.11-14.614 15.063-14.614.843 0 1.703.073 2.569.225 6.256 1.09 12.854 2.748 19.61 4.941a52.756 52.756 0 0032.599 0c6.79-2.198 13.411-3.867 19.667-4.946a16.382 16.382 0 012.838-.247c8.184 0 14.406 6.138 14.799 14.597l6.734 61.139z" fill="#cca483"/><path d="M230.99 39.417S221.834.045 159.125 0h-.102C96.314.045 87.158 39.417 87.158 39.417c-7.588 26.855-2.136 60.096-2.136 60.096l6.992 40.03 6.925.354 2.653-61.265c.495-11.466 10.926-20.06 22.235-18.093 7.436 1.293 14.406 3.209 20.15 5.075a48.8 48.8 0 0030.171 0c5.761-1.866 12.753-3.788 20.212-5.087 11.663-2.023 21.69 6.222 22.235 18.048l2.81 61.321 6.852-.36 6.868-40.019c.001-.004 5.452-33.244-2.135-60.1zM187.436 172.525H131.23v-5.424a5.822 5.822 0 015.817-5.817h44.566a5.823 5.823 0 015.823 5.817v5.424z" fill="#393c3d"/></svg>