<svg xmlns="http://www.w3.org/2000/svg" viewBox="0 0 318.543 318.543"><path d="M79.922 131.247C76.825 123.238 46.631 0 157.948 0s86.355 112.019 83.753 120.888c-11.23 38.299-28.086 78.767-82.308 78.767s-67.684-37.916-79.471-68.408z" fill="#393c3d"/><path d="M295.389 253.096c-10.522-37.754-63.361-33.566-86.164-44.408-22.803-10.842-19.245-47.219-22.134-53.548h-55.638c-2.889 6.329.674 42.711-22.134 53.548-22.803 10.842-75.642 6.655-86.164 44.408-5.806 20.824-5.525 27.187-7.133 50.26 0 0 72.5 15.187 141.611 15.187s144.888-15.187 144.888-15.187c-1.602-23.073-1.326-29.435-7.132-50.26z" fill="#e8c59e"/><path d="M179.761 217.001c22.803 10.842 75.642 6.655 86.164 44.408 5.531 19.83 5.542 26.552 6.913 47.073 18.155-2.816 29.682-5.126 29.682-5.126-1.602-23.067-1.326-29.435-7.133-50.26-10.522-37.754-63.361-33.566-86.164-44.408-22.803-10.842-19.245-47.219-22.134-53.548h-29.458c.002 0-.678 51.024 22.13 61.861z" fill="#ddb58e"/><path d="M60.565 310.899c26.805 3.816 62.361 7.644 97.068 7.644 35.326 0 72.388-3.968 100.187-7.846 0 0-21.094-11.157-32.251-37.163-6.649-15.502-1.973-37.175-14.838-64.171-1.681-3.53-8.959-13.883-13.978-18.75l-2.265 1.922c6.464 13.428 23.522 55.015 13.889 83.55-7.352 21.78-43.026 29.935-49.102 29.935s-41.75-8.156-49.102-29.935c-9.634-28.536 7.425-70.123 13.889-83.55l-2.265-1.922c-5.019 4.862-12.298 15.221-13.978 18.75-12.866 26.99-8.184 48.669-14.838 64.171-11.159 26-32.405 37.359-32.416 37.365z" fill="#76c4bb"/><path d="M210.731 209.362c-1.681-3.53-8.959-13.883-13.978-18.75l-2.265 1.922c2.923 6.07 8.009 17.902 11.82 31.678 3.502.708 7.093 1.439 10.696 2.254a97.846 97.846 0 00-6.273-17.104z" fill="#56beb7"/><path d="M237.996 305.295c-6.762-6.615-14.282-16.041-19.689-28.648a42.158 42.158 0 01-1.079-2.782 54.201 54.201 0 01-1.371 4.744c-3.816 11.303-13.939 20.926-29.278 27.816-3.395 1.523-21.504 6.88-27.311 6.88-5.806 0-23.781-5.295-27.305-6.88-15.339-6.891-25.461-16.508-29.278-27.816a58.483 58.483 0 01-1.371-4.744 41.943 41.943 0 01-1.079 2.782c-5.452 12.714-13.068 22.218-19.891 28.879 0 0-4.446 4.345-7.801 6.992 24.956 3.209 55.335 6.025 85.09 6.025 30.615 0 62.535-2.979 88.598-6.301-4.862-3.873-8.235-6.947-8.235-6.947z" fill="#f9f5ed"/><path d="M123.971 192.736c9.229 7.959 20.054 15.85 35.241 18.132 15.237-2.288 26.023-10.342 35.269-18.334-7.689-14.973-5.311-32.83-7.391-37.4h-55.638c-2.085 4.576.242 22.624-7.481 37.602z" fill="#cca281"/><ellipse transform="rotate(100.195 224.157 118.136)" cx="224.155" cy="118.137" rx="21.386" ry="11.629" fill="#ddb58e"/><ellipse transform="rotate(169.801 94.217 118.143)" cx="94.216" cy="118.143" rx="11.629" ry="21.386" fill="#e8c59e"/><path d="M159.735 56.161s-65.874-7.487-66.683 11.927c-.793 19.02.124 21.712-.028 26.181-1.551 44.156 7.464 104.645 66.171 113.48 62.979-9.476 68.808-77.969 65.727-122.456-1.533-22.151-65.187-29.132-65.187-29.132z" fill="#e8c59e"/><path d="M159.195 207.749c94.331-14.192 60.45-160.806 60.45-160.806h-14.141c3.873 61.242 9.229 93.774-13.006 129.24-17.615 28.104-33.303 31.566-33.303 31.566z" fill="#ddb58e"/><path d="M91.709 96.989s69.072 15.204 106.157-27.429c0 0 10.23 24.523 27.625 27.552V60.905H91.709v36.084z" fill="#ddb58e"/><path d="M228.076 52.266c-8.538-26.355-68.869-31.925-68.881-31.925-.011 0-60.343 5.57-68.881 31.925-8.538 26.361 1.394 44.723 1.394 44.723 20.234 2.383 88.452 0 107.016-35.045 6.683 24.95 26.765 35.168 26.765 35.168s11.125-18.485 2.587-44.846z" fill="#393c3d"/></svg>