<svg xmlns="http://www.w3.org/2000/svg" viewBox="0 0 318.543 318.543"><path d="M303.463 253.096c-11.151-37.754-67.121-33.566-91.279-44.408-24.157-10.842-20.386-47.219-23.449-53.548h-58.932c-3.058 6.329.714 42.711-23.449 53.548-24.157 10.842-80.133 6.655-91.279 44.408-6.149 20.824-5.857 27.193-7.554 50.26 0 0 76.8 15.187 150.014 15.187s153.488-15.187 153.488-15.187c-1.704-23.073-1.411-29.435-7.56-50.26z" fill="#348789"/><path d="M15.811 250.854a43.3 43.3 0 00-.736 2.243 320.537 320.537 0 00-1.231 4.283h1.962v-6.526h.005zM10.837 269.851c-1.546 7.948-2.007 14.63-2.715 24.95h7.683v-24.95h-4.968zM40.755 269.851h12.472v24.95H40.755zM40.755 232.429h12.472v24.95H40.755zM40.755 307.273v1.652c3.901.579 8.071 1.175 12.472 1.771v-3.429H40.755v.006zM90.655 219.952v-6.537c-3.946.866-8.144 1.664-12.472 2.496v4.047h12.472v-.006zM78.177 269.851h12.472v24.95H78.177zM78.177 232.429h12.472v24.95H78.177zM78.177 307.273v6.497c4.058.444 8.223.877 12.472 1.287v-7.779H78.177v-.005zM115.599 219.952h12.472v-24.95h-7.352c-1.405 2.563-3.091 4.963-5.12 7.11v17.84zM115.599 232.429h12.472v24.95h-12.472zM128.077 182.529V166.28c-.5 4.783-1.186 10.505-2.63 16.255h2.63v-.006zM115.599 307.273v9.808c4.126.27 8.285.511 12.472.714v-10.522h-12.472zM115.599 269.851h12.472v24.95h-12.472zM153.027 307.273v11.252c1.501.011 3.007.017 4.508.017 2.647 0 5.306-.022 7.964-.056v-11.213h-12.472zM153.027 269.851h12.472v24.95h-12.472zM153.027 195.007h12.472v24.95h-12.472zM153.027 232.429h12.472v24.95h-12.472zM153.027 155.14h12.472v27.395h-12.472zM193.091 182.529c-1.461-5.806-2.147-11.59-2.647-16.401v16.401h2.647zM190.449 307.273v10.359c4.182-.219 8.347-.472 12.472-.759v-9.6h-12.472zM190.449 219.952h12.472V202.1c-2.023-2.141-3.704-4.541-5.104-7.093h-7.369v24.945h.001zM190.449 269.851h12.472v24.95h-12.472zM190.449 232.429h12.472v24.95h-12.472zM227.871 307.273v7.526c4.244-.41 8.408-.843 12.472-1.287v-6.239h-12.472zM227.871 269.851h12.472v24.95h-12.472zM240.343 219.952v-4.047c-4.328-.826-8.526-1.624-12.472-2.496v6.542h12.472v.001zM227.871 232.429h12.472v24.95h-12.472zM265.293 269.851h12.472v24.95h-12.472zM265.293 307.273v3.209c4.401-.585 8.571-1.169 12.472-1.737v-1.473l-12.472.001zM265.293 232.429h12.472v24.95h-12.472zM304.694 257.374c-.377-1.36-.787-2.782-1.231-4.283-.23-.781-.483-1.54-.748-2.288v6.565h1.978l.001.006zM302.715 294.796h7.7c-.708-10.314-1.175-16.997-2.715-24.95h-4.986l.001 24.95zM165.499 182.529h24.95v12.472h-24.95zM128.077 182.529h24.95v12.472h-24.95z" fill="#44ada0"/><path d="M128.077 182.529h-2.63c-1.074 4.272-2.574 8.555-4.721 12.472h7.352v-12.472h-.001zM153.027 182.529h12.472v12.472h-12.472zM197.818 195.007c-2.153-3.918-3.648-8.2-4.721-12.472h-2.647v12.472h7.368z" fill="#76c4bb"/><path d="M29.716 232.429h11.039v-6.363c-3.968 1.782-7.689 3.873-11.039 6.363zM202.921 219.952h24.95v12.472h-24.95zM240.343 232.429h24.95v-10.898a142.52 142.52 0 00-5.823-1.579h-19.127v12.477zM90.655 219.952h24.95v12.472h-24.95zM128.077 219.952h24.95v12.472h-24.95zM53.233 232.429h24.95v-12.472h-19.11a153.825 153.825 0 00-5.84 1.585v10.887zM288.821 232.429c-3.355-2.49-7.082-4.581-11.056-6.368v6.368h11.056zM165.499 219.952h24.95v12.472h-24.95z" fill="#44ada0"/><path d="M53.233 221.537c-4.317 1.27-8.515 2.748-12.472 4.525v6.363h12.472v-10.888zM78.177 219.952h12.472v12.472H78.177zM115.599 219.952h12.472v12.472h-12.472zM153.027 219.952h12.472v12.472h-12.472zM190.449 219.952h12.472v12.472h-12.472zM227.871 219.952h12.472v12.472h-12.472zM265.293 232.429h12.472v-6.368c-3.957-1.776-8.156-3.254-12.472-4.525v10.893z" fill="#76c4bb"/><path fill="#44ada0" d="M277.765 257.374h24.95v12.472h-24.95zM15.811 257.374h24.95v12.472h-24.95zM202.921 257.374h24.95v12.472h-24.95zM240.343 257.374h24.95v12.472h-24.95zM53.233 257.374h24.95v12.472h-24.95zM165.499 257.374h24.95v12.472h-24.95zM90.655 257.374h24.95v12.472h-24.95zM128.077 257.374h24.95v12.472h-24.95z"/><path d="M15.811 257.374h-1.967c-1.326 4.766-2.288 8.763-3.007 12.472h4.969v-12.472h.005zM40.755 257.374h12.472v12.472H40.755zM78.177 257.374h12.472v12.472H78.177zM115.599 257.374h12.472v12.472h-12.472zM153.027 257.374h12.472v12.472h-12.472zM190.449 257.374h12.472v12.472h-12.472zM227.871 257.374h12.472v12.472h-12.472zM265.293 257.374h12.472v12.472h-12.472zM302.715 269.851h4.986c-.719-3.715-1.681-7.706-3.007-12.472h-1.978v12.472h-.001z" fill="#76c4bb"/><path d="M302.715 294.796h-24.95v12.472h9.853a996.596 996.596 0 0015.091-2.445v-10.027h.006zM40.755 294.796H15.811v10.083c3.676.652 8.482 1.473 14.215 2.389h10.735v-12.472h-.006zM202.921 294.796h24.95v12.472h-24.95zM53.233 294.796h24.95v12.472h-24.95zM128.077 294.796h24.95v12.472h-24.95zM90.655 294.796h24.95v12.472h-24.95zM165.499 294.796h24.95v12.472h-24.95zM240.343 294.796h24.95v12.472h-24.95z" fill="#44ada0"/><path d="M7.52 303.356s2.968.585 8.29 1.529v-10.083H8.122c-.18 2.59-.371 5.418-.602 8.554zM40.755 294.796h12.472v12.472H40.755zM78.177 294.796h12.472v12.472H78.177zM115.599 294.796h12.472v12.472h-12.472zM153.027 294.796h12.472v12.472h-12.472zM190.449 294.796h12.472v12.472h-12.472zM227.871 294.796h12.472v12.472h-12.472zM265.293 294.796h12.472v12.472h-12.472zM302.715 304.828a548.896 548.896 0 008.307-1.473c-.23-3.136-.427-5.958-.601-8.555h-7.7v10.027l-.006.001z" fill="#76c4bb"/><g opacity=".25"><path d="M303.463 253.096c-11.151-37.754-67.121-33.566-91.279-44.408-24.157-10.842-20.386-47.219-23.449-53.548h-31.206s-.719 51.024 23.438 61.866 80.133 6.655 91.279 44.408c5.857 19.83 5.868 26.552 7.324 47.073 19.234-2.816 31.442-5.126 31.442-5.126-1.693-23.078-1.4-29.44-7.549-50.265z" fill="#24897a"/></g><g><path fill="#24897a" d="M208.946 206.985L175.897 235.7l-16.687-27.951zM109.023 207.322l33.583 28.378 16.604-27.951z" opacity=".25"/><path d="M159.21 207.749l-38.344-16.637s-3.389 4.817-11.843 16.21l31.723 22.853 18.464-22.426zM159.21 207.749l37.422-16.637s3.861 4.48 12.315 15.873l-32.195 23.191-17.542-22.427z" fill="#eaeae1"/><path d="M196.632 191.112l-28.867 12.832c3.26 5.778 7.548 10.516 13.208 13.057 2.799 1.253 6.02 2.31 9.555 3.249l18.419-13.265c-8.454-11.393-12.315-15.873-12.315-15.873z" fill="#e0dbd3"/></g><g><g fill="#c65044"><path d="M122.833 244.317s-5.784-7.97-5.784-19.925 5.784-19.925 5.784-19.925c20.403 0 32.066 15.94 32.066 15.94v7.97s-11.658 15.94-32.066 15.94zM195.71 244.317s5.784-7.97 5.784-19.925-5.784-19.925-5.784-19.925c-20.403 0-32.066 15.94-32.066 15.94v7.97s11.657 15.94 32.066 15.94z"/></g><g fill="#ad3936"><path d="M180.714 229.889a3.944 3.944 0 01-.905-.259l-16.03-4.541 16.643.815a4.42 4.42 0 01.939.045c1.591.259 2.732 1.355 2.552 2.439s-1.608 1.765-3.199 1.501zM181.4 222.205c-.315.079-.63.118-.933.124l-16.519 2.186 15.603-5.845c.27-.135.562-.253.882-.332 1.563-.388 3.046.157 3.311 1.225.269 1.069-.782 2.249-2.344 2.642zM138.318 229.889c.32-.051.624-.141.905-.259l16.03-4.541-16.643.815a4.42 4.42 0 00-.939.045c-1.591.259-2.732 1.355-2.552 2.439s1.614 1.765 3.199 1.501zM137.632 222.205c.315.079.63.118.933.124l16.519 2.186-15.603-5.845a4.239 4.239 0 00-.882-.332c-1.563-.388-3.046.157-3.311 1.225-.264 1.069.787 2.249 2.344 2.642z"/></g><path d="M166.561 217.417c0-1.641-.984-2.99-2.186-2.99h-10.201c-1.203 0-2.186 1.343-2.186 2.99v13.95c0 1.641.984 2.99 2.186 2.99h10.201c1.203 0 2.186-1.343 2.186-2.99v-13.95z" fill="#ad3936"/></g><circle cx="159.21" cy="247.088" r="6.346" fill="#2f3233"/><circle cx="159.21" cy="278.856" r="6.346" fill="#2f3233"/><circle cx="159.21" cy="310.623" r="6.346" fill="#2f3233"/><g><ellipse transform="rotate(100.195 228.312 118.135)" cx="228.311" cy="118.135" rx="21.386" ry="11.629" fill="#ddb58e"/><ellipse transform="rotate(169.801 90.054 118.143)" cx="90.054" cy="118.142" rx="11.629" ry="21.386" fill="#e8c59e"/><path d="M223.431 46.943l-63.653 9.218-65.396-8.33s-5.48 31.83-5.48 46.438c0 44.184 7.931 104.645 70.303 113.48 100.22-14.192 64.226-160.806 64.226-160.806z" fill="#e8c59e"/><path d="M159.21 207.749c100.216-14.192 64.221-160.806 64.221-160.806h-15.024c4.114 61.242 9.808 93.774-13.815 129.24-18.717 28.104-35.382 31.566-35.382 31.566z" fill="#ddb58e"/><path d="M90.059 85.939h5.272c-.607-9.932-.073-21.302 4.693-26.068 9.274-9.274 59.798 8.881 59.798 8.881s51.131-16.328 58.578-8.881c3.912 3.912 4.407 15.726 4.002 26.068h2.282V36.332H90.059v49.607z" fill="#ddb58e"/><path d="M238.292 30.042c6.413-12.185 14.698-14.282 14.698-14.282C228.545 2.63 195.968 0 159.21 0c-49.72 0-68.521 8.869-72.933 30.037-3.423 16.423-2.012 54.497-.433 67.149 4.339-.472 8.611.719 11.663 2.102 0 0-6.756-34.303 2.518-43.582s59.798 8.881 59.798 8.881 51.131-16.328 58.578-8.881 2.518 43.582 2.518 43.582c3.052-1.383 7.324-2.574 11.663-2.102 2.927-30.587.235-56.74 5.71-67.144zM150.621 148.654s-13.928.511-17.401 16.024c-2.327 10.409-13.669 9.69-18.363 5.548-2.209-1.95-2.934-5.177-.674-7.357 0 0 1.456-1.349 4.148-1.248 1.877.067 3.406 1.557 3.406 3.479s-1.523 3.479-3.406 3.479c-.332 0-.646-.067-.967-.141-.736-.174-.259.467.017.714.388.348.821.646 1.293.866 1.085.495 2.304.545 3.4.101 0 0 3.912-1.726 2.636-7.526-.444-2.035-4.187-6.014-9.651-4.896-.399.079-.793.163-1.186.275-.939.27-1.849.646-2.709 1.13-1.102.618-2.113 1.428-2.917 2.428-.961 1.197-1.568 2.647-1.81 4.176-.337 2.13.006 4.322.613 6.368.084.287.174.573.27.854.163.483.32.899.579 1.332.214.365.444.725.686 1.074a21.452 21.452 0 002.698 3.176 21.257 21.257 0 004.626 3.412 21.26 21.26 0 006.756 2.293c.972.157 1.962.253 2.945.287 4.069.146 8.875-.725 14.484-3.333 0 0 13.759-6.081 18.053-16.502.006-.017 7.616-16.013-7.526-16.013z" fill="#393c3d"/><path d="M167.933 148.654s13.928.511 17.401 16.024c2.327 10.409 13.669 9.69 18.363 5.548 2.209-1.95 2.934-5.177.674-7.357 0 0-1.456-1.349-4.148-1.248-1.877.067-3.406 1.557-3.406 3.479s1.523 3.479 3.406 3.479c.332 0 .646-.067.967-.141.736-.174.259.467-.017.714a5.302 5.302 0 01-1.293.866c-1.085.495-2.304.545-3.4.101 0 0-3.912-1.726-2.636-7.526.444-2.035 4.187-6.014 9.651-4.896.399.079.792.163 1.186.275.939.27 1.849.646 2.709 1.13 1.102.618 2.113 1.428 2.917 2.428.961 1.197 1.568 2.647 1.81 4.176.337 2.13-.006 4.322-.613 6.368-.084.287-.174.573-.27.854-.163.483-.32.899-.579 1.332-.214.365-.444.725-.686 1.074a21.392 21.392 0 01-2.698 3.176 21.257 21.257 0 01-4.626 3.412 21.26 21.26 0 01-6.756 2.293c-.972.157-1.962.253-2.945.287-4.069.146-8.875-.725-14.484-3.333 0 0-13.759-6.081-18.053-16.502-.006-.017-7.616-16.013 7.526-16.013z" fill="#393c3d"/></g></svg>