<svg xmlns="http://www.w3.org/2000/svg" viewBox="0 0 318.55 318.55"><path d="M303.466 253.103c-11.151-37.754-67.121-33.566-91.279-44.408-24.157-10.842-20.386-47.219-23.449-53.548h-58.932c-3.058 6.329.714 42.711-23.449 53.548-24.157 10.842-80.133 6.655-91.279 44.408-6.149 20.824-5.857 27.193-7.554 50.26 0 0 76.8 15.187 150.014 15.187s153.488-15.187 153.488-15.187c-1.703-23.073-1.411-29.436-7.56-50.26z" fill="#9e6f4c"/><path d="M180.976 217.007c24.157 10.842 80.133 6.655 91.279 44.408 5.857 19.83 5.868 26.552 7.324 47.073 19.234-2.816 31.442-5.126 31.442-5.126-1.697-23.067-1.405-29.435-7.554-50.26-11.151-37.754-67.121-33.566-91.279-44.408-24.157-10.842-20.386-47.219-23.449-53.548h-31.206c.005.001-.714 51.025 23.443 61.861z" fill="#916243"/><path d="M303.466 253.103c-11.151-37.754-67.121-33.566-91.279-44.408a28.297 28.297 0 01-3.237-1.703s.674 22.623-10.381 44.903c-10.724 21.617-33.094 42.908-38.664 42.908-5.637 0-28.682-21.718-39.957-43.509-11.354-21.943-10.921-43.964-10.921-43.964h-.017c-.849.489-1.726.944-2.653 1.36-24.157 10.842-80.133 6.655-91.279 44.408-6.149 20.824-5.857 27.193-7.554 50.26 0 0 76.8 15.187 150.014 15.187s153.488-15.187 153.488-15.187c-1.703-23.068-1.411-29.431-7.56-50.255z" fill="#7f5732"/><path d="M60.414 311.653c27.631 3.552 62.771 6.897 97.124 6.897 35.112 0 71.854-3.496 100.581-7.133v-22.853s-56.852 8.526-100.721 8.526-96.978-8.526-96.978-8.526v23.089h-.006z" fill="#4c3626"/><path d="M207.461 223.909c25.821 4.941 56.808 10.466 64.794 37.512 5.857 19.829 5.868 26.552 7.324 47.073 19.234-2.816 31.442-5.126 31.442-5.126-1.697-23.067-1.405-29.435-7.554-50.26-11.151-37.754-67.121-33.566-91.279-44.408a28.297 28.297 0 01-3.237-1.703c-.001-.006.202 6.936-1.49 16.912z" fill="#754d2d"/><path fill="#87573d" d="M109.027 207.329l19.026 34.617 31.16-36.27zM159.213 205.676l26.479 30.902 3.513 5.368 19.745-34.955z"/><path d="M159.213 205.676l-38.344-14.557s-3.389 4.817-11.843 16.21l19.251 29.092 30.936-30.745z" fill="#9e6f4c"/><path d="M159.213 205.676l37.422-14.557s3.861 4.48 12.315 15.873l-19.723 29.43-30.014-30.746z" fill="#9e6f4c"/><path d="M208.95 206.991c-8.453-11.393-12.315-15.873-12.315-15.873l-28.575 13.338c3.221 5.548 7.425 10.089 12.916 12.551 4.851 2.175 10.988 3.749 17.789 5.177l10.185-15.193z" fill="#916243"/><circle cx="159.32" cy="228.102" r="7.031" fill="#515151"/><circle cx="159.32" cy="253.052" r="7.031" fill="#515151"/><circle cx="159.32" cy="278.002" r="7.031" fill="#515151"/><path d="M81.064 107.388s-16.733-56.229 5.154-60.315c0 0 5.109-47.073 71.725-47.073 58.319 0 73.624 27.766 75.755 49.478 0 0 20.622 0 4.204 59.489l-37.956 46.05h-87.552l-31.33-47.629z" fill="#393c3d"/><ellipse transform="rotate(100.195 228.316 118.141)" cx="228.314" cy="118.142" rx="21.386" ry="11.629" fill="#ddb58e"/><ellipse transform="rotate(169.801 90.058 118.15)" cx="90.057" cy="118.15" rx="11.629" ry="21.386" fill="#e8c59e"/><path d="M223.434 46.95l-63.653 9.218-65.396-8.33s-5.48 31.83-5.48 46.438c0 44.184 7.931 104.645 70.303 113.48C259.429 193.564 223.434 46.95 223.434 46.95z" fill="#e8c59e"/><path d="M159.213 207.756C259.429 193.564 223.434 46.95 223.434 46.95h-15.023c4.114 61.242 9.808 93.774-13.815 129.24-18.718 28.103-35.383 31.566-35.383 31.566z" fill="#ddb58e"/><path d="M156.757 85.946s13.54-2.125 13.023-18.615c0 0 34.589-7.841 44.926-4.688v-9.915h-56.47c-.001 0 3.816 23.32-1.479 33.218z" fill="#ddb58e"/><path d="M145.184 75.463s2.406 3.867 5.514 4.058c3.108.197 6.464-2.765 4.575-6.256-1.512-2.793-6.964-6.008-22.769-8.442-17.885-2.754-24.118-3.193-36.742-2.333V52.306h66.363v24.186s-6.559 11.786-13.602 6.52c-2.85-2.136-3.316-4.918-3.339-7.549z" fill="#ddb58e"/><path d="M229.724 38.991H88.742v58.005s3.119-28.283 10.179-35.342c7.059-7.059 60.292 6.239 60.292 6.239s52.328-14.203 60.292-6.239c7.964 7.964 10.224 35.342 10.224 35.342V38.991h-.005z" fill="#393c3d"/><path d="M166.722 64.661h-21.571s11.466 2.293 12.157 8.588c.77 7.026-2.973 8.066-6.452 8.049-1.815-.011-4.676-1.709-5.671-5.84-.714 1.349-.478 4.519.141 5.941 1.141 2.619 3.091 4.862 8.296 4.862 15.9 0 13.1-21.6 13.1-21.6z" fill="#393c3d"/><path d="M198.653 96.563c-16.378-.056-31.532 5.238-39.665 5.238s-23.286-5.3-39.665-5.238c-14.546.051-28.232 2.394-32.678 3.603a1.66 1.66 0 00-1.225 1.596v6.953c0 .652.382 1.242.978 1.506.63.275 1.416.719 1.933 1.355.972 1.197 2.737 13.467 8.161 17.75 3.507 2.765 13.467 5.25 22.145 5.081 8.673-.169 18.863-.59 24.483-4.851 7.762-5.879 8.819-16.744 10.713-19.554 1.518-2.248 3.873-2.602 5.154-2.602s3.637.348 5.154 2.602c1.894 2.81 2.951 13.675 10.713 19.554 5.626 4.26 15.811 4.682 24.483 4.851 8.672.169 18.638-2.31 22.145-5.081 5.424-4.283 7.189-16.553 8.161-17.75.517-.635 1.304-1.079 1.934-1.355.596-.264.978-.854.978-1.506v-6.953c0-.748-.5-1.4-1.225-1.596-4.444-1.208-18.136-3.552-32.677-3.603zm-51.827 20.493c-1.332 4.778-4.024 8.566-7.29 10.477-3.311 1.939-14.569 3.103-19.824 3.108-6.913.006-18.323-1.883-20.892-4.165s-3.367-6.391-3.94-9.875c-.573-3.479-1.669-9.426 1.265-12.157 3.648-3.389 19.335-4.525 23.505-4.333 8.673.399 25.343 2.338 27.85 6.391 1.596 2.556.438 6.563-.674 10.554zm76.254-.461c-.573 3.479-1.371 7.593-3.94 9.875s-13.973 4.171-20.892 4.165c-5.25 0-16.513-1.163-19.824-3.108-3.266-1.911-5.958-5.699-7.29-10.477-1.113-3.991-2.271-7.998-.686-10.561 2.512-4.052 19.178-5.992 27.85-6.391 4.165-.191 19.852.944 23.505 4.333 2.947 2.738 1.845 8.685 1.277 12.164z" fill="#3a3a38"/></svg>