<svg xmlns="http://www.w3.org/2000/svg" viewBox="0 0 318.965 318.965"><path d="M303.673 253.518c-11.151-37.754-67.121-33.566-91.279-44.408-24.157-10.842-20.386-47.219-23.449-53.548h-58.932c-3.058 6.329.714 42.711-23.449 53.548-24.157 10.842-80.133 6.655-91.279 44.408-6.149 20.824-5.857 27.193-7.554 50.26 0 0 76.8 15.187 150.014 15.187s153.488-15.187 153.488-15.187c-1.703-23.073-1.411-29.436-7.56-50.26z" fill="#e8c59e"/><path d="M303.673 253.518c-11.151-37.754-67.121-33.566-91.279-44.408-24.157-10.842-20.386-47.219-23.449-53.548H157.74s-.719 51.024 23.438 61.866 80.133 6.655 91.279 44.408c5.857 19.83 5.868 26.552 7.324 47.073 19.234-2.816 31.442-5.126 31.442-5.126-1.693-23.078-1.401-29.441-7.55-50.265z" fill="#ddb58e"/><path d="M122.083 193.158c9.78 7.959 21.24 15.85 37.338 18.132 16.137-2.288 27.569-10.342 37.36-18.334-8.144-14.973-5.626-32.83-7.83-37.4h-58.938c-2.214 4.575.254 22.623-7.93 37.602z" fill="#cca281"/><ellipse transform="rotate(100.195 228.524 118.557)" cx="228.522" cy="118.557" rx="21.386" ry="11.629" fill="#ddb58e"/><ellipse transform="rotate(169.801 90.265 118.565)" cx="90.265" cy="118.565" rx="11.629" ry="21.386" fill="#e8c59e"/><path d="M223.642 47.365H95.233S59.244 193.979 159.42 208.171c100.216-14.192 64.222-160.806 64.222-160.806z" fill="#e8c59e"/><path d="M159.421 208.171c100.216-14.192 64.221-160.806 64.221-160.806h-15.024c4.114 61.242 9.808 93.774-13.815 129.24-18.717 28.103-35.382 31.566-35.382 31.566z" fill="#ddb58e"/><path d="M216.06 75.035c-26.867-1.619-56.695 12.27-56.695 12.27s-29.817-13.889-56.684-12.27c0 0-13.433 12.045-3.35 41.688-6.537-30.16 3.35-37.518 3.35-37.518 26.867-1.619 56.684 12.27 56.684 12.27s29.829-13.889 56.695-12.27c0 0 10.353 8.262 3.35 37.518 10.083-29.643-3.35-41.688-3.35-41.688z" fill="#ddb58e"/><path d="M231.359 39.457S222.192.045 159.421 0h-.102C96.548.045 87.381 39.457 87.381 39.457c-7.593 26.883-2.136 60.152-2.136 60.152l6.998 40.064 6.93.354.152-23.309c-10.083-29.643 3.35-41.688 3.35-41.688 26.867-1.619 56.684 12.27 56.684 12.27s29.829-13.889 56.695-12.27c0 0 13.433 12.045 3.35 41.688l.354 23.309 6.857-.36 6.874-40.058c.012 0 5.463-33.275-2.13-60.152z" fill="#545250"/><path d="M159.376 47.803C145.29 40.26 105.58 40.26 105.58 40.26c39.361 4.716 53.795 13.433 53.795 13.433s14.434-8.718 53.795-13.433c-.005.006-39.714.006-53.794 7.543z" fill="#605e5b"/><path d="M61.763 312.214c27.451 3.496 62.102 6.75 95.983 6.75 33.443 0 68.364-3.17 96.427-6.615-2.844-33.847 1.113-81.032 2.22-92.768-8.678-2.018-17.463-3.49-25.394-5.126-16.081 56.206-58.55 55.953-73.034 55.953-14.462 0-56.673.562-72.804-55.386-8.116 1.607-16.969 3.131-25.608 5.283 1.136 12.034 5.064 58.225 2.21 91.909z" fill="#eae5dc"/><path d="M226.132 228.118c10.314 2.451 20.425 5.711 28.704 10.988a782.207 782.207 0 011.551-19.532c-8.678-2.018-17.463-3.49-25.394-5.126-1.421 4.992-3.056 9.534-4.861 13.67z" fill="#e0dbd3"/><path d="M303.673 253.518c-7.492-25.371-35.236-31.801-59.955-36.579.259 16.671-11.348 44.448-18.475 51.608-24.804 24.916-67.953 40.362-67.953 40.362s-40.204-10.454-67.048-40.362c-6.615-7.369-18.273-36.309-18.194-50.985-23.871 4.738-49.591 11.668-56.763 35.955-6.149 20.824-5.857 27.193-7.554 50.26 0 0 76.8 15.187 150.014 15.187s153.488-15.187 153.488-15.187c-1.703-23.072-1.411-29.435-7.56-50.259z" fill="#3b8d93"/><path d="M303.673 253.518c-7.492-25.371-35.236-31.801-59.955-36.579.073 4.615-.77 10.083-2.17 15.732 14.304 5.306 26.355 13.731 30.913 29.165 5.857 19.83 5.868 26.552 7.324 47.073 19.234-2.816 31.442-5.126 31.442-5.126-1.697-23.078-1.405-29.441-7.554-50.265z" fill="#348789"/><path d="M243.719 216.933c-4.452-.86-8.808-1.669-12.933-2.524l.039 2.72c.09 5.857-2.018 15.058-5.632 24.607-3.968 10.466-7.835 16.452-9.089 17.711-18.329 18.413-48.686 31.582-59.331 35.843-9.943-3.243-37.512-13.709-56.942-35.359-1.208-1.343-5.025-7.672-9.128-18.655-3.586-9.606-5.8-18.666-5.772-23.646l.017-2.569c-4.154.821-8.498 1.624-12.905 2.496-.084 14.67 11.578 43.61 18.194 50.985 26.844 29.907 67.048 40.362 67.048 40.362s43.155-15.44 67.953-40.362c7.132-7.161 18.74-34.932 18.481-51.609z" fill="#5c9ea0"/><path d="M241.549 232.665c1.4-5.649 2.243-11.118 2.17-15.732-4.452-.86-8.808-1.669-12.933-2.524l.039 2.72c.051 3.119-.528 7.183-1.619 11.747 4.216 1.08 8.37 2.317 12.343 3.789z" fill="#51989e"/></svg>