<svg xmlns="http://www.w3.org/2000/svg" viewBox="0 0 318.965 318.965"><path d="M109.228 207.744v109.298c15.76 1.169 32.223 1.922 48.517 1.922 17.064 0 34.511-.826 51.238-2.091l.174-109.467-99.929.338z" fill="#eaeae1"/><path d="M303.673 253.518c-11.151-37.754-67.121-33.566-91.279-44.408-24.157-10.842-20.386-47.219-23.449-53.548h-58.932c-3.058 6.329.714 42.711-23.449 53.548-24.157 10.842-80.133 6.655-91.279 44.408-6.149 20.824-5.857 27.193-7.554 50.26 0 0 76.8 15.187 150.014 15.187s153.488-15.187 153.488-15.187c-1.703-23.073-1.411-29.436-7.56-50.26z" fill="#eaeae1"/><path d="M303.673 253.518c-11.151-37.754-67.121-33.566-91.279-44.408-24.157-10.842-20.386-47.219-23.449-53.548H157.74s-.719 51.024 23.438 61.866 80.133 6.655 91.279 44.408c5.857 19.83 5.868 26.552 7.324 47.073 19.234-2.816 31.442-5.126 31.442-5.126-1.693-23.078-1.401-29.441-7.55-50.265z" fill="#e0dbd3"/><path fill="#c6c5af" d="M209.157 207.406l-33.049 28.716-4.935-30.374zM109.234 207.744l33.583 28.378 3.979-30.604z"/><path fill="#c6c5af" d="M172.005 205.518h-25.209l-1.911 6.182 29.076.169z"/><path fill="#aaa88f" d="M146.796 205.518l-1.911 6.182 1.102.72zM173.961 211.869l-2.788-6.121 1.158 7.11z"/><path d="M173.433 318.739l.579-7.987-6.081-80.51h-16.024l-7.099 80.515.585 8.066c4.12.084 8.24.141 12.354.141 5.203 0 10.441-.084 15.686-.225z" fill="#4c4c4c"/><path fill="#3a3a38" d="M151.967 230.597l15.963-.36.326 4.497z"/><path fill="#4c4c4c" d="M140.541 208.182l37.714-.023-2.147 12.872-8.515 9.566h-15.626l-9.274-9.566z"/><path d="M146.796 205.518l-25.72-13.984s-3.389 4.817-11.843 16.21l31.723 22.853 2.704-14.923 3.136-10.156zM171.122 205.518l25.72-13.984s3.861 4.48 12.315 15.873l-32.195 23.191-2.704-14.923-3.136-10.157z" fill="#eaeae1"/><path d="M196.842 191.534l-25.72 13.984 1.776 5.772c2.372 2.602 5.109 4.716 8.279 6.138 2.799 1.253 6.02 2.31 9.555 3.249l18.419-13.265c-8.447-11.399-12.309-15.878-12.309-15.878z" fill="#e0dbd3"/><path d="M233.292 250.73l-15.333-5.559 13.776-3.794-13.13-29.969-40.749 107.208c4.778-.163 9.549-.377 14.293-.635l41.143-67.251zM86.189 241.372l13.776 3.794-15.333 5.559 41.216 67.369c4.716.247 9.471.444 14.237.59L99.24 211.734l-13.051 29.638z" fill="#515147"/><path d="M66.107 312.759c22.977 2.822 50.462 5.379 78.138 6.042-16.648-33.802-29.413-65.491-35.011-111.052h-.006c-.849.489-1.731.95-2.664 1.366-10.645 4.778-27.468 6.638-43.914 10.454l3.457 93.19zM252.846 312.512l3.445-92.954c-16.44-3.811-33.252-5.671-43.897-10.449a28.612 28.612 0 01-2.67-1.371l-.017.006c-5.587 45.521-18.34 77.199-34.96 110.962 27.491-.804 55.032-3.389 78.099-6.194z" fill="#393c3d"/><path d="M209.73 207.738l-.017.006a336.3 336.3 0 01-2.434 16.502c16.35 3.136 34.842 6.458 48.275 15.327l.742-20.015c-16.44-3.811-33.252-5.671-43.897-10.449a27.182 27.182 0 01-2.669-1.371z" fill="#2f3233"/><ellipse transform="rotate(100.195 228.524 118.557)" cx="228.522" cy="118.558" rx="21.386" ry="11.629" fill="#cca483"/><ellipse transform="rotate(169.801 90.265 118.565)" cx="90.265" cy="118.565" rx="11.629" ry="21.386" fill="#dbb491"/><path d="M223.641 47.365H95.233S59.244 193.979 159.42 208.171c100.216-14.192 64.221-160.806 64.221-160.806z" fill="#dbb491"/><path d="M159.42 208.171c100.216-14.192 64.221-160.806 64.221-160.806h-15.024c4.114 61.242 9.808 93.774-13.815 129.24-18.717 28.103-35.382 31.566-35.382 31.566z" fill="#cca483"/><path d="M187.838 5.48s-19.824-9.33-46.477-3.642c-19.953 4.26-52.423 17.829-59.73 46.893 0 0-10.932 47.483 7.683 67.931 0 0-.916-18.548.956-33.313 0 0 11.174 4.946 33.69 4.659 30.188-.382 59.444-12.776 68.442-26.355 0 0-1.034 19.532-10.876 27.502 0 0 34.522-5.396 44.729-25.883 0 0 3.417 17.935 3.417 51.159 0 0 5.39-7.509 6.649-19.605 2.855-27.44-2.333-65.334-22.876-64.069.001-.001-8.7-17.267-25.607-25.277z" fill="#393c3d"/><path d="M181.526 89.154c9.836-7.976 10.876-27.502 10.876-27.502-8.999 13.574-38.248 25.967-68.442 26.355-21.763.275-32.931-4.333-33.651-4.643 1.433.613 44.156 18.554 91.672-3.884 0 0-2.58 9.527-8.139 12.804 0 0 43.869-.793 52.418-29.008-10.206 20.482-44.734 25.878-44.734 25.878z" fill="#cca483"/><path d="M117.833 302.232c0 1.169-.956 2.13-2.13 2.13H80.181a2.136 2.136 0 01-2.13-2.13v-13.09c0-1.169.956-2.13 2.13-2.13h35.522c1.169 0 2.13.956 2.13 2.13v13.09z" fill="#efb43f"/></svg>