<svg xmlns="http://www.w3.org/2000/svg" viewBox="0 0 318.543 318.543"><path d="M70.266 236.841s14.85-27.608 11.511-57.606c-3.142-28.215-21.01-46.78-17.025-102.942C67.461 38.068 91.332 0 157.948 0c58.32 0 72.135 26.653 69.364 44.841 0 0 8.133-.517 13.692 4.721 8.071 7.605 14.052 51.648 2.467 87.232-23.584 72.444 5.744 101.874 5.744 101.874l-178.949-1.827z" fill="#2f3233"/><path d="M295.389 253.096c-10.522-37.754-63.361-33.566-86.164-44.408s-19.245-47.219-22.134-53.548h-55.638c-2.889 6.329.674 42.711-22.134 53.548-22.803 10.842-75.642 6.655-86.164 44.408-5.806 20.824-5.525 27.187-7.133 50.26 0 0 72.5 15.187 141.611 15.187s144.888-15.187 144.888-15.187c-1.602-23.073-1.326-29.435-7.132-50.26z" fill="#e8c59e"/><path d="M179.761 217.001c22.803 10.842 75.642 6.655 86.164 44.408 5.531 19.83 5.542 26.552 6.913 47.073 18.155-2.816 29.682-5.126 29.682-5.126-1.602-23.067-1.326-29.435-7.133-50.26-10.522-37.754-63.361-33.566-86.164-44.408s-19.245-47.219-22.134-53.548h-29.458c.002 0-.678 51.024 22.13 61.861z" fill="#ddb58e"/><path d="M250.025 311.753c-2.715-34.044 1.102-80.83 2.125-92.246-15.378-3.912-31.301-5.75-41.716-10.274 0 0-45.701 55.498-51.159 55.498-5.458 0-51.159-55.498-51.159-55.498-10.443 4.536-26.417 6.368-41.829 10.303 1.029 11.489 4.851 58.404 2.102 92.442 25.692 3.423 57.819 6.565 89.244 6.565 32.116 0 65.666-3.283 92.392-6.79z" fill="#e0dbd3"/><path d="M199.13 222.739c16.856 3.58 37.315 6.615 51.49 16.884.59-9.257 1.203-16.48 1.523-20.116-15.378-3.912-31.301-5.75-41.716-10.274 0 0-4.715 5.727-11.297 13.506z" fill="#d3cec7"/><path d="M252.144 219.507c-5.334-1.36-10.741-2.467-15.951-3.524-1.934 20.645-4.412 56.571-3.412 97.872a903.524 903.524 0 0017.244-2.108c-2.721-34.044 1.101-80.824 2.119-92.24z" fill="#e2963b"/><path d="M234.894 231.541c5.688 2.091 11.05 4.693 15.726 8.082.59-9.257 1.203-16.48 1.523-20.116-5.334-1.36-10.741-2.467-15.951-3.524a811.546 811.546 0 00-1.298 15.558z" fill="#d88832"/><path d="M82.339 215.989c-5.25 1.062-10.685 2.181-16.052 3.552 1.029 11.489 4.851 58.404 2.102 92.442a853.72 853.72 0 0017.356 2.136c1.018-41.412-1.472-77.446-3.406-98.13zM210.427 209.233c-.41-.18-.815-.36-1.208-.545-22.803-10.842-19.245-47.219-22.134-53.548h-55.638c-2.889 6.329.674 42.711-22.134 53.548-.393.185-.798.371-1.208.545 0 0 6.885 13.332 17.379 27.608 12.09 16.44 28.322 34.134 33.78 34.134s21.69-17.688 33.78-34.134c10.504-14.276 17.383-27.608 17.383-27.608z" fill="#e2963b"/><path d="M210.427 209.233c-.197-.084-.393-.174-.59-.259-.011-.006-.017-.006-.028-.011-.197-.09-.399-.18-.59-.275-4.097-1.95-7.341-4.727-9.932-8.004-1.956 4.867-6.351 11.927-11.562 19.267 4.373 1.293 9.28 2.361 14.462 3.429 5.172-8.2 8.24-14.147 8.24-14.147z" fill="#d88832"/><path d="M199.293 200.684c-11.803-14.951-9.836-40.356-12.202-45.549h-55.638c-2.372 5.193-.405 30.599-12.202 45.549 5.626 14.029 35.865 51.575 40.024 51.575 4.153 0 33.92-36.405 40.018-51.575z" fill="#e8c59e"/><path d="M179.761 217.001c2.361 1.124 5.047 2.085 7.976 2.951 5.205-7.341 9.6-14.4 11.562-19.267-9.993-12.658-10.117-32.813-11.354-41.845-.006-.034-.011-.062-.011-.09-.022-.157-.045-.309-.067-.455-.006-.051-.017-.096-.022-.146-.022-.135-.039-.264-.062-.388-.006-.045-.017-.096-.022-.141-.022-.141-.051-.275-.073-.41-.006-.022-.011-.051-.017-.079a8.645 8.645 0 00-.096-.45c-.006-.034-.017-.062-.022-.096a4.83 4.83 0 00-.079-.315 2.375 2.375 0 00-.034-.129 2.967 2.967 0 00-.073-.247c-.011-.045-.028-.084-.039-.129-.028-.079-.051-.157-.079-.23a3.995 3.995 0 00-.034-.101 8.018 8.018 0 00-.118-.292h-29.458c-.006-.002-.686 51.022 22.122 61.859z" fill="#cca483"/><path d="M123.971 192.736c9.229 7.959 20.054 15.85 35.241 18.132 15.237-2.288 26.023-10.342 35.269-18.334-7.689-14.973-5.311-32.83-7.391-37.4h-55.638c-2.085 4.576.242 22.624-7.481 37.602z" fill="#cca281"/><ellipse transform="rotate(100.195 224.157 118.136)" cx="224.155" cy="118.137" rx="21.386" ry="11.629" fill="#ddb58e"/><ellipse transform="rotate(169.801 94.217 118.143)" cx="94.216" cy="118.143" rx="11.629" ry="21.386" fill="#e8c59e"/><path d="M219.645 46.943l-59.91 9.218s-21.229.922-38.552 9.729c-15.901 8.088-28.002 23.91-28.159 28.378-1.551 44.156 7.464 104.645 66.172 113.48 94.33-14.191 60.449-160.805 60.449-160.805z" fill="#e8c59e"/><path d="M159.195 207.749c94.331-14.192 60.45-160.806 60.45-160.806h-14.141c3.873 61.242 9.229 93.774-13.006 129.24-17.615 28.104-33.303 31.566-33.303 31.566z" fill="#ddb58e"/><path d="M217.403 40.412s-32.701 15.721-81.51 14.883c-43.031-.736-42.464 36.146-42.84 38.636 0 0 10.033-18.593 38.012-23.685 25.422-4.626 45.662 3.114 63.839 4.822 20.223 1.9 26.968-13.445 26.968-13.445l-4.469-21.211z" fill="#ddb58e"/><path d="M215.666 34.409s-30.975 18.171-79.773 16.733c-52.154-1.54-43.11 41.654-42.84 42.795 0 0 5.379-20.24 33.094-26.76 17.992-4.232 35.286-2.552 53.222 1.006 40.339 8.004 43.897-15.918 43.897-15.918s2.022-9.318-7.6-17.856z" fill="#2f3233"/></svg>