<svg xmlns="http://www.w3.org/2000/svg" viewBox="0 0 318.543 318.543"><path d="M82.778 120.197S46.626 0 157.942 0s77.66 120.197 77.66 120.197H82.778z" fill="#393c3d"/><path d="M87.499 147.429s-24.905 26.13-8.566 67.161c8.566 21.504-1.22 27.743-1.22 27.743s21.651 4.075 19.194-20.448c-.731-7.296.017-9.072 7.071-16.974 7.054-7.903 14.046-15.53 10.55-33.802l-27.029-23.68z" fill="#2f3233"/><path d="M295.389 253.096c-10.522-37.754-63.361-33.566-86.164-44.408-22.803-10.842-19.245-47.219-22.134-53.548h-55.638c-2.889 6.329.674 42.711-22.134 53.548-22.803 10.842-75.642 6.655-86.164 44.408-5.806 20.824-5.525 27.187-7.133 50.26 0 0 72.5 15.187 141.611 15.187s144.888-15.187 144.888-15.187c-1.602-23.073-1.326-29.435-7.132-50.26z" fill="#e8c59e"/><path d="M179.761 217.001c22.803 10.842 75.642 6.655 86.164 44.408 5.531 19.83 5.542 26.552 6.913 47.073 18.155-2.816 29.682-5.126 29.682-5.126-1.602-23.067-1.326-29.435-7.133-50.26-10.522-37.754-63.361-33.566-86.164-44.408-22.803-10.842-19.245-47.219-22.134-53.548h-29.458c.002 0-.678 51.024 22.13 61.861z" fill="#ddb58e"/><path d="M61.661 311.056c26.675 3.76 61.737 7.487 95.972 7.487 35.326 0 72.388-3.968 100.187-7.846 13.383-11.792 33.156-14.361 44.201-14.81-1.124-17.283-1.506-24.405-6.632-42.79-9.724-34.887-55.582-33.96-80.482-42.171 3.058 17.874-48.877 95.14-55.363 95.14-6.486 0-58.359-77.829-55.335-95.331-24.764 8.42-71.253 7.211-81.049 42.363-5.12 18.374-5.508 25.495-6.632 42.767 11.038.392 31.537 2.893 45.133 15.191z" fill="#9e6f4c"/><path d="M295.389 253.096c-9.724-34.887-55.582-33.96-80.482-42.171.545 3.181-.658 8.251-3.035 14.434 22.662 4.744 47.236 11.601 54.053 36.056 4.89 17.536 5.463 24.821 6.481 40.452 10.747-4.407 22.168-5.677 29.615-5.98-1.124-17.29-1.506-24.411-6.632-42.791z" fill="#8e633f"/><path d="M64.808 311.646c26.4 3.552 59.978 6.896 92.802 6.896 33.555 0 68.656-3.496 96.107-7.133v-35.326s-54.323 8.526-96.242 8.526-92.667-8.526-92.667-8.526v35.563z" fill="#eae5dc"/><path d="M64.808 276.085s0-29.795-8.97-55.363l20.234-4.929s13.799 34.078 10.303 81.246l-21.567-20.954zM253.717 276.085s0-29.795 8.971-55.363l-20.234-4.929s-13.799 34.078-10.303 81.246l21.566-20.954z" fill="#eae5dc"/><path d="M242.454 215.798s-2.467 6.098-5.053 16.71c7.341 2.956 14.023 6.863 19.239 12.36 1.326-7.768 3.249-16.159 6.053-24.141l-20.239-4.929z" fill="#e0dbd3"/><path d="M86.184 279.187l-20.431 1.074c-2.585.135-4.8-1.956-4.929-4.665l-.438-9.122c-.129-2.709 1.872-5.025 4.457-5.16l20.431-1.074c2.585-.135 4.8 1.956 4.929 4.665l.438 9.122c.129 2.71-1.872 5.025-4.457 5.16zm-21.207-14.962c-1.057.056-1.872 1-1.821 2.108l.438 9.122c.051 1.107.956 1.962 2.012 1.905l20.431-1.074c1.057-.056 1.872-1 1.821-2.108l-.438-9.122c-.051-1.107-.956-1.962-2.012-1.905l-20.431 1.074zM227.93 274.027l.438-9.122c.129-2.709 2.344-4.8 4.929-4.665l20.431 1.074c2.585.135 4.586 2.451 4.457 5.16l-.438 9.122c-.129 2.709-2.344 4.8-4.929 4.665l-20.431-1.074c-2.585-.135-4.586-2.45-4.457-5.16zm5.233-10.875c-1.057-.056-1.962.798-2.012 1.905l-.438 9.122c-.051 1.107.764 2.052 1.821 2.108l20.431 1.074c1.057.056 1.962-.798 2.012-1.905l.438-9.122c.051-1.107-.764-2.052-1.821-2.108l-20.431-1.074z" fill="#515151"/><path d="M123.971 192.736c9.229 7.959 20.054 15.85 35.241 18.132 15.237-2.288 26.023-10.342 35.269-18.334-7.689-14.973-5.311-32.83-7.391-37.4h-55.638c-2.085 4.576.242 22.624-7.481 37.602z" fill="#cca281"/><ellipse transform="rotate(100.195 224.157 118.136)" cx="224.155" cy="118.137" rx="21.386" ry="11.629" fill="#ddb58e"/><ellipse transform="rotate(169.801 94.217 118.143)" cx="94.216" cy="118.143" rx="11.629" ry="21.386" fill="#e8c59e"/><path d="M159.735 56.161s-65.874-7.487-66.683 11.927c-.793 19.02.124 21.712-.028 26.181-1.551 44.156 7.464 104.645 66.171 113.48 62.979-9.476 68.808-77.969 65.727-122.456-1.533-22.151-65.187-29.132-65.187-29.132z" fill="#e8c59e"/><path d="M159.195 207.749c94.331-14.192 60.45-160.806 60.45-160.806h-14.141c3.873 61.242 9.229 93.774-13.006 129.24-17.615 28.104-33.303 31.566-33.303 31.566z" fill="#ddb58e"/><path d="M109.605 92.83c26.833 6.621 64.896 8.555 98.085 3.327 0 0 1.962-.332 4.412-1.062v-35l-89.694 1.63-12.803 31.105z" fill="#ddb58e"/><path d="M239.677 68.184l-8.24-22.87H85.863l-8.24 22.87c-8.021 99.794 34.595 123.153 34.595 123.153-23.016-60.096-2.597-110.681-2.597-110.681-.371 6.239-.017 12.174-.017 12.174 32.184 5.396 64.896 5.227 98.085 0 0 0 .36-5.935-.017-12.174 0 0 20.42 50.586-2.597 110.681.002 0 42.617-23.359 34.602-123.153z" fill="#393c3d"/></svg>