<svg xmlns="http://www.w3.org/2000/svg" viewBox="0 0 318.543 318.543"><path d="M303.462 253.096c-11.151-37.754-67.121-33.566-91.279-44.408-24.157-10.842-20.386-47.219-23.449-53.548h-58.932c-3.058 6.329.714 42.711-23.449 53.548-24.157 10.842-80.133 6.655-91.279 44.408-6.149 20.824-5.857 27.193-7.554 50.26 0 0 76.8 15.187 150.014 15.187s153.488-15.187 153.488-15.187c-1.704-23.073-1.411-29.435-7.56-50.26z" fill="#eae5dc"/><path d="M180.972 217.001c24.157 10.842 80.133 6.655 91.279 44.408 5.857 19.83 5.868 26.552 7.324 47.073 19.234-2.816 31.442-5.126 31.442-5.126-1.697-23.067-1.405-29.435-7.554-50.26-11.151-37.754-67.121-33.566-91.279-44.408-24.157-10.842-20.386-47.219-23.449-53.548H157.53c.004 0-.716 51.024 23.442 61.861z" fill="#e0dbd3"/><path d="M201.667 200.684c-12.5-14.951-10.421-40.356-12.927-45.549h-58.938c-2.512 5.193-.427 30.599-12.927 45.549 5.963 14.029 37.99 51.575 42.396 51.575 4.4 0 35.938-36.405 42.396-51.575z" fill="#e8c59e"/><path d="M121.871 192.736c9.78 7.959 21.24 15.85 37.338 18.132 16.137-2.288 27.569-10.342 37.36-18.334-8.144-14.973-5.626-32.83-7.83-37.4h-58.938c-2.214 4.576.253 22.624-7.93 37.602z" fill="#c69e7f"/><ellipse transform="rotate(100.195 228.312 118.135)" cx="228.31" cy="118.135" rx="21.386" ry="11.629" fill="#ddb58e"/><ellipse transform="rotate(169.801 90.054 118.143)" cx="90.053" cy="118.142" rx="11.629" ry="21.386" fill="#e8c59e"/><path d="M223.43 46.943l-63.653 9.218-65.396-8.33s-5.48 31.83-5.48 46.438c0 44.184 7.931 104.645 70.303 113.48 100.22-14.192 64.226-160.806 64.226-160.806z" fill="#e8c59e"/><path d="M159.209 207.749C259.426 193.557 223.43 46.943 223.43 46.943h-15.024c4.114 61.242 9.808 93.774-13.815 129.24-18.717 28.104-35.382 31.566-35.382 31.566z" fill="#ddb58e"/><path d="M231.613 53.632c-3.361-22.865-22.685-49.473-72.405-49.473s-67.993 28.3-72.405 49.473C83.38 70.055 95.65 90.076 95.65 90.076c-.995-10.69-1.074-24.764 4.373-30.211 9.274-9.274 59.798 8.881 59.798 8.881s51.131-16.328 58.578-8.881c4.407 4.407 4.48 18.874 3.805 29.941-.005.006 12.068-18.087 9.409-36.174z" fill="#ddb58e"/><path d="M231.613 49.473C228.252 26.608 208.929 0 159.209 0S91.216 28.3 86.804 49.473c-3.423 16.423-2.541 35.067-.961 47.719 4.339-.472 8.611.719 11.663 2.102 0 0-6.756-34.303 2.518-43.582s59.798 8.881 59.798 8.881 51.131-16.328 58.578-8.881 2.518 43.582 2.518 43.582c3.052-1.383 7.324-2.574 11.663-2.102 1.691-15.288 1.691-29.632-.968-47.719z" fill="#515151"/><path d="M158.54 153.01c-14.203 0-31.06-.433-42.587 2.243-13.596 3.153-20.695 9.493-20.695 9.493 2.715-1.27 11.871-3.204 19.588-.45 9.336 3.333 25.501 13.731 43.689-6.419 18.188 20.15 34.353 9.752 43.689 6.419 7.723-2.76 16.879-.821 19.593.45 0 0-9.471-7.56-23.067-10.713-11.523-2.67-26.007-1.023-40.21-1.023z" fill="#ddb58e"/><path d="M224.16 148.525s-12.742 29.609-42.396 40.693c.011-.034.028-.067.039-.101-16.356 5.137-23.269-12.096-23.269-12.096s-6.913 17.238-23.269 12.096c0 .006 0 .006.006.011-28.952-11.151-40.227-40.603-40.227-40.603s.45 1.911.658 4.89c.45 6.334.939 17.497-.416 25.445-2.754 16.142-5.272 29.143 4.671 44.92 8.774 13.917 22.758 26.58 49.006 31.183 46.044 8.071 61.141-11.955 61.141-11.955s-24.478-3.288-23.449-10.168c1.023-6.88 6.16-3.889 20.65-13.158 14.49-9.268 17.407-29.002 14.035-42.16-2.136-8.318-.062-17.401 1.473-23.185.892-3.356 1.347-5.812 1.347-5.812z" fill="#515151"/><path d="M186.66 232.845c1.023-6.88 6.16-3.889 20.65-13.158 14.49-9.268 17.407-29.002 14.035-42.16-2.136-8.318-.062-17.401 1.473-23.185.894-3.367 1.349-5.817 1.349-5.817s-8.481 21.431-8.971 37.613c-.63 20.791-18.458 27.749-40.615 33.33-11.5 2.895-10.724 16.024-1.534 22.848 8.521 6.323 24.585 6.739 37.062.697 0 0-24.478-3.288-23.449-10.168z" fill="#464747"/><path d="M162.311 142.095l-3.816 1.163-3.726-1.163s-35.82-9.195-59.505 22.651c0 0 10.173-5.604 19.588-2.243 9.336 3.333 25.501 11.938 43.689-8.212 18.188 20.15 34.353 11.55 43.689 8.212 9.42-3.361 19.593 2.243 19.593 2.243-23.692-31.841-59.512-22.651-59.512-22.651z" fill="#515151"/></svg>