<svg xmlns="http://www.w3.org/2000/svg" viewBox="0 0 318.965 318.965"><path d="M303.673 253.518c-11.151-37.754-67.121-33.566-91.279-44.408-24.157-10.842-20.386-47.219-23.449-53.548h-58.932c-3.058 6.329.714 42.711-23.449 53.548-24.157 10.842-80.133 6.655-91.279 44.408-6.149 20.824-5.857 27.193-7.554 50.26 0 0 76.8 15.187 150.014 15.187s153.488-15.187 153.488-15.187c-1.703-23.073-1.411-29.436-7.56-50.26z" fill="#eaeae1"/><path d="M303.673 253.518c-11.151-37.754-67.121-33.566-91.279-44.408-24.157-10.842-20.386-47.219-23.449-53.548H157.74s-.719 51.024 23.438 61.866 80.133 6.655 91.279 44.408c5.857 19.83 5.868 26.552 7.324 47.073 19.234-2.816 31.442-5.126 31.442-5.126-1.693-23.078-1.401-29.441-7.55-50.265z" fill="#e0dbd3"/><path fill="#c6c5af" d="M209.157 207.406l-33.049 28.716-16.688-27.951zM109.234 207.744l33.583 28.378 16.603-27.951z"/><path d="M159.42 208.171l-38.344-16.637s-3.389 4.817-11.843 16.21l31.723 22.853 18.464-22.426zM159.42 208.171l37.422-16.637s3.861 4.48 12.315 15.873l-32.195 23.191-17.542-22.427z" fill="#eaeae1"/><path d="M196.842 191.534l-28.867 12.832c3.26 5.778 7.548 10.516 13.208 13.057 2.799 1.253 6.02 2.31 9.555 3.249l18.419-13.265c-8.453-11.394-12.315-15.873-12.315-15.873z" fill="#e0dbd3"/><path d="M123.044 244.738s-5.784-7.97-5.784-19.925 5.784-19.925 5.784-19.925c20.403 0 32.066 15.94 32.066 15.94v7.97c-.001 0-11.658 15.94-32.066 15.94zM195.921 244.738s5.784-7.97 5.784-19.925-5.784-19.925-5.784-19.925c-20.403 0-32.066 15.94-32.066 15.94v7.97s11.657 15.94 32.066 15.94z" fill="#3d3d3d"/><path d="M180.925 230.31a3.944 3.944 0 01-.905-.259l-16.03-4.541 16.643.815a4.42 4.42 0 01.939.045c1.591.259 2.732 1.355 2.552 2.439s-1.609 1.765-3.199 1.501zM181.611 222.627c-.315.079-.63.118-.933.124l-16.519 2.186 15.603-5.845c.27-.135.562-.253.882-.332 1.563-.388 3.046.157 3.311 1.225.269 1.068-.782 2.249-2.344 2.642zM138.529 230.31c.32-.051.624-.141.905-.259l16.03-4.541-16.643.815a4.42 4.42 0 00-.939.045c-1.591.259-2.732 1.355-2.552 2.439.18 1.085 1.613 1.765 3.199 1.501zM137.843 222.627c.315.079.63.118.933.124l16.519 2.186-15.603-5.845a4.239 4.239 0 00-.882-.332c-1.563-.388-3.046.157-3.311 1.225-.264 1.068.787 2.249 2.344 2.642z" fill="#303030"/><path d="M166.772 217.838c0-1.641-.984-2.99-2.186-2.99h-10.201c-1.203 0-2.186 1.343-2.186 2.99v13.95c0 1.641.984 2.99 2.186 2.99h10.201c1.203 0 2.186-1.343 2.186-2.99v-13.95z" fill="#353535"/><circle cx="159.42" cy="255.373" r="5.632" fill="#3d3d3d"/><circle cx="159.42" cy="283.566" r="5.632" fill="#3d3d3d"/><circle cx="159.42" cy="311.759" r="5.632" fill="#3d3d3d"/><ellipse transform="rotate(100.195 228.524 118.557)" cx="228.522" cy="118.558" rx="21.386" ry="11.629" fill="#ddb58e"/><ellipse transform="rotate(169.801 90.265 118.565)" cx="90.265" cy="118.565" rx="11.629" ry="21.386" fill="#e8c59e"/><path d="M223.641 47.365H95.233S59.244 193.979 159.42 208.171c100.216-14.192 64.221-160.806 64.221-160.806z" fill="#e8c59e"/><path d="M159.42 208.171c100.216-14.192 64.221-160.806 64.221-160.806h-15.024c4.114 61.242 9.808 93.774-13.815 129.24-18.717 28.103-35.382 31.566-35.382 31.566z" fill="#ddb58e"/><path d="M187.838 5.48s-19.824-9.33-46.477-3.642c-19.953 4.26-52.423 17.829-59.73 46.893 0 0-10.932 47.483 7.683 67.931 0 0-.916-18.548.956-33.313 0 0 11.174 4.946 33.69 4.659 30.188-.382 59.444-12.776 68.442-26.355 0 0-1.034 19.532-10.876 27.502 0 0 34.522-5.396 44.729-25.883 0 0 3.417 17.935 3.417 51.159 0 0 5.39-7.509 6.649-19.605 2.855-27.44-2.333-65.334-22.876-64.069.001-.001-8.7-17.267-25.607-25.277z" fill="#393c3d"/><path d="M181.526 89.154c9.836-7.976 10.876-27.502 10.876-27.502-8.999 13.574-38.248 25.967-68.442 26.355-21.763.275-32.931-4.333-33.651-4.643 1.433.613 44.156 18.554 91.672-3.884 0 0-2.58 9.527-8.139 12.804 0 0 43.869-.793 52.418-29.008-10.206 20.482-44.734 25.878-44.734 25.878z" fill="#ddb58e"/><path d="M229.127 121.934c-9.712 41.57-36.68 55.076-36.68 55.076-5.75-14.85-17.25-14.85-33.027-14.85-15.777 0-27.277 0-33.027 14.85 0 0-26.968-13.506-36.68-55.076 3.429 38.58 19.397 79.11 69.707 86.237 50.31-7.127 66.279-47.657 69.707-86.237z" fill="#b5b5b5"/><path d="M159.42 208.171c50.31-7.127 66.278-47.657 69.707-86.237-7.554 32.341-25.557 47.691-33.173 52.918-.377.585-.753 1.169-1.147 1.754-18.677 28.035-35.302 31.548-35.387 31.565z" fill="#a3a3a3"/><path d="M181.442 179.601c0 4.03-3.62 7.093-7.593 6.43-4.227-.703-9.622-1.388-14.585-1.388s-10.359.686-14.585 1.388c-3.974.663-7.593-2.4-7.593-6.43v-1.748a6.517 6.517 0 016.52-6.52h31.307a6.517 6.517 0 016.52 6.52v1.748h.009z" fill="#e8c59e"/></svg>