<svg xmlns="http://www.w3.org/2000/svg" viewBox="0 0 334.978 334.978"><path d="M311.68 269.531c-11.151-37.754-67.121-33.566-91.279-44.408-24.157-10.842-20.386-47.219-23.449-53.548H138.02c-3.058 6.329.714 42.711-23.449 53.548-24.157 10.842-80.133 6.655-91.279 44.408-6.149 20.824-5.857 27.193-7.554 50.26 0 0 76.8 15.187 150.014 15.187S319.24 319.79 319.24 319.79c-1.703-23.072-1.411-29.435-7.56-50.259z" fill="#e0605c"/><path d="M311.68 269.531c-11.151-37.754-67.121-33.566-91.279-44.408-24.157-10.842-20.386-47.219-23.449-53.548h-31.206s-.719 51.024 23.438 61.866 80.133 6.655 91.279 44.408c5.857 19.83 5.868 26.552 7.324 47.073 19.234-2.816 31.442-5.126 31.442-5.126-1.692-23.078-1.4-29.441-7.549-50.265z" fill="#606060"/><path d="M311.68 269.531c-10.955-37.102-65.205-33.696-90.003-43.858 0 0-3.254 5.947-8.723 14.141 26.316 5.104 59.241 10.033 67.509 38.029 5.857 19.83 5.868 26.552 7.324 47.073 19.234-2.816 31.442-5.126 31.442-5.126-1.692-23.072-1.4-29.435-7.549-50.259z" fill="#d15852"/><path d="M221.683 225.668c-.433-.18-.86-.36-1.276-.545-24.157-10.842-20.386-47.219-23.449-53.548H138.02c-3.058 6.329.714 42.711-23.449 53.548-.416.185-.843.371-1.276.545 0 0 7.29 13.332 18.408 27.608 12.804 16.44 30.003 34.134 35.786 34.134 5.778 0 22.977-17.688 35.786-34.134 11.112-14.276 18.408-27.608 18.408-27.608z" fill="#eae5dc"/><path d="M221.683 225.668c-.208-.084-.416-.174-.624-.259-.011-.006-.017-.006-.028-.011-.214-.09-.422-.18-.63-.275-4.345-1.95-7.779-4.727-10.516-8.004-2.074 4.867-6.734 11.927-12.247 19.267 4.631 1.293 9.83 2.361 15.322 3.429 5.468-8.201 8.723-14.147 8.723-14.147z" fill="#e0dbd3"/><path d="M209.885 217.119c-12.5-14.951-10.421-40.356-12.927-45.549H138.02c-2.512 5.193-.427 30.599-12.927 45.549 5.963 14.029 37.99 51.575 42.396 51.575 4.401-.001 35.938-36.405 42.396-51.575z" fill="#dbb491"/><path d="M189.19 233.435c2.501 1.124 5.345 2.085 8.448 2.951 5.514-7.341 10.173-14.4 12.247-19.267-10.584-12.658-10.713-32.813-12.028-41.845-.006-.034-.011-.062-.011-.09-.022-.157-.045-.309-.067-.455-.006-.051-.017-.096-.022-.146-.022-.135-.045-.264-.067-.388-.006-.045-.017-.096-.022-.141-.028-.141-.051-.275-.079-.41-.006-.022-.011-.051-.017-.079a29.423 29.423 0 00-.101-.45c-.006-.034-.017-.062-.022-.096-.028-.107-.051-.214-.079-.315-.011-.045-.022-.09-.039-.129-.022-.084-.051-.169-.073-.247-.011-.045-.028-.084-.039-.129a9.707 9.707 0 00-.084-.23c-.011-.034-.028-.067-.039-.101a3.42 3.42 0 00-.129-.292h-31.206c-.009-.001-.729 51.023 23.429 61.859z" fill="#cca483"/><path d="M304.098 314.029c-.006-.337-.422-34.241-12.725-49.984-7.931-10.151-33.094-15.395-49.748-18.863l-1.371-.287c-7.391-1.54-13.366-2.417-13.428-2.422l4.845-9.757c2.563.427 6.379 1.102 10.702 2.007l1.371.287c19.222 4.002 45.544 9.488 55.818 22.64 13.107 16.778 14.709 48.056 14.9 54.975l-10.364 1.404z" fill="#e0dbd3"/><path d="M30.75 314.029c.006-.337.422-34.241 12.725-49.984 7.931-10.151 33.094-15.395 49.748-18.863l1.371-.287c7.391-1.54 13.366-2.417 13.428-2.422l-4.845-9.757a267.564 267.564 0 00-10.702 2.007l-1.371.287c-19.223 4.002-45.544 9.488-55.818 22.64-13.107 16.778-14.709 48.056-14.9 54.975l10.364 1.404z" fill="#eae5dc"/><path d="M130.089 209.171c9.78 7.959 21.24 15.85 37.338 18.132 16.137-2.288 27.569-10.342 37.36-18.334-8.144-14.973-5.626-32.83-7.83-37.4H138.02c-2.215 4.575.253 22.623-7.931 37.602z" fill="#c69e7f"/><ellipse transform="rotate(100.195 236.53 134.57)" cx="236.529" cy="134.57" rx="21.386" ry="11.629" fill="#cca483"/><ellipse transform="rotate(169.801 98.271 134.578)" cx="98.27" cy="134.578" rx="11.629" ry="21.386" fill="#dbb491"/><path d="M231.648 63.378l-64.221-30.16-64.187 30.16s-35.989 146.614 64.187 160.806c100.215-14.192 64.221-160.806 64.221-160.806z" fill="#dbb491"/><path d="M167.427 224.184c100.216-14.192 64.221-160.806 64.221-160.806h-15.024c4.114 61.242 9.808 93.774-13.815 129.24-18.717 28.104-35.382 31.566-35.382 31.566z" fill="#cca483"/><path d="M109.49 95.848c2.743 1.31 4.749 1.546 4.749 1.546s35.045 7.256 53.643 7.256 52.867-7.256 52.867-7.256 2.007-.304 4.749-1.681V71.781H109.49v24.067z" fill="#cca483"/><path d="M236.622 39.344c-6.385-3.58-14.31-2.434-14.31-2.434-7.363-14.344-17.486-18.289-17.486-18.289l-7.335 9.639L167.494 0l-29.997 28.26-7.335-9.639s-9.37 3.462-17.486 18.289c0 0-7.925-1.147-14.31 2.434 0 0-4.305 37.984-4.305 69.6s7.161 51.721 7.161 51.721l6.166 1.248s-1.647-27.4.444-44.734c2.035-16.862 6.413-24.157 6.413-24.157s35.045 7.256 53.643 7.256 52.868-7.256 52.868-7.256 4.48 8.358 6.413 24.281c2.063 17.002.444 44.611.444 44.611l5.834-1.203s7.487-20.824 7.487-51.771-4.312-69.596-4.312-69.596z" fill="#575959"/><path d="M108.809 36.748c-.135.096-.214.163-.214.163-2.788 10.348 2.546 18.604 2.546 18.604-2.181-11.022 1.534-18.604 1.534-18.604s-1.567-.225-3.866-.163zM137.497 28.26s-8.307 9.566-6.733 21.802c0 0-5.935-13.051 4.3-25l2.433 3.198zM226.174 36.748c.135.096.214.163.214.163 2.788 10.348-2.546 18.604-2.546 18.604 2.181-11.022-1.534-18.604-1.534-18.604s1.567-.225 3.866-.163zM197.486 28.26s8.307 9.566 6.734 21.802c0 0 5.935-13.051-4.3-25l-2.434 3.198z" fill="#3f3e3e"/></svg>