<svg xmlns="http://www.w3.org/2000/svg" viewBox="0 0 318.959 318.959"><path d="M303.671 253.512c-11.151-37.754-67.121-33.566-91.279-44.408-24.157-10.842-20.386-47.219-23.449-53.548H130.01c-3.058 6.329.714 42.711-23.449 53.548-24.157 10.842-80.133 6.655-91.279 44.408-6.149 20.824-5.857 27.193-7.554 50.26 0 0 76.8 15.187 150.014 15.187s153.488-15.187 153.488-15.187c-1.703-23.073-1.41-29.435-7.559-50.26z" fill="#f9f5ed"/><path d="M171.12 220.064l37.765-12.832.006-.006c-20.279-12.635-17.036-45.673-19.942-51.682H130.01c-2.94 6.087.427 39.946-20.779 52.182l.006.006 37.563 12.326 12.624 32.526 11.696-32.52z" fill="#dbb491"/><path d="M303.671 253.512c-11.151-37.754-67.121-33.566-91.279-44.408-24.157-10.842-20.386-47.219-23.449-53.548h-31.206s-.719 51.024 23.438 61.866 80.133 6.655 91.279 44.408c5.857 19.83 5.868 26.552 7.324 47.073 19.234-2.816 31.442-5.126 31.442-5.126-1.693-23.078-1.4-29.44-7.549-50.265z" fill="#eaeae1"/><path d="M180.236 216.967l28.643-9.729.006-.006c-20.279-12.635-17.036-45.673-19.942-51.682h-31.206c.006.006-.697 49.687 22.499 61.417z" fill="#cca483"/><path d="M122.081 193.152c9.78 7.959 21.24 15.85 37.338 18.132 16.137-2.288 27.569-10.342 37.36-18.334-8.144-14.973-5.626-32.83-7.83-37.4H130.01c-2.213 4.576.254 22.623-7.929 37.602z" fill="#c69e7f"/><path fill="#c6c5af" d="M208.885 207.238l-14.209 43.621-23.556-30.795zM109.232 207.738l14.288 43.121 23.275-30.795z"/><path d="M146.795 220.064l-25.72-28.536s-3.389 4.817-11.843 16.21l15.091 37.405 22.472-25.079zM171.12 220.064l25.72-28.536s3.592 4.311 12.045 15.704l-15.294 37.911-22.471-25.079z" fill="#eaeae1"/><path d="M176.23 214.398a23.69 23.69 0 004.952 3.024c5.66 2.541 13.062 4.255 21.223 5.874l6.481-16.058c-8.453-11.393-12.045-15.704-12.045-15.704l-20.611 22.864z" fill="#e0dbd3"/><circle cx="159.48" cy="268.412" r="7.031" fill="#6d6d6d"/><circle cx="159.48" cy="293.357" r="7.031" fill="#6d6d6d"/><path d="M166.484 318.891c.017-.191.028-.388.028-.585a7.03 7.03 0 00-7.031-7.031 7.03 7.03 0 00-7.003 7.655 543.937 543.937 0 0014.006-.039z" fill="#6d6d6d"/><ellipse transform="rotate(100.195 228.52 118.55)" cx="228.519" cy="118.551" rx="21.386" ry="11.629" fill="#cca483"/><ellipse transform="rotate(169.801 90.263 118.559)" cx="90.262" cy="118.558" rx="11.629" ry="21.386" fill="#dbb491"/><path d="M223.64 47.359H95.231s-35.989 146.614 64.187 160.806C259.633 193.973 223.64 47.359 223.64 47.359z" fill="#dbb491"/><path d="M159.418 208.165c100.216-14.192 64.221-160.806 64.221-160.806h-15.024c4.114 61.242 9.808 93.774-13.815 129.24-18.717 28.104-35.382 31.566-35.382 31.566z" fill="#cca483"/><path d="M235.786 53.092c-5.722-22.769-34.595-48.725-76.305-48.725-21.932 0-40.48 6.964-53.649 17.295-9.645 7.565-11.978 16.901-11.978 16.901s-8.594 5.283-10.679 14.535l7.683 63.564s-.006-17.064.956-28.946c.961-11.882 4.165-31.661 23.652-31.38 12.601.18 25.315 11.983 42.278 14.58 16.463 2.518 29.716-2.698 47.893.719 17.941 3.372 21.015 15.513 22.196 27.378.691 7.003.27 17.654.27 17.654l7.683-63.575z" fill="#cca483"/><path d="M228.118 116.633c18.593-20.459 7.667-67.908 7.667-67.908C230.064 25.956 201.191 0 159.48 0c-21.931 0-40.479 6.964-53.648 17.295-9.645 7.565-11.978 16.901-11.978 16.901s-8.594 5.283-10.679 14.535c0 0-10.932 47.483 7.683 67.931 0 0-.006-21.431.956-33.313.961-11.882 4.165-31.661 23.652-31.38 12.601.18 25.315 11.983 42.278 14.58 16.463 2.518 29.716-2.698 47.893.719 17.941 3.372 21.015 15.513 22.196 27.378.691 7.003.27 22.022.27 22.022.004-.023.011-.029.015-.035z" fill="#3b3b3b"/></svg>