<?xml version="1.0" encoding="iso-8859-1"?>
<!-- Generator: Adobe Illustrator 19.1.0, SVG Export Plug-In . SVG Version: 6.00 Build 0)  -->
<svg version="1.1" id="Capa_1" xmlns="http://www.w3.org/2000/svg" xmlns:xlink="http://www.w3.org/1999/xlink" x="0px" y="0px"
	 viewBox="0 0 66.5 66.5" style="enable-background:new 0 0 66.5 66.5;" xml:space="preserve">
<g>
	<g id="group-29svg">
		<path id="path-1_21_" style="fill:#53ECF4;" d="M52.381,35.143H66.5L47.898,13.464c-1.208-1.208-3.166-1.295-4.374-0.087
			l-18.6,21.766h15.051c-4.132,7-11.573,11.711-20.088,11.711c-4.974,0-9.585-1.329-13.387-3.962
			c3.11,9.362,11.933,15.914,22.341,15.914C41.814,58.806,52.336,49.143,52.381,35.143z"/>
		<path id="path-2_20_" d="M23.841,56.994c-10.885,0-20.435-6.733-23.765-16.755c-0.203-0.612,0.008-1.286,0.524-1.673
			c0.518-0.387,1.223-0.399,1.754-0.033c3.419,2.369,7.636,3.57,12.533,3.57c6.652,0,13.064-3.376,17.282-8.96H19.924
			c-0.586,0-1.119-0.341-1.364-0.874c-0.244-0.533-0.156-1.159,0.226-1.603L37.387,9.024c0.024-0.028,0.05-0.056,0.077-0.083
			c0.803-0.803,1.883-1.246,3.041-1.246c1.268,0,2.527,0.531,3.454,1.458c0.025,0.025,0.049,0.051,0.072,0.077l18.471,21.28
			c0.317,0.275,0.517,0.68,0.517,1.133c0,0.829-0.671,1.5-1.5,1.5c-0.005,0.001-0.011,0.001-0.019,0H48.837
			C48.081,46.843,37.574,56.994,23.841,56.994z M4.683,43.202c3.825,6.59,11.07,10.792,19.158,10.792
			c12.524,0,21.999-9.61,22.04-22.355c0.003-0.827,0.673-1.496,1.5-1.496h10.831l-16.407-18.9c-0.635-0.606-1.637-0.727-2.187-0.213
			L23.191,30.143h11.784c0.538,0,1.037,0.29,1.303,0.756c0.267,0.468,0.263,1.043-0.011,1.507
			c-4.624,7.832-12.816,12.697-21.38,12.697C11.136,45.103,7.72,44.466,4.683,43.202z"/>
	</g>
</g>
<g>
</g>
<g>
</g>
<g>
</g>
<g>
</g>
<g>
</g>
<g>
</g>
<g>
</g>
<g>
</g>
<g>
</g>
<g>
</g>
<g>
</g>
<g>
</g>
<g>
</g>
<g>
</g>
<g>
</g>
</svg>
