<svg xmlns="http://www.w3.org/2000/svg" viewBox="0 0 66.5 66.5"><path d="M52.381 35.143H66.5L47.898 13.464c-1.208-1.208-3.166-1.295-4.374-.087l-18.6 21.766h15.051c-4.132 7-11.573 11.711-20.088 11.711-4.974 0-9.585-1.329-13.387-3.962 3.11 9.362 11.933 15.914 22.341 15.914 12.973 0 23.495-9.663 23.54-23.663z" fill="#53ecf4"/><path d="M23.841 56.994c-10.885 0-20.435-6.733-23.765-16.755a1.501 1.501 0 012.278-1.706c3.419 2.369 7.636 3.57 12.533 3.57 6.652 0 13.064-3.376 17.282-8.96H19.924a1.501 1.501 0 01-1.138-2.477L37.387 9.024c.024-.028.05-.056.077-.083a4.266 4.266 0 013.041-1.246c1.268 0 2.527.531 3.454 1.458.025.025.049.051.072.077l18.471 21.28a1.5 1.5 0 01-1.002 2.633H48.837c-.756 13.7-11.263 23.851-24.996 23.851zM4.683 43.202c3.825 6.59 11.07 10.792 19.158 10.792 12.524 0 21.999-9.61 22.04-22.355a1.5 1.5 0 011.5-1.496h10.831l-16.407-18.9c-.635-.606-1.637-.727-2.187-.213L23.191 30.143h11.784a1.5 1.5 0 011.292 2.263c-4.624 7.832-12.816 12.697-21.38 12.697-3.751 0-7.167-.637-10.204-1.901z"/></svg>