<svg xmlns="http://www.w3.org/2000/svg" viewBox="0 0 50 50" preserveAspectRatio="none"><path d="M19.822 4.496a1 1 0 00-.916.754l-.517 1.932a1 1 0 101.931.517l.518-1.933a1 1 0 00-1.016-1.27zm-7.697.004a1 1 0 00-.984 1.273l.52 1.932a1 1 0 101.93-.52l-.519-1.931a1 1 0 00-.947-.754zm14.453 3.877a1 1 0 00-.687.303l-1.412 1.414a1 1 0 101.416 1.414l1.412-1.416a1 1 0 00-.729-1.715zm-21.203.014a1 1 0 00-.695 1.718l1.414 1.412a1 1 0 001.414-1.416L6.092 8.693a1 1 0 00-.717-.302zm10.316 1.613C10.343 10.166 6 14.687 6 20.034c0 2.818 1.41 5.02 2.686 6.808C9.96 28.629 11 30.072 11 31.052v2.41c-.303.726-.867 1.285-1.764 1.817-.93.553-2.143 1.045-3.394 1.645-2.503 1.2-5.276 3.041-5.832 6.935A1 1 0 001 45h48a1 1 0 00.998-1.074c-.115-1.548-.7-2.769-1.508-3.66-.807-.892-1.797-1.469-2.738-1.946-.941-.477-1.846-.865-2.523-1.287-.646-.402-1.02-.802-1.229-1.31V34c0-1.056.74-1.824 1.781-3.125C44.821 29.575 46 27.767 46 25c0-4.406-3.594-8-8-8-4.406 0-8 3.594-8 8 0 2.752 1.182 4.548 2.22 5.844C33.26 32.14 34 32.91 34 34v1.742c-.28.659-.9 1.15-1.885 1.662-.84.438-1.87.867-2.867 1.477-.959-.829-2.044-1.456-3.09-1.957-1.251-.6-2.464-1.092-3.394-1.645-.897-.532-1.46-1.091-1.764-1.816V31c0-.944 1.038-2.381 2.314-4.168C24.591 25.045 26 22.833 26 20c0-5.613-4.66-10.166-10.309-9.996zM34.69 11.42a1 1 0 00-.988 1.271l.514 1.932a1 1 0 101.933-.512l-.513-1.933a1 1 0 00-.946-.758zm6.66.02a1 1 0 00-.917.751l-.522 1.93a1 1 0 101.93.522l.523-1.93a1 1 0 00-1.013-1.274zm-25.597.564A7.983 7.983 0 0124 20c0 2.167-1.09 3.955-2.314 5.668-1.019 1.425-2.187 2.751-2.553 4.34A1 1 0 0019 30h-6a1 1 0 00-.143.01c-.376-1.585-1.532-2.914-2.543-4.33C9.09 23.962 8 22.18 8 20.033c0-4.257 3.503-7.9 7.752-8.03zm13.072 2.77a1 1 0 00-.701 1.714l1.41 1.418a1 1 0 101.418-1.41l-1.41-1.418a1 1 0 00-.717-.305zm18.375.048a1 1 0 00-.687.301l-1.418 1.41a1 1 0 101.41 1.418l1.418-1.41a1 1 0 00-.723-1.719zM38 19c3.326 0 6 2.674 6 6 0 2.233-.822 3.426-1.781 4.625-.583.728-1.272 1.47-1.727 2.375H35.52c-.455-.922-1.153-1.675-1.74-2.408C32.817 28.393 32 27.215 32 25c0-3.326 2.674-6 6-6zM13.016 32h5.966c-.003.458-.004 1.03.018 1.78V34c0 .565-.435 1-1 1h-4c-.565 0-1-.435-1-1v-.22c.022-.748.02-1.307.016-1.78zM36 34h4v1c0 .565-.435 1-1 1h-2c-.565 0-1-.435-1-1v-1zm-24.291 1.904C12.261 36.566 13.079 37 14 37h.277c.347.596.984 1 1.723 1a1.99 1.99 0 001.723-1H18c.92 0 1.739-.434 2.291-1.096.439.423.933.786 1.451 1.094 1.126.67 2.377 1.166 3.551 1.729 2.012.964 3.652 2.048 4.377 4.273H2.33c.725-2.225 2.365-3.309 4.377-4.273 1.174-.563 2.425-1.06 3.55-1.729a7.896 7.896 0 001.452-1.094zm29 1.55c.417.522.926.944 1.463 1.278.873.544 1.817.936 2.676 1.372.859.435 1.62.905 2.162 1.503.34.376.574.846.75 1.393H31.82a7.65 7.65 0 00-1.187-2.613c.745-.411 1.585-.78 2.408-1.21.818-.426 1.652-.95 2.26-1.714.275.191.584.332.914.424.327.658 1 1.113 1.785 1.113.786 0 1.458-.456 1.785-1.115.333-.094.646-.237.924-.432z"/></svg>