<?xml version="1.0" encoding="utf-8"?>
<!-- Generator: Adobe Illustrator 24.0.1, SVG Export Plug-In . SVG Version: 6.00 Build 0)  -->
<svg version="1.1" id="Capa_1" xmlns="http://www.w3.org/2000/svg" xmlns:xlink="http://www.w3.org/1999/xlink" x="0px" y="0px"
	 viewBox="0 0 512.1 512.1" style="enable-background:new 0 0 512.1 512.1;" xml:space="preserve">
<style type="text/css">
	.st0{fill:#D1D4D1;stroke:#4B92DB;stroke-miterlimit:10;}
	.st1{fill:#C0BFFF;}
	.st2{fill:#007FFF;stroke:#4B92DB;stroke-miterlimit:10;}
	.st3{fill:#4B92DB;stroke:#4B92DB;stroke-miterlimit:10;}
</style>
<path class="st0" d="M468.6,245.6c-15.4,83.9-46.7,123.9-58.2,151.5l0.1,0.3c0,26.5,31.5,105.9,44.1,114.8H234
	c-1.4-18.3-7.4-35.9-17.5-51.2l-0.4-1c-38.5,13.5-81.4,20.3-97,15.2c-27-8.8-18-26.5-18-44.1s-9-8.8-18-17.7c-9-8.8,9-17.7,9-17.7
	c-18,0-18,0-18-26.5c0-4.8-1.9-9.3-5.3-12.6c-3.4-3.3-8-5.1-12.8-5c-44.9-8.8,16.9-46.9,18-88.3c0.2-8.9-0.6-17.9-2.6-26.6
	c-1.3-6.6-3.1-12.7-4.6-19c-1.7-6.7-2.9-13.6-3.4-20.6c-0.6-14.7,1-29.4,4.9-43.5C86.8,79.1,144.6,27.2,218.5,7.4
	C273.6-7.3,332.2,0.1,382,27.9C454.4,71.2,483.4,165.8,468.6,245.6z"/>
<path class="st1" d="M230.9,459.2c-28.6-12.2,15.6-23.2,27.2-29.7c20.2-8.8,22.7-17.4,36.5-25.6C335.6,412.9,244,459.4,230.9,459.2z
	"/>
<path class="st2" d="M136.5,207.5c-2.9,9.7-13.1,4.4-22.1,4.6c-16.6,3.1-30.5,13.7-42.9,24.6c-1.3-6.6-3.1-12.7-4.6-19
	C80.9,201.6,136.4,179.8,136.5,207.5z"/>
<path class="st2" d="M373.6,269.1c-8.1,9.1-44.9,26.7-30.1,38.3c7.9,8.7,29.3-17.2,40.1-23.6C391.5,280.2,388.1,261.7,373.6,269.1z"
	/>
<path class="st2" d="M427.3,163.9c-6.2-7.4-19.7-56.9-33.9-37.8c-2-3.1-6-4.5-9.5-3.2c-0.2-16.3-36.4-0.8-52.6,0.6
	c-9.6-0.4-14.3,17.9,1.6,17.7c0-0.1,43.2-8.6,43.5-8.7l-17.2,43c-61.1-48.4-41.4-46-80.4,16.1c-9.1-14.2-19.1-62-33.9-49.8
	c-5.8-3.4-63,46.4-63.5,51c-0.1,0-18.4-45.6-18.6-45.8c-18.7-17-19.6,8.3-8.3,26.5c8.4,21.5,15.1,44.6,27.3,24.2
	c6.5,21.4,56.5-36,63.5-37.8c6.1,8.1,19,63.8,34.1,38.8c13.1,19.7,30.2-29,36.5-35.1c6.9,3.8,35.9,33.1,43.5,30.6
	c14.6,13.6,29.8-52.9,34.4-57.6C397.6,146,423.8,202.8,427.3,163.9L427.3,163.9z"/>
<path class="st2" d="M293.4,223c-24.9-13.1-15.2,14.6,0.2,32.4c16.5,23.1,22,40.7,32.4,37.5C348.6,289.7,293.4,228.9,293.4,223z"/>
<path class="st2" d="M399.8,183.9c-7.4,4.7-39.6,9.4-32.3,23.4c-18.3,5.9,12,33.7,18,44.9c35.9,16-0.7-33-7.6-40.7
	C431.6,195.7,407.9,181.2,399.8,183.9L399.8,183.9z"/>
<path class="st2" d="M284.8,61.7c10.2,0.6,46.3,18.6,46.2,0c0-12.6-28.3-11.7-41-16.9C281.2,41.1,271.6,56,284.8,61.7z"/>
<path class="st2" d="M207.5,70.8c10-3.9,61.5-4.5,52.1-21.6c-3.9-10.4-22.2-1-39.8,1.3C191.3,52.6,196.3,69,207.5,70.8z"/>
<path class="st2" d="M154.5,123.7c7.2,1.5,24.9-29.1,30.4-34.6c7-10.4-7.7-19.3-14.3-10.4C163.2,91.8,131.1,119.1,154.5,123.7z"/>
<path class="st2" d="M260.5,203.2c-29.7,1.7-72.9-5.8-70.6,8.8c1.3,15.3,27,6.7,52,8.8C280.7,224.9,270,203.5,260.5,203.2z"/>
<path class="st2" d="M373.7,110.4c37.1,6.1-7.8-33.3-18.8-37C324.4,76.9,368,104.6,373.7,110.4z"/>
<path class="st2" d="M172.2,123.7c-22.9,11,0.5,21.3,20.6,17.7c24.5-1.1,42.3,4.9,41-10.8C232.9,116.9,179.1,126.3,172.2,123.7z"/>
<path class="st2" d="M260.5,123.7c-43,26.3,80.5,22.9,34.9,0C291.4,123.7,260.7,123.7,260.5,123.7z"/>
<path class="st2" d="M297.5,220.7c2.2-0.7,44.1-8.2,46.4-9.6c18-21.8-14.1-16.3-37.4-10.2C278.6,202.7,285.1,221.6,297.5,220.7z"/>
<path class="st2" d="M193.5,93.7c62,36.9,43.7,45.9,77.6-8.7c7.3,7.1,58.4,65.7,48.6,23.6c-1.5-1.5-39.4-39.4-43.7-43.7
	c-12.5-15.2-29,29.7-36,37.7C231.9,96.7,176.1,57.3,193.5,93.7L193.5,93.7z"/>
<g>
	<circle class="st3" cx="269.3" cy="53.1" r="26.5"/>
	
		<ellipse transform="matrix(0.1602 -0.9871 0.9871 0.1602 73.02 351.0247)" class="st3" cx="242.8" cy="132.6" rx="26.5" ry="26.5"/>
	<circle class="st3" cx="313.4" cy="132.6" r="26.5"/>
	<circle class="st3" cx="357.6" cy="203.2" r="26.5"/>
	<circle class="st3" cx="189.9" cy="70.8" r="26.5"/>
	<circle class="st3" cx="154.5" cy="132.6" r="26.5"/>
	<circle class="st3" cx="181" cy="212" r="26.5"/>
	<circle class="st3" cx="278.1" cy="212" r="26.5"/>
	<circle class="st3" cx="419.4" cy="185.5" r="26.5"/>
	<circle class="st3" cx="392.9" cy="114.9" r="26.5"/>
	<circle class="st3" cx="339.9" cy="70.8" r="26.5"/>
	<circle class="st3" cx="331.1" cy="300.3" r="26.5"/>
	<circle class="st3" cx="392.9" cy="265" r="26.5"/>
</g>
</svg>
