<?xml version="1.0" encoding="utf-8"?>
<!-- Generator: Adobe Illustrator 24.0.1, SVG Export Plug-In . SVG Version: 6.00 Build 0)  -->
<svg version="1.1" id="Capa_1" xmlns="http://www.w3.org/2000/svg" xmlns:xlink="http://www.w3.org/1999/xlink" x="0px" y="0px"
	 viewBox="0 0 511.6 511.6" style="enable-background:new 0 0 511.6 511.6;" xml:space="preserve">
<style type="text/css">
	.st0{fill:#4B92DB;}
</style>
<g>
	<g>
		<path class="st0" d="M301.9,327.6c30.9-13,55.3-30.8,73.2-53.2c17.9-22.5,26.9-47,26.9-73.4c0-26.5-8.9-50.9-26.8-73.4
			S332.9,87.4,302,74.4c-31-13.1-64.6-19.6-101-19.6s-70,6.5-100.9,19.6c-30.9,13-55.3,30.8-73.2,53.2C8.9,150.1,0,174.5,0,201
			c0,22.6,6.8,44,20.3,64s32.1,36.8,55.7,50.5c-1.9,4.6-3.9,8.8-5.9,12.6c-2,3.8-4.4,7.5-7.1,11c-2.8,3.5-4.9,6.3-6.4,8.3
			s-4,4.8-7.4,8.4s-5.6,6-6.6,7.1c0-0.2-0.4,0.2-1.1,1.3c-0.8,1-1.2,1.5-1.3,1.4s-0.5,0.4-1.1,1.4c-0.7,1-1,1.6-1,1.6l-0.7,1.4
			c-0.3,0.6-0.5,1.1-0.6,1.7s-0.1,1.2-0.1,1.9s0.1,1.3,0.3,1.9c0.4,2.5,1.5,4.5,3.3,6s3.8,2.3,5.9,2.3h0.9
			c9.5-1.3,17.7-2.9,24.6-4.6c29.3-7.6,55.8-19.8,79.4-36.5c17.1,3,33.9,4.6,50.2,4.6C237.3,347.2,271,340.6,301.9,327.6z
			 M142.2,303.8l-12.6,8.8c-5.3,3.6-11.2,7.3-17.7,11.1l10-24l-27.7-16C75.9,273,61.7,260.5,51.7,246
			c-10.1-14.5-15.1-29.5-15.1-45.1c0-19.4,7.5-37.6,22.4-54.5s35.1-30.4,60.4-40.3s52.5-14.8,81.7-14.8s56.3,5,81.7,14.8
			c25.3,9.9,45.4,23.3,60.4,40.3c14.9,16.9,22.4,35.1,22.4,54.5s-7.5,37.6-22.4,54.5s-35.1,30.4-60.4,40.3s-52.5,14.8-81.7,14.8
			c-14.3,0-28.8-1.3-43.7-4L142.2,303.8z"/>
		<path class="st0" d="M491.3,338.2c13.5-19.9,20.3-41.3,20.3-64.1c0-23.4-7.1-45.3-21.4-65.7s-33.7-37.3-58.2-50.8
			c4.4,14.3,6.6,28.7,6.6,43.4c0,25.5-6.4,49.7-19.1,72.5c-12.8,22.8-31,43-54.8,60.5c-22.1,16-47.2,28.3-75.4,36.8
			c-28.2,8.6-57.6,12.8-88.2,12.8c-5.7,0-14.1-0.4-25.1-1.1c38.3,25.1,83.2,37.7,134.8,37.7c16.4,0,33.1-1.5,50.3-4.6
			c23.6,16.8,50.1,28.9,79.4,36.5c6.9,1.7,15,3.2,24.6,4.6c2.3,0.2,4.4-0.5,6.3-2s3.1-3.6,3.7-6.3c-0.1-1.1,0-1.8,0.3-1.9
			s0.2-0.7-0.1-1.9c-0.4-1.1-0.6-1.7-0.6-1.7l-0.7-1.4c-0.2-0.4-0.5-0.9-1-1.6s-0.9-1.1-1.1-1.4c-0.3-0.3-0.7-0.8-1.3-1.4
			c-0.6-0.7-1-1.1-1.1-1.3c-1-1.1-3.1-3.5-6.6-7.1c-3.4-3.6-5.9-6.4-7.4-8.4s-3.7-4.8-6.4-8.3c-2.8-3.5-5.1-7.2-7.1-11
			s-3.9-8-5.9-12.6C459.3,374.9,477.8,358.1,491.3,338.2z"/>
		<circle class="st0" cx="115.5" cy="203.5" r="21.5"/>
		<circle class="st0" cx="277.5" cy="203.5" r="21.5"/>
		<circle class="st0" cx="197.4" cy="203.5" r="21.5"/>
	</g>
</g>
</svg>
