<svg xmlns="http://www.w3.org/2000/svg" viewBox="0 0 80 80" preserveAspectRatio="none"><path d="M21 11c-3.855 0-7 3.145-7 7s3.145 7 7 7 7-3.145 7-7-3.145-7-7-7zm8 1l1 2h37v38h1c.55 0 1 .45 1 1v1H31v2h40v-3a3.005 3.005 0 00-2-2.828V12zm-8 1c2.773 0 5 2.227 5 5s-2.227 5-5 5-5-2.227-5-5 2.227-5 5-5zm-7 14c-3.3 0-6 2.7-6 6v16.5c0 1.922 1.578 3.5 3.5 3.5.543 0 1.04-.148 1.5-.375V56h2v-6.5h-2c0 .84-.66 1.5-1.5 1.5s-1.5-.66-1.5-1.5V33c0-2.219 1.781-4 4-4h3.434L21 34.941 24.566 29H45.5c.84 0 1.5.66 1.5 1.5s-.66 1.5-1.5 1.5H27v24h2V34h16.5c1.922 0 3.5-1.578 3.5-3.5S47.422 27 45.5 27H23.434L21 31.059 18.566 27zm0 7c-.55 0-1 .45-1 1s.45 1 1 1 1-.45 1-1-.45-1-1-1zm0 4c-.55 0-1 .45-1 1s.45 1 1 1 1-.45 1-1-.45-1-1-1zm0 4c-.55 0-1 .45-1 1s.45 1 1 1 1-.45 1-1-.45-1-1-1zm0 4c-.55 0-1 .45-1 1s.45 1 1 1 1-.45 1-1-.45-1-1-1zm18 4c-.55 0-1 .45-1 1s.45 1 1 1 1-.45 1-1-.45-1-1-1zm4 0c-.55 0-1 .45-1 1s.45 1 1 1 1-.45 1-1-.45-1-1-1zm4 0c-.55 0-1 .45-1 1s.45 1 1 1 1-.45 1-1-.45-1-1-1zm4 0c-.55 0-1 .45-1 1s.45 1 1 1 1-.45 1-1-.45-1-1-1zm4 0c-.55 0-1 .45-1 1s.45 1 1 1 1-.45 1-1-.45-1-1-1zm4 0c-.55 0-1 .45-1 1s.45 1 1 1 1-.45 1-1-.45-1-1-1zm4 0c-.55 0-1 .45-1 1s.45 1 1 1 1-.45 1-1-.45-1-1-1zm4 0c-.55 0-1 .45-1 1s.45 1 1 1 1-.45 1-1-.45-1-1-1zm4 0c-.55 0-1 .45-1 1s.45 1 1 1 1-.45 1-1-.45-1-1-1zm-49 9c-3.3 0-6 2.7-6 6s2.7 6 6 6a6.006 6.006 0 005-2.695A6.006 6.006 0 0025 71a6.006 6.006 0 005-2.695A6.006 6.006 0 0035 71a6.006 6.006 0 005-2.695A6.006 6.006 0 0045 71a6.006 6.006 0 005-2.695A6.006 6.006 0 0055 71a6.006 6.006 0 005-2.695A6.006 6.006 0 0065 71c3.3 0 6-2.7 6-6s-2.7-6-6-6a6.006 6.006 0 00-5 2.695A6.006 6.006 0 0055 59a6.006 6.006 0 00-5 2.695A6.006 6.006 0 0045 59a6.006 6.006 0 00-5 2.695A6.006 6.006 0 0035 59a6.006 6.006 0 00-5 2.695A6.006 6.006 0 0025 59a6.006 6.006 0 00-5 2.695A6.006 6.006 0 0015 59zm0 2c2.223 0 4 1.777 4 4s-1.777 4-4 4-4-1.777-4-4 1.777-4 4-4zm10 0c2.223 0 4 1.777 4 4s-1.777 4-4 4-4-1.777-4-4 1.777-4 4-4zm10 0c2.223 0 4 1.777 4 4s-1.777 4-4 4-4-1.777-4-4 1.777-4 4-4zm10 0c2.223 0 4 1.777 4 4s-1.777 4-4 4-4-1.777-4-4 1.777-4 4-4zm10 0c2.223 0 4 1.777 4 4s-1.777 4-4 4-4-1.777-4-4 1.777-4 4-4zm10 0c2.223 0 4 1.777 4 4s-1.777 4-4 4-4-1.777-4-4 1.777-4 4-4z"/></svg>