<?xml version="1.0" encoding="utf-8"?>
<!-- Generator: Adobe Illustrator 24.0.1, SVG Export Plug-In . SVG Version: 6.00 Build 0)  -->
<svg version="1.1" id="Layer_1" xmlns="http://www.w3.org/2000/svg" xmlns:xlink="http://www.w3.org/1999/xlink" x="0px" y="0px"
	 viewBox="0 0 160 162" style="enable-background:new 0 0 160 162;" xml:space="preserve">
<style type="text/css">
	.st0{fill:#2A9DF4;stroke:#FFFFFF;stroke-miterlimit:10;}
	.st1{fill:#FFFFFF;}
	.st2{fill:#FFFFFF;stroke:#FFFFFF;stroke-width:6;stroke-miterlimit:10;}
	.st3{fill:#FFFFFF;stroke:#000000;stroke-miterlimit:10;}
</style>
<rect class="st0" width="160" height="162"/>
<g>
	<path class="st1" d="M126.9,141.9l-12-42.2c-0.5-1.7-2.3-2.8-4.1-2.3l-1.8,0.5c-1.7,0.5-2.8,2.3-2.3,4.1l12,42.2
		c0.5,1.7,2.3,2.8,4.1,2.3l1.8-0.5C126.4,145.4,127.4,143.6,126.9,141.9z"/>
	<path class="st1" d="M56.6,102l-12,42.2c-0.5,1.7-2.3,2.8-4.1,2.3l-1.8-0.5c-1.7-0.5-2.8-2.3-2.3-4.1l12-42.2
		c0.5-1.7,2.3-2.8,4.1-2.3l1.8,0.5C56.1,98.4,57.1,100.2,56.6,102z"/>
</g>
<path class="st2" d="M135.8,117h-112c-3.2,0-5.9-2.6-5.9-5.9V40.6c0-3.2,2.6-5.9,5.9-5.9h112c3.2,0,5.9,2.6,5.9,5.9v70.6
	C141.6,114.4,139,117,135.8,117z"/>
<rect x="24.1" y="41.8" class="st0" width="110.2" height="63.9"/>
<path class="st3" d="M143.8,119.6H13.6c-2.4,0-4.4-2-4.4-4.4v-5.1c0-2.4,2-4.4,4.4-4.4h130.2c2.4,0,4.4,2,4.4,4.4v5.1
	C148.2,117.6,146.2,119.6,143.8,119.6z"/>
</svg>
