<svg version="1.1" id="Layer_1" xmlns="http://www.w3.org/2000/svg" x="0" y="0" viewBox="0 0 160 162" xml:space="preserve"><style>.st0{fill:#2a9df4;stroke:#fff;stroke-miterlimit:10}.st1{fill:#fff}</style><path class="st0" d="M0 0h160v162H0z"/><path class="st1" d="M126.9 141.9l-12-42.2c-.5-1.7-2.3-2.8-4.1-2.3l-1.8.5c-1.7.5-2.8 2.3-2.3 4.1l12 42.2c.5 1.7 2.3 2.8 4.1 2.3l1.8-.5c1.8-.6 2.8-2.4 2.3-4.1zM56.6 102l-12 42.2c-.5 1.7-2.3 2.8-4.1 2.3l-1.8-.5c-1.7-.5-2.8-2.3-2.3-4.1l12-42.2c.5-1.7 2.3-2.8 4.1-2.3l1.8.5c1.8.5 2.8 2.3 2.3 4.1z"/><path d="M135.8 117h-112c-3.2 0-5.9-2.6-5.9-5.9V40.6c0-3.2 2.6-5.9 5.9-5.9h112c3.2 0 5.9 2.6 5.9 5.9v70.6c-.1 3.2-2.7 5.8-5.9 5.8z" fill="#fff" stroke="#fff" stroke-width="6" stroke-miterlimit="10"/><path class="st0" d="M24.1 41.8h110.2v63.9H24.1z"/><path d="M143.8 119.6H13.6c-2.4 0-4.4-2-4.4-4.4v-5.1c0-2.4 2-4.4 4.4-4.4h130.2c2.4 0 4.4 2 4.4 4.4v5.1c0 2.4-2 4.4-4.4 4.4z" fill="#fff" stroke="#000" stroke-miterlimit="10"/></svg>