<?xml version="1.0" encoding="UTF-8"?>
<svg fill="#000000" preserveAspectRatio="none" version="1.1" viewBox="0 0 50 50" xmlns="http://www.w3.org/2000/svg"><path d="m18 2c-7.646 0-11 5.0983-11 9.1484 0 3.0987 1.6484 5.4218 3.8105 6.832 2.1622 1.4102 4.8201 2.0195 7.1895 2.0195 1.0221 0 2.0955-0.12804 3.1602-0.37891 2.2812 2.4068 5.8171 3.3789 8.8398 3.3789 2.3785 0 5.0409-0.64411 7.2012-2.0957 2.1603-1.4516 3.7988-3.8148 3.7988-6.9434 0-2.488-1.1082-4.7841-3.0449-6.3984s-4.6752-2.5625-7.9551-2.5625c-1.1786 0-2.2529 0.12259-3.2363 0.33789-0.25228-0.27118-0.51809-0.53324-0.80859-0.77539-1.9367-1.6144-4.6752-2.5625-7.9551-2.5625zm0 2c2.8951 0 5.1562 0.83297 6.6758 2.0996 0.27394 0.22834 0.5172 0.47403 0.74414 0.72852 0 0 0.001953 0.0019531 0.001953 0.0019531a1.0001 1.0001 0 0 0 0.37695 0.46484c0.7846 1.0629 1.2012 2.3065 1.2012 3.666 0 2.4584-1.1704 4.1115-2.9141 5.2832-1.7437 1.1717-4.0804 1.7559-6.0859 1.7559-2.0146 0-4.3558-0.55732-6.0977-1.6934-1.7418-1.136-2.9023-2.7379-2.9023-5.1582 0-2.9979 2.208-7.1484 9-7.1484zm12 3c2.8951 0 5.1562 0.83297 6.6758 2.0996 1.5196 1.2666 2.3242 2.9534 2.3242 4.8613 0 2.4584-1.1704 4.1115-2.9141 5.2832-1.7437 1.1717-4.0804 1.7559-6.0859 1.7559-2.2365 0-4.8288-0.71525-6.6289-2.1055 0.63557-0.27608 1.2514-0.60142 1.8301-0.99023 2.1603-1.4516 3.7988-3.8148 3.7988-6.9434 0-1.3604-0.34206-2.6587-0.95898-3.8242 0.60575-0.086094 1.2544-0.13672 1.959-0.13672zm-24.5 11c-1.8131 0-3.5 1.2199-3.5 3s1.6869 3 3.5 3 3.5-1.2199 3.5-3-1.6869-3-3.5-3zm39 0c-1.8131 0-3.5 1.2199-3.5 3s1.6869 3 3.5 3 3.5-1.2199 3.5-3-1.6869-3-3.5-3zm-39 2c0.94836 0 1.5 0.57098 1.5 1s-0.55164 1-1.5 1-1.5-0.57098-1.5-1 0.55164-1 1.5-1zm39 0c0.94836 0 1.5 0.57098 1.5 1s-0.55164 1-1.5 1-1.5-0.57098-1.5-1 0.55164-1 1.5-1zm-30.469 4c-2.1658 0-3.921 0.5422-5.1562 1.5762-1.2353 1.034-1.875 2.5524-1.875 4.1738 0 0.62798 0.14472 1.2674 0.27734 1.8145 0.060782 0.25072 0.074846 0.27705 0.12305 0.44922-0.2231 0.3568-0.40039 0.84889-0.40039 1.4863 0 0.79167 0.21352 1.4713 0.66797 1.9258 0.20354 0.20354 0.42306 0.16925 0.65234 0.25781 0.13165 0.53192 0.26619 1.0733 0.5 1.5117 0.1613 0.30244 0.33397 0.57436 0.51758 0.81055 0.04222 0.05431 0.12058 0.09517 0.16211 0.14648v1.5508c-0.13795 0.29796-0.42253 0.58676-1.0176 0.90234-0.6338 0.33613-1.5043 0.6568-2.4102 1.0762-0.90582 0.41937-1.8628 0.94436-2.6426 1.7832-0.77977 0.83884-1.3376 2.0088-1.4277 3.4746a1.0001 1.0001 0 0 0 0.99805 1.0605h20 1 1.9688 1.0312 20a1.0001 1.0001 0 0 0 0.99805-1.0605c-0.092107-1.4987-0.74844-2.6935-1.6328-3.5234-0.88437-0.82996-1.9558-1.3391-2.9824-1.7539-1.0266-0.41483-2.0232-0.73788-2.752-1.0801-0.6881-0.32311-1.0068-0.62645-1.1309-0.88476v-1.5469c0.04144-0.05129 0.11994-0.09219 0.16211-0.14648 0.18335-0.23607 0.35439-0.50626 0.51562-0.80859 0.23375-0.43828 0.37003-0.97997 0.50195-1.5117 0.22929-0.08856 0.4488-0.05427 0.65234-0.25781 0.45445-0.45445 0.66797-1.1341 0.66797-1.9258 0-0.63744-0.17729-1.1295-0.40039-1.4863 0.0482-0.17216 0.06227-0.1985 0.12305-0.44922 0.13263-0.54709 0.27734-1.1865 0.27734-1.8145 0-1.0561-0.27127-2.1928-0.97852-3.1328-0.59033-0.78465-1.5807-1.2893-2.7383-1.4668l-0.39258-0.66016a1.0001 1.0001 0 0 0-0.85938-0.49023c-2.1658 0-3.921 0.5422-5.1562 1.5762s-1.875 2.5524-1.875 4.1738c0 0.62798 0.14472 1.2674 0.27734 1.8145 0.06078 0.25072 0.07484 0.27705 0.12305 0.44922-0.2231 0.3568-0.40039 0.84889-0.40039 1.4863 0 0.79167 0.21352 1.4713 0.66797 1.9258 0.20354 0.20354 0.42306 0.16925 0.65234 0.25781 0.13165 0.53192 0.2662 1.0733 0.5 1.5117 0.1613 0.30244 0.33397 0.57436 0.51758 0.81055 0.04222 0.05431 0.12058 0.09517 0.16211 0.14648v1.5508c-0.13795 0.29796-0.42253 0.58676-1.0176 0.90234-0.6338 0.33613-1.5043 0.6568-2.4102 1.0762-0.90582 0.41937-1.8628 0.94436-2.6426 1.7832-0.77977 0.83884-1.3376 2.0088-1.4277 3.4746a1.0001 1.0001 0 0 0-0.001953 0.060547 1.0001 1.0001 0 0 0-0.001953-0.060547c-0.092107-1.4987-0.74844-2.6935-1.6328-3.5234-0.88437-0.82996-1.9558-1.3391-2.9824-1.7539-1.0266-0.41483-2.0232-0.73788-2.752-1.0801-0.6881-0.32311-1.0068-0.62645-1.1309-0.88476v-1.5469c0.04144-0.05129 0.11994-0.09219 0.16211-0.14648 0.18335-0.23607 0.35439-0.50626 0.51562-0.80859 0.23375-0.43828 0.37003-0.97997 0.50195-1.5117 0.22928-0.08856 0.4488-0.05427 0.65234-0.25781 0.45445-0.45445 0.66797-1.1341 0.66797-1.9258 0-0.63744-0.17729-1.1295-0.40039-1.4863 0.0482-0.17216 0.06227-0.1985 0.12305-0.44922 0.13263-0.54709 0.27734-1.1865 0.27734-1.8145 0-1.0561-0.27127-2.1928-0.97852-3.1328-0.59033-0.78465-1.5807-1.2893-2.7383-1.4668l-0.39258-0.66016a1.0001 1.0001 0 0 0-0.85938-0.49023zm-10.531 2a1.5 1.5 0 0 0-1.5 1.5 1.5 1.5 0 0 0 1.5 1.5 1.5 1.5 0 0 0 1.5-1.5 1.5 1.5 0 0 0-1.5-1.5zm43 0a1.5 1.5 0 0 0-1.5 1.5 1.5 1.5 0 0 0 1.5 1.5 1.5 1.5 0 0 0 1.5-1.5 1.5 1.5 0 0 0-1.5-1.5zm-32.996 0.070312 0.26172 0.43945a1.0001 1.0001 0 0 0 0.85938 0.49023c0.93697 0 1.4226 0.32286 1.7969 0.82031 0.37425 0.49745 0.57812 1.2358 0.57812 1.9297 0 0.24702-0.10528 0.85764-0.22266 1.3418-0.11737 0.48416-0.23242 0.86328-0.23242 0.86328a1.0001 1.0001 0 0 0 0.375 1.1074c0.013055 0.019305 0.080078 0.11008 0.080078 0.4375 0 0.45833-0.098981 0.52867-0.082031 0.51172 0.016951-0.016953 0.040364-0.011719-0.042969-0.011719a1.0001 1.0001 0 0 0-0.99414 0.89062c-0.04158 0.37785-0.23702 0.93244-0.4668 1.3633-0.11489 0.21542-0.23835 0.40282-0.33203 0.52344-0.09368 0.12062-0.20792 0.1687-0.039062 0.082031a1.0001 1.0001 0 0 0-0.54297 0.89062v2.25a1.0001 1.0001 0 0 0 0.066406 0.35547c0.39682 1.0408 1.3028 1.6098 2.2129 2.0371 0.91005 0.42734 1.9185 0.74525 2.8535 1.123 0.93499 0.3778 1.7806 0.81256 2.3633 1.3594 0.33966 0.31876 0.5766 0.69224 0.75 1.125h-18.322c0.15558-0.38452 0.20809-0.89133 0.4707-1.1738 0.49991-0.53778 1.2116-0.95695 2.0176-1.3301 0.80593-0.37313 1.6904-0.6915 2.5078-1.125 0.81739-0.4335 1.6371-1.0265 2.0137-2.0156a1.0001 1.0001 0 0 0 0.066406-0.35547v-2.25a1.0001 1.0001 0 0 0-0.54492-0.89062c0.16865 0.08635 0.054608 0.038469-0.039062-0.082031-0.09367-0.1205-0.21525-0.30813-0.33008-0.52344-0.22966-0.43062-0.42559-0.98584-0.4668-1.3633a1.0001 1.0001 0 0 0-0.99414-0.89062c-0.083333 0-0.059921-0.005201-0.042969 0.011719 0.016953 0.016951-0.082031-0.053386-0.082031-0.51172 0-0.32742 0.067023-0.4182 0.080078-0.4375a1.0001 1.0001 0 0 0 0.375-1.1074s-0.11505-0.37912-0.23242-0.86328c-0.11737-0.48416-0.22266-1.0948-0.22266-1.3418 0-1.1286 0.37746-1.9851 1.1582-2.6387 0.69239-0.57957 1.8346-0.95224 3.3457-1.041zm23 0 0.26172 0.43945a1.0001 1.0001 0 0 0 0.85938 0.49023c0.93697 0 1.4226 0.32286 1.7969 0.82031 0.37425 0.49745 0.57812 1.2358 0.57812 1.9297 0 0.24702-0.10528 0.85764-0.22266 1.3418-0.11737 0.48416-0.23242 0.86328-0.23242 0.86328a1.0001 1.0001 0 0 0 0.375 1.1074c0.013055 0.019305 0.080078 0.11008 0.080078 0.4375 0 0.45833-0.098981 0.52867-0.082031 0.51172 0.016951-0.016953 0.040364-0.011719-0.042969-0.011719a1.0001 1.0001 0 0 0-0.99414 0.89062c-0.04158 0.37785-0.23702 0.93244-0.4668 1.3633-0.11488 0.21542-0.23835 0.40282-0.33203 0.52344-0.09368 0.12062-0.20792 0.1687-0.039062 0.082031a1.0001 1.0001 0 0 0-0.54297 0.89062v2.25a1.0001 1.0001 0 0 0 0.066406 0.35547c0.39682 1.0408 1.3028 1.6098 2.2129 2.0371 0.91005 0.42734 1.9185 0.74525 2.8535 1.123 0.93499 0.3778 1.7806 0.81256 2.3633 1.3594 0.33966 0.31876 0.5766 0.69224 0.75 1.125h-18.322c0.15558-0.38452 0.20809-0.89133 0.4707-1.1738 0.49992-0.53778 1.2116-0.95695 2.0176-1.3301 0.80593-0.37313 1.6904-0.6915 2.5078-1.125 0.81739-0.4335 1.6371-1.0265 2.0137-2.0156a1.0001 1.0001 0 0 0 0.066406-0.35547v-2.25a1.0001 1.0001 0 0 0-0.54492-0.89062c0.16865 0.08635 0.054608 0.038469-0.039062-0.082031-0.09367-0.1205-0.21525-0.30813-0.33008-0.52344-0.22966-0.43062-0.42559-0.98584-0.4668-1.3633a1.0001 1.0001 0 0 0-0.99414-0.89062c-0.08333 0-0.059919-0.005201-0.042969 0.011719 0.016954 0.016951-0.082031-0.053386-0.082031-0.51172 0-0.32742 0.067018-0.4182 0.080078-0.4375a1.0001 1.0001 0 0 0 0.375-1.1074s-0.11505-0.37912-0.23242-0.86328c-0.11737-0.48416-0.22266-1.0948-0.22266-1.3418 0-1.1286 0.37746-1.9851 1.1582-2.6387 0.69239-0.57957 1.8346-0.95224 3.3457-1.041z"/></svg>
