<svg preserveAspectRatio="none" viewBox="0 0 50 50" xmlns="http://www.w3.org/2000/svg"><path d="M18 2C10.354 2 7 7.098 7 11.148c0 3.1 1.648 5.422 3.81 6.832C12.974 19.39 15.63 20 18 20a13.88 13.88 0 003.16-.379C23.441 22.028 26.977 23 30 23c2.378 0 5.04-.644 7.201-2.096C39.361 19.453 41 17.09 41 13.961c0-2.488-1.108-4.784-3.045-6.399S33.28 5 30 5c-1.179 0-2.253.122-3.236.338a8.833 8.833 0 00-.809-.776C24.018 2.948 21.28 2 18 2zm0 2c2.895 0 5.156.833 6.676 2.1.274.228.517.474.744.728l.002.002a1 1 0 00.377.465A6.077 6.077 0 0127 10.96c0 2.458-1.17 4.111-2.914 5.283C22.342 17.416 20.006 18 18 18c-2.015 0-4.356-.557-6.098-1.693C10.161 15.17 9 13.569 9 11.148 9 8.151 11.208 4 18 4zm12 3c2.895 0 5.156.833 6.676 2.1C38.196 10.366 39 12.053 39 13.96c0 2.46-1.17 4.112-2.914 5.284C34.342 20.416 32.006 21 30 21c-2.236 0-4.829-.715-6.629-2.106a11.46 11.46 0 001.83-.99C27.361 16.453 29 14.09 29 10.961c0-1.36-.342-2.659-.959-3.824A13.857 13.857 0 0130 7zM5.5 18C3.687 18 2 19.22 2 21s1.687 3 3.5 3S9 22.78 9 21s-1.687-3-3.5-3zm39 0c-1.813 0-3.5 1.22-3.5 3s1.687 3 3.5 3 3.5-1.22 3.5-3-1.687-3-3.5-3zm-39 2c.948 0 1.5.571 1.5 1s-.552 1-1.5 1S4 21.429 4 21s.552-1 1.5-1zm39 0c.948 0 1.5.571 1.5 1s-.552 1-1.5 1-1.5-.571-1.5-1 .552-1 1.5-1zm-30.469 4c-2.166 0-3.921.542-5.156 1.576C7.639 26.61 7 28.13 7 29.75c0 .628.145 1.267.277 1.815.06.25.075.277.123.449-.223.357-.4.849-.4 1.486 0 .792.213 1.471.668 1.926.203.203.423.17.652.258.132.532.266 1.073.5 1.511.161.303.334.575.518.81.042.055.12.096.162.147v1.551c-.138.298-.423.587-1.018.902-.634.337-1.504.657-2.41 1.077-.906.42-1.863.944-2.643 1.783-.78.839-1.337 2.009-1.427 3.474A1 1 0 003 48h43.999a1 1 0 00.999-1.06c-.092-1.5-.749-2.694-1.633-3.524-.884-.83-1.956-1.339-2.982-1.754-1.027-.415-2.024-.738-2.752-1.08-.688-.323-1.007-.626-1.131-.885V38.15c.041-.05.12-.092.162-.146.183-.236.354-.506.515-.809.234-.438.37-.98.502-1.511.23-.089.45-.055.653-.258.454-.455.668-1.134.668-1.926 0-.637-.178-1.13-.4-1.486.047-.172.062-.199.122-.45.133-.547.278-1.186.278-1.814 0-1.056-.272-2.193-.979-3.133-.59-.784-1.58-1.29-2.738-1.467l-.393-.66a1 1 0 00-.86-.49c-2.165 0-3.92.542-5.155 1.576S30 28.13 30 29.75c0 .628.144 1.267.277 1.815.06.25.075.277.123.449-.223.357-.4.849-.4 1.486 0 .792.213 1.471.668 1.926.203.203.423.17.652.258.132.532.266 1.073.5 1.511.161.303.334.575.518.81.042.055.12.096.162.147v1.551c-.138.298-.423.587-1.018.903-.634.336-1.504.656-2.41 1.076-.906.42-1.863.944-2.643 1.783-.78.839-1.337 2.009-1.427 3.475A1 1 0 0025 47a1 1 0 00-.002-.06c-.092-1.5-.749-2.694-1.633-3.524-.884-.83-1.956-1.339-2.982-1.754-1.027-.415-2.024-.738-2.752-1.08-.689-.323-1.007-.626-1.131-.885V38.15c.041-.05.12-.092.162-.146.183-.236.354-.506.515-.809.234-.438.37-.98.502-1.511.23-.089.45-.055.653-.258.454-.455.668-1.134.668-1.926 0-.637-.178-1.13-.4-1.486.047-.172.061-.199.122-.45.133-.547.278-1.186.278-1.814 0-1.056-.272-2.193-.979-3.133-.59-.784-1.58-1.289-2.738-1.467l-.393-.66a1 1 0 00-.86-.49zM3.5 26A1.5 1.5 0 002 27.5 1.5 1.5 0 003.5 29 1.5 1.5 0 005 27.5 1.5 1.5 0 003.5 26zm43 0a1.5 1.5 0 00-1.5 1.5 1.5 1.5 0 001.5 1.5 1.5 1.5 0 001.5-1.5 1.5 1.5 0 00-1.5-1.5zm-32.996.07l.262.44a1 1 0 00.86.49c.936 0 1.422.323 1.796.82.374.498.578 1.236.578 1.93 0 .247-.105.858-.223 1.342-.117.484-.232.863-.232.863a1 1 0 00.375 1.107c.013.02.08.11.08.438 0 .458-.099.529-.082.512.017-.017.04-.012-.043-.012a1 1 0 00-.994.89c-.042.378-.237.933-.467 1.364a3.855 3.855 0 01-.332.523c-.094.121-.208.169-.039.082a1 1 0 00-.543.891V40a1 1 0 00.067.355c.396 1.041 1.302 1.61 2.212 2.038.91.427 1.919.745 2.854 1.123.935.377 1.78.812 2.363 1.359.34.319.577.692.75 1.125H4.424c.156-.385.208-.891.47-1.174.5-.538 1.213-.957 2.019-1.33.805-.373 1.69-.691 2.507-1.125.818-.433 1.637-1.026 2.014-2.016A1 1 0 0011.5 40v-2.25a1 1 0 00-.544-.89c.168.086.054.038-.04-.083a3.865 3.865 0 01-.33-.523c-.23-.43-.425-.986-.466-1.363A1 1 0 009.125 34c-.083 0-.06-.005-.043.012S9 33.958 9 33.5c0-.327.067-.418.08-.438a1 1 0 00.376-1.107s-.116-.379-.233-.863S9 29.997 9 29.75c0-1.129.378-1.985 1.159-2.639.692-.58 1.834-.952 3.345-1.04zm23 0l.262.44a1 1 0 00.86.49c.936 0 1.422.323 1.796.82.374.498.578 1.236.578 1.93 0 .247-.105.858-.223 1.342-.117.484-.232.863-.232.863a1 1 0 00.375 1.107c.013.02.08.11.08.438 0 .458-.099.529-.082.512.017-.017.04-.012-.043-.012a1 1 0 00-.994.89c-.042.378-.237.933-.467 1.364a3.854 3.854 0 01-.332.523c-.094.121-.208.169-.039.082a1 1 0 00-.543.891V40a1 1 0 00.067.355c.396 1.041 1.302 1.61 2.212 2.038.91.427 1.919.745 2.854 1.123.935.377 1.78.812 2.363 1.359.34.319.577.692.75 1.125H27.424c.156-.385.208-.891.47-1.174.5-.538 1.213-.957 2.019-1.33.805-.373 1.69-.691 2.507-1.125.818-.433 1.637-1.026 2.014-2.016A1 1 0 0034.5 40v-2.25a1 1 0 00-.544-.89c.168.086.054.038-.04-.083a3.865 3.865 0 01-.33-.523c-.23-.43-.425-.986-.466-1.363a1 1 0 00-.995-.891c-.083 0-.06-.005-.043.012S32 33.958 32 33.5c0-.327.067-.418.08-.438a1 1 0 00.376-1.107s-.116-.379-.233-.863S32 29.997 32 29.75c0-1.129.378-1.985 1.159-2.639.692-.58 1.834-.952 3.345-1.04z"/></svg>