<?xml version="1.0" encoding="utf-8"?>
<!-- Generator: Adobe Illustrator 24.0.1, SVG Export Plug-In . SVG Version: 6.00 Build 0)  -->
<svg version="1.1" xmlns="http://www.w3.org/2000/svg" xmlns:xlink="http://www.w3.org/1999/xlink" x="0px" y="0px"
	 viewBox="0 0 70 55" style="enable-background:new 0 0 70 55;" xml:space="preserve">
<style type="text/css">
	.st0{fill:none;stroke:#003399;stroke-width:1.2446;stroke-miterlimit:10;}
	.st1{fill:#003399;}
	.st2{fill:#FFFFFF;}
	.st3{display:none;}
	.st4{fill:#F7F7C6;stroke:#000000;stroke-width:0.845;stroke-miterlimit:10;}
</style>
<g id="Layer_1">
	<g id="Layer_1_1_">
		<path class="st0" d="M60.1,44.7H12.7c-1.2,0-2.2-2.5-2.2-5.6c0,0-0.4-8.5-0.4-11.6c0-3.8-7.7-5.5-9.7-6.4
			c-0.3-0.1,9.2-1.9,9.2-1.9c0.1,0,0.1-5.5,0.1-5.5h18.4c0,0,16.8,0,17.7,0h14.1c1.2,0,2.2,2.5,2.2,5.6v20.3
			C62.1,42.4,61.2,44.7,60.1,44.7z"/>
	</g>
	<g id="Layer_3">
		<circle class="st1" cx="20.9" cy="35.5" r="2.6"/>
		<circle class="st1" cx="45.8" cy="35.5" r="2.6"/>
		<circle class="st1" cx="33.7" cy="35.5" r="2.6"/>
	</g>
	<rect x="20.9" y="12.3" class="st2" width="27.1" height="2.7"/>
	<rect x="65" y="13.2" class="st2" width="27.1" height="2.7"/>
</g>
<g id="Layer_3_1_" class="st3">
</g>
<g id="Layer_2">
	<g id="thumbup">
		<path class="st4" d="M26.9,27.4h-1.7c-0.9,0-1.6-0.7-1.6-1.6V16c0-0.9,0.7-1.6,1.6-1.6h1.7c0.9,0,1.6,0.7,1.6,1.6v9.8
			C28.5,26.6,27.7,27.4,26.9,27.4z"/>
		<path class="st4" d="M29,15.4c0.4,0,0.9-0.1,1.5-0.2c4.7-1.4,5.7-8.1,7.5-7.9c0.7,0.1,1.2,1.4,1.4,2c0.6,3.1-3.3,5.7-2.7,6.5
			c0.6,0.9,4.7-2.3,6.9-1.1c2.7,1.6,2.6,9.9-1.5,12.5c-2.6,1.6-6.5,0.6-9.8-0.1c-1.4-0.4-2.5-0.7-3.2-1.1"/>
	</g>
</g>
</svg>
