<svg xmlns="http://www.w3.org/2000/svg" viewBox="0 0 70 55"><style>.st1{fill:#039}.st2{fill:#fff}.st4{fill:#f7f7c6;stroke:#000;stroke-width:.845;stroke-miterlimit:10}</style><g id="Layer_1"><path d="M60.1 44.7H12.7c-1.2 0-2.2-2.5-2.2-5.6 0 0-.4-8.5-.4-11.6 0-3.8-7.7-5.5-9.7-6.4-.3-.1 9.2-1.9 9.2-1.9.1 0 .1-5.5.1-5.5H59.9c1.2 0 2.2 2.5 2.2 5.6v20.3c0 2.8-.9 5.1-2 5.1z" fill="none" stroke="#039" stroke-width="1.245" stroke-miterlimit="10" id="Layer_1_1_"/><g id="Layer_3"><circle class="st1" cx="20.9" cy="35.5" r="2.6"/><circle class="st1" cx="45.8" cy="35.5" r="2.6"/><circle class="st1" cx="33.7" cy="35.5" r="2.6"/></g><path class="st2" d="M20.9 12.3H48V15H20.9zM65 13.2h27.1v2.7H65z"/></g><g id="Layer_2"><g id="thumbup"><path class="st4" d="M26.9 27.4h-1.7c-.9 0-1.6-.7-1.6-1.6V16c0-.9.7-1.6 1.6-1.6h1.7c.9 0 1.6.7 1.6 1.6v9.8c0 .8-.8 1.6-1.6 1.6zM29 15.4c.4 0 .9-.1 1.5-.2 4.7-1.4 5.7-8.1 7.5-7.9.7.1 1.2 1.4 1.4 2 .6 3.1-3.3 5.7-2.7 6.5.6.9 4.7-2.3 6.9-1.1 2.7 1.6 2.6 9.9-1.5 12.5-2.6 1.6-6.5.6-9.8-.1-1.4-.4-2.5-.7-3.2-1.1"/></g></g></svg>