<svg preserveAspectRatio="none" viewBox="0 0 64 64" xmlns="http://www.w3.org/2000/svg"><path d="M48.098 3.828c-1.332 0-2.59.524-3.535 1.469l-3.531 3.531a2.006 2.006 0 00-2.828 0l-5.657 5.656a2 2 0 000 2.828l.047.051-1.547 1.543L16.86 4.718c-1.136-1.137-3.11-1.137-4.246 0L2.72 14.613a3.004 3.004 0 000 4.246l14.176 14.176L5.52 44.398a3.013 3.013 0 00-.871 1.883l-.676 8.394-.703 4.922a.992.992 0 00.285.852c.187.187.441.289.703.289.05 0 .098 0 .144-.008l4.926-.703 8.438-.621a2.983 2.983 0 001.898-.872L31.04 47.182l14.105 14.102c.586.586 1.352.875 2.121.875s1.535-.289 2.121-.875l9.899-9.898a3.004 3.004 0 000-4.246L45.19 33.046l1.547-1.547c.37.348.851.543 1.36.543.534 0 1.038-.21 1.417-.59l5.656-5.656a2 2 0 000-2.828l3.535-3.531a4.964 4.964 0 001.465-3.535c0-1.34-.52-2.594-1.465-3.54l-7.07-7.066a4.97 4.97 0 00-3.539-1.469zM14.735 5.844c.262 0 .52.097.707.289l.711.703-2.121 2.121a.993.993 0 000 1.414c.191.195.45.293.703.293a.987.987 0 00.707-.293l2.121-2.121 2.125 2.121-3.535 3.535a.997.997 0 00.707 1.707.997.997 0 00.703-.289l3.535-3.539 2.125 2.121-2.12 2.125a.995.995 0 000 1.41c.194.196.448.293.706.293a.993.993 0 00.707-.293l2.121-2.117 2.121 2.117-3.535 3.54a.995.995 0 000 1.41c.196.195.45.297.707.297a.998.998 0 00.707-.297l3.535-3.531 1.461 1.457-11.32 11.309-14.18-14.184a.995.995 0 010-1.41l9.899-9.899a.984.984 0 01.703-.29zm33.363.015c.777 0 1.559.282 2.125.848l7.07 7.07c.567.567.88 1.32.88 2.121 0 .801-.313 1.555-.88 2.121l-3.535 3.54-11.316-11.316 3.54-3.536a2.973 2.973 0 012.116-.847zm-8.484 4.383l7.074 7.07 6.363 6.364.707.71-1.414 1.41a1 1 0 00-1.414 0l-1.414 1.419a.995.995 0 000 1.41l-1.41 1.418h-.004L33.957 15.898l1.414-1.414c.195.195.449.293.707.293a.993.993 0 00.707-.293l1.418-1.414a1 1 0 000-1.414zm1.418 4.656a.993.993 0 00-.707.293l-1.418 1.414a1 1 0 00.707 1.707c.257 0 .515-.097.71-.293l1.41-1.414a.993.993 0 000-1.414.991.991 0 00-.702-.293zm3.53 3.54a.975.975 0 00-.702.292l-1.418 1.41a1.012 1.012 0 000 1.419 1.015 1.015 0 001.418 0l1.41-1.418a.995.995 0 000-1.41.978.978 0 00-.707-.294zm-10.55.34l11.312 11.315-26.297 26.254-.953-4.765 16.59-16.594a.995.995 0 000-1.41.993.993 0 00-1.414 0L16.656 50.17 14.3 49.7l-.473-2.36 13.766-13.762c.391-.394.391-1.023 0-1.418a1 1 0 00-1.414 0L12.417 45.925l-4.664-.93zm14.09 3.19a.988.988 0 00-.707.298l-1.414 1.41a1.004 1.004 0 00.707 1.71c.258 0 .511-.1.707-.292l1.414-1.418a.995.995 0 000-1.41.988.988 0 00-.707-.297zm-15.56 4.247a.974.974 0 00-.702.289l-2.828 2.832a.993.993 0 000 1.414c.191.191.449.293.707.293a1 1 0 00.703-.293l2.828-2.828a.997.997 0 00-.707-1.707zm11.235 8.25l.66.656-2.125 2.121a1 1 0 00.707 1.707c.258 0 .516-.097.71-.293l2.118-2.12 2.125 2.12-3.535 3.535a.997.997 0 000 1.418c.191.192.45.293.703.293.258 0 .516-.101.707-.293l3.54-3.535 2.12 2.117-2.12 2.122a.997.997 0 00.706 1.707.997.997 0 00.703-.29l2.125-2.12 2.121 2.12-3.539 3.536a.995.995 0 000 1.41 1.002 1.002 0 001.418 0l3.532-3.535 1.417 1.418c.387.386.387 1.02 0 1.41l-9.902 9.902a1.024 1.024 0 01-1.41 0L32.453 45.766zM6.609 46.805l5.285 1.054.574 2.887c.082.395.39.703.785.781l2.883.579 1.067 5.335-7.61.559L6 54.41z"/></svg>