<svg version="1.1" id="Layer_1" xmlns="http://www.w3.org/2000/svg" x="0" y="0" viewBox="0 0 56 56" xml:space="preserve"><style>.st7{fill:#00d5f4}.st9{fill:none;stroke:#4b92db;stroke-miterlimit:10}</style><path fill="#cff" stroke="#4b92db" stroke-width=".96" stroke-miterlimit="10" d="M3.4 9.4h50.2v35.9H3.4z"/><path d="M27 45.1s-.6-13.9 6.7-16c.3-.1-10.8-8.8-10.8-8.8C9.2 23.6 9.2 45.1 9.2 45.1H27z" fill="#fff" stroke="#4b92db" stroke-width="1.002" stroke-miterlimit="10"/><path fill="#fff" d="M9.7 44.4h16.7v1.5H9.7z"/><path d="M31.8 30.8L21.4 18.9c-.2-.1-.1-.4.2-.6l8.2-6.3c.2-.2.6-.2.8 0l10.3 11.9c.2.1.1.4-.2.6l-8.2 6.3c-.3.1-.6.1-.7 0z" fill="#039" stroke="#039" stroke-width="1.107" stroke-miterlimit="10"/></svg>