<?xml version="1.0" encoding="utf-8"?>
<!-- Generator: Adobe Illustrator 24.0.1, SVG Export Plug-In . SVG Version: 6.00 Build 0)  -->
<svg version="1.1" id="Capa_1" xmlns="http://www.w3.org/2000/svg" xmlns:xlink="http://www.w3.org/1999/xlink" x="0px" y="0px"
	 viewBox="0 0 512 512" style="enable-background:new 0 0 512 512;" xml:space="preserve">
<g>
	<path d="M384.7,0L61.1,323.6L0,512l188.4-61.1L512,127.3L384.7,0z M469.6,127.3l-42.4,42.4l-84.9-84.9l42.4-42.4L469.6,127.3z
		 M81,359.6l71.4,71.4l-32,10.4l-49.8-49.8L81,359.6z M95.5,331.7l225.6-225.6l31.8,31.8L127.3,363.5L95.5,331.7z M148.5,384.7
		l225.6-225.6l31.8,31.8L180.3,416.5L148.5,384.7z M60.2,423.7l28.1,28.1l-41.6,13.5L60.2,423.7z"/>
</g>
</svg>
