<svg xmlns="http://www.w3.org/2000/svg" viewBox="0 0 80 80" preserveAspectRatio="none"><path fill="#bae0bd" d="M34.25 33.5H24c-2.979-.024-5.5-2.586-5.5-5.596V8c0-3.033 2.468-5.5 5.5-5.5h32c3.032 0 5.5 2.467 5.5 5.5v20c0 3.033-2.468 5.5-5.5 5.5H45.75L40 41.167 34.25 33.5z"/><path fill="#5e9c76" d="M56 3c2.757 0 5 2.243 5 5v20c0 2.757-2.243 5-5 5H45.5l-.3.4-5.2 6.933-5.2-6.933-.3-.4H24.008C21.293 32.978 19 30.645 19 27.904V8c0-2.757 2.243-5 5-5h32m0-1H24a6 6 0 00-6 6v19.904c0 3.295 2.705 6.07 6 6.096h10l6 8 6-8h10a6 6 0 006-6V8a6 6 0 00-6-6z"/><path fill="#ffeea3" d="M20 40.5a9.5 9.5 0 100 19 9.5 9.5 0 100-19z"/><path fill="#ba9b48" d="M20 41c4.964 0 9 4.037 9 9s-4.036 9-9 9-9-4.037-9-9 4.036-9 9-9m0-1c-5.522 0-10 4.478-10 10s4.478 10 10 10 10-4.478 10-10-4.478-10-10-10z"/><path fill="#ffeea3" d="M60 40.5a9.5 9.5 0 100 19 9.5 9.5 0 100-19z"/><path fill="#ba9b48" d="M60 41c4.964 0 9 4.037 9 9s-4.036 9-9 9-9-4.037-9-9 4.037-9 9-9m0-1c-5.522 0-10 4.478-10 10s4.478 10 10 10 10-4.478 10-10-4.478-10-10-10z"/><path fill="#fff" d="M37.2 26.4l-7-7 2.8-2.8 4.2 4.2 11-11 2.8 2.8z"/><path fill="#b0c1d4" d="M35.475 77.5c-.266-8.327-7.083-15-15.475-15s-15.208 6.673-15.475 15h30.95z"/><path fill="#66798f" d="M35 78h1c0-8.836-7.164-16-16-16S4 69.164 4 78h1c0-.005 30-.005 30 0zm-29.95-.984C5.559 69.192 12.048 63 20 63s14.441 6.192 14.95 14.016H5.05z"/><path fill="#b0c1d4" d="M75.475 77.5c-.266-8.327-7.083-15-15.475-15s-15.208 6.673-15.475 15h30.95z"/><path fill="#66798f" d="M75 78h1c0-8.836-7.164-16-16-16s-16 7.164-16 16h1c0-.005 30-.005 30 0zm-29.95-.984C45.559 69.192 52.048 63 60 63s14.441 6.192 14.95 14.016h-29.9z"/></svg>