<svg xmlns="http://www.w3.org/2000/svg" viewBox="0 0 50 50" preserveAspectRatio="none"><path d="M4.4 6C3.01 6 2 7.04 2 8.475v25.052C2 34.96 3.01 36 4.4 36h26.395l-.432-2H4.4c-.129 0-.4 0-.4-.475V8.475C4 8 4.271 8 4.4 8h37.2c.13 0 .4 0 .4.475v2.29c.204.183 1.102 1.027 2 2.505V8.475C44 7.04 42.99 6 41.6 6H4.4zm35.62 6a1 1 0 00-.66.232s-2.944 2.513-3.32 7.262c-.832-.84-1.448-1.3-1.448-1.3a1 1 0 00-.559-.194 1 1 0 00-.992.717S32 22.12 32 25c0 1.43.181 3.813 1.457 6H33a1 1 0 00-.977 1.21L34.137 42H2v2h46v-2h-2.137l2.114-9.79A1 1 0 0047 31h-.334l.002-.002C47.422 29.448 48 27.612 48 24.5c0-3.69-1.05-6.816-1.05-6.816a1 1 0 00-1-.682 1 1 0 00-.524.18s-.669.462-1.608 1.256c-.688-3.985-3.16-6.19-3.16-6.19A1 1 0 0040.02 12zm-.032 2.578c.714.805 1.91 2.436 1.996 5.574-.987 1-2.02 2.192-2.884 3.563a16.12 16.12 0 00-1.1-1.836V20.5c0-3.464 1.249-5.113 1.988-5.922zM21 16v8.875l2.117-2.125L24.412 26l1.176-.5-1.412-3.25L27 22l-6-6zm24.43 3.793A19.83 19.83 0 0146 24.5c0 3.498-.645 4.81-1.592 6.5h-5.447c.01-.419.041-.932.12-1.477.149-1.048.436-2.223.833-3.117 1.432-3.22 4.164-5.538 5.516-6.613zm-10.867 1.115c.463.438 1.01 1.025 1.556 1.748a1 1 0 00.223.278c.573.81 1.13 1.82 1.588 3.064-.413 1.048-.68 2.192-.83 3.242a14.633 14.633 0 00-.157 1.76h-1.056C34.26 29.107 34 26.517 34 25c0-1.393.29-2.902.563-4.092zM34.237 33H44.75a1 1 0 00.465 0h.547l-1.944 9h-7.636l-1.944-9zM14 38v2h17.658l-.431-2H14z"/></svg>