<svg version="1.1" id="Layer_1" xmlns="http://www.w3.org/2000/svg" x="0" y="0" viewBox="0 0 160 162" xml:space="preserve"><style>.st0{fill:#4b92db}.st1,.st2,.st4{fill:#fff;stroke:#007fff;stroke-width:4.5424;stroke-miterlimit:10}.st2,.st4{stroke-width:3.7853}.st4{fill:#007fff;stroke-width:.5;stroke-miterlimit:9.9998}</style><path class="st0" d="M134.9 102.1l-9.1-31.9c-.4-1.3-1.7-2.1-3.1-1.7l-1.4.4c-1.3.4-2.1 1.7-1.7 3.1l9.1 31.9c.4 1.3 1.7 2.1 3.1 1.7l1.4-.4c1.3-.5 2.1-1.8 1.7-3.1zM81.7 71.9l-9.1 31.9c-.4 1.3-1.7 2.1-3.1 1.7l-1.4-.4c-1.3-.4-2.1-1.7-1.7-3.1l9.1-31.9c.4-1.3 1.7-2.1 3.1-1.7l1.4.4c1.3.3 2.1 1.7 1.7 3.1z"/><path class="st1" d="M141.6 83.2H56.8c-2.4 0-4.5-2-4.5-4.5V25.4c0-2.4 2-4.5 4.5-4.5h84.8c2.4 0 4.5 2 4.5 4.5v53.4c-.1 2.4-2 4.4-4.5 4.4z"/><path class="st2" d="M147.7 85.2H49.1c-1.8 0-3.3-1.5-3.3-3.3V78c0-1.8 1.5-3.3 3.3-3.3h98.6c1.8 0 3.3 1.5 3.3 3.3v3.9c0 1.8-1.5 3.3-3.3 3.3z"/><path class="st0" d="M98.3 143l-9.1-31.9c-.4-1.3-1.7-2.1-3.1-1.7l-1.4.4c-1.3.4-2.1 1.7-1.7 3.1l9.1 31.9c.4 1.3 1.7 2.1 3.1 1.7l1.4-.4c1.3-.4 2.1-1.8 1.7-3.1zM45.1 112.8l-9.1 32c-.4 1.3-1.7 2.1-3.1 1.7l-1.4-.4c-1.3-.4-2.1-1.7-1.7-3.1l9.1-31.9c.4-1.3 1.7-2.1 3.1-1.7l1.4.4c1.3.3 2.1 1.7 1.7 3z"/><path class="st1" d="M105 124.2H20.3c-2.4 0-4.5-2-4.5-4.5V66.4c0-2.4 2-4.5 4.5-4.5H105c2.4 0 4.5 2 4.5 4.5v53.4c-.1 2.4-2 4.4-4.5 4.4z"/><path class="st2" d="M111.1 126.2H12.5c-1.8 0-3.3-1.5-3.3-3.3V119c0-1.8 1.5-3.3 3.3-3.3h98.6c1.8 0 3.3 1.5 3.3 3.3v3.9c0 1.8-1.5 3.3-3.3 3.3z"/><path fill="#fff" stroke="#007fff" stroke-width=".7500075" stroke-miterlimit="10" d="M70.165 93.268l41.395-47.093 1.127.99-41.395 47.094z"/><path transform="matrix(.9974 -.07176 .07176 .9974 -2.9 8)" class="st4" d="M104.4 43.5h11v1.7h-11z"/><path transform="rotate(-4.117 115.023 48.719) scale(.99998)" class="st4" d="M114.2 43.2h1.7v11h-1.7z"/></svg>