<?xml version="1.0" encoding="utf-8"?>
<!--Generator: Adobe Illustrator 24.0.1, SVG Export Plug-In . SVG Version: 6.00 Build 0)-->
<svg version="1.1" id="Layer_1" xmlns="http://www.w3.org/2000/svg" xmlns:xlink="http://www.w3.org/1999/xlink" x="0px" y="0px" viewBox="0 0 633.7 254.6" style="enable-background:new 0 0 633.7 254.6" xml:space="preserve">
    <style type="text/css">
        .st0,.st2{fill:#ffc;stroke:#039;stroke-miterlimit:10}.st2{fill:#007fff;stroke-width:5.458265e-02}.st3,.st4{fill:#4b92db}.st3{stroke:#039;stroke-width:5.458265e-02;stroke-miterlimit:10}.st4{stroke-width:.7954}.st4,.st5,.st6,.st7{stroke:#039;stroke-miterlimit:10}.st5{fill:#ffc;stroke-width:.6418}.st6{fill:#007fff}.st7{fill:none}.st11{fill:#00d5f4}
    </style>
    <g>
        <path d="M581.5,180.7c-0.8,4.6-2.5,6.8-3.2,8.3l0,0c0,1.4,1.7,5.8,2.4,6.3h-12c-0.1-1-0.4-2-1-2.8v-0.1
	c-2.1,0.7-4.4,1.1-5.3,0.8c-1.5-0.5-1-1.4-1-2.4s-0.5-0.5-1-1s0.5-1,0.5-1c-1,0-1,0-1-1.4c0-0.3-0.1-0.5-0.3-0.7s-0.4-0.3-0.7-0.3
	c-2.5-0.5,0.9-2.6,1-4.8c0-0.5,0-1-0.1-1.5c-0.1-0.4-0.2-0.7-0.3-1c-0.1-0.4-0.2-0.7-0.2-1.1c0-0.8,0.1-1.6,0.3-2.4
	c1-4.1,4.2-6.9,8.2-8c3-0.8,6.2-0.4,8.9,1.1C580.7,171.2,582.3,176.4,581.5,180.7z" style="fill:#d1d4d1;stroke:#039;stroke-width:5.458265e-02;stroke-miterlimit:10"/>
        <path class="st2" d="M568.5,192.4c-1.6-0.7,0.8-1.3,1.5-1.6c1.1-0.5,1.2-0.9,2-1.4C574.2,189.9,569.2,192.4,568.5,192.4z"/>
        <path class="st2" d="M563.4,178.7c-0.2,0.5-0.7,0.2-1.2,0.3c-0.9,0.2-1.7,0.7-2.3,1.3c-0.1-0.4-0.2-0.7-0.3-1
		C560.3,178.3,563.4,177.1,563.4,178.7z"/>
        <path class="st2" d="M576.3,182c-0.4,0.5-2.4,1.5-1.6,2.1c0.4,0.5,1.6-0.9,2.2-1.3C577.3,182.6,577.1,181.6,576.3,182z"/>
        <path class="st2" d="M579.2,176.3c-0.3-0.4-1.1-3.1-1.8-2.1c-0.1-0.2-0.3-0.2-0.5-0.2c0-0.9-2,0-2.9,0c-0.5,0-0.8,1,0.1,1l2.4-0.5
		l-0.9,2.3c-3.3-2.6-2.3-2.5-4.4,0.9c-0.5-0.8-1-3.4-1.9-2.7c-0.3-0.2-3.4,2.5-3.5,2.8l-1-2.5c-1-0.9-1.1,0.5-0.5,1.4
		c0.5,1.2,0.8,2.4,1.5,1.3c0.4,1.2,3.1-2,3.5-2.1c0.3,0.4,1,3.5,1.9,2.1c0.7,1.1,1.7-1.6,2-1.9c0.4,0.2,2,1.8,2.4,1.7
		c0.8,0.7,1.6-2.9,1.9-3.1C577.6,175.3,579.1,178.4,579.2,176.3L579.2,176.3z"/>
        <path class="st2" d="M571.9,179.5c-1.4-0.7-0.8,0.8,0,1.8c0.9,1.3,1.2,2.2,1.8,2C575,183.1,571.9,179.8,571.9,179.5z"/>
        <path class="st2" d="M577.7,177.4c-0.4,0.3-2.2,0.5-1.8,1.3c-1,0.3,0.7,1.8,1,2.5c2,0.9,0-1.8-0.4-2.2
		C579.5,178,578.2,177.2,577.7,177.4L577.7,177.4z"/>
        <path class="st2" d="M571.5,170.7c0.6,0,2.5,1,2.5,0c0-0.7-1.5-0.6-2.2-0.9C571.3,169.6,570.8,170.4,571.5,170.7z"/>
        <path class="st2" d="M567.3,171.2c0.5-0.2,3.4-0.2,2.8-1.2c-0.2-0.6-1.2-0.1-2.2,0.1C566.4,170.2,566.6,171.1,567.3,171.2z"/>
        <path class="st2" d="M564.4,174.1c0.4,0.1,1.4-1.6,1.7-1.9c0.4-0.6-0.4-1.1-0.8-0.6C564.8,172.3,563.1,173.8,564.4,174.1z"/>
        <path class="st2" d="M570.1,178.4c-1.6,0.1-4-0.3-3.9,0.5c0.1,0.8,1.5,0.4,2.8,0.5C571.2,179.6,570.7,178.4,570.1,178.4z"/>
        <path class="st2" d="M576.3,173.4c2,0.3-0.4-1.8-1-2C573.6,171.5,576,173,576.3,173.4z"/>
        <path class="st2" d="M565.3,174.1c-1.2,0.6,0,1.2,1.1,1c1.3-0.1,2.3,0.3,2.2-0.6C568.6,173.7,565.7,174.2,565.3,174.1z"/>
        <path class="st2" d="M570.1,174.1c-2.3,1.4,4.4,1.2,1.9,0C571.8,174.1,570.2,174.1,570.1,174.1z"/>
        <path class="st2" d="M572.2,179.4c0.1,0,2.4-0.4,2.5-0.5c1-1.2-0.8-0.9-2-0.6C571.1,178.4,571.5,179.4,572.2,179.4z"/>
        <path class="st2" d="M566.5,172.4c3.4,2,2.4,2.5,4.2-0.5c0.4,0.4,3.2,3.6,2.7,1.3c-0.1-0.1-2.2-2.2-2.4-2.4c-0.7-0.8-1.6,1.6-2,2.1
		C568.6,172.6,565.5,170.5,566.5,172.4L566.5,172.4z"/>
        <g>
            <circle class="st3" cx="570.6" cy="170.2" r="1.4"/>
            <circle class="st3" cx="569.2" cy="174.6" r="1.4"/>
            <circle class="st3" cx="573" cy="174.6" r="1.4"/>
            <circle class="st3" cx="575.4" cy="178.4" r="1.4"/>
            <circle class="st3" cx="566.3" cy="171.2" r="1.4"/>
            <circle class="st3" cx="564.4" cy="174.6" r="1.4"/>
            <circle class="st3" cx="565.8" cy="178.9" r="1.4"/>
            <circle class="st3" cx="571.1" cy="178.9" r="1.4"/>
            <circle class="st3" cx="578.8" cy="177.5" r="1.4"/>
            <circle class="st3" cx="577.4" cy="173.6" r="1.4"/>
            <circle class="st3" cx="574.5" cy="171.2" r="1.4"/>
            <circle class="st3" cx="574" cy="183.7" r="1.4"/>
            <circle class="st3" cx="577.4" cy="181.8" r="1.4"/>
        </g>
    </g>
    
</svg>
