<?xml version="1.0" encoding="utf-8"?>
<!--Generator: Adobe Illustrator 24.0.1, SVG Export Plug-In . SVG Version: 6.00 Build 0)-->
<svg version="1.1" id="Layer_1" xmlns="http://www.w3.org/2000/svg" xmlns:xlink="http://www.w3.org/1999/xlink" x="0px" y="0px" viewBox="0 0 633.1 232.5" style="enable-background:new 0 0 633.1 232.5" xml:space="preserve">
    <style type="text/css">
        .st1{font-family:&apos;STYuanti-SC-Light&apos;}.st2{font-size:11.5345px}.st3{font-size:5.7672px}.st4{fill:azure;stroke:#007fff;stroke-width:.4768;stroke-miterlimit:10}.st9{fill:#4b92db;stroke-width:.2447}.st10,.st12,.st14,.st9{stroke:#039;stroke-miterlimit:10}.st10{fill:#f06;stroke-width:.2447}.st12,.st14{fill:#ffc}.st14{fill:#007fff}.st14,.st15{stroke-width:5.458265e-02}.st15,.st16,.st17,.st18{fill:#4b92db;stroke:#039;stroke-miterlimit:10}.st17,.st18{fill:#007fff}.st18{fill:none}.st19{stroke:#039;stroke-width:.1586}.st19,.st21,.st24,.st25{stroke-miterlimit:10}.st21{fill:#fff;stroke:#4b92db}.st24,.st25{fill:none;stroke-linecap:round}.st24{stroke:#4b92db;stroke-width:4}.st25{stroke:#c9c}.st26{fill:#fff;stroke:#4b92db}.st26,.st27,.st28{stroke-width:.6888;stroke-miterlimit:10}.st27{fill:none;stroke:#000}.st28{stroke:#4b92db}.st28,.st29{fill:#00d5f4}.st30,.st31,.st32{fill:#a4e700;stroke:#61d000;stroke-miterlimit:10}.st31,.st32{fill:none;stroke:#4b92db;stroke-width:.6888}.st32{fill:#4b92db}.st33{fill:#007fff}.st36{fill:#ffc;stroke:#039;stroke-width:.25;stroke-miterlimit:10}.st40{font-family:&apos;STHeitiSC-Light&apos;}.st48{fill:#69f;stroke:#039;stroke-width:.286;stroke-miterlimit:10}.st51{fill:#fff}
    </style>
    <path d="M111.8,197.7H49.1c-0.2,0-0.4-0.2-0.4-0.4V157c0-0.2,0.2-0.4,0.4-0.4h62.7c0.2,0,0.4,0.2,0.4,0.4v40.4
	C112.2,197.6,112,197.7,111.8,197.7z" style="fill:azure;stroke:#007fff;stroke-width:.25;stroke-miterlimit:10"/>
    <text transform="matrix(0.9322 0 0 1 54.4922 172.0348)" class="st1 st2">
        项目策划
    </text>
    <text transform="matrix(0.9322 0 0 1 54.4922 179.5743)" class="st1 st3">
        
    </text>
    <text transform="matrix(0.9322 0 0 1 54.4922 187.0055)" class="st1 st3">
        客户需求
    </text>
    <path class="st4" d="M154,207.8h-33.2c-1.3,0-2.4-1.1-2.4-2.4v-10.7c0-1.3,1.1-2.4,2.4-2.4H154c1.3,0,2.4,1.1,2.4,2.4v10.7
	C156.5,206.7,155.4,207.8,154,207.8z"/>
    <text transform="matrix(0.9322 0 0 1 120.3193 203.2072)" class="st1 st2">
        建议一
    </text>
    <path class="st4" d="M161.8,232.2h-33.2c-1.3,0-2.4-1.1-2.4-2.4v-10.7c0-1.3,1.1-2.4,2.4-2.4h33.2c1.3,0,2.4,1.1,2.4,2.4v10.7
	C164.3,231.2,163.2,232.2,161.8,232.2z"/>
    <text transform="matrix(0.9322 0 0 1 128.1084 227.6632)" class="st1 st2">
        建议二
    </text>
    <path d="M112.2,177.8c1.6,1.6,4,3.7,7.2,4.8c6.8,2.4,11.5-1.4,15.3,2.4c1.1,1.1,2.4,3.1,3.1,7.2" style="fill:azure;stroke:#007fff;stroke-width:1.0026;stroke-miterlimit:10"/>
    <path d="M83.9,197.7c0,10,2.3,14.6,4.4,16.9c5.9,6.5,14.3,0.3,28.3,5.6c4.2,1.6,7.5,3.7,9.6,5.2" style="fill:none;stroke:#007fff;stroke-width:1.0026;stroke-miterlimit:10"/>
    <g>
        <path pointer-events="none" d="M41.7,42.4V12.3h33.4v35.1H46.4L41.7,42.4z" style="fill:#fff2cc;stroke:#039;stroke-width:.2447;stroke-miterlimit:10"/>
        <path pointer-events="none" d="M46.4,47.4c-0.4-1.2,0.3-2.4,1.7-3.2l-6.4-1.8" style="fill:none;stroke:#039;stroke-width:.2447;stroke-miterlimit:10"/>
    </g>
    <g>
        <path pointer-events="none" class="st9" d="M81.5,42.4V12.3h33.4v35.1H86.3L81.5,42.4z"/>
        <path pointer-events="none" class="st9" d="M86.3,47.4c-0.4-1.2,0.3-2.4,1.7-3.2l-6.5-1.8"/>
    </g>
    <g>
        <path pointer-events="none" class="st10" d="M124.3,42.4V12.3h33.4v35.1h-28.6L124.3,42.4z"/>
        <path pointer-events="none" class="st10" d="M129.1,47.4c-0.4-1.2,0.3-2.4,1.7-3.2l-6.5-1.8"/>
    </g>
    <path d="M172.9,167.7" style="fill:#ffc"/>
    <path class="st12" d="M511.5,173.3h-23.9c-5.1,0-9.2-4.1-9.2-9.2v-13.8c0-5.1,4.1-9.2,9.2-9.2h23.9c5.1,0,9.2,4.1,9.2,9.2v13.8
	C520.7,169.2,516.6,173.3,511.5,173.3z"/>
    <g id='demo_brain'>
        <path d="M511.2,156.5c-0.8,4.6-2.5,6.8-3.2,8.3l0,0c0,1.4,1.7,5.8,2.4,6.3h-12c-0.1-1-0.4-2-1-2.8v-0.1
	c-2.1,0.7-4.4,1.1-5.3,0.8c-1.5-0.5-1-1.4-1-2.4s-0.5-0.5-1-1s0.5-1,0.5-1c-1,0-1,0-1-1.4c0-0.3-0.1-0.5-0.3-0.7
	c-0.2-0.2-0.4-0.3-0.7-0.3c-2.5-0.5,0.9-2.6,1-4.8c0-0.5,0-1-0.1-1.5c-0.1-0.4-0.2-0.7-0.3-1c-0.1-0.4-0.2-0.7-0.2-1.1
	c0-0.8,0.1-1.6,0.3-2.4c1-4.1,4.2-6.9,8.2-8c3-0.8,6.2-0.4,8.9,1.1C510.4,147,512,152.2,511.2,156.5z" style="fill:#d1d4d1;stroke:#039;stroke-width:5.458265e-02;stroke-miterlimit:10"/>
        <g>
            <path class="st14" d="M498.2,168.2c-1.6-0.7,0.8-1.3,1.5-1.6c1.1-0.5,1.2-0.9,2-1.4C503.9,165.7,498.9,168.2,498.2,168.2z"/>
            <path class="st14" d="M493.1,154.5c-0.2,0.5-0.7,0.2-1.2,0.3c-0.9,0.2-1.7,0.7-2.3,1.3c-0.1-0.4-0.2-0.7-0.3-1
		C490,154.1,493.1,152.9,493.1,154.5z"/>
            <path class="st14" d="M506,157.8c-0.4,0.5-2.4,1.5-1.6,2.1c0.4,0.5,1.6-0.9,2.2-1.3C507,158.4,506.8,157.4,506,157.8z"/>
            <path class="st14" d="M508.9,152.1c-0.3-0.4-1.1-3.1-1.8-2.1c-0.1-0.2-0.3-0.2-0.5-0.2c0-0.9-2,0-2.9,0c-0.5,0-0.8,1,0.1,1l2.4-0.5
		l-0.9,2.3c-3.3-2.6-2.3-2.5-4.4,0.9c-0.5-0.8-1-3.4-1.9-2.7c-0.3-0.2-3.4,2.5-3.5,2.8l-1-2.5c-1-0.9-1.1,0.5-0.5,1.4
		c0.5,1.2,0.8,2.4,1.5,1.3c0.4,1.2,3.1-2,3.5-2.1c0.3,0.4,1,3.5,1.9,2.1c0.7,1.1,1.7-1.6,2-1.9c0.4,0.2,2,1.8,2.4,1.7
		c0.8,0.7,1.6-2.9,1.9-3.1C507.3,151.1,508.8,154.2,508.9,152.1L508.9,152.1z"/>
            <path class="st14" d="M501.6,155.3c-1.4-0.7-0.8,0.8,0,1.8c0.9,1.3,1.2,2.2,1.8,2C504.7,158.9,501.6,155.6,501.6,155.3z"/>
            <path class="st14" d="M507.4,153.2c-0.4,0.3-2.2,0.5-1.8,1.3c-1,0.3,0.7,1.8,1,2.5c2,0.9,0-1.8-0.4-2.2
		C509.2,153.8,507.9,153,507.4,153.2L507.4,153.2z"/>
            <path class="st14" d="M501.2,146.5c0.6,0,2.5,1,2.5,0c0-0.7-1.5-0.6-2.2-0.9C501,145.4,500.5,146.2,501.2,146.5z"/>
            <path class="st14" d="M497,147c0.5-0.2,3.4-0.2,2.8-1.2c-0.2-0.6-1.2-0.1-2.2,0.1C496.1,146,496.3,146.9,497,147z"/>
            <path class="st14" d="M494.1,149.9c0.4,0.1,1.4-1.6,1.7-1.9c0.4-0.6-0.4-1.1-0.8-0.6C494.5,148.1,492.8,149.6,494.1,149.9z"/>
            <path class="st14" d="M499.8,154.2c-1.6,0.1-4-0.3-3.9,0.5s1.5,0.4,2.8,0.5C500.9,155.4,500.4,154.2,499.8,154.2z"/>
            <path class="st14" d="M506,149.2c2,0.3-0.4-1.8-1-2C503.3,147.3,505.7,148.8,506,149.2z"/>
            <path class="st14" d="M495,149.9c-1.2,0.6,0,1.2,1.1,1c1.3-0.1,2.3,0.3,2.2-0.6C498.3,149.5,495.4,150,495,149.9z"/>
            <path class="st14" d="M499.8,149.9c-2.3,1.4,4.4,1.2,1.9,0C501.5,149.9,499.9,149.9,499.8,149.9z"/>
            <path class="st14" d="M501.9,155.2c0.1,0,2.4-0.4,2.5-0.5c1-1.2-0.8-0.9-2-0.6C500.8,154.2,501.2,155.2,501.9,155.2z"/>
            <path class="st14" d="M496.2,148.2c3.4,2,2.4,2.5,4.2-0.5c0.4,0.4,3.2,3.6,2.7,1.3c-0.1-0.1-2.2-2.2-2.4-2.4
		c-0.7-0.8-1.6,1.6-2,2.1C498.3,148.4,495.2,146.3,496.2,148.2L496.2,148.2z"/>
        </g>
        <g>
            <circle class="st15" cx="500.3" cy="146" r="1.4"/>
            <circle class="st15" cx="498.9" cy="150.4" r="1.4"/>
            <circle class="st15" cx="502.7" cy="150.4" r="1.4"/>
            <circle class="st15" cx="505.1" cy="154.2" r="1.4"/>
            <circle class="st15" cx="496" cy="147" r="1.4"/>
            <circle class="st15" cx="494.1" cy="150.4" r="1.4"/>
            <circle class="st15" cx="495.5" cy="154.7" r="1.4"/>
            <circle class="st15" cx="500.8" cy="154.7" r="1.4"/>
            <circle class="st15" cx="508.5" cy="153.3" r="1.4"/>
            <circle class="st15" cx="507.1" cy="149.4" r="1.4"/>
            <circle class="st15" cx="504.2" cy="147" r="1.4"/>
            <circle class="st15" cx="503.7" cy="159.5" r="1.4"/>
            <circle class="st15" cx="507.1" cy="157.6" r="1.4"/>
        </g>
    </g>
    <path class="st16" d="M600,143h-36.6c-1.6,0-2.8-1.3-2.8-2.8v-5c0-1.6,1.3-2.8,2.8-2.8H600c1.6,0,2.8,1.3,2.8,2.8v5
	C602.9,141.7,601.6,143,600,143z"/>
    <path class="st16" d="M573,158.9h-36.6c-1.6,0-2.8-1.3-2.8-2.8v-5c0-1.6,1.3-2.8,2.8-2.8H573c1.6,0,2.8,1.3,2.8,2.8v5
	C575.9,157.6,574.6,158.9,573,158.9z"/>
    <path class="st16" d="M573,177.1h-36.6c-1.6,0-2.8-1.3-2.8-2.8v-5c0-1.6,1.3-2.8,2.8-2.8H573c1.6,0,2.8,1.3,2.8,2.8v5
	C575.9,175.8,574.6,177.1,573,177.1z"/>
    <rect x="422.9" y="134.9" class="st12" width="42.3" height="10.7"/>
    <path class="st12" d="M465.1,163.1h-42.3v-10.7h42.3c0,1.9,0,3.8,0,5.7C465.1,159.7,465.1,161.4,465.1,163.1z"/>
    <rect x="422.9" y="171.4" class="st12" width="42.3" height="10.7"/>
    <path class="st18" d="M465.4,157.1c4.8,0.1,12.2,0.7,13.1,1"/>
    <path class="st18" d="M465.1,176.5c3.5,0.6,8.1-3.9,8.5-10.2c0.3-6.2,4.6-7.9,4.7-8"/>
    <path class="st18" d="M465.6,139.5c3.5-0.6,8.1,3.9,8.5,10.2c0.3,6.2,4.6,7.9,4.7,8"/>
    <path class="st18" d="M534.4,174.5c-3.5,0.6-8.1-3.9-8.5-10.2c-0.3-6.2-4.6-7.9-4.7-8"/>
    <path class="st18" d="M534,137.6c-3.5-0.6-8.1,3.9-8.5,10.2c-0.3,6.2-4.6,7.9-4.7,8"/>
    <path class="st18" d="M521.3,155.8c4.8,0.1,11.4-2.5,12.3-2.2"/>
    <rect x="44.3" y="16.5" class="st19" width="10.1" height="3.2"/>
    <rect x="57" y="16.5" class="st19" width="10.1" height="3.2"/>
    <rect x="86.6" y="28" width="23" height="4" style="stroke:#039;stroke-width:.269;stroke-miterlimit:10"/>
    <rect x="126.6" y="17.2" class="st19" width="10.1" height="3.2"/>
    <rect x="138.9" y="26.4" class="st19" width="10.1" height="3.2"/>
    <rect x="130.5" y="38.8" class="st19" width="10.1" height="3.2"/>
    <g>
        <rect x="0.5" y="90" class="st21" width="46" height="36.8"/>
        <path d="M25.1,104.6" style="fill:none;stroke:#000;stroke-miterlimit:10"/>
        <path d="M11.3,102.4H4.8c-1.6,0-2.9-1-2.9-2.3v-5.9c0-1.4,1.3-2.4,2.9-2.4h6.6c1.6,0,2.9,1,2.9,2.3v5.9
		C14.2,101.3,12.9,102.4,11.3,102.4z" style="fill:#4b92db;stroke:#4b92db;stroke-miterlimit:10"/>
        <polyline class="st24" points="43.7,124.7 43.7,96.1 25.9,113.6 14.2,125.2 	"/>
        <line class="st24" x1="24.7" y1="114.9" x2="43.7" y2="114.9"/>
        <line class="st25" x1="16.6" y1="94.9" x2="40.1" y2="94.9"/>
        <line class="st25" x1="16.6" y1="98.6" x2="35.7" y2="98.6"/>
        <line class="st25" x1="16.6" y1="102.4" x2="31.5" y2="102.4"/>
        <line class="st25" x1="2.5" y1="106" x2="26" y2="106"/>
        <line class="st25" x1="2.5" y1="109.7" x2="21.4" y2="109.7"/>
        <line class="st25" x1="2.5" y1="113.5" x2="17.2" y2="113.5"/>
        <line class="st25" x1="1.5" y1="119.7" x2="12" y2="119.7"/>
    </g>
    <path class="st21" d="M91.8,94.7"/>
    <g>
        <path class="st26" d="M131.8,103.8c0,2.6-2.2,4.7-4.8,4.7h-4.7h-20.6c-2.7,0-4.8-2.1-4.8-4.7v-15c0-2.6,2.2-4.7,4.8-4.7H127
		c2.7,0,4.8,2.1,4.8,4.7V103.8z"/>
        <path class="st27" d="M115.7,93"/>
        <path class="st28" d="M97.1,105.1"/>
        <path class="st29" d="M123.3,89.2"/>
        <path class="st29" d="M131.1,106"/>
        <path class="st29" d="M97.2,99.9"/>
        <path class="st30" d="M105,95c-1.3,0-7.7,5.7-7.9,6.3c-0.7,1.8-0.1,4.3,1.2,5.8c2.1,2.2,11.4,0.9,17,1.4c6.6,0.3,11.5,0.1,13.4-0.5
		c0.7-0.2,1.9-0.7,2.7-1.9c0.1-0.2,0.1-0.9,0.1-0.9l0.2-8.1c-1.8-4-4.4-7.8-7.9-7.8c-3.7,0-6.9,10.5-10.4,10.2
		C112,99.4,107.7,94.9,105,95z"/>
        <path class="st31" d="M132,103.8c0,2.6-2.2,4.7-4.8,4.7h-4.7h-20.7c-2.7,0-4.8-2.1-4.8-4.7v-15c0-2.6,2.2-4.7,4.8-4.7h25.3
		c2.7,0,4.8,2.1,4.8,4.7L132,103.8L132,103.8z"/>
        <path class="st29" d="M131.5,106"/>
        <ellipse class="st32" cx="104.5" cy="89.2" rx="3" ry="2.8"/>
    </g>
    <g>
        <path class="st26" d="M568.7,224.6c0,2.6-2.2,4.7-4.8,4.7h-4.7h-20.6c-2.7,0-4.8-2.1-4.8-4.7v-15c0-2.6,2.2-4.7,4.8-4.7H564
		c2.7,0,4.8,2.1,4.8,4.7L568.7,224.6L568.7,224.6z"/>
        <path class="st27" d="M552.6,213.8"/>
        <path class="st28" d="M534,225.9"/>
        <path class="st29" d="M560.2,210"/>
        <path class="st29" d="M568,226.8"/>
        <path class="st29" d="M534.1,220.7"/>
        <path class="st30" d="M541.8,215.8c-1.3,0-7.7,5.7-7.9,6.3c-0.7,1.8-0.1,4.3,1.2,5.8c2.1,2.2,11.4,0.9,17,1.4
		c6.6,0.3,11.5,0.1,13.4-0.5c0.7-0.2,1.9-0.7,2.7-1.9c0.1-0.2,0.1-0.9,0.1-0.9l0.2-8.1c-1.8-4-4.4-7.8-7.9-7.8
		c-3.7,0-6.9,10.5-10.4,10.2C548.9,220.2,544.6,215.7,541.8,215.8z"/>
        <path class="st31" d="M568.9,224.6c0,2.6-2.2,4.7-4.8,4.7h-4.7h-20.7c-2.7,0-4.8-2.1-4.8-4.7v-15c0-2.6,2.2-4.7,4.8-4.7H564
		c2.7,0,4.8,2.1,4.8,4.7L568.9,224.6L568.9,224.6z"/>
        <path class="st29" d="M568.4,226.8"/>
        <ellipse class="st32" cx="541.4" cy="210" rx="3" ry="2.8"/>
    </g>
    <g>
        <g>
            <path class="st33" d="M603.4,15.7c1.8-0.7,3.2-1.8,4.3-3c1-1.3,1.6-2.7,1.6-4.2s-0.5-2.9-1.6-4.2c-1-1.3-2.5-2.3-4.3-3
			s-3.8-1.1-5.9-1.1s-4.1,0.4-5.9,1.1c-1.8,0.7-3.2,1.8-4.3,3c-1,1.3-1.6,2.7-1.6,4.2c0,1.3,0.4,2.5,1.2,3.6s1.9,2.1,3.2,2.9
			c-0.1,0.3-0.2,0.5-0.3,0.7s-0.3,0.4-0.4,0.6c-0.2,0.2-0.3,0.4-0.4,0.5c-0.1,0.1-0.2,0.3-0.4,0.5s-0.3,0.3-0.4,0.4c0,0,0,0-0.1,0.1
			c0,0.1-0.1,0.1-0.1,0.1s0,0-0.1,0.1c0.1,0,0.1,0,0.1,0v0.1v0.1v0.1v0.1c0,0.1,0.1,0.3,0.2,0.3s0.2,0.1,0.3,0.1h0.1
			c0.6-0.1,1-0.2,1.4-0.3c1.7-0.4,3.2-1.1,4.6-2.1c1,0.2,2,0.3,2.9,0.3C599.6,16.8,601.6,16.4,603.4,15.7z M594.1,14.3l-0.7,0.5
			c-0.3,0.2-0.7,0.4-1,0.6L593,14l-1.6-0.9c-1.1-0.6-1.9-1.3-2.5-2.1c-0.6-0.8-0.9-1.7-0.9-2.6c0-1.1,0.4-2.1,1.3-3.1
			c0.9-1,2-1.7,3.5-2.3s3.1-0.8,4.7-0.8s3.3,0.3,4.7,0.8c1.5,0.6,2.6,1.3,3.5,2.3s1.3,2,1.3,3.1s-0.4,2.1-1.3,3.1
			c-0.9,1-2,1.7-3.5,2.3s-3.1,0.8-4.7,0.8c-0.8,0-1.7-0.1-2.5-0.2L594.1,14.3z"/>
            <path class="st33" d="M614.4,16.3c0.8-1.1,1.2-2.3,1.2-3.6s-0.4-2.6-1.2-3.7c-0.8-1.2-2-2.1-3.4-2.9c0.3,0.8,0.4,1.6,0.4,2.5
			c0,1.4-0.4,2.8-1.1,4.1c-0.7,1.3-1.8,2.4-3.2,3.4c-1.3,0.9-2.7,1.6-4.4,2.1c-1.6,0.5-3.3,0.7-5.1,0.7c-0.3,0-0.8,0-1.5-0.1
			c2.2,1.4,4.8,2.1,7.8,2.1c1,0,1.9-0.1,2.9-0.3c1.4,1,2.9,1.6,4.6,2.1c0.4,0.1,0.9,0.2,1.4,0.3c0.1,0,0.3,0,0.4-0.1
			c0.1-0.1,0.2-0.2,0.2-0.4c0-0.1,0-0.1,0-0.1s0,0,0-0.1s0-0.1,0-0.1v-0.1c0,0,0-0.1-0.1-0.1l-0.1-0.1c0,0,0,0-0.1-0.1l-0.1-0.1
			c-0.1-0.1-0.2-0.2-0.4-0.4c-0.2-0.2-0.3-0.4-0.4-0.5c-0.1-0.1-0.2-0.3-0.4-0.5s-0.3-0.4-0.4-0.6s-0.2-0.5-0.3-0.7
			C612.5,18.4,613.6,17.4,614.4,16.3z"/>
            <circle class="st33" cx="592.5" cy="8.6" r="1.2"/>
            <circle class="st33" cx="601.9" cy="8.6" r="1.2"/>
            <circle class="st33" cx="597.3" cy="8.6" r="1.2"/>
        </g>
    </g>
    <g>
        <path d="M558.4,19.9H549c-1.3,0-2.3-1-2.3-2.3v-7c0-1.3,1-2.3,2.3-2.3h9.4c1.3,0,2.3,1,2.3,2.3v7
		C560.8,18.9,559.7,19.9,558.4,19.9z M549.1,9.4c-0.6,0-1.2,0.5-1.2,1.2v7c0,0.6,0.5,1.2,1.2,1.2h9.4c0.6,0,1.2-0.5,1.2-1.2v-7
		c0-0.6-0.5-1.2-1.2-1.2C558.5,9.4,549.1,9.4,549.1,9.4z" style="fill:#039;stroke:#4b92db;stroke-width:5.482563e-02;stroke-miterlimit:10"/>
    </g>
    <g>
        <path d="M564.3,18.9c-0.2,0-0.4-0.1-0.6-0.2l-3.8-2.4c-0.3-0.2-0.4-0.5-0.2-0.8s0.5-0.4,0.8-0.2l3.8,2.4v-7.2l-3.8,2.4
		c-0.3,0.2-0.6,0.1-0.8-0.2s-0.1-0.6,0.2-0.8l3.8-2.4c0.4-0.2,0.8-0.2,1.2,0s0.6,0.6,0.6,1v7.2c0,0.4-0.2,0.8-0.6,1
		C564.7,18.8,564.5,18.9,564.3,18.9L564.3,18.9z"/>
    </g>
    <g>
        <path d="M556.1,28.1c-7.7,0-14-6.3-14-14s6.3-14,14-14s14,6.3,14,14S563.8,28.1,556.1,28.1z M556.1,1.2
		c-7.1,0-12.9,5.8-12.9,12.9S549,27,556.1,27c7.1,0,12.9-5.8,12.9-12.9S563.2,1.2,556.1,1.2z" style="stroke:azure;stroke-width:5.482563e-02;stroke-miterlimit:10"/>
    </g>
    <path class="st36" d="M626.2,109.1H594c-3.8,0-6.8-3-6.8-6.8V58.9c0-3.8,3-6.8,6.8-6.8h32.2c3.8,0,6.8,3,6.8,6.8v43.4
	C633,106.1,629.9,109.1,626.2,109.1z"/>
    <path class="st36" d="M571.7,109.1h-32.2c-3.8,0-6.8-3-6.8-6.8V58.9c0-3.8,3-6.8,6.8-6.8h32.2c3.8,0,6.8,3,6.8,6.8v43.4
	C578.5,106.1,575.5,109.1,571.7,109.1z"/>
    <rect x="593.1" y="71.6" width="13.4" height="3.7" style="fill:#fc0;stroke:#039;stroke-width:.196;stroke-miterlimit:10"/>
    <rect x="593.1" y="79.5" width="24.6" height="3.9" style="fill:#6c0;stroke:#039;stroke-width:.2719;stroke-miterlimit:10"/>
    <rect x="593.1" y="87.9" width="6" height="3.8" style="fill:#f06;stroke:#039;stroke-width:.132;stroke-miterlimit:10"/>
    <text transform="matrix(0.9854 0 0 1 541.4053 65.5441)" class="st40" style="font-size:7.4612px">
        待办事项
    </text>
    <text transform="matrix(1.216 0 0 1 591.6885 64.7081)" class="st40" style="font-size:7.1484px">
        进行中
    </text>
    <rect x="542.9" y="72.7" width="13.4" height="3.9" style="stroke:#039;stroke-width:.2025;stroke-miterlimit:10"/>
    <rect x="542.9" y="80.6" width="22.5" height="3.3" style="stroke:#039;stroke-width:.2388;stroke-miterlimit:10"/>
    <rect x="542.9" y="87.9" width="27.3" height="3.8" style="stroke:#039;stroke-width:.2826;stroke-miterlimit:10"/>
    <path class="st18" d="M553.9,204.5c0,1.8,0.2-5.3-6.4-10.2s-19.3-1-20.6-3.9c-2.1-4.7,1.5-34.3-5.6-34.1"/>
    <path d="M79.5,224.5H6.4c-2.4,0-4.4-2-4.4-4.4v-4.4c0-2.4,2-4.4,4.4-4.4h73.1c2.4,0,4.4,2,4.4,4.4v4.4
	C83.9,222.5,81.9,224.5,79.5,224.5z" style="fill:#ffa445;stroke:#039;stroke-width:.25;stroke-miterlimit:10"/>
    <text transform="matrix(0.9322 0 0 1 6.2007 221.6881)" class="st1 st2">
        Alice正在编辑
    </text>
    <path d="M170,183h-48.1c-2,0-3.6-1.6-3.6-3.6v-5.9c0-2,1.6-3.6,3.6-3.6h48.1c2,0,3.6,1.6,3.6,3.6v5.9 " style="fill:#73ffd3;stroke:#039;stroke-width:.2055;stroke-miterlimit:10"/>
    <text transform="matrix(1 0 0 1 120 180)" class="st1 st2">
        John添加
    </text>
    <g>
        <path class="st48" d="M152.9,126.4H73.4c-2.8,0-5-2.2-5-5v-5.7c0-2.8,2.2-5,5-5H153c2.8,0,5,2.2,5,5v5.7
		C157.9,124.2,155.7,126.4,152.9,126.4z"/>
        <text transform="matrix(0.9322 0 0 1 72.5249 122.0792)" class="st1 st2">
            Jasmine粘贴图片
        </text>
    </g>
    <path class="st48" d="M625.6,48.8H546c-2.8,0-5-2.2-5-5v-5.7c0-2.8,2.2-5,5-5h79.6c2.8,0,5,2.2,5,5v5.7
	C630.6,46.5,628.4,48.8,625.6,48.8z"/>
    <text transform="matrix(0.9322 0 0 1 542.9121 44.9537)" class="st1 st2">
        音视频通话进行中
    </text>
    <path d="M137.9,66.8H58.3c-2.8,0-5-2.2-5-5v-5.7c0-2.8,2.2-5,5-5h79.6c2.8,0,5,2.2,5,5v5.7
	C142.9,64.5,140.7,66.8,137.9,66.8z" style="fill:#ff7b5c;stroke:#039;stroke-width:.286;stroke-miterlimit:10"/>
    <text transform="matrix(0.9322 0 0 1 59.2029 62.995)" class="st1 st2" style="fill:#d4e7ff">
        Design Thinking
    </text>
    <g>
        <path class="st48" d="M518.5,204.9h-79.6c-2.8,0-5-2.2-5-5v-5.7c0-2.8,2.2-5,5-5h79.6c2.8,0,5,2.2,5,5v5.7
		C523.5,202.6,521.2,204.9,518.5,204.9z"/>
        <text transform="matrix(0.9322 0 0 1 449.2715 199.4825)" class="st51 st1 st2">
            即时协作脑图
        </text>
    </g>
    <g>
        <path class="st48" d="M624.2,127.8h-79.6c-2.8,0-5-2.2-5-5v-5.7c0-2.8,2.2-5,5-5h79.6c2.8,0,5,2.2,5,5v5.7
		C629.2,125.6,626.9,127.8,624.2,127.8z"/>
        <text transform="matrix(0.9322 0 0 1 554.9424 122.4166)" class="st51 st1 st2">
            即时协作待办
        </text>
    </g>
</svg>
