<svg version="1.1" id="Layer_1" xmlns="http://www.w3.org/2000/svg" x="0" y="0" viewBox="0 0 633.7 254.6" xml:space="preserve"><style>.st2,.st3{stroke:#039;stroke-miterlimit:10;fill:#007fff;stroke-width:5.458265e-02}.st3{fill:#4b92db}</style><path d="M581.5 180.7c-.8 4.6-2.5 6.8-3.2 8.3h0c0 1.4 1.7 5.8 2.4 6.3h-12c-.1-1-.4-2-1-2.8v-.1c-2.1.7-4.4 1.1-5.3.8-1.5-.5-1-1.4-1-2.4s-.5-.5-1-1 .5-1 .5-1c-1 0-1 0-1-1.4 0-.3-.1-.5-.3-.7s-.4-.3-.7-.3c-2.5-.5.9-2.6 1-4.8 0-.5 0-1-.1-1.5-.1-.4-.2-.7-.3-1-.1-.4-.2-.7-.2-1.1 0-.8.1-1.6.3-2.4 1-4.1 4.2-6.9 8.2-8 3-.8 6.2-.4 8.9 1.1 4 2.5 5.6 7.7 4.8 12z" fill="#d1d4d1" stroke="#039" stroke-width=".055" stroke-miterlimit="10"/><path class="st2" d="M568.5 192.4c-1.6-.7.8-1.3 1.5-1.6 1.1-.5 1.2-.9 2-1.4 2.2.5-2.8 3-3.5 3zM563.4 178.7c-.2.5-.7.2-1.2.3-.9.2-1.7.7-2.3 1.3-.1-.4-.2-.7-.3-1 .7-1 3.8-2.2 3.8-.6zM576.3 182c-.4.5-2.4 1.5-1.6 2.1.4.5 1.6-.9 2.2-1.3.4-.2.2-1.2-.6-.8zM579.2 176.3c-.3-.4-1.1-3.1-1.8-2.1-.1-.2-.3-.2-.5-.2 0-.9-2 0-2.9 0-.5 0-.8 1 .1 1l2.4-.5-.9 2.3c-3.3-2.6-2.3-2.5-4.4.9-.5-.8-1-3.4-1.9-2.7-.3-.2-3.4 2.5-3.5 2.8l-1-2.5c-1-.9-1.1.5-.5 1.4.5 1.2.8 2.4 1.5 1.3.4 1.2 3.1-2 3.5-2.1.3.4 1 3.5 1.9 2.1.7 1.1 1.7-1.6 2-1.9.4.2 2 1.8 2.4 1.7.8.7 1.6-2.9 1.9-3.1.1.6 1.6 3.7 1.7 1.6zM571.9 179.5c-1.4-.7-.8.8 0 1.8.9 1.3 1.2 2.2 1.8 2 1.3-.2-1.8-3.5-1.8-3.8z"/><path class="st2" d="M577.7 177.4c-.4.3-2.2.5-1.8 1.3-1 .3.7 1.8 1 2.5 2 .9 0-1.8-.4-2.2 3-1 1.7-1.8 1.2-1.6zM571.5 170.7c.6 0 2.5 1 2.5 0 0-.7-1.5-.6-2.2-.9-.5-.2-1 .6-.3.9zM567.3 171.2c.5-.2 3.4-.2 2.8-1.2-.2-.6-1.2-.1-2.2.1-1.5.1-1.3 1-.6 1.1zM564.4 174.1c.4.1 1.4-1.6 1.7-1.9.4-.6-.4-1.1-.8-.6-.5.7-2.2 2.2-.9 2.5zM570.1 178.4c-1.6.1-4-.3-3.9.5.1.8 1.5.4 2.8.5 2.2.2 1.7-1 1.1-1zM576.3 173.4c2 .3-.4-1.8-1-2-1.7.1.7 1.6 1 2zM565.3 174.1c-1.2.6 0 1.2 1.1 1 1.3-.1 2.3.3 2.2-.6 0-.8-2.9-.3-3.3-.4zM570.1 174.1c-2.3 1.4 4.4 1.2 1.9 0h-1.9zM572.2 179.4c.1 0 2.4-.4 2.5-.5 1-1.2-.8-.9-2-.6-1.6.1-1.2 1.1-.5 1.1z"/><path class="st2" d="M566.5 172.4c3.4 2 2.4 2.5 4.2-.5.4.4 3.2 3.6 2.7 1.3l-2.4-2.4c-.7-.8-1.6 1.6-2 2.1-.4-.3-3.5-2.4-2.5-.5z"/><circle class="st3" cx="570.6" cy="170.2" r="1.4"/><circle class="st3" cx="569.2" cy="174.6" r="1.4"/><circle class="st3" cx="573" cy="174.6" r="1.4"/><circle class="st3" cx="575.4" cy="178.4" r="1.4"/><circle class="st3" cx="566.3" cy="171.2" r="1.4"/><circle class="st3" cx="564.4" cy="174.6" r="1.4"/><circle class="st3" cx="565.8" cy="178.9" r="1.4"/><circle class="st3" cx="571.1" cy="178.9" r="1.4"/><circle class="st3" cx="578.8" cy="177.5" r="1.4"/><circle class="st3" cx="577.4" cy="173.6" r="1.4"/><circle class="st3" cx="574.5" cy="171.2" r="1.4"/><circle class="st3" cx="574" cy="183.7" r="1.4"/><circle class="st3" cx="577.4" cy="181.8" r="1.4"/></svg>