<?xml version="1.0" encoding="utf-8"?>
<!-- Generator: Adobe Illustrator 24.0.1, SVG Export Plug-In . SVG Version: 6.00 Build 0)  -->
<svg version="1.1" id="Layer_1" xmlns="http://www.w3.org/2000/svg" xmlns:xlink="http://www.w3.org/1999/xlink" x="0px" y="0px"
	 viewBox="0 0 56 56" style="enable-background:new 0 0 56 56;" xml:space="preserve">
<style type="text/css">
	.st0{fill:#F0FFFF;stroke:#4B92DB;stroke-width:0.8562;stroke-miterlimit:10;}
	.st1{fill:#4B92DB;}
	.st2{fill:#F0FFFF;stroke:#4B92DB;stroke-width:1.3995;stroke-miterlimit:10;}
	.st3{fill:#003399;}
</style>
<g>
	<rect x="5.4" y="11" class="st0" width="15" height="8.3"/>
	<g id="Layer_3">
		<ellipse class="st1" cx="8.5" cy="15.2" rx="0.9" ry="0.9"/>
		<ellipse class="st1" cx="17.3" cy="15.2" rx="0.9" ry="0.9"/>
		<ellipse class="st1" cx="13" cy="15.2" rx="0.9" ry="0.9"/>
	</g>
</g>
<g>
	<rect x="20" y="29.6" class="st2" width="24.9" height="18.7"/>
	<g id="Layer_3_1_">
		<ellipse class="st1" cx="24.3" cy="40.8" rx="1.7" ry="1.8"/>
		<ellipse class="st1" cx="40.6" cy="40.8" rx="1.7" ry="1.8"/>
		<ellipse class="st1" cx="32.7" cy="40.8" rx="1.7" ry="1.8"/>
	</g>
</g>
<path class="st3" d="M15.1,11c0,0,24.2,7.3,13.4,14.5c0,0,9,4.2,10.3,4.2c0.6,0,4.3-5.5,4.3-5.5c-1.1-0.4-4-1.9-4.9-2.8
	C30.4,13.1,15.1,11,15.1,11z"/>
</svg>
