<svg xmlns="http://www.w3.org/2000/svg" viewBox="0 0 64 64" preserveAspectRatio="none"><path d="M39 2c-1.652 0-3 1.348-3 3v1.184A2.93 2.93 0 0035 6h-8c-1.652 0-3 1.348-3 3v3.656a2.828 2.828 0 00-.703-.3L17.5 10.8a2.988 2.988 0 00-2.273.3 2.982 2.982 0 00-1.399 1.82L6.578 39.97a3.005 3.005 0 002.125 3.676l1.328.355H3c-1.652 0-3 1.348-3 3v6c0 1.652 1.348 3 3 3h5v5c0 1.652 1.348 3 3 3s3-1.348 3-3v-5h36v5c0 1.652 1.348 3 3 3s3-1.348 3-3v-5h5c1.652 0 3-1.348 3-3v-6c0-1.652-1.348-3-3-3h-3V15c0-1.652-1.348-3-3-3h-4c-.352 0-.688.07-1 .184V5c0-1.652-1.348-3-3-3zm0 2h8c.55 0 1 .45 1 1v39H38V5c0-.55.45-1 1-1zM27 8h8c.55 0 1 .45 1 1v35H26V9c0-.55.45-1 1-1zm14 0c-.555 0-1 .445-1 1 0 .555.445 1 1 1h4c.555 0 1-.445 1-1 0-.555-.445-1-1-1zm-12 4c-.555 0-1 .445-1 1 0 .555.445 1 1 1h4c.555 0 1-.445 1-1 0-.555-.445-1-1-1zm-12.277.7c.09 0 .175.01.261.034l5.797 1.551c.532.145.852.695.707 1.23l-7.25 27.044a.999.999 0 01-.465.609.988.988 0 01-.757.098l-5.797-1.551a1.004 1.004 0 01-.703-1.23l7.246-27.044a.999.999 0 01.96-.742zM51 14h4c.55 0 1 .45 1 1v29h-6v-2h4c.555 0 1-.445 1-1 0-.555-.445-1-1-1h-4V20h4c.555 0 1-.445 1-1 0-.555-.445-1-1-1h-4v-3c0-.55.45-1 1-1zm-33.965.902a.998.998 0 00-.828.73 1.004 1.004 0 00.707 1.227l3.867 1.032a.997.997 0 001.223-.703 1.002 1.002 0 00-.707-1.227l-3.863-1.035a.987.987 0 00-.399-.024zM24 21.328V44h-6.266c.192-.277.348-.586.438-.922zM10.828 38.082a1.004 1.004 0 00-.832.73 1.002 1.002 0 00.707 1.227l3.863 1.035a1 1 0 001.227-.707 1.004 1.004 0 00-.707-1.226l-3.867-1.032a.893.893 0 00-.39-.027zM29 40c-.555 0-1 .445-1 1 0 .555.445 1 1 1h4c.555 0 1-.445 1-1 0-.555-.445-1-1-1zm12 0c-.555 0-1 .445-1 1 0 .555.445 1 1 1h4c.555 0 1-.445 1-1 0-.555-.445-1-1-1zM3 46h58c.55 0 1 .45 1 1v6c0 .55-.45 1-1 1H3c-.55 0-1-.45-1-1v-6c0-.55.45-1 1-1zm4 2c-.602 0-1 .445-1 1v2c0 .555.398 1 1 1s1-.445 1-1v-2c0-.555-.398-1-1-1zm5 0c-.602 0-1 .445-1 1v2c0 .555.398 1 1 1s1-.445 1-1v-2c0-.555-.398-1-1-1zm5 0c-.602 0-1 .445-1 1v2c0 .555.398 1 1 1s1-.445 1-1v-2c0-.555-.398-1-1-1zm5 0c-.602 0-1 .445-1 1v2c0 .555.398 1 1 1s1-.445 1-1v-2c0-.555-.398-1-1-1zm5 0c-.602 0-1 .445-1 1v2c0 .555.398 1 1 1s1-.445 1-1v-2c0-.555-.398-1-1-1zm5 0c-.602 0-1 .445-1 1v2c0 .555.398 1 1 1s1-.445 1-1v-2c0-.555-.398-1-1-1zm5 0c-.602 0-1 .445-1 1v2c0 .555.398 1 1 1s1-.445 1-1v-2c0-.555-.398-1-1-1zm5 0c-.602 0-1 .445-1 1v2c0 .555.398 1 1 1s1-.445 1-1v-2c0-.555-.398-1-1-1zm5 0c-.602 0-1 .445-1 1v2c0 .555.398 1 1 1s1-.445 1-1v-2c0-.555-.398-1-1-1zm5 0c-.602 0-1 .445-1 1v2c0 .555.398 1 1 1s1-.445 1-1v-2c0-.555-.398-1-1-1zm5 0c-.602 0-1 .445-1 1v2c0 .555.398 1 1 1s1-.445 1-1v-2c0-.555-.398-1-1-1zm-47 8h2v5c0 .55-.45 1-1 1s-1-.45-1-1zm42 0h2v5c0 .55-.45 1-1 1s-1-.45-1-1z"/></svg>