<?xml version="1.0" encoding="utf-8"?>
<!-- Generator: Adobe Illustrator 24.0.1, SVG Export Plug-In . SVG Version: 6.00 Build 0)  -->
<svg version="1.1" id="Layer_1" xmlns="http://www.w3.org/2000/svg" xmlns:xlink="http://www.w3.org/1999/xlink" x="0px" y="0px"
	 viewBox="0 0 24 24" style="enable-background:new 0 0 24 24;" xml:space="preserve">
<style type="text/css">
	.st0{fill:#FFFFFF;stroke:#003399;stroke-miterlimit:10;}
	.st1{fill:#F0FFFF;stroke:#007FFF;stroke-miterlimit:10;}
	.st2{fill:#003399;stroke:#003399;stroke-miterlimit:10;}
</style>
<path class="st0" d="M12.5,14.4L12.5,14.4c-2.6,0-4.7-2.1-4.7-4.7V6.9c0-2.6,2.1-4.7,4.7-4.7h0c2.6,0,4.7,2.1,4.7,4.7v2.8
	C17.2,12.3,15.1,14.4,12.5,14.4z"/>
<path class="st1" d="M14.6,21.7h-4.2c-2.9,0-5.3-2.4-5.3-5.3v-2.6c0-2.9,2.4-5.3,5.3-5.3h4.2c2.9,0,5.3,2.4,5.3,5.3v2.6
	C19.9,19.3,17.5,21.7,14.6,21.7z"/>
<path class="st2" d="M12.6,15.1h-0.3c-1,0-1.9-0.8-1.9-1.9v0c0-1,0.8-1.9,1.9-1.9h0.3c1,0,1.9,0.8,1.9,1.9v0
	C14.5,14.3,13.7,15.1,12.6,15.1z"/>
<path class="st2" d="M12.5,18.1L12.5,18.1c-0.3,0-0.6-0.3-0.6-0.6v-1.8c0-0.3,0.3-0.6,0.6-0.6h0c0.3,0,0.6,0.3,0.6,0.6v1.8
	C13,17.8,12.8,18.1,12.5,18.1z"/>
</svg>
