<svg width="327.659" height="260.19" viewBox="0 0 86.693 68.842" xmlns="http://www.w3.org/2000/svg"><path d="M1.5 20.743c.13-6.069 83.488-13.845 83.693 0s0 42.694 0 42.694l-36.933-.339c-5.61 9.345-12.876.339-12.876.339H1.5s-.127-36.772 0-42.694z" fill="#85ffff" stroke="#000" stroke-width="3"/><path d="M12.36 9.003s11.493-16.55 30.635 0c16.452-17.227 30.635 0 30.635 0v49.651S57.548 38.156 43.119 56.29C30.178 38.565 12.36 58.654 12.36 58.654z" fill="#fff" stroke="#000" stroke-width="2.768"/><path d="M42.992 9.003c16.452-16.56 30.635 0 30.635 0V56.73s-16.082-19.704-30.511-2.273z" fill="#b8ffff"/><text transform="matrix(1.5604 0 0 .64087 -57.458 -94.457)" x="64.12" y="216.775" font-family="sans-serif" font-size="41.338" stroke-width="1.034" style="line-height:1.25"><tspan x="64.12" y="216.775" font-family="Baskerville" font-size="77.165">i</tspan></text></svg>