<svg xmlns="http://www.w3.org/2000/svg" viewBox="0 0 80 80" preserveAspectRatio="none"><path fill="#bae0bd" d="M2.916 70.96l14.681-14.682 7.783 7.784-10.941 10.939z"/><path fill="#5e9c76" d="M17.597 56.986l7.076 7.076-10.364 10.363-10.477-3.674 13.765-13.765m0-1.415L2 71.168l12.571 4.409 11.516-11.516-8.49-8.49z"/><path fill="#f2faff" d="M8.585 61.763l3.938-9.968-.569-.571a4.967 4.967 0 010-7.019L50.206 5.954c.937-.938 2.183-1.454 3.509-1.454s2.572.516 3.509 1.454l18.822 18.822a4.97 4.97 0 010 7.019L37.794 70.046c-.938.938-2.184 1.454-3.509 1.454s-2.572-.516-3.509-1.454l-.571-.571-9.968 3.939L8.585 61.763z"/><path fill="#788b9c" d="M53.715 5c1.192 0 2.313.464 3.156 1.307l18.822 18.822c.843.843 1.307 1.964 1.307 3.156s-.464 2.313-1.307 3.156L37.441 69.693c-.843.843-1.964 1.307-3.156 1.307s-2.313-.464-3.156-1.307l-.339-.339-.464-.464-.61.241-9.358 3.698L9.171 61.642l3.697-9.359.241-.61-.464-.464-.338-.338a4.468 4.468 0 010-6.311L50.559 6.307A4.434 4.434 0 0153.715 5m0-1a5.445 5.445 0 00-3.863 1.6L11.6 43.852a5.464 5.464 0 000 7.726l.338.338L8 61.885 20.115 74l9.968-3.939.339.339c1.067 1.067 2.465 1.6 3.863 1.6s2.796-.533 3.863-1.6L76.4 32.148a5.464 5.464 0 000-7.726L57.578 5.6A5.445 5.445 0 0053.715 4z"/><path fill="#bae0bd" d="M16.482 39.678l8.53-8.531 25.841 25.84-8.53 8.53z"/><path fill="#5e9c76" d="M25.013 31.854l25.134 25.134-7.823 7.823-25.135-25.134 7.824-7.823m0-1.414l-9.237 9.237 26.548 26.548 9.237-9.237L25.013 30.44z"/></svg>