<svg version="1.1" id="Layer_1" xmlns="http://www.w3.org/2000/svg" x="0" y="0" viewBox="0 0 56 56" xml:space="preserve"><style>.st0{fill:#fff;stroke:#4b92db;stroke-miterlimit:10}.st6{fill:#00d5f4}</style><path class="st0" d="M52.8 38.4c0 3.8-3.1 6.9-6.8 6.9H10c-3.8 0-6.8-3.1-6.8-6.9V16.2c0-3.8 3.1-6.9 6.8-6.9h36c3.8 0 6.8 3.1 6.8 6.9v22.2z"/><path d="M14.6 25.3c-1.9 0-10.9 8.5-11.2 9.3-1 2.7-.2 6.4 1.7 8.6 3 3.2 16.2 1.4 24.2 2.1 9.4.5 16.4.1 19-.7 1-.3 2.7-1 3.9-2.8.2-.3.2-1.3.2-1.4l.3-12c-2.6-5.9-6.3-11.6-11.2-11.6-5.3 0-9.8 15.6-14.8 15.2-2.1-.2-8.2-6.8-12.1-6.7z" fill="#0cf"/><path d="M53 38.4c0 3.8-3.1 6.9-6.8 6.9H10.1c-3.8 0-6.8-3.1-6.8-6.9V16.2c0-3.8 3.1-6.9 6.8-6.9h36c3.8 0 6.8 3.1 6.8 6.9v22.2h.1z" fill="none" stroke="#4b92db" stroke-miterlimit="10"/><circle cx="14" cy="16.7" r="4.2" fill="#4b92db" stroke="#4b92db" stroke-miterlimit="10"/></svg>