<?xml version="1.0" encoding="utf-8"?>
<!-- Generator: Adobe Illustrator 24.0.1, SVG Export Plug-In . SVG Version: 6.00 Build 0)  -->
<svg version="1.1" id="Layer_1" xmlns="http://www.w3.org/2000/svg" xmlns:xlink="http://www.w3.org/1999/xlink" x="0px" y="0px"
	 viewBox="0 0 56 56" style="enable-background:new 0 0 56 56;" xml:space="preserve">
<style type="text/css">
	.st0{fill:#FFFFFF;stroke:#4B92DB;stroke-miterlimit:10;}
	.st1{fill:none;stroke:#4B92DB;stroke-miterlimit:10;}
	.st2{fill:#00CCFF;}
</style>
<path class="st0" d="M52.8,38.4c0,3.8-3.1,6.9-6.8,6.9H10c-3.8,0-6.8-3.1-6.8-6.9V16.2c0-3.8,3.1-6.9,6.8-6.9h36
	c3.8,0,6.8,3.1,6.8,6.9V38.4z"/>
<path class="st1" d="M53,38.4c0,3.8-3.1,6.9-6.8,6.9H10.1c-3.8,0-6.8-3.1-6.8-6.9V16.2c0-3.8,3.1-6.9,6.8-6.9h36
	c3.8,0,6.8,3.1,6.8,6.9v22.2C52.9,38.4,53,38.4,53,38.4z"/>
<polygon class="st2" points="8.4,37.4 8.4,17.4 13.5,17.4 17.9,22.2 21.9,17.4 26.3,17.4 26.3,37.4 22.1,37.4 22.1,23.2 17.9,27 
	13.5,23.2 13.3,37.4 "/>
<polygon class="st2" points="30.4,27.5 38.9,37.4 47.4,27.5 41.6,27.5 41.5,17.4 36.3,17.4 36.4,27.5 "/>
</svg>
