<svg xmlns="http://www.w3.org/2000/svg" viewBox="0 0 100 100" preserveAspectRatio="none"><path d="M50 17c-3.854 0-7 3.146-7 7s3.146 7 7 7 7-3.146 7-7-3.146-7-7-7zm0 2c2.773 0 5 2.227 5 5s-2.227 5-5 5-5-2.227-5-5 2.227-5 5-5zm-30 4c-3.854 0-7 3.146-7 7s3.146 7 7 7 7-3.146 7-7-3.146-7-7-7zm60 0c-3.854 0-7 3.146-7 7s3.146 7 7 7 7-3.146 7-7-3.146-7-7-7zm-60 2c2.773 0 5 2.227 5 5s-2.227 5-5 5-5-2.227-5-5 2.227-5 5-5zm60 0c2.773 0 5 2.227 5 5s-2.227 5-5 5-5-2.227-5-5 2.227-5 5-5zm-30 8c-5.511 0-10 4.489-10 10v8h-7a1 1 0 100 2h34a1 1 0 100-2h-7v-8c0-5.511-4.489-10-10-10zm0 2c4.43 0 8 3.57 8 8v8H42v-8c0-4.43 3.57-8 8-8zm-.51 2.025a.5.5 0 00-.035.002A6.004 6.004 0 0044 43v5.5a.5.5 0 101 0V43a4.992 4.992 0 014.545-4.977.5.5 0 00-.055-.998zm2.998.586a.5.5 0 00-.217.948 5.03 5.03 0 012.178 2.17.5.5 0 00.89-.458 6.028 6.028 0 00-2.61-2.601.5.5 0 00-.24-.059zM20 39c-4.406 0-8 3.594-8 8v13.5c0 4.13 3.37 7.5 7.5 7.5h10.875l1.63 14.115A1 1 0 0033 83h5a1 1 0 001-1V62.5c0-3.026-2.474-5.5-5.5-5.5H28V47c0-4.406-3.594-8-8-8zm60 0c-4.406 0-8 3.594-8 8v10h-5.5c-3.026 0-5.5 2.474-5.5 5.5V82a1 1 0 001 1h5a1 1 0 00.994-.885L69.625 68H80.5c4.13 0 7.5-3.37 7.5-7.5V47c0-4.406-3.594-8-8-8zm-60 2c3.326 0 6 2.674 6 6v11h-2.5a3.493 3.493 0 01-3.5-3.5v-4a.5.5 0 00-.508-.508.5.5 0 00-.492.508v4c0 2.48 2.02 4.5 4.5 4.5h10c1.944 0 3.5 1.556 3.5 3.5V81h-3.11l-1.63-14.115a1 1 0 00-.992-.885H19.5c-3.05 0-5.5-2.45-5.5-5.5V47c0-3.326 2.674-6 6-6zm60 0c3.326 0 6 2.674 6 6v13.5c0 3.05-2.45 5.5-5.5 5.5H68.732a1 1 0 00-.992.885L66.11 81H63V62.5c0-1.944 1.556-3.5 3.5-3.5h10c2.48 0 4.5-2.02 4.5-4.5v-4a.5.5 0 00-.508-.508.5.5 0 00-.492.508v4c0 1.939-1.561 3.5-3.5 3.5H74V47c0-3.326 2.674-6 6-6zm-24.53.992a.5.5 0 00-.493.553c.014.155.023.306.023.455v.5a.5.5 0 101 0V43c0-.189-.011-.37-.027-.545a.5.5 0 00-.502-.463zm-35.978 4A.5.5 0 0019 46.5v2a.5.5 0 101 0v-2a.5.5 0 00-.508-.508zm61 0A.5.5 0 0080 46.5v2a.5.5 0 101 0v-2a.5.5 0 00-.508-.508zm-71.508.994A1 1 0 008 48v13c0 6.063 4.937 11 11 11h6a1 1 0 100-2h-6c-4.983 0-9-4.017-9-9V48a1 1 0 00-1.016-1.014zm82 0A1 1 0 0090 48v13c0 4.983-4.017 9-9 9h-6a1 1 0 100 2h6c6.063 0 11-4.937 11-11V48a1 1 0 00-1.016-1.014z"/></svg>