<svg xmlns="http://www.w3.org/2000/svg" viewBox="0 0 64 64" preserveAspectRatio="none"><path d="M6 10c-2.757 0-5 2.243-5 5v34c0 2.757 2.243 5 5 5h52c2.757 0 5-2.243 5-5V15c0-2.757-2.243-5-5-5H6zm0 2h52c1.654 0 3 1.346 3 3v34c0 1.654-1.346 3-3 3H6c-1.654 0-3-1.346-3-3V15c0-1.654 1.346-3 3-3zm1 2a1 1 0 00-1 1v2a1 1 0 102 0v-2a1 1 0 00-1-1zm5 0a1 1 0 00-1 1v2a1 1 0 102 0v-2a1 1 0 00-1-1zm5 0a1 1 0 00-1 1v2a1 1 0 102 0v-2a1 1 0 00-1-1zm5 0a1 1 0 00-1 1v2a1 1 0 102 0v-2a1 1 0 00-1-1zm5 0a1 1 0 00-1 1v2a1 1 0 102 0v-2a1 1 0 00-1-1zm5 0a1 1 0 00-1 1v2a1 1 0 102 0v-2a1 1 0 00-1-1zm5 0a1 1 0 00-1 1v2a1 1 0 102 0v-2a1 1 0 00-1-1zm5 0a1 1 0 00-1 1v2a1 1 0 102 0v-2a1 1 0 00-1-1zm5 0a1 1 0 00-1 1v2a1 1 0 102 0v-2a1 1 0 00-1-1zm5 0a1 1 0 00-1 1v2a1 1 0 102 0v-2a1 1 0 00-1-1zm5 0a1 1 0 00-1 1v2a1 1 0 102 0v-2a1 1 0 00-1-1zm-37 7a7 7 0 00-7 7v2a8.72 8.72 0 001.49 4.72 13.22 13.22 0 00-7.39 6.85 1 1 0 101.8.86 11.139 11.139 0 017-6.07A6.174 6.174 0 0020.002 38a6.174 6.174 0 004.09-1.64c3.105.91 5.66 3.125 7 6.07a1 1 0 001.809-.86 13.222 13.222 0 00-7.391-6.84A8.717 8.717 0 0027 30v-2a7 7 0 00-7-7zm0 2a5 5 0 015 5v2c0 2.72-2.23 6-5 6s-5-3.28-5-6v-2a5 5 0 015-5zm18 2a1 1 0 000 2h10a1 1 0 000-2H38zm14 0a1 1 0 000 2h4a1 1 0 000-2h-4zm-14 6a1 1 0 000 2h18a1 1 0 000-2H38zm0 6a1 1 0 000 2h12a1 1 0 000-2H38zM7 46a1 1 0 00-1 1v2a1 1 0 102 0v-2a1 1 0 00-1-1zm5 0a1 1 0 00-1 1v2a1 1 0 102 0v-2a1 1 0 00-1-1zm5 0a1 1 0 00-1 1v2a1 1 0 102 0v-2a1 1 0 00-1-1zm5 0a1 1 0 00-1 1v2a1 1 0 102 0v-2a1 1 0 00-1-1zm5 0a1 1 0 00-1 1v2a1 1 0 102 0v-2a1 1 0 00-1-1zm5 0a1 1 0 00-1 1v2a1 1 0 102 0v-2a1 1 0 00-1-1zm5 0a1 1 0 00-1 1v2a1 1 0 102 0v-2a1 1 0 00-1-1zm5 0a1 1 0 00-1 1v2a1 1 0 102 0v-2a1 1 0 00-1-1zm5 0a1 1 0 00-1 1v2a1 1 0 102 0v-2a1 1 0 00-1-1zm5 0a1 1 0 00-1 1v2a1 1 0 102 0v-2a1 1 0 00-1-1zm5 0a1 1 0 00-1 1v2a1 1 0 102 0v-2a1 1 0 00-1-1z"/></svg>