<svg viewBox="0 0 16 16" xmlns="http://www.w3.org/2000/svg"><g clip-rule="evenodd" fill="#28a745" fill-rule="evenodd"><path d="M2 2v12a1 1 0 001 1h10a1 1 0 001-1V2a1 1 0 00-1-1H3a1 1 0 00-1 1zM1 14a2 2 0 002 2h10a2 2 0 002-2V2a2 2 0 00-2-2H3a2 2 0 00-2 2z"/><path d="M14 5H2V4h12z"/></g><path d="M2.053 2.838c0-1.084.006-1.148.132-1.333.073-.107.207-.25.299-.317.165-.123.195-.123 5.382-.14 3.552-.013 5.285.002 5.431.044.262.076.551.391.635.692.034.122.062.665.062 1.207v.985H2.054z" fill="#28a745" stroke="#28a745" stroke-linecap="round" stroke-linejoin="bevel" stroke-opacity=".753" stroke-width=".088" paint-order="stroke fill markers"/></svg>