<?xml version="1.0" encoding="UTF-8"?>
<svg data-v-8892b924="" version="1.1" viewBox="0 0 16 16" xmlns="http://www.w3.org/2000/svg"><g transform="rotate(-90,8,8)" clip-rule="evenodd" fill="#28a745" fill-rule="evenodd"><path d="m14 2h-12a1 1 0 0 0-1 1v10a1 1 0 0 0 1 1h12a1 1 0 0 0 1-1v-10a1 1 0 0 0-1-1zm-12-1a2 2 0 0 0-2 2v10a2 2 0 0 0 2 2h12a2 2 0 0 0 2-2v-10a2 2 0 0 0-2-2z"/><path d="m11 14v-12h1v12z"/></g><path d="m2.0529 2.8381c0-1.0837 0.00636-1.1477 0.13235-1.3328 0.072794-0.10696 0.20708-0.24984 0.29841-0.31752 0.16512-0.12236 0.19539-0.12315 5.3824-0.1406 3.5524-0.01195 5.2849 0.00235 5.4314 0.044844 0.26174 0.075908 0.55081 0.39114 0.63427 0.69168 0.03394 0.12221 0.06185 0.66558 0.06203 1.2075l3.29e-4 0.98529h-11.941z" fill="#28a745" stroke="#28a745" stroke-linecap="round" stroke-linejoin="bevel" stroke-opacity=".75294" stroke-width=".088235" style="paint-order:stroke fill markers"/></svg>
