<svg height="512" width="512" xmlns="http://www.w3.org/2000/svg"><circle cx="109.002" cy="256" fill="#9bc6ff" r="99.002"/><path d="M109.002 355.002c25.171 0 48.143-9.399 65.612-24.872-7.85-28.883-34.243-50.13-65.612-50.13S51.24 301.247 43.39 330.13c17.469 15.474 40.441 24.872 65.612 24.872z" fill="#f5737f"/><path d="M140.052 241.189v7.762c0 17.148-13.901 31.049-31.049 31.049s-31.049-13.901-31.049-31.049v-7.762c0-17.148 13.901-31.049 31.049-31.049s31.049 13.901 31.049 31.049z" fill="#ffbf9e"/><circle cx="418" cy="94" fill="#78d0a9" r="84"/><path d="M418 178c21.357 0 40.848-7.975 55.669-21.103-6.66-24.507-29.054-42.534-55.669-42.534-26.616 0-49.009 18.027-55.669 42.534C377.152 170.025 396.643 178 418 178z" fill="#ffd89e"/><path d="M444.344 81.433v6.586c0 14.549-11.795 26.344-26.344 26.344-14.549 0-26.344-11.795-26.344-26.344v-6.586c0-14.549 11.795-26.344 26.344-26.344 14.55 0 26.344 11.795 26.344 26.344z" fill="#ffbf9e"/><g><circle cx="418" cy="418" fill="#eff3f3" r="84"/><path d="M418 502c21.357 0 40.848-7.975 55.669-21.103-6.66-24.507-29.054-42.534-55.669-42.534-26.616 0-49.009 18.027-55.669 42.534C377.152 494.025 396.643 502 418 502z" fill="#79b2ff"/><path d="M444.344 405.433v6.586c0 14.549-11.795 26.344-26.344 26.344-14.549 0-26.344-11.795-26.344-26.344v-6.586c0-14.549 11.795-26.344 26.344-26.344 14.55 0 26.344 11.795 26.344 26.344z" fill="#ffbf9e"/></g><g><path d="M418 324c-32.514 0-61.223 16.595-78.108 41.759l-130.12-68.219c5.3-12.81 8.233-26.838 8.233-41.541 0-14.361-2.811-28.452-8.212-41.551l130.099-68.208C356.777 171.405 385.486 188 418 188c51.832 0 94-42.168 94-94S469.832 0 418 0s-94 42.168-94 94c0 12.19 2.333 23.845 6.576 34.543L200.49 196.745c-10.702-16.494-25.62-29.799-43.227-38.506-4.953-2.452-10.949-.419-13.396 4.531-2.448 4.951-.419 10.948 4.531 13.396 30.599 15.131 49.607 45.721 49.607 79.833 0 21.174-7.437 40.641-19.831 55.937-8.393-16.064-22.131-28.621-38.577-35.656 6.495-7.264 10.454-16.842 10.454-27.33v-7.763c0-22.635-18.414-41.049-41.049-41.049s-41.05 18.414-41.05 41.049v7.763c0 10.488 3.959 20.066 10.454 27.33-16.446 7.035-30.184 19.592-38.577 35.657C27.437 296.642 20 277.175 20 256c0-34.112 19.009-64.703 49.609-79.835 4.95-2.448 6.979-8.446 4.531-13.396-2.447-4.951-8.445-6.979-13.396-4.531a109.297 109.297 0 00-43.861 39.468C5.838 215.126 0 235.284 0 256c0 60.104 48.898 109.002 109.002 109.002 38.277 0 72.004-19.835 91.457-49.762l130.117 68.217C326.333 394.155 324 405.81 324 418c0 51.832 42.168 94 94 94s94-42.168 94-94-42.168-94-94-94zm-43.946-170.506c7.362-17.424 24.619-29.131 43.946-29.131s36.583 11.707 43.946 29.131C449.648 162.602 434.444 168 418 168s-31.648-5.398-43.946-14.506zm27.602-65.474v-6.586c0-9.013 7.332-16.345 16.344-16.345 9.013 0 16.345 7.332 16.345 16.345v6.586c0 9.012-7.332 16.344-16.345 16.344-9.012-.001-16.344-7.333-16.344-16.344zM418 20c40.804 0 74 33.196 74 74 0 16.784-5.626 32.274-15.079 44.703-7.016-12.363-17.76-22.143-30.51-28.056 4.959-6.214 7.934-14.077 7.934-22.627v-6.586c0-20.041-16.304-36.345-36.345-36.345-20.04 0-36.344 16.304-36.344 36.345v6.586c0 8.55 2.975 16.413 7.934 22.627-12.75 5.913-23.495 15.694-30.511 28.057C349.626 126.274 344 110.785 344 94c0-40.804 33.196-74 74-74zM87.953 241.188c0-11.606 9.443-21.049 21.05-21.049s21.049 9.442 21.049 21.049v7.763c0 11.606-9.442 21.05-21.049 21.05s-21.05-9.443-21.05-21.05zm-32.916 85.536c8.633-21.902 29.987-36.723 53.965-36.723 23.979 0 45.333 14.82 53.967 36.722-14.982 11.459-33.691 18.279-53.967 18.279-20.275 0-38.984-6.819-53.965-18.278zm319.017 150.77c7.362-17.424 24.619-29.131 43.946-29.131s36.583 11.707 43.946 29.131C449.648 486.602 434.444 492 418 492s-31.648-5.398-43.946-14.506zm27.602-65.474v-6.586c0-9.013 7.332-16.345 16.344-16.345 9.013 0 16.345 7.332 16.345 16.345v6.586c0 9.012-7.332 16.344-16.345 16.344-9.012-.001-16.344-7.333-16.344-16.344zm75.265 50.683c-7.016-12.363-17.76-22.143-30.51-28.056 4.959-6.214 7.934-14.077 7.934-22.627v-6.586c0-20.041-16.304-36.345-36.345-36.345-20.04 0-36.344 16.304-36.344 36.345v6.586c0 8.55 2.975 16.413 7.934 22.627-12.75 5.913-23.495 15.694-30.511 28.057C349.626 450.274 344 434.785 344 418c0-40.804 33.196-74 74-74s74 33.196 74 74c0 16.784-5.626 32.274-15.079 44.703z"/><path d="M109 167c2.63 0 5.21-1.07 7.069-2.931C117.939 162.21 119 159.63 119 157s-1.061-5.21-2.931-7.07A10.056 10.056 0 00109 147c-2.63 0-5.21 1.069-7.07 2.93S99 154.359 99 157c0 2.63 1.069 5.21 2.93 7.069A10.072 10.072 0 00109 167z"/></g></svg>