<svg version="1.1" id="Layer_1" xmlns="http://www.w3.org/2000/svg" x="0" y="0" viewBox="0 0 56 56" xml:space="preserve"><style>.st5,.st6{fill:none;stroke-linecap:round;stroke-miterlimit:10}.st5{stroke:#4b92db;stroke-width:4}.st6{stroke:#c9c}</style><path d="M13.8 19.2H6.2c-1.9 0-3.4-1.5-3.4-3.4V7.2c0-1.9 1.5-3.4 3.4-3.4h7.7c1.9 0 3.4 1.5 3.4 3.4v8.6c-.1 1.9-1.6 3.4-3.5 3.4z" fill="#4b92db" stroke="#4b92db" stroke-miterlimit="10"/><path class="st5" d="M51.5 51.7V10.1L30.8 35.6 17.2 52.5M29.4 37.5h22.1"/><path class="st6" d="M20 8.3h27.4M20 13.7h22.2M20 19.2h17.3M3.5 24.5h27.4M3.5 29.9h22.1M3.5 35.4h17.2M2.3 44.4h12.3"/></svg>