<svg version="1.1" id="Layer_1" xmlns="http://www.w3.org/2000/svg" x="0" y="0" viewBox="0 0 82.8 61.9" xml:space="preserve"><style>.st2,.st3{stroke:#039;stroke-miterlimit:10}.st2{fill:#039;stroke-width:.25}.st3{fill:azure}</style><path d="M12.3 1h58.2c6.2 0 11.3 7.7 11.3 17.2v25c0 9.5-5.1 17.2-11.3 17.2H12.3C6.1 60.4 1 52.7 1 43.2v-25C1 8.7 6.1 1 12.3 1z" fill="#fff" stroke="#039"/><path class="st2" d="M11.7 32.3c.5-.1.8-.5.9-1.2.1-.4.1-.9.1-1.7 0-1.5-.2-2.6-.7-3.2-.5-.7-1.2-1-2.1-1-1 0-1.8.6-2.2 1.8-.2.7-.4 1.7-.5 3H5.4c0-3.2.5-5.4 1.4-6.6.9-1.2 2-1.9 3.2-1.9 1.4 0 2.5.6 3.4 1.7.9 1.2 1.3 2.9 1.3 5.4v14.8c0 .4 0 .8.1 1.1.1.3.3.4.5.4h.3c.1 0 .2-.1.4-.1V48c-.3.2-.5.3-.7.4-.2 0-.4.1-.7.1-.7 0-1.2-.5-1.5-1.6-.2-.6-.3-1.4-.3-2.4-.4 1.2-1 2.2-1.7 3-.8.8-1.6 1.3-2.5 1.3-1.1 0-2-.7-2.7-2.2s-1-3.3-1-5.4c0-2.4.3-4.2 1-5.5s1.6-2.1 2.7-2.4l3.1-1zM7.5 44c.4.7.9 1.1 1.5 1.1.7 0 1.4-.4 2-1.1 1.1-1.2 1.7-3.1 1.7-5.7v-3.5c-.2.3-.6.6-.9.8-.4.2-.8.4-1.1.5l-1.2.3c-.7.2-1.3.5-1.6 1-.6.8-.9 2-.9 3.6-.1 1.3.1 2.3.5 3zM17.8 12.4h1.9v12.8c.4-1.2 1-2.2 1.6-2.8.6-.6 1.3-1 2-1 1.5 0 2.7 1.1 3.6 3.3.9 2.2 1.4 5.5 1.4 9.7 0 4.1-.5 7.5-1.4 10.1-.9 2.7-2.2 4-3.8 4-.9 0-1.7-.5-2.3-1.4-.4-.6-.8-1.5-1.2-2.7v3.3h-1.8V12.4zm7.6 29.7c.5-1.9.8-4.3.8-7.4 0-2.7-.3-5-.8-6.7-.5-1.8-1.3-2.7-2.4-2.7-.9 0-1.7.7-2.4 2.2-.7 1.5-1 3.9-1 7.2 0 2.4.1 4.4.4 5.9.5 2.8 1.5 4.3 2.9 4.3 1.1 0 1.9-1 2.5-2.8zM38.3 23.5c.8 1.4 1.3 3.8 1.5 7.3h-1.9c-.1-1.6-.4-2.9-.8-4-.4-1-1.1-1.6-2-1.6-1.3 0-2.2 1.3-2.7 4-.4 1.7-.5 3.9-.5 6.5s.2 4.7.8 6.5c.5 1.8 1.3 2.6 2.4 2.6.8 0 1.5-.5 2-1.6s.8-2.6 1-4.5H40c-.2 3.4-.8 5.9-1.7 7.5-.9 1.6-2 2.4-3.4 2.4-1.5 0-2.8-1.2-3.7-3.7-.9-2.5-1.4-5.5-1.4-9.2 0-4.5.5-8 1.5-10.6 1-2.5 2.3-3.8 3.9-3.8 1.2.1 2.3.8 3.1 2.2z" transform="translate(-.5 -.5)"/><g><path class="st3" d="M46.9 16.9c0-11.6 28.5-11.6 28.5 0v26.2c0 11.6-28.5 11.6-28.5 0V16.9zM46.9 16.9c0 8.7 28.5 8.7 28.5 0"/></g></svg>