<?xml version="1.0" encoding="utf-8"?>
<!-- Generator: Adobe Illustrator 24.0.1, SVG Export Plug-In . SVG Version: 6.00 Build 0)  -->
<svg version="1.1" id="Layer_1" xmlns="http://www.w3.org/2000/svg" xmlns:xlink="http://www.w3.org/1999/xlink" x="0px" y="0px"
	 viewBox="0 0 46 46" style="enable-background:new 0 0 46 46;" xml:space="preserve">
<style type="text/css">
	.st0{fill:#003399;stroke:#003399;stroke-width:0.25;stroke-miterlimit:10;}
</style>
<g>
	<path class="st0" d="M8.3,28.8c0,1.1,0,1.8,0.1,2.4H7c0.1-0.6,0.1-1.3,0.1-2.4v-5.7c0-0.9,0-2.1,0.1-3.3c-0.6,2.8-1.3,4.6-2.6,6.5
		c-0.3-0.5-0.4-0.8-0.8-1.2c0.9-1.2,1.7-2.7,2.3-4.5c0.2-0.7,0.6-2.2,0.8-2.9h-1c-0.6,0-1.1,0-1.6,0.1v-1.3c0.5,0.1,0.9,0.1,1.6,0.1
		h1.2v-1.9c0-0.9,0-1.5-0.1-2.1h1.4c-0.1,0.6-0.1,1.2-0.1,2.1v1.9h1.1c0.5,0,0.9,0,1.3-0.1v1.3c-0.4-0.1-0.8-0.1-1.3-0.1H8.3v1.1
		c1.2,1.4,1.7,2.1,2.5,3.3l-0.9,0.8C9.4,22,9,21.2,8.3,20.2V28.8z M13.8,22.1c-0.7,2.9-1.5,4.5-3,6.8c-0.2-0.4-0.5-0.6-0.9-1
		c1.5-1.8,2.1-3.1,2.8-6.2L13.8,22.1z M12.6,19.8c-0.8,0-1.2,0-1.8,0.1v-1.5c0.5,0.1,0.9,0.1,1.8,0.1H20c0.8,0,1.3,0,1.8-0.1v1.5
		c-0.6-0.1-1.1-0.1-1.8-0.1h-3.2v9.1c0,0.9,0,0.9-0.1,1.2c-0.2,0.5-0.7,0.7-1.8,0.7c-0.4,0-0.8,0-1.6-0.1c-0.1-0.5-0.1-0.8-0.4-1.3
		c1,0.1,1.4,0.2,2.1,0.2c0.5,0,0.6-0.1,0.6-0.5v-9.2H12.6z M11.8,13.6c0.5,0.1,0.8,0.1,1.5,0.1h5.8c0.7,0,1,0,1.5-0.1v1.4
		C20.1,15,19.7,15,19.1,15h-5.9c-0.6,0-1.1,0-1.5,0.1V13.6z M20.9,28.7c-1-3.3-1.5-4.7-2.6-6.6l1.1-0.4c0.8,1.3,1.9,4.2,2.6,6.3
		L20.9,28.7z"/>
	<path class="st0" d="M27.8,22.3h-2.3c-1,0-1.4,0-1.9,0.1v-1.3c0.6,0.1,1.1,0.1,1.9,0.1h5.1c0.7,0,1.1,0,1.7-0.1v1.3
		c-0.6-0.1-1-0.1-1.8-0.1h-1.6v2.2h1.3c0.7,0,1,0,1.5-0.1v1.3c-0.5-0.1-0.9-0.1-1.6-0.1h-1.3v3c1.2,0.6,3.1,0.8,6.9,0.8
		c2.4,0,4.1-0.1,5.8-0.3c-0.3,0.5-0.3,0.8-0.4,1.4c-1.2,0.1-2.8,0.1-4.7,0.1c-3.8,0-6.1-0.2-7.4-0.7c-1.4-0.5-2.4-1.3-3.4-2.7
		c-0.4,1.6-0.8,2.4-1.5,3.5c-0.3-0.3-0.5-0.5-1-0.8c0.8-1.1,1.2-2,1.5-3.1c0.2-0.8,0.4-2.2,0.4-3.1c0-0.2,0-0.3,0-0.5l1.2,0.2
		c0,0.3,0,0.4-0.1,0.7c-0.1,0.6-0.1,0.9-0.2,1.8c0.5,0.8,1,1.4,1.9,2.1V22.3z M26.6,20c-0.9,0-1.3,0-1.8,0.1c0.1-0.5,0.1-1,0.1-1.8
		v-3.1c0-0.8,0-1.3-0.1-1.8c0.5,0.1,0.9,0.1,1.8,0.1h3.1c0.9,0,1.2,0,1.8-0.1c-0.1,0.6-0.1,1-0.1,1.9v3.1c0,0.8,0,1.2,0.1,1.8
		C30.9,20,30.5,20,29.6,20H26.6z M26,16.2h4.3v-1.7H26V16.2z M26,19h4.3v-1.8H26V19z M37.3,18.1c-0.1,0.4-0.1,0.4-0.1,2.7
		c0,2.7-0.3,4.1-1,5.1c-0.9,1.3-2,2.2-4,3.1c-0.3-0.5-0.4-0.7-0.8-1c1.1-0.4,1.7-0.8,2.4-1.3c1.2-0.9,1.7-1.7,2-2.8
		c0.1-0.6,0.2-2.1,0.2-3.3c0-1.2,0-2.2-0.1-2.5H37.3z M34.3,25.6h-1.2c0.1-0.5,0.1-0.9,0.1-1.8v-5.5c0-0.8,0-1.2-0.1-1.8
		c0.6,0,0.9,0.1,1.7,0.1h0.6c0.3-0.8,0.4-1.3,0.6-1.9h-1.7c-0.8,0-1.4,0-1.9,0.1v-1.3c0.7,0.1,1.2,0.1,2,0.1h4.8
		c0.8,0,1.3,0,1.9-0.1v1.3c-0.6-0.1-1.2-0.1-1.8-0.1h-2.1c-0.2,0.7-0.3,1.2-0.6,1.9h1.9c0.8,0,1.1,0,1.7-0.1c-0.1,0.5-0.1,1-0.1,1.8
		v5.4c0,0.9,0,1.4,0.1,2H39v-8.1h-4.7V25.6z M37.5,25.4c1.5,0.9,2.7,1.8,3.7,2.5L40.6,29c-1.4-1.2-1.9-1.5-3.6-2.7L37.5,25.4z"/>
</g>
</svg>
