<svg id="Capa_1" enable-background="new 0 0 512 512" height="512" viewBox="0 0 512 512" width="512" xmlns="http://www.w3.org/2000/svg"><path d="m457 41.208h-402c-30.327 0-55 24.673-55 55v160c0 30.327 24.673 55 55 55h402c30.327 0 55-24.673 55-55v-160c0-30.328-24.673-55-55-55z" fill="#ffda2d"/><path d="m512 96.209v160c0 30.33-24.67 55-55 55h-208.5v-270h208.5c30.33 0 55 24.67 55 55z" fill="#fdbf00"/><path d="m121 101.208h-45c-8.284 0-15 6.716-15 15v120c0 8.284 6.716 15 15 15h45c24.813 0 45-20.187 45-45 0-11.515-4.347-22.033-11.486-30 7.139-7.967 11.486-18.485 11.486-30 0-24.814-20.187-45-45-45zm0 120h-30v-30h30c8.271 0 15 6.729 15 15s-6.729 15-15 15zm0-60h-30v-30h30c8.271 0 15 6.729 15 15s-6.729 15-15 15z" fill="#ff641a"/><path d="m286 101.208c-8.284 0-15 6.716-15 15v82.5c0 12.406-10.093 22.5-22.5 22.5s-22.5-10.094-22.5-22.5v-82.5c0-8.284-6.716-15-15-15s-15 6.716-15 15v82.5c0 28.948 23.551 52.5 52.5 52.5s52.5-23.552 52.5-52.5v-82.5c0-8.285-6.716-15-15-15z" fill="#ff641a"/><path d="m301 116.209v82.5c0 28.95-23.55 52.5-52.5 52.5v-30c12.41 0 22.5-10.1 22.5-22.5v-82.5c0-8.29 6.72-15 15-15s15 6.71 15 15z" fill="#f03800"/><path d="m443.717 103.345c-7.103-4.263-16.316-1.96-20.58 5.145l-32.137 53.563-32.138-53.563c-4.262-7.104-13.478-9.406-20.58-5.145-7.104 4.262-9.407 13.476-5.145 20.58l42.863 71.438v40.845c0 8.284 6.716 15 15 15s15-6.716 15-15v-40.845l42.862-71.437c4.263-7.105 1.959-16.319-5.145-20.581z" fill="#f03800"/><path d="m333.909 375.476 21.392-17.922c8.312-6.963 6.701-20.208-3.042-24.973l-163.213-79.823c-11.471-5.61-24.294 4.829-21.12 17.203l45.755 178.296c2.74 10.676 15.709 14.85 24.162 7.77l21.344-17.881 22.736 27.255c5.306 6.361 14.79 7.228 21.161 1.882l51.726-43.404c6.333-5.314 7.172-14.751 1.876-21.099z" fill="#0097f0"/><path d="m356.69 402.779c5.29 6.35 4.45 15.79-1.88 21.1l-21.69 18.2-159.86-187.66c4.22-3.31 10.16-4.41 15.78-1.66l163.22 79.82c9.74 4.77 11.35 18.01 3.04 24.98l-21.39 17.92z" fill="#0052c2"/></svg>