<?xml version="1.0" encoding="utf-8"?>
<!-- Generator: Adobe Illustrator 24.0.1, SVG Export Plug-In . SVG Version: 6.00 Build 0)  -->
<svg version="1.1" id="Layer_1" xmlns="http://www.w3.org/2000/svg" xmlns:xlink="http://www.w3.org/1999/xlink" x="0px" y="0px"
	 viewBox="0 0 56 56" style="enable-background:new 0 0 56 56;" xml:space="preserve">
<style type="text/css">
	.st0{display:none;}
	.st1{display:inline;}
	.st2{fill:none;stroke:#000000;stroke-width:5;stroke-miterlimit:10;}
	.st3{fill:#F0FFFF;stroke:#4B92DB;stroke-miterlimit:10;}
	.st4{fill:#4B92DB;stroke:#FFFFFF;stroke-miterlimit:10;}
</style>
<g id="Layer_1_1_" class="st0">
	<g class="st1">
		<path pointer-events="none" class="st2" d="M2.5,52.5l50-50"/>
	</g>
</g>
<path class="st3" d="M19,32.3L6.3,32.2c-1.4,0-2.5-1.1-2.4-2.5l0.1-8.1c0-1.4,1.1-2.5,2.5-2.4l12.7,0.1c1.4,0,2.5,1.1,2.4,2.5
	l-0.1,8.1C21.5,31.3,20.4,32.4,19,32.3z"/>
<path class="st3" d="M49.6,32.7l-12.7-0.1c-1.4,0-2.5-1.1-2.4-2.5l0.1-8.1c0-1.4,1.1-2.5,2.5-2.4l12.7,0.1c1.4,0,2.5,1.1,2.4,2.5
	l-0.1,8.1C52,31.6,50.9,32.8,49.6,32.7z"/>
<path class="st4" d="M38.4,28.2L17.3,28c-1,0-1.7-0.7-1.7-1.7l0-0.8c0-1,0.7-1.7,1.7-1.7L38.4,24c1,0,1.7,0.7,1.7,1.7l0,0.8
	C40,27.5,39.2,28.2,38.4,28.2z"/>
</svg>
