<?xml version="1.0" encoding="UTF-8"?>
<svg fill="#000000" preserveAspectRatio="none" version="1.1" viewBox="0 0 64 64" xmlns="http://www.w3.org/2000/svg"><path d="m48.098 3.8281c-1.332 0-2.5898 0.52344-3.5352 1.4688l-3.5312 3.5312c-0.78125-0.77734-2.0508-0.77734-2.8281 0l-5.6562 5.6562c-0.78125 0.78125-0.78125 2.0508 0 2.8281l0.046875 0.050781-1.5469 1.543-14.188-14.188c-1.1367-1.1367-3.1094-1.1367-4.2461 0l-9.8945 9.8945c-1.1719 1.1719-1.1719 3.0742 0 4.2461l14.176 14.176-11.375 11.363c-0.50391 0.50391-0.8125 1.1719-0.87109 1.8828l-0.67578 8.3945-0.70312 4.9219c-0.046875 0.3125 0.058594 0.625 0.28516 0.85156 0.1875 0.1875 0.44141 0.28906 0.70312 0.28906 0.050781 0 0.097656 0 0.14453-0.007812l4.9258-0.70312 8.4375-0.62109c0.71875-0.054687 1.3906-0.35938 1.8984-0.87109l11.375-11.352 14.105 14.102c0.58594 0.58594 1.3516 0.875 2.1211 0.875s1.5352-0.28906 2.1211-0.875l9.8984-9.8984c1.1719-1.1719 1.1719-3.0742 0-4.2461l-14.094-14.094 1.5469-1.5469c0.37109 0.34766 0.85156 0.54297 1.3594 0.54297 0.53516 0 1.0391-0.21094 1.418-0.58984l5.6562-5.6562c0.78125-0.77734 0.78125-2.0469 0-2.8281l3.5352-3.5312c0.94531-0.94531 1.4648-2.1992 1.4648-3.5352 0-1.3398-0.51953-2.5938-1.4648-3.5391l-7.0703-7.0664c-0.94531-0.94531-2.1992-1.4688-3.5391-1.4688zm-33.363 2.0156c0.26172 0 0.51953 0.097656 0.70703 0.28906l0.71094 0.70312-2.1211 2.1211c-0.39453 0.39062-0.39453 1.0234 0 1.4141 0.19141 0.19531 0.44922 0.29297 0.70312 0.29297 0.25781 0 0.51562-0.097657 0.70703-0.29297l2.1211-2.1211 2.125 2.1211-3.5352 3.5352c-0.39453 0.39453-0.39453 1.0234 0 1.418 0.19141 0.19141 0.44922 0.28906 0.70703 0.28906 0.25391 0 0.51172-0.097656 0.70312-0.28906l3.5352-3.5391 2.125 2.1211-2.1211 2.125c-0.39062 0.39062-0.39062 1.0195 0 1.4102 0.19531 0.19531 0.44922 0.29297 0.70703 0.29297 0.25781 0 0.51172-0.097656 0.70703-0.29297l2.1211-2.1172 2.1211 2.1172-3.5352 3.5391c-0.39062 0.39062-0.39062 1.0195 0 1.4102 0.19531 0.19531 0.44922 0.29688 0.70703 0.29688 0.25781 0 0.51172-0.10156 0.70703-0.29688l3.5352-3.5312 1.4609 1.457-11.32 11.309-14.18-14.184c-0.39062-0.38672-0.39062-1.0234 0-1.4102l9.8984-9.8984c0.1875-0.19141 0.44531-0.28906 0.70312-0.28906zm33.363 0.015625c0.77734 0 1.5586 0.28125 2.125 0.84766l7.0703 7.0703c0.56641 0.56641 0.87891 1.3203 0.87891 2.1211 0 0.80078-0.3125 1.5547-0.87891 2.1211l-3.5352 3.5391-11.316-11.316 3.5391-3.5352c0.56641-0.56641 1.3438-0.85156 2.1172-0.84766zm-8.4844 4.3828 7.0742 7.0703 6.3633 6.3633 0.70703 0.71094-1.4141 1.4102c-0.39062-0.39062-1.0234-0.39062-1.4141 0l-1.4141 1.418c-0.39062 0.39062-0.39062 1.0195 0 1.4102l-1.4102 1.418h-0.003906l-14.145-14.145 1.4141-1.4141c0.19531 0.19531 0.44922 0.29297 0.70703 0.29297 0.25781 0 0.51172-0.097656 0.70703-0.29297l1.418-1.4141c0.39062-0.39062 0.39062-1.0234 0-1.4141zm1.418 4.6562c-0.25781 0-0.51172 0.097656-0.70703 0.29297l-1.418 1.4141c-0.39062 0.39062-0.39062 1.0234 0 1.4141 0.19531 0.19531 0.45312 0.29297 0.70703 0.29297 0.25781 0 0.51562-0.097656 0.71094-0.29297l1.4102-1.4141c0.39453-0.39062 0.39453-1.0234 0-1.4141-0.19531-0.19531-0.44922-0.29297-0.70312-0.29297zm3.5312 3.5391c-0.25391 0-0.50781 0.09375-0.70312 0.29297l-1.418 1.4102c-0.38672 0.39453-0.38672 1.0273 0 1.418 0.19531 0.19141 0.45312 0.28906 0.71094 0.28906 0.25391 0 0.50781-0.097656 0.70703-0.28906l1.4102-1.418c0.39062-0.39062 0.39062-1.0234 0-1.4102-0.19531-0.19922-0.44922-0.29297-0.70703-0.29297zm-10.551 0.33984 11.312 11.316-26.297 26.254-0.95312-4.7656 16.59-16.594c0.39062-0.39062 0.39062-1.0195 0-1.4102-0.39062-0.39453-1.0195-0.39453-1.4141 0l-16.594 16.594-2.3555-0.47266-0.47266-2.3594 13.766-13.762c0.39062-0.39453 0.39062-1.0234 0-1.418-0.39062-0.39062-1.0234-0.39062-1.4141 0l-13.762 13.766-4.6641-0.92969zm14.09 3.1914c-0.25391 0-0.51172 0.097656-0.70703 0.29688l-1.4141 1.4102c-0.39062 0.39453-0.39062 1.0234 0 1.418 0.19531 0.19141 0.44922 0.29297 0.70703 0.29297 0.25781 0 0.51172-0.10156 0.70703-0.29297l1.4141-1.418c0.39062-0.39062 0.39062-1.0234 0-1.4102-0.19531-0.19922-0.45312-0.29688-0.70703-0.29688zm-15.559 4.2461c-0.25781 0-0.51172 0.09375-0.70312 0.28906l-2.8281 2.832c-0.39453 0.39062-0.39453 1.0195 0 1.4141 0.19141 0.19141 0.44922 0.29297 0.70703 0.29297 0.25391 0 0.51172-0.10156 0.70312-0.29297l2.8281-2.8281c0.39453-0.39453 0.39453-1.0234 0-1.418-0.19531-0.19531-0.44922-0.28906-0.70703-0.28906zm11.234 8.25 0.66016 0.65625-2.125 2.1211c-0.39062 0.39062-0.39062 1.0234 0 1.4141 0.19531 0.19531 0.45312 0.29297 0.70703 0.29297 0.25781 0 0.51562-0.097656 0.71094-0.29297l2.1172-2.1211 2.125 2.1211-3.5352 3.5352c-0.39453 0.39453-0.39453 1.0234 0 1.418 0.19141 0.19141 0.44922 0.29297 0.70312 0.29297 0.25781 0 0.51562-0.10156 0.70703-0.29297l3.5391-3.5352 2.1211 2.1172-2.1211 2.1211c-0.39453 0.39453-0.39453 1.0234 0 1.418 0.19141 0.19141 0.44922 0.28906 0.70703 0.28906 0.25391 0 0.51172-0.097656 0.70312-0.28906l2.125-2.1211 2.1211 2.1211-3.5391 3.5352c-0.39062 0.39062-0.39062 1.0195 0 1.4102 0.19531 0.19531 0.45312 0.29297 0.71094 0.29297 0.25391 0 0.51172-0.097656 0.70703-0.29297l3.5312-3.5352 1.418 1.418c0.38672 0.38672 0.38672 1.0195 0 1.4102l-9.9023 9.9023c-0.375 0.375-1.0352 0.375-1.4102 0l-14.105-14.105zm-37.168 12.34 5.2852 1.0547 0.57422 2.8867c0.082031 0.39453 0.39062 0.70312 0.78516 0.78125l2.8828 0.57812 1.0664 5.3359-7.6094 0.55859-3.5938-3.5898z"/></svg>
