<?xml version="1.0" encoding="utf-8"?>
<!-- Generator: Adobe Illustrator 24.0.1, SVG Export Plug-In . SVG Version: 6.00 Build 0)  -->
<svg version="1.1" id="Layer_1" xmlns="http://www.w3.org/2000/svg" xmlns:xlink="http://www.w3.org/1999/xlink" x="0px" y="0px"
	 viewBox="0 0 56 56" style="enable-background:new 0 0 56 56;" xml:space="preserve">
<style type="text/css">
	.st0{fill:#CCFFFF;stroke:#4B92DB;stroke-width:0.9596;stroke-miterlimit:10;}
	.st1{display:none;}
	.st2{display:inline;}
	.st3{fill:none;stroke:#000000;stroke-width:5;stroke-miterlimit:10;}
	.st4{fill:none;stroke:#000000;stroke-miterlimit:10;}
	.st5{fill:#FFFFFF;stroke:#4B92DB;stroke-miterlimit:10;}
	.st6{fill:#00D5F4;stroke:#4B92DB;stroke-miterlimit:10;}
	.st7{fill:#00D5F4;}
	.st8{fill:#FFFFFF;stroke:#4B92DB;stroke-width:1.0015;stroke-miterlimit:10;}
	.st9{fill:none;stroke:#4B92DB;stroke-miterlimit:10;}
	.st10{fill:#FFFFFF;}
	.st11{fill:#003399;stroke:#003399;stroke-width:1.1069;stroke-miterlimit:10;}
</style>
<rect x="3.4" y="9.4" class="st0" width="50.2" height="35.9"/>
<g id="Layer_1_1_" class="st1">
	<g class="st2">
		<path pointer-events="none" class="st3" d="M2.5,52.5l50-50"/>
	</g>
</g>
<path class="st4" d="M36.8,29.7"/>
<path class="st5" d="M-9,51.9"/>
<path class="st6" d="M3.4,40.3"/>
<path class="st7" d="M40.7,16.7"/>
<path class="st7" d="M51.8,41.7"/>
<path class="st7" d="M3.6,32.6"/>
<path class="st7" d="M52.3,41.7"/>
<path class="st8" d="M27,45.1c0,0-0.6-13.9,6.7-16c0.3-0.1-10.8-8.8-10.8-8.8C9.2,23.6,9.2,45.1,9.2,45.1C26.5,45.1,27,45.1,27,45.1
	z"/>
<path class="st9" d="M31.8,45.3"/>
<path class="st9" d="M14.1,30.3"/>
<rect x="9.7" y="44.4" class="st10" width="16.7" height="1.5"/>
<path class="st11" d="M31.8,30.8L21.4,18.9c-0.2-0.1-0.1-0.4,0.2-0.6l8.2-6.3c0.2-0.2,0.6-0.2,0.8,0l10.3,11.9
	c0.2,0.1,0.1,0.4-0.2,0.6l-8.2,6.3C32.2,30.9,31.9,30.9,31.8,30.8z"/>
</svg>
