<?xml version="1.0" encoding="utf-8"?>
<!-- Generator: Adobe Illustrator 24.0.1, SVG Export Plug-In . SVG Version: 6.00 Build 0)  -->
<svg version="1.1" id="Layer_1" xmlns="http://www.w3.org/2000/svg" xmlns:xlink="http://www.w3.org/1999/xlink" x="0px" y="0px"
	 viewBox="0 0 160 162" style="enable-background:new 0 0 160 162;" xml:space="preserve">
<style type="text/css">
	.st0{fill:#4B92DB;}
	.st1{fill:#FFFFFF;stroke:#007FFF;stroke-width:4.5424;stroke-miterlimit:10;}
	.st2{fill:#FFFFFF;stroke:#007FFF;stroke-width:3.7853;stroke-miterlimit:10;}
	.st3{fill:#FFFFFF;stroke:#007FFF;stroke-width:0.75;stroke-miterlimit:10.0001;}
	.st4{fill:#007FFF;stroke:#007FFF;stroke-width:0.5;stroke-miterlimit:9.9998;}
</style>
<g>
	<g>
		<path class="st0" d="M134.9,102.1l-9.1-31.9c-0.4-1.3-1.7-2.1-3.1-1.7l-1.4,0.4c-1.3,0.4-2.1,1.7-1.7,3.1l9.1,31.9
			c0.4,1.3,1.7,2.1,3.1,1.7l1.4-0.4C134.5,104.7,135.3,103.4,134.9,102.1z"/>
		<path class="st0" d="M81.7,71.9l-9.1,31.9c-0.4,1.3-1.7,2.1-3.1,1.7l-1.4-0.4c-1.3-0.4-2.1-1.7-1.7-3.1l9.1-31.9
			c0.4-1.3,1.7-2.1,3.1-1.7l1.4,0.4C81.3,69.1,82.1,70.5,81.7,71.9z"/>
	</g>
	<path class="st1" d="M141.6,83.2H56.8c-2.4,0-4.5-2-4.5-4.5V25.4c0-2.4,2-4.5,4.5-4.5h84.8c2.4,0,4.5,2,4.5,4.5v53.4
		C146,81.2,144.1,83.2,141.6,83.2z"/>
	<path class="st2" d="M147.7,85.2H49.1c-1.8,0-3.3-1.5-3.3-3.3V78c0-1.8,1.5-3.3,3.3-3.3h98.6c1.8,0,3.3,1.5,3.3,3.3v3.9
		C151,83.7,149.5,85.2,147.7,85.2z"/>
</g>
<g>
	<g>
		<path class="st0" d="M98.3,143l-9.1-31.9c-0.4-1.3-1.7-2.1-3.1-1.7l-1.4,0.4c-1.3,0.4-2.1,1.7-1.7,3.1l9.1,31.9
			c0.4,1.3,1.7,2.1,3.1,1.7l1.4-0.4C97.9,145.7,98.7,144.3,98.3,143z"/>
		<path class="st0" d="M45.1,112.8l-9.1,32c-0.4,1.3-1.7,2.1-3.1,1.7l-1.4-0.4c-1.3-0.4-2.1-1.7-1.7-3.1l9.1-31.9
			c0.4-1.3,1.7-2.1,3.1-1.7l1.4,0.4C44.7,110.1,45.5,111.5,45.1,112.8z"/>
	</g>
	<path class="st1" d="M105,124.2H20.3c-2.4,0-4.5-2-4.5-4.5V66.4c0-2.4,2-4.5,4.5-4.5H105c2.4,0,4.5,2,4.5,4.5v53.4
		C109.4,122.2,107.5,124.2,105,124.2z"/>
	<path class="st2" d="M111.1,126.2H12.5c-1.8,0-3.3-1.5-3.3-3.3V119c0-1.8,1.5-3.3,3.3-3.3h98.6c1.8,0,3.3,1.5,3.3,3.3v3.9
		C114.4,124.7,112.9,126.2,111.1,126.2z"/>
</g>
<rect x="60.1" y="69.5" transform="matrix(0.6602 -0.7511 0.7511 0.6602 -21.714 92.5257)" class="st3" width="62.7" height="1.5"/>
<rect x="104.4" y="43.5" transform="matrix(0.9974 -7.176073e-02 7.176073e-02 0.9974 -2.8993 8.0007)" class="st4" width="11" height="1.7"/>
<rect x="114.2" y="43.2" transform="matrix(0.9974 -7.176073e-02 7.176073e-02 0.9974 -3.1994 8.38)" class="st4" width="1.7" height="11"/>
</svg>
