<?xml version="1.0" encoding="utf-8"?>
<!-- Generator: Adobe Illustrator 24.0.1, SVG Export Plug-In . SVG Version: 6.00 Build 0)  -->
<svg version="1.1" id="Layer_1" xmlns="http://www.w3.org/2000/svg" xmlns:xlink="http://www.w3.org/1999/xlink" x="0px" y="0px"
	 viewBox="0 0 56 56" style="enable-background:new 0 0 56 56;" xml:space="preserve">
<style type="text/css">
	.st0{display:none;}
	.st1{display:inline;}
	.st2{fill:none;stroke:#000000;stroke-width:5;stroke-miterlimit:10;}
	.st3{fill:none;stroke:#000000;stroke-miterlimit:10;}
	.st4{fill:#4B92DB;stroke:#4B92DB;stroke-miterlimit:10;}
	.st5{fill:none;stroke:#4B92DB;stroke-width:4;stroke-linecap:round;stroke-miterlimit:10;}
	.st6{fill:none;stroke:#CC99CC;stroke-linecap:round;stroke-miterlimit:10;}
</style>
<g id="Layer_1_1_" class="st0">
	<g class="st1">
		<path pointer-events="none" class="st2" d="M2.5,52.5l50-50"/>
	</g>
</g>
<path class="st3" d="M29.9,22.4"/>
<path class="st4" d="M13.8,19.2H6.2c-1.9,0-3.4-1.5-3.4-3.4V7.2c0-1.9,1.5-3.4,3.4-3.4h7.7c1.9,0,3.4,1.5,3.4,3.4v8.6
	C17.2,17.7,15.7,19.2,13.8,19.2z"/>
<polyline class="st5" points="51.5,51.7 51.5,10.1 30.8,35.6 17.2,52.5 "/>
<line class="st5" x1="29.4" y1="37.5" x2="51.5" y2="37.5"/>
<line class="st6" x1="20" y1="8.3" x2="47.4" y2="8.3"/>
<line class="st6" x1="20" y1="13.7" x2="42.2" y2="13.7"/>
<line class="st6" x1="20" y1="19.2" x2="37.3" y2="19.2"/>
<line class="st6" x1="3.5" y1="24.5" x2="30.9" y2="24.5"/>
<line class="st6" x1="3.5" y1="29.9" x2="25.6" y2="29.9"/>
<line class="st6" x1="3.5" y1="35.4" x2="20.7" y2="35.4"/>
<line class="st6" x1="2.3" y1="44.4" x2="14.6" y2="44.4"/>
</svg>
