<?xml version="1.0" encoding="UTF-8"?>
<svg id="Filled" width="512" height="512" version="1.1" viewBox="0 0 512 512" xmlns="http://www.w3.org/2000/svg"><path d="m72 440c0-131.44 82.38-224 184-224s184 92.556 184 224c0 0-80 48-184 48-96 0-184-48-184-48z" fill="#f7d1b2"/><circle cx="256" cy="120" r="96" fill="#f7d1b2"/><path d="m68.169 447.02c3.666 2 90.906 48.977 187.83 48.977 105.01 0 184.77-47.134 188.12-49.14a8 8 0 0 0 3.884-6.86c0-64.593-19.807-123.7-55.771-166.44-25.158-29.9-56.724-50.28-91.539-59.662a104 104 0 1 0-89.38 0c-34.815 9.382-66.381 29.765-91.539 59.662-35.964 42.742-55.771 101.85-55.771 166.44a8 8 0 0 0 4.169 7.023zm99.831-327.02a88 88 0 1 1 88 88 88.1 88.1 0 0 1-88-88zm-35.987 163.86c32.487-38.601 76.515-59.859 123.99-59.859s91.5 21.258 123.99 59.859c32.681 38.838 51.056 92.48 51.977 151.47-17.119 9.267-88.256 44.667-175.96 44.667-81.11 0-157.5-35.609-175.96-44.856 0.96-58.921 19.327-112.49 51.973-151.28z"/><text x="204.95238" y="184.38095" fill="#000000" font-family="sans-serif" font-size="192px" style="line-height:1.25" xml:space="preserve"><tspan x="204.95238" y="184.38095" font-family="monospace">?</tspan></text></svg>
