<svg fill="#000000" xmlns="http://www.w3.org/2000/svg" viewBox="0 0 50 50" width="150px" height="150px"><path d="M 19.822266 4.4960938 A 1.0001 1.0001 0 0 0 18.90625 5.25 L 18.388672 7.1816406 A 1.0001 1.0001 0 1 0 20.320312 7.6992188 L 20.837891 5.765625 A 1.0001 1.0001 0 0 0 19.822266 4.4960938 z M 12.125 4.5 A 1.0001 1.0001 0 0 0 11.140625 5.7734375 L 11.660156 7.7050781 A 1.0001437 1.0001437 0 1 0 13.591797 7.1855469 L 13.072266 5.2539062 A 1.0001 1.0001 0 0 0 12.125 4.5 z M 26.578125 8.3769531 A 1.0001 1.0001 0 0 0 25.890625 8.6796875 L 24.478516 10.09375 A 1.0005836 1.0005836 0 1 0 25.894531 11.507812 L 27.306641 10.091797 A 1.0001 1.0001 0 0 0 26.578125 8.3769531 z M 5.375 8.390625 A 1.0001 1.0001 0 0 0 4.6796875 10.109375 L 6.09375 11.521484 A 1.0005837 1.0005837 0 0 0 7.5078125 10.105469 L 6.0917969 8.6933594 A 1.0001 1.0001 0 0 0 5.375 8.390625 z M 15.691406 10.003906 C 10.342563 10.16552 6 14.686569 6 20.033203 C 6 22.852251 7.4105618 25.054268 8.6855469 26.841797 C 9.960532 28.629326 11 30.072146 11 31.052734 L 11 33.462891 C 10.696608 34.187616 10.132707 34.746646 9.2363281 35.279297 C 8.3062066 35.831998 7.0931966 36.32393 5.8417969 36.923828 C 3.3389974 38.123624 0.56609847 39.965045 0.009765625 43.859375 A 1.0001 1.0001 0 0 0 1 45 L 13.986328 45 L 14 45 L 18 45 L 31 45 L 49 45 A 1.0001 1.0001 0 0 0 49.998047 43.925781 C 49.883417 42.378278 49.297962 41.157491 48.490234 40.265625 C 47.682506 39.373759 46.693108 38.797427 45.751953 38.320312 C 44.810798 37.843199 43.905875 37.455187 43.228516 37.033203 C 42.582938 36.631019 42.20853 36.231025 42 35.722656 L 42 35 L 42 34 C 42 32.944444 42.740619 32.175788 43.78125 30.875 C 44.821881 29.574212 46 27.766667 46 25 C 46 20.593562 42.406438 17 38 17 C 33.593562 17 30 20.593562 30 25 C 30 27.751938 31.181677 29.547565 32.220703 30.84375 C 33.259729 32.139935 34 32.910229 34 34 L 34 35 L 34 35.742188 C 33.720335 36.400922 33.099734 36.891336 32.115234 37.404297 C 31.274454 37.842375 30.245837 38.271165 29.248047 38.880859 C 28.289219 38.052269 27.204198 37.425259 26.158203 36.923828 C 24.906803 36.32393 23.693793 35.831998 22.763672 35.279297 C 21.867293 34.746646 21.303392 34.187616 21 33.462891 L 21 31 C 21 30.055556 22.038271 28.618686 23.314453 26.832031 C 24.590635 25.045377 26 22.833333 26 20 C 26 14.386602 21.339395 9.8344006 15.691406 10.003906 z M 34.689453 11.419922 A 1.0001 1.0001 0 0 0 33.701172 12.691406 L 34.214844 14.623047 A 1.0001 1.0001 0 1 0 36.148438 14.111328 L 35.634766 12.177734 A 1.0001 1.0001 0 0 0 34.689453 11.419922 z M 41.349609 11.439453 A 1.0001 1.0001 0 0 0 40.431641 12.191406 L 39.910156 14.121094 A 1.0001 1.0001 0 1 0 41.839844 14.642578 L 42.363281 12.712891 A 1.0001 1.0001 0 0 0 41.349609 11.439453 z M 15.751953 12.003906 C 20.299961 11.867412 24 15.487398 24 20 C 24 22.166667 22.909365 23.954623 21.685547 25.667969 C 20.667342 27.093455 19.498796 28.419208 19.132812 30.007812 A 1.0001 1.0001 0 0 0 19 30 L 13 30 A 1.0001 1.0001 0 0 0 12.857422 30.009766 C 12.480814 28.42544 11.324685 27.096032 10.314453 25.679688 C 9.0894384 23.962217 8 22.181155 8 20.033203 C 8 15.775837 11.502796 12.132293 15.751953 12.003906 z M 28.824219 14.773438 A 1.0001 1.0001 0 0 0 28.123047 16.488281 L 29.533203 17.90625 A 1.0001 1.0001 0 1 0 30.951172 16.496094 L 29.541016 15.078125 A 1.0001 1.0001 0 0 0 28.824219 14.773438 z M 47.199219 14.822266 A 1.0001 1.0001 0 0 0 46.511719 15.123047 L 45.09375 16.533203 A 1.0001 1.0001 0 1 0 46.503906 17.951172 L 47.921875 16.541016 A 1.0001 1.0001 0 0 0 47.199219 14.822266 z M 38 19 C 41.325562 19 44 21.674438 44 25 C 44 27.233333 43.178119 28.425788 42.21875 29.625 C 41.636323 30.353034 40.946843 31.095912 40.492188 32 L 35.519531 32 C 35.064843 31.077888 34.367161 30.325157 33.779297 29.591797 C 32.818323 28.392982 32 27.215062 32 25 C 32 21.674438 34.674438 19 38 19 z M 13.015625 32 L 18.982422 32 C 18.978638 32.458302 18.97798 33.029856 19 33.779297 L 19 34 C 19 34.56503 18.56503 35 18 35 L 14 35 C 13.43497 35 13 34.56503 13 34 L 13 33.779297 C 13.021968 33.032345 13.019712 32.473142 13.015625 32 z M 36 34 L 40 34 L 40 35 C 40 35.56503 39.56503 36 39 36 L 37 36 C 36.43497 36 36 35.56503 36 35 L 36 34 z M 11.708984 35.904297 C 12.261273 36.566155 13.079602 37 14 37 L 14.277344 37 C 14.623613 37.595634 15.261054 38 16 38 C 16.738946 38 17.376387 37.595634 17.722656 37 L 18 37 C 18.920398 37 19.738727 36.566155 20.291016 35.904297 C 20.729685 36.327428 21.223949 36.690097 21.742188 36.998047 C 22.868316 37.66722 24.119369 38.163961 25.292969 38.726562 C 27.305201 39.691147 28.945238 40.77547 29.669922 43 L 18.013672 43 L 18 43 L 14 43 L 2.3300781 43 C 3.0547622 40.77547 4.6948888 39.691147 6.7070312 38.726562 C 7.8806315 38.163961 9.131685 37.66722 10.257812 36.998047 C 10.776052 36.690097 11.270315 36.327428 11.708984 35.904297 z M 40.708984 37.453125 C 41.125665 37.975572 41.635412 38.398214 42.171875 38.732422 C 43.044516 39.276063 43.988811 39.668129 44.847656 40.103516 C 45.706501 40.538902 46.467494 41.008663 47.009766 41.607422 C 47.349949 41.983041 47.584001 42.45346 47.759766 43 L 31.820312 43 C 31.569768 41.981768 31.152894 41.12386 30.632812 40.386719 C 31.377565 39.975937 32.217774 39.606674 33.041016 39.177734 C 33.859145 38.751459 34.692871 38.227013 35.300781 37.462891 C 35.575934 37.654132 35.885299 37.795191 36.214844 37.886719 C 36.54224 38.544638 37.214901 39 38 39 C 38.785711 39 39.458053 38.543518 39.785156 37.884766 C 40.118419 37.791443 40.431251 37.648036 40.708984 37.453125 z"/></svg>