<?xml version="1.0" encoding="utf-8"?>
<!-- Generator: Adobe Illustrator 24.0.1, SVG Export Plug-In . SVG Version: 6.00 Build 0)  -->
<svg version="1.1" id="Layer_1" xmlns="http://www.w3.org/2000/svg" xmlns:xlink="http://www.w3.org/1999/xlink" x="0px" y="0px"
	 viewBox="0 0 160 162" style="enable-background:new 0 0 160 162;" xml:space="preserve">
<style type="text/css">
	.st0{fill:#2A9DF4;stroke:#FFFFFF;stroke-miterlimit:10;}
	.st1{fill:#FFFFFF;stroke:#000000;stroke-miterlimit:10;}
	.st2{fill:#FFFFFF;stroke:#FFFFFF;stroke-width:6;stroke-miterlimit:10;}
	.st3{fill:#FFFFFF;}
	.st4{font-family:'AndaleMono';}
	.st5{font-size:37.2759px;}
</style>
<rect y="0" class="st0" width="160" height="162"/>
<path class="st1" d="M140.5,148.8l-12-42c-0.5-1.8-2.3-2.7-4.1-2.2l-1.8,0.4c-1.7,0.4-2.8,2.2-2.3,4l12,42c0.5,1.8,2.3,2.7,4.1,2.2
	l1.8-0.4C140,152.4,141,150.6,140.5,148.8z"/>
<path class="st1" d="M41.4,109.1l-12,42c-0.5,1.8-2.3,2.7-4.1,2.2l-1.8-0.4c-1.7-0.4-2.8-2.2-2.3-4l12-42c0.5-1.8,2.3-2.7,4.1-2.2
	l1.8,0.4C40.9,105.6,41.9,107.4,41.4,109.1z"/>
<path class="st2" d="M135.8,117h-112c-3.2,0-5.9-2.6-5.9-5.9V40.6c0-3.2,2.6-5.9,5.9-5.9h112c3.2,0,5.9,2.6,5.9,5.9v70.6
	C141.6,114.4,139,117,135.8,117z"/>
<rect x="24.1" y="41.8" class="st0" width="110.2" height="63.9"/>
<path class="st1" d="M143.8,119.6H13.6c-2.4,0-4.4-2-4.4-4.4v-5.1c0-2.4,2-4.4,4.4-4.4h130.2c2.4,0,4.4,2,4.4,4.4v5.1
	C148.2,117.6,146.2,119.6,143.8,119.6z"/>
<text transform="matrix(0.5312 0 0 1 37.9648 87.7853)" class="st3 st4 st5">COLOBOD</text>
</svg>
