<svg fill="#000000" xmlns="http://www.w3.org/2000/svg" viewBox="0 0 50 50" preserveAspectRatio="none"><path d="M 18 2 C 10.353979 2 7 7.0983298 7 11.148438 C 7 14.247127 8.6483639 16.570259 10.810547 17.980469 C 12.97273 19.390678 15.630613 20 18 20 C 19.022146 20 20.095543 19.871965 21.160156 19.621094 C 23.441348 22.027858 26.977244 23 30 23 C 32.378512 23 35.040865 22.355891 37.201172 20.904297 C 39.361478 19.452703 41 17.0895 41 13.960938 C 41 11.472899 39.891773 9.1768562 37.955078 7.5625 C 36.018383 5.9481438 33.279889 5 30 5 C 28.821389 5 27.747107 5.1225893 26.763672 5.3378906 C 26.511393 5.0667139 26.245582 4.8046534 25.955078 4.5625 C 24.018383 2.9481438 21.279889 2 18 2 z M 18 4 C 20.895111 4 23.156226 4.8329656 24.675781 6.0996094 C 24.949718 6.3279528 25.192977 6.5736424 25.419922 6.828125 C 25.419922 6.828125 25.421875 6.8300781 25.421875 6.8300781 A 1.0001 1.0001 0 0 0 25.798828 7.2949219 C 26.58343 8.3578356 27 9.6014352 27 10.960938 C 27 13.419372 25.829631 15.072485 24.085938 16.244141 C 22.342244 17.415796 20.005488 18 18 18 C 15.985387 18 13.644161 17.442681 11.902344 16.306641 C 10.160527 15.1706 9 13.568745 9 11.148438 C 9 8.1505432 11.208021 4 18 4 z M 30 7 C 32.895111 7 35.156226 7.8329656 36.675781 9.0996094 C 38.195336 10.366253 39 12.052974 39 13.960938 C 39 16.419373 37.829631 18.072485 36.085938 19.244141 C 34.342244 20.415796 32.005488 21 30 21 C 27.763466 21 25.171186 20.284752 23.371094 18.894531 C 24.006668 18.618446 24.622533 18.293107 25.201172 17.904297 C 27.361478 16.452703 29 14.089499 29 10.960938 C 29 9.6005199 28.65794 8.3022832 28.041016 7.1367188 C 28.646764 7.0506244 29.29539 7 30 7 z M 5.5 18 C 3.686936 18 2 19.21988 2 21 C 2 22.78012 3.686936 24 5.5 24 C 7.313064 24 9 22.78012 9 21 C 9 19.21988 7.313064 18 5.5 18 z M 44.5 18 C 42.686936 18 41 19.21988 41 21 C 41 22.78012 42.686936 24 44.5 24 C 46.313064 24 48 22.78012 48 21 C 48 19.21988 46.313064 18 44.5 18 z M 5.5 20 C 6.4483598 20 7 20.570981 7 21 C 7 21.429019 6.4483598 22 5.5 22 C 4.5516402 22 4 21.429019 4 21 C 4 20.570981 4.5516402 20 5.5 20 z M 44.5 20 C 45.44836 20 46 20.570981 46 21 C 46 21.429019 45.44836 22 44.5 22 C 43.55164 22 43 21.429019 43 21 C 43 20.570981 43.55164 20 44.5 20 z M 14.03125 24 C 11.8655 24 10.110256 24.542196 8.875 25.576172 C 7.6397437 26.610148 7 28.128576 7 29.75 C 7 30.377976 7.1447151 31.01736 7.2773438 31.564453 C 7.3381257 31.815177 7.3521898 31.841507 7.4003906 32.013672 C 7.1772926 32.370475 7 32.862561 7 33.5 C 7 34.291667 7.2135165 34.971329 7.6679688 35.425781 C 7.8715135 35.629326 8.0910259 35.595035 8.3203125 35.683594 C 8.451964 36.215509 8.5865059 36.756912 8.8203125 37.195312 C 8.9816101 37.497755 9.1542803 37.769668 9.3378906 38.005859 C 9.3801106 38.060169 9.4584739 38.101029 9.5 38.152344 L 9.5 39.703125 C 9.3620466 40.001082 9.0774713 40.289889 8.4824219 40.605469 C 7.8486249 40.941598 6.9780833 41.262268 6.0722656 41.681641 C 5.166448 42.101013 4.2094607 42.626002 3.4296875 43.464844 C 2.6499143 44.303685 2.0920427 45.473609 2.0019531 46.939453 A 1.0001 1.0001 0 0 0 3 48 L 23 48 L 24 48 L 25.96875 48 L 27 48 L 47 48 A 1.0001 1.0001 0 0 0 47.998047 46.939453 C 47.90594 45.440788 47.249604 44.24598 46.365234 43.416016 C 45.480865 42.586051 44.409447 42.076937 43.382812 41.662109 C 42.356178 41.247282 41.359594 40.924227 40.630859 40.582031 C 39.942762 40.258917 39.62407 39.95558 39.5 39.697266 L 39.5 38.150391 C 39.54144 38.099101 39.619942 38.058201 39.662109 38.003906 C 39.845459 37.767837 40.016496 37.497644 40.177734 37.195312 C 40.41148 36.757027 40.547764 36.21534 40.679688 35.683594 C 40.908974 35.595034 41.128486 35.629324 41.332031 35.425781 C 41.786484 34.971329 42 34.291667 42 33.5 C 42 32.862561 41.822707 32.370475 41.599609 32.013672 C 41.647809 31.841507 41.661879 31.815177 41.722656 31.564453 C 41.855285 31.01736 42 30.377976 42 29.75 C 42 28.693857 41.72873 27.557239 41.021484 26.617188 C 40.431158 25.832542 39.4408 25.327897 38.283203 25.150391 L 37.890625 24.490234 A 1.0001 1.0001 0 0 0 37.03125 24 C 34.8655 24 33.110256 24.542196 31.875 25.576172 C 30.639744 26.610148 30 28.128576 30 29.75 C 30 30.377976 30.144715 31.01736 30.277344 31.564453 C 30.338124 31.815177 30.352184 31.841507 30.400391 32.013672 C 30.177293 32.370475 30 32.862561 30 33.5 C 30 34.291667 30.213516 34.971329 30.667969 35.425781 C 30.871514 35.629326 31.091026 35.595035 31.320312 35.683594 C 31.451964 36.215509 31.586507 36.756912 31.820312 37.195312 C 31.98161 37.497755 32.15428 37.769668 32.337891 38.005859 C 32.380111 38.060169 32.458474 38.101029 32.5 38.152344 L 32.5 39.703125 C 32.362047 40.001082 32.077471 40.289889 31.482422 40.605469 C 30.848625 40.941598 29.978083 41.262268 29.072266 41.681641 C 28.166448 42.101013 27.20946 42.626002 26.429688 43.464844 C 25.649914 44.303685 25.092043 45.473609 25.001953 46.939453 A 1.0001 1.0001 0 0 0 25 47 A 1.0001 1.0001 0 0 0 24.998047 46.939453 C 24.90594 45.440788 24.249604 44.24598 23.365234 43.416016 C 22.480865 42.586051 21.409447 42.076937 20.382812 41.662109 C 19.356178 41.247282 18.359594 40.924227 17.630859 40.582031 C 16.942762 40.258917 16.62407 39.95558 16.5 39.697266 L 16.5 38.150391 C 16.54144 38.099101 16.619942 38.058201 16.662109 38.003906 C 16.845459 37.767837 17.016496 37.497644 17.177734 37.195312 C 17.41148 36.757027 17.547764 36.21534 17.679688 35.683594 C 17.908973 35.595034 18.128486 35.629324 18.332031 35.425781 C 18.786484 34.971329 19 34.291667 19 33.5 C 19 32.862561 18.822707 32.370475 18.599609 32.013672 C 18.647809 31.841507 18.661879 31.815177 18.722656 31.564453 C 18.855285 31.01736 19 30.377976 19 29.75 C 19 28.693857 18.72873 27.557239 18.021484 26.617188 C 17.431158 25.832542 16.4408 25.327897 15.283203 25.150391 L 14.890625 24.490234 A 1.0001 1.0001 0 0 0 14.03125 24 z M 3.5 26 A 1.5 1.5 0 0 0 2 27.5 A 1.5 1.5 0 0 0 3.5 29 A 1.5 1.5 0 0 0 5 27.5 A 1.5 1.5 0 0 0 3.5 26 z M 46.5 26 A 1.5 1.5 0 0 0 45 27.5 A 1.5 1.5 0 0 0 46.5 29 A 1.5 1.5 0 0 0 48 27.5 A 1.5 1.5 0 0 0 46.5 26 z M 13.503906 26.070312 L 13.765625 26.509766 A 1.0001 1.0001 0 0 0 14.625 27 C 15.561972 27 16.047621 27.322864 16.421875 27.820312 C 16.796129 28.317761 17 29.056143 17 29.75 C 17 29.997024 16.894715 30.60764 16.777344 31.091797 C 16.659972 31.575954 16.544922 31.955078 16.544922 31.955078 A 1.0001 1.0001 0 0 0 16.919922 33.0625 C 16.932977 33.081805 17 33.172583 17 33.5 C 17 33.958333 16.901019 34.028671 16.917969 34.011719 C 16.93492 33.994766 16.958333 34 16.875 34 A 1.0001 1.0001 0 0 0 15.880859 34.890625 C 15.839279 35.268471 15.643836 35.823069 15.414062 36.253906 C 15.299176 36.469325 15.175713 36.656725 15.082031 36.777344 C 14.988351 36.897962 14.874116 36.946039 15.042969 36.859375 A 1.0001 1.0001 0 0 0 14.5 37.75 L 14.5 40 A 1.0001 1.0001 0 0 0 14.566406 40.355469 C 14.96323 41.396284 15.86925 41.965243 16.779297 42.392578 C 17.689344 42.819914 18.697822 43.137828 19.632812 43.515625 C 20.567804 43.893422 21.413432 44.328183 21.996094 44.875 C 22.335751 45.193762 22.572697 45.567242 22.746094 46 L 4.4238281 46 C 4.5794095 45.61548 4.631922 45.108674 4.8945312 44.826172 C 5.3944456 44.288389 6.106177 43.869221 6.9121094 43.496094 C 7.7180417 43.122966 8.6025314 42.80459 9.4199219 42.371094 C 10.237312 41.937598 11.056982 41.344641 11.433594 40.355469 A 1.0001 1.0001 0 0 0 11.5 40 L 11.5 37.75 A 1.0001 1.0001 0 0 0 10.955078 36.859375 C 11.123724 36.945725 11.009686 36.897844 10.916016 36.777344 C 10.822346 36.656848 10.700764 36.469214 10.585938 36.253906 C 10.356282 35.823291 10.160346 35.268068 10.119141 34.890625 A 1.0001 1.0001 0 0 0 9.125 34 C 9.041667 34 9.0650794 33.994799 9.0820312 34.011719 C 9.0989838 34.02867 9 33.958333 9 33.5 C 9 33.172583 9.0670231 33.081805 9.0800781 33.0625 A 1.0001 1.0001 0 0 0 9.4550781 31.955078 C 9.4550781 31.955078 9.3400279 31.575954 9.2226562 31.091797 C 9.1052849 30.60764 9 29.997024 9 29.75 C 9 28.621424 9.3774596 27.764852 10.158203 27.111328 C 10.850597 26.531757 11.992816 26.159087 13.503906 26.070312 z M 36.503906 26.070312 L 36.765625 26.509766 A 1.0001 1.0001 0 0 0 37.625 27 C 38.561972 27 39.047621 27.322864 39.421875 27.820312 C 39.796129 28.317761 40 29.056143 40 29.75 C 40 29.997024 39.894715 30.60764 39.777344 31.091797 C 39.659972 31.575954 39.544922 31.955078 39.544922 31.955078 A 1.0001 1.0001 0 0 0 39.919922 33.0625 C 39.932977 33.081805 40 33.172583 40 33.5 C 40 33.958333 39.901019 34.028671 39.917969 34.011719 C 39.93492 33.994766 39.958333 34 39.875 34 A 1.0001 1.0001 0 0 0 38.880859 34.890625 C 38.839279 35.268471 38.643836 35.823069 38.414062 36.253906 C 38.299177 36.469325 38.175713 36.656725 38.082031 36.777344 C 37.988351 36.897962 37.874116 36.946039 38.042969 36.859375 A 1.0001 1.0001 0 0 0 37.5 37.75 L 37.5 40 A 1.0001 1.0001 0 0 0 37.566406 40.355469 C 37.96323 41.396284 38.86925 41.965243 39.779297 42.392578 C 40.689344 42.819914 41.697823 43.137828 42.632812 43.515625 C 43.567803 43.893422 44.413432 44.328183 44.996094 44.875 C 45.335751 45.193762 45.572697 45.567242 45.746094 46 L 27.423828 46 C 27.579409 45.61548 27.631922 45.108674 27.894531 44.826172 C 28.394446 44.288389 29.106177 43.869221 29.912109 43.496094 C 30.718042 43.122966 31.602531 42.80459 32.419922 42.371094 C 33.237312 41.937598 34.056982 41.344641 34.433594 40.355469 A 1.0001 1.0001 0 0 0 34.5 40 L 34.5 37.75 A 1.0001 1.0001 0 0 0 33.955078 36.859375 C 34.123724 36.945725 34.009686 36.897844 33.916016 36.777344 C 33.822346 36.656848 33.700764 36.469214 33.585938 36.253906 C 33.356282 35.823291 33.160346 35.268068 33.119141 34.890625 A 1.0001 1.0001 0 0 0 32.125 34 C 32.04167 34 32.065081 33.994799 32.082031 34.011719 C 32.098985 34.02867 32 33.958333 32 33.5 C 32 33.172583 32.067018 33.081805 32.080078 33.0625 A 1.0001 1.0001 0 0 0 32.455078 31.955078 C 32.455078 31.955078 32.340028 31.575954 32.222656 31.091797 C 32.105283 30.60764 32 29.997024 32 29.75 C 32 28.621424 32.377459 27.764852 33.158203 27.111328 C 33.850597 26.531757 34.992816 26.159087 36.503906 26.070312 z"/></svg>
