<?xml version="1.0" encoding="UTF-8"?>
<!DOCTYPE svg PUBLIC "-//W3C//DTD SVG 1.1//EN" "http://www.w3.org/Graphics/SVG/1.1/DTD/svg11.dtd">
<svg xmlns="http://www.w3.org/2000/svg" xmlns:xlink="http://www.w3.org/1999/xlink" version="1.1" preserveAspectRatio="none" viewBox="-0.5 -0.5 46 40"><defs><linearGradient x1="0%" y1="0%" x2="0%" y2="100%" id="mx-gradient-none-0-none-0-s-0"><stop offset="0%" style="stop-color:none;stop-opacity:0"/><stop offset="100%" style="stop-color:none;stop-opacity:0"/></linearGradient></defs><g><path d="M 2 23 L 16 23 L 16 36 L 2 36 L 2 23 Z" fill="#ffffff" stroke="none" pointer-events="all"/><path d="M 2 23 L 2 36 L 2 36 L 16 36 L 16 23 L 2 23" fill="url(#mx-gradient-none-0-none-0-s-0)" stroke="none" pointer-events="all"/><path d="M 2 23 L 16 23 L 16 36 L 2 36 L 2 23 Z" fill="none" stroke="#000000" stroke-width="4" stroke-miterlimit="10" pointer-events="all"/><path d="M 30 1 L 44 1 L 44 14 L 30 14 L 30 1 Z" fill="#ffffff" stroke="none" pointer-events="all"/><path d="M 30 1 L 30 14 L 30 14 L 44 14 L 44 1 L 30 1" fill="url(#mx-gradient-none-0-none-0-s-0)" stroke="none" pointer-events="all"/><path d="M 30 1 L 44 1 L 44 14 L 30 14 L 30 1 Z" fill="none" stroke="#000000" stroke-width="4" stroke-miterlimit="10" pointer-events="all"/><path d="M 16.45 30.7 Q 38 31 38.11 19.99" fill="none" stroke="#000000" stroke-miterlimit="10" pointer-events="stroke"/><path d="M 38.15 16.24 L 39.77 21.25 L 38.11 19.99 L 36.43 21.22 Z" fill="#000000" stroke="#000000" stroke-miterlimit="10" pointer-events="all"/></g></svg>
