<?xml version="1.0" encoding="UTF-8"?>
<svg width="210mm" height="297mm" version="1.1" viewBox="0 0 210 297" xmlns="http://www.w3.org/2000/svg"><g transform="matrix(3.5538 0 0 4.2343 .87272 1.8055)"><text transform="scale(.90639 1.1033)" x="5.5472503" y="32.44022" fill="#1c9167" fill-opacity=".40081" font-family="sans-serif" font-size="25.562px" stroke-opacity=".75304" stroke-width=".63904" style="line-height:1.25" xml:space="preserve"><tspan x="5.5472503" y="32.44022" fill="#1c9167" fill-opacity=".40081" stroke-opacity=".75304" stroke-width=".63904">AB</tspan></text><rect transform="matrix(.91998 .39197 -.58751 .80922 0 0)" x="15.774" y=".13715" width="37.947" height="18.656" rx="1.0434" ry="1.0075" fill="#0f2e14" fill-opacity=".9919"/><g fill-rule="evenodd" stroke="#002626" stroke-linecap="round" stroke-linejoin="bevel" stroke-opacity=".75304"><path d="m13.811 8.7176 0.4683-4.1115 42.052 17.339-4.7345 2.3525z" fill="#832992" fill-opacity=".9919" stroke-width="1.0245" style="paint-order:stroke fill markers"/><path d="m2.8399 16.872 40.237 16.591 8.5196-9.1653-37.786-15.58z" fill="#f7f0fd" fill-opacity=".94332" stroke-width=".2695" style="paint-order:stroke fill markers"/><g stroke-width="2.695"><path d="m43.077 33.463 4.047-1.4135 9.2072-10.104-4.7345 2.3525z" fill="#832992" fill-opacity=".9919" style="paint-order:stroke fill markers"/><path d="m2.8399 16.872-0.82641-3.4229 12.266-8.8432-0.4683 4.1115z" fill="#832992" fill-opacity=".9919" style="paint-order:stroke fill markers"/><path d="m2.0135 13.449 45.11 18.6 9.2072-10.104-42.052-17.339z" fill="#45434d" style="paint-order:stroke fill markers"/><path d="m2.8399 16.872-0.82641-3.4229 45.11 18.6-4.047 1.4135z" fill="#e7ffff" style="paint-order:stroke fill markers"/></g></g></g></svg>
