<svg xmlns="http://www.w3.org/2000/svg" viewBox="0 0 80 80" preserveAspectRatio="none"><path fill="#bae0bd" d="M34.25,33.5H24c-2.979-0.024-5.5-2.586-5.5-5.596V8c0-3.033,2.468-5.5,5.5-5.5h32 c3.032,0,5.5,2.467,5.5,5.5v20c0,3.033-2.468,5.5-5.5,5.5H45.75L40,41.167L34.25,33.5z"/><path fill="#5e9c76" d="M56,3c2.757,0,5,2.243,5,5v20c0,2.757-2.243,5-5,5H46h-0.5l-0.3,0.4L40,40.333L34.8,33.4L34.5,33H34 l-9.992,0C21.293,32.978,19,30.645,19,27.904V8c0-2.757,2.243-5,5-5H56 M56,2H24c-3.314,0-6,2.686-6,6v19.904 c0,3.295,2.705,6.07,6,6.096h10l6,8l6-8h10c3.314,0,6-2.686,6-6V8C62,4.686,59.314,2,56,2L56,2z"/><path fill="#ffeea3" d="M20 40.5A9.5 9.5 0 1 0 20 59.5A9.5 9.5 0 1 0 20 40.5Z"/><path fill="#ba9b48" d="M20,41c4.964,0,9,4.037,9,9s-4.036,9-9,9s-9-4.037-9-9S15.036,41,20,41 M20,40 c-5.522,0-10,4.478-10,10s4.478,10,10,10s10-4.478,10-10S25.522,40,20,40L20,40z"/><path fill="#ffeea3" d="M60 40.5A9.5 9.5 0 1 0 60 59.5A9.5 9.5 0 1 0 60 40.5Z"/><path fill="#ba9b48" d="M60,41c4.964,0,9,4.037,9,9s-4.036,9-9,9s-9-4.037-9-9S55.037,41,60,41 M60,40 c-5.522,0-10,4.478-10,10s4.478,10,10,10s10-4.478,10-10S65.522,40,60,40L60,40z"/><path fill="#fff" d="M37.2 26.4L30.2 19.4 33 16.6 37.2 20.8 48.2 9.8 51 12.6z"/><path fill="#b0c1d4" d="M35.475,77.5c-0.266-8.327-7.083-15-15.475-15s-15.208,6.673-15.475,15H35.475z"/><path fill="#66798f" d="M35,78h1c0-8.836-7.164-16-16-16S4,69.164,4,78h1C5,77.995,35,77.995,35,78z M5.05,77.016 C5.559,69.192,12.048,63,20,63s14.441,6.192,14.95,14.016H5.05z"/><path fill="#b0c1d4" d="M75.475,77.5c-0.266-8.327-7.083-15-15.475-15s-15.208,6.673-15.475,15H75.475z"/><path fill="#66798f" d="M75,78h1c0-8.836-7.164-16-16-16s-16,7.164-16,16h1C45,77.995,75,77.995,75,78z M45.05,77.016 C45.559,69.192,52.048,63,60,63s14.441,6.192,14.95,14.016H45.05z"/></svg>
