<?xml version="1.0" encoding="UTF-8"?>
<svg width="86.693mm" height="68.842mm" version="1.1" viewBox="0 0 86.693 68.842" xmlns="http://www.w3.org/2000/svg"><g transform="translate(-57.458 -94.457)"><path d="m58.958 115.2c0.13036-6.0686 83.488-13.845 83.693 0s0 42.694 0 42.694l-36.933-0.33884c-5.6099 9.3453-12.876 0.33884-12.876 0.33884h-33.884s-0.12721-36.772 0-42.694z" fill="#85ffff" stroke="#000" stroke-width="3"/><path d="m69.818 103.46s11.493-16.55 30.635 0c16.452-17.227 30.635 0 30.635 0v49.651s-16.082-20.498-30.511-2.3643c-12.941-17.725-30.759 2.3643-30.759 2.3643z" fill="#fff" stroke="#000" stroke-width="2.7681"/><path d="m100.45 103.46c16.452-16.56 30.635 0 30.635 0v47.727s-16.082-19.704-30.511-2.2727z" fill="#b8ffff"/><text transform="scale(1.5604 .64087)" x="64.12027" y="216.7747" fill="#000000" font-family="sans-serif" font-size="41.338px" stroke-width="1.0335" style="line-height:1.25" xml:space="preserve"><tspan x="64.12027" y="216.7747" font-family="Baskerville" font-size="77.165px" stroke-width="1.0335">i</tspan></text></g></svg>
