<?xml version="1.0" encoding="utf-8"?>
<!-- Generator: Adobe Illustrator 24.0.1, SVG Export Plug-In . SVG Version: 6.00 Build 0)  -->
<svg version="1.2" baseProfile="tiny" id="Layer_1" xmlns="http://www.w3.org/2000/svg" xmlns:xlink="http://www.w3.org/1999/xlink"
	 x="0px" y="0px" viewBox="0 0 82.8 61.9" xml:space="preserve">
<g>
	<path fill="#FAD7AC" stroke="#B46504" stroke-width="2" d="M12.3,1h58.2c6.2,0,11.3,7.7,11.3,17.2v25c0,9.5-5.1,17.2-11.3,17.2
		H12.3C6.1,60.4,1,52.7,1,43.2v-25C1,8.7,6.1,1,12.3,1z"/>
	<g transform="translate(-0.5 -0.5)">
		<text transform="matrix(0.4594 0 0 1 3.8999 47.8683)" font-family="'Helvetica'" font-size="49.2294px">abc</text>
	</g>
	<g>
		<path fill="#F7F7C6" stroke="#000000" stroke-miterlimit="10" d="M46.9,16.9c0-11.6,28.5-11.6,28.5,0v26.2
			c0,11.6-28.5,11.6-28.5,0V16.9z"/>
		<path fill="none" stroke="#000000" stroke-miterlimit="10" d="M46.9,16.9c0,8.7,28.5,8.7,28.5,0"/>
	</g>
</g>
</svg>
