<svg width="100" height="100" xmlns="http://www.w3.org/2000/svg"><g fill="none" fill-rule="evenodd" stroke-linecap="round" stroke-linejoin="round" stroke-width="4"><path d="M28.299 49.595c-2.322-2.345 2.003-10.234 2.003-10.234 1.325-3.031.674-7.524-1.47-10.052l-9.604-11.32c-2.137-2.521-5.754-2.662-8.066-.327l-6.615 6.681c-4.07 4.11-2.533 11.979-.423 17.335 0 0 2.674 8.981 23.526 30.042C48.502 92.78 57.394 95.48 57.394 95.48c5.304 2.131 13.094 3.683 17.164-.427l6.615-6.682c2.312-2.335 2.172-5.987-.323-8.146l-11.209-9.7c-2.503-2.165-6.951-2.823-9.952-1.484 0 0-8.153 4.023-10.474 1.678L38.928 60.33l-10.63-10.735h0z" stroke="#54A0FF" fill="#54A0FF"/><path stroke="#A4B8CE" fill="#A4B8CE" d="M58 11.932l8.773 8.773L85.478 2l12.547 12.548-18.704 18.704L88.068 42H58z"/></g></svg>