<svg width="100" height="100" xmlns="http://www.w3.org/2000/svg"><g fill="none" fill-rule="evenodd"><path d="M15.048 80.912C15.439 79.304 17.103 78 18.749 78h11.538c1.653 0 3.308 1.309 3.695 2.912l3.172 13.145C37.413 95.13 36.719 96 35.628 96H13.367c-1.102 0-1.783-.868-1.521-1.943l3.202-13.145zM41.048 80.912C41.439 79.304 43.103 78 44.749 78h11.538c1.653 0 3.308 1.309 3.695 2.912l3.172 13.145C63.413 95.13 62.719 96 61.628 96H39.367c-1.102 0-1.783-.868-1.521-1.943l3.202-13.145zM67.048 80.912C67.439 79.304 69.103 78 70.749 78h11.538c1.653 0 3.308 1.309 3.695 2.912l3.172 13.145C89.413 95.13 88.719 96 87.628 96H65.367c-1.102 0-1.783-.868-1.521-1.943l3.202-13.145zM27.048 61.912C27.439 60.304 29.103 59 30.749 59h11.538c1.653 0 3.308 1.309 3.695 2.912l3.172 13.145C49.413 76.13 48.719 77 47.628 77H25.367c-1.102 0-1.783-.868-1.521-1.943l3.202-13.145zM54.048 61.912C54.439 60.304 56.103 59 57.749 59h11.538c1.653 0 3.308 1.309 3.695 2.912l3.172 13.145C76.413 76.13 75.719 77 74.628 77H52.367c-1.102 0-1.783-.868-1.521-1.943l3.202-13.145zM41.048 42.912C41.439 41.304 43.103 40 44.749 40h11.538c1.653 0 3.308 1.309 3.695 2.912l3.172 13.145C63.413 57.13 62.719 58 61.628 58H39.367c-1.102 0-1.783-.868-1.521-1.943l3.202-13.145z" fill="#FF9F43"/><path d="M50.214 4.524v16.761m30.302-5.732l-10.774 12.84m26.897 15.086l-16.507 2.91M3.79 43.48l16.506 2.91m-.383-30.836l10.774 12.84" stroke="#FEC957" stroke-width="4" stroke-linecap="round" stroke-linejoin="round"/></g></svg>