<svg width="100" height="100" xmlns="http://www.w3.org/2000/svg"><g fill="none" fill-rule="evenodd" stroke-linecap="round" stroke-linejoin="round"><rect stroke="#FEC957" stroke-width="4" fill="#FEC957" x="2" y="2" width="96" height="96" rx="23"/><path d="M66.67 37.793c0-8.525-3.479-14.58-14.303-14.58-10.823 0-16.558 6.113-16.558 13.919 0 4.304 1.46 7.806 3.429 11.016l.948 1.532c2.48 4.013 3.794 7.077 3.794 10.724 0 7.588-7.032 11.892-12.649 13.497 0 0 9.485-3.168 15.054-2.626 3.944.383 7.174 2.626 13.194 2.626 6.02 0 10.033-2.626 10.033-2.626M32.104 52.218h19.802" stroke="#FFF" stroke-width="6"/></g></svg>