<svg version="1.1" id="Layer_1" xmlns="http://www.w3.org/2000/svg" x="0" y="0" viewBox="0 0 56 56" xml:space="preserve"><style>.st5{fill:#fff;stroke:#4b92db;stroke-miterlimit:10}.st7{fill:#00d5f4}.st8{fill:none;stroke:#4b92db;stroke-miterlimit:10}</style><path d="M47.4 45.3H9.2c-3.1 0-5.6-2.5-5.6-5.6V14.9c0-3.1 2.5-5.6 5.6-5.6h38.3c3.1 0 5.6 2.5 5.6 5.6v24.9c-.1 3-2.6 5.5-5.7 5.5z" fill="#cff" stroke="#4b92db" stroke-miterlimit="10"/><path class="st8" d="M53 38.4c0 3.8-3.1 6.9-6.8 6.9H10.1c-3.8 0-6.8-3.1-6.8-6.9V16.2c0-3.8 3.1-6.9 6.8-6.9h36c3.8 0 6.8 3.1 6.8 6.9v22.2h.1z"/><path class="st5" d="M26.9 45s-.6-13.9 6.7-16c.3-.1-10.8-8.8-10.8-8.8C9.2 23.5 9.2 45 9.2 45h17.7z"/><path fill="#fff" d="M9.7 44.4h16.7v1.5H9.7z"/><path d="M32.1 29.9L22 19.9c-.2-.1-.1-.4.1-.6L29 13c.2-.2.5-.2.7-.1l10.1 10c.2.1.1.4-.1.6l-6.9 6.3c-.3.2-.6.2-.7.1z" fill="#039" stroke="#039" stroke-miterlimit="10"/></svg>