<svg width="100" height="100" xmlns="http://www.w3.org/2000/svg"><g fill="none" fill-rule="evenodd" stroke-linecap="round" stroke-linejoin="round" stroke-width="4"><path d="M40.677 76.88H4.989v18.239A2.878 2.878 0 007.864 98h84.49a2.882 2.882 0 002.875-2.881V76.88H59.542a6.238 6.238 0 01-6.066 4.8h-6.733c-2.947 0-5.416-2.052-6.066-4.8h0zM2.11 26.201A4.995 4.995 0 017.101 21.2h86.015a4.994 4.994 0 014.992 5.001V69.2h-96V26.201z" stroke="#957959" fill="#957959"/><path d="M59.542 76.88H98.11V69.2h-96v7.68h38.568a6.248 6.248 0 01-.168-1.44V69.2h19.2v6.24c0 .496-.057.978-.167 1.44h0z" stroke="#7B6247" fill="#7B6247"/><path d="M40.51 69.2h19.2v6.24a6.237 6.237 0 01-6.234 6.24h-6.733c-3.443 0-6.234-2.8-6.234-6.24V69.2z" stroke="#5D4B37" fill="#5D4B37"/><path d="M30.91 21.2v-9.604C30.91 6.296 35.202 2 40.5 2h19.218c5.297 0 9.591 4.295 9.591 9.604V21.2h-38.4z" stroke="#957959"/></g></svg>