<svg width="100" height="100" xmlns="http://www.w3.org/2000/svg"><g fill="none" fill-rule="evenodd" stroke-linecap="round" stroke-linejoin="round" stroke-width="4"><path d="M89.273 80.818h6.103A2.615 2.615 0 0098 78.208V61.61c0-1.437-.737-3.52-1.646-4.643L81.982 39.215c-.91-1.123-2.818-2.033-4.265-2.033H63.091v43.636h8.727a8.727 8.727 0 0117.455 0h0z" stroke="#576574" fill="#576574"/><path d="M71.818 48.912a2.995 2.995 0 012.994-3.003h12.346L98 58.882v2.699H74.822a2.998 2.998 0 01-3.004-3.003v-9.666z" stroke="#6DAEFF" fill="#6DAEFF"/><path d="M11.6 80.818H7.235A5.233 5.233 0 012 75.581V63.364h61.09v17.454H29.056a8.727 8.727 0 00-17.455 0h0z" stroke="#576574" fill="#576574"/><circle stroke="#485563" fill="#485563" cx="20.327" cy="80.818" r="8.727"/><circle stroke="#485563" fill="#485563" cx="80.545" cy="80.818" r="8.727"/><path d="M57.856 11a5.24 5.24 0 015.235 5.236v47.128H2V15.997A5.002 5.002 0 017.006 11h50.85z" stroke="#E46565" fill="#E46565"/></g></svg>