<?xml version="1.0" encoding="utf-8"?>
<!-- Generator: Adobe Illustrator 24.0.1, SVG Export Plug-In . SVG Version: 6.00 Build 0)  -->
<svg version="1.1" id="_x31_" xmlns="http://www.w3.org/2000/svg" xmlns:xlink="http://www.w3.org/1999/xlink" x="0px" y="0px"
	 viewBox="0 0 512 512" style="enable-background:new 0 0 512 512;" xml:space="preserve">
<style type="text/css">
	.st0{fill:#4B92DB;stroke:#4B92DB;stroke-miterlimit:10;}
	.st1{fill:#4B92DB;}
</style>
<g>
	<path class="st0" d="M407.3,343.4c-3.9,0-7.9-1.1-11.3-3.2L327,297c-5-3.1-6.5-9.7-3.4-14.7c3.1-5,9.7-6.5,14.7-3.4l69,43.1V189.9
		l-69,43.1c-4.9,3.1-11.6,1.6-14.7-3.4c-3.1-5-1.6-11.6,3.4-14.7l69-43.1c6.6-4.1,14.9-4.3,21.7-0.6c6.8,3.8,11,10.9,11,18.7v132.2
		c0,7.7-4.2,14.9-11,18.7C414.5,342.5,410.9,343.4,407.3,343.4L407.3,343.4z"/>
</g>
<g>
	<path class="st1" d="M256,512C114.8,512,0,397.2,0,256S114.8,0,256,0s256,114.8,256,256S397.2,512,256,512z M256,21.3
		C126.6,21.3,21.3,126.6,21.3,256S126.6,490.7,256,490.7S490.7,385.4,490.7,256S385.4,21.3,256,21.3z"/>
</g>
<g>
	<path class="st1" d="M298.7,362.7H128c-23.5,0-42.7-19.1-42.7-42.7V192c0-23.5,19.1-42.7,42.7-42.7h170.7
		c23.5,0,42.7,19.1,42.7,42.7v128C341.3,343.5,322.2,362.7,298.7,362.7z M128,170.7c-11.8,0-21.3,9.6-21.3,21.3v128
		c0,11.8,9.6,21.3,21.3,21.3h170.7c11.8,0,21.3-9.6,21.3-21.3V192c0-11.8-9.6-21.3-21.3-21.3H128z"/>
</g>
</svg>
