<svg width="100" height="100" xmlns="http://www.w3.org/2000/svg"><g fill="none" fill-rule="evenodd" stroke-linecap="round" stroke-linejoin="round" stroke-width="4"><path d="M2 77.422c6.236-4.372 14.011-6.069 14.645-7.583 1.047-2.504 1.047-3.67 1.047-6.67s-3.908-8.16-3.908-8.16-2.497-1.09-3.2-3.884c-.472-1.878.572-4.02 1.126-4.36-1.48-4.52-4.439-20.096 12.483-20.661.074-.002.148-.004.223.006 3.65.122 6.368.951 8.372 2.22.26 2.822.879 5.276 1.369 6.77-.7.432-2.018 3.137-1.422 5.51.887 3.53 4.042 4.907 4.042 4.907s.103.136.28.38c-.09.322-.18.614-.263.87.554.342 1.597 2.483 1.125 4.362-.702 2.793-3.2 3.884-3.2 3.884s-3.907 5.16-3.907 8.16c0 2.501 0 3.727.607 5.516C23.353 72.196 12.698 78.045 12 89.842h37.793L88 89.846c-.71-12.017-11.755-17.863-19.868-21.347.56-1.714.56-2.94.56-5.375 0-3-3.908-8.16-3.908-8.16s-2.497-1.09-3.2-3.884c-.472-1.879.572-4.02 1.126-4.361-.035-.107-.07-.22-.107-.338.377-.54.62-.86.62-.86s3.155-1.378 4.042-4.907c.596-2.373-.722-5.078-1.422-5.509.51-1.555 1.158-4.147 1.402-7.11 1.966-1.108 4.558-1.824 7.948-1.937.074-.002.148-.004.223.007 16.816.561 13.859 16.138 12.378 20.657.554.341 1.597 2.482 1.125 4.36-.702 2.795-3.2 3.885-3.2 3.885s-3.907 5.16-3.907 8.16 0 4.166 1.047 6.67c.65 1.554 8.83 3.301 15.141 7.939v12.32l-22.912-.003H54.33c0 .017.002.033.003.05l-30.246-.004H2V77.422z" stroke="#C8D6E5" fill="#C8D6E5"/><path d="M34.157 35.1c-.7.432-2.018 3.137-1.422 5.51.887 3.53 4.042 4.907 4.042 4.907s4.936 6.517 4.936 10.307 0 5.263-1.323 8.425C39.068 67.41 13.102 71.2 12 89.842h37.793L88 89.846c-1.102-18.64-27.068-22.431-28.39-25.593-1.323-3.162-1.323-4.635-1.323-8.425 0-3.79 4.936-10.307 4.936-10.307s3.155-1.378 4.042-4.907c.596-2.373-.722-5.078-1.422-5.509C67.713 29.397 71.45 9.72 50.207 9.01a1.646 1.646 0 00-.281-.008c-21.376.714-17.64 20.391-15.77 26.099z" stroke="#A4B8CE" fill="#A4B8CE"/></g></svg>