<svg width="100" height="100" xmlns="http://www.w3.org/2000/svg"><g fill="none" fill-rule="evenodd" stroke-linecap="round" stroke-linejoin="round" stroke-width="4"><path d="M30.302 39.361c1.325-3.031.674-7.524-1.47-10.052l-9.604-11.32c-2.137-2.521-5.754-2.662-8.066-.327l-6.615 6.681c-4.07 4.11-2.533 11.979-.423 17.335 0 0 2.674 8.981 23.526 30.042C48.502 92.78 57.394 95.48 57.394 95.48c5.304 2.131 13.094 3.683 17.164-.427l6.615-6.682c2.312-2.335 2.172-5.987-.323-8.146l-11.209-9.7c-2.503-2.165-6.951-2.823-9.952-1.484 0 0-8.153 4.023-10.474 1.678L38.928 60.33l-10.63-10.735c-2.32-2.345 2.004-10.234 2.004-10.234z" stroke="#54A0FF" fill="#54A0FF"/><path d="M73 52c13.807 0 25-11.193 25-25S86.807 2 73 2 48 13.193 48 27s11.193 25 25 25z" stroke="#A4B8CE" fill="#A4B8CE"/><path d="M71 36H59.105l5.893-5.693c3.105-2.978 4.683-5.033 4.683-7.352 0-2.715-1.683-4.955-5.077-4.955-2.973 0-5.236 2.135-5.578 5.429l-.026.264M84.475 36v-5.493h0V18h-.464L74 30.64v.427h13" stroke="#FFF"/></g></svg>