<svg width="100" height="100" xmlns="http://www.w3.org/2000/svg"><g fill="none" fill-rule="evenodd" stroke-linecap="round" stroke-linejoin="round" stroke-width="4"><path d="M82.597 31.447a6.506 6.506 0 00-3.695-4.417L52.13 15.204l3.75-10.417a2.07 2.07 0 00-.656-2.315 2.143 2.143 0 00-2.43-.175l-13.017 7.7c-6.461 3.823-11.46 9.413-14.457 16.168-2.894 6.524-4.4 13.163-4.475 19.733-.131 11.362 2.42 19.647 4.348 24.262h39.525s1.032-8.032-.788-11.211L55.016 43.38l1.195.39a5.127 5.127 0 001.588.251 5.097 5.097 0 003.84-1.736 4.182 4.182 0 014.48-1.197l6.379 2.157a6.6 6.6 0 006.956-1.755l2.076-2.245a6.384 6.384 0 001.538-5.818l-.47-1.981z" stroke="#576574" fill="#576574"/><path d="M23.106 76.88c-1.022 0-1.85.936-1.85 2.09v6.38H18.85c-1.022 0-1.851.935-1.851 2.09v8.47c0 1.154.829 2.09 1.85 2.09h51.98c1.022 0 1.85-.936 1.85-2.09v-8.47c0-1.155-.828-2.09-1.85-2.09h-2.405v-6.38c0-1.154-.829-2.09-1.851-2.09H23.106z" stroke="#485563" fill="#485563"/></g></svg>