<svg width="100" height="100" xmlns="http://www.w3.org/2000/svg"><path d="M56.654 70.16c-3.567 3.715-8.013 5.694-13.328 5.414C29.157 74.828 24.12 62.072 27.33 45.84c2.765-13.972 13.097-24.254 24.556-23.54 4.465.28 8.013 2.22 10.54 5.243a4.42 4.42 0 015.263-2.82 4.413 4.413 0 013.191 5.367l-1.913 7.502-5.223 25.546c.34 4.103 2.629 5.716 7.075 5.716 9.541 0 17.142-9.273 17.142-25.211 0-19.621-13.118-32.816-32.657-32.816-22.689 0-42.467 18.196-42.467 43.258 0 21.832 14.564 35.086 33.911 35.086 11.431 0 19.435-2.29 29.93-9.349a4.422 4.422 0 016.134 1.196 4.41 4.41 0 01-1.197 6.126C69.616 95.216 59.889 98 46.749 98 22.695 98 4 80.986 4 54.086 4 23.98 27.89 2 55.305 2 79.74 2 96.8 19.161 96.8 43.644c0 20.467-11.124 34.038-25.98 34.038-6.414 0-11.583-2.54-14.166-7.522zm1.052-23.926c1.695-8.5-1.227-14.921-6.367-15.242-6.524-.407-13.422 6.457-15.415 16.53-2.328 11.77.515 18.97 7.865 19.357 6.715.353 11.269-7.365 13.917-20.645z" stroke="#FF6B6B" stroke-width="4" fill="#FF6B6B" fill-rule="nonzero" stroke-linecap="round" stroke-linejoin="round"/></svg>