<svg width="100" height="100" xmlns="http://www.w3.org/2000/svg"><g fill="none" fill-rule="evenodd" stroke-linecap="round" stroke-linejoin="round"><path d="M40.332 10.86C40.695 5.905 44.807 2 49.827 2c4.987 0 9.079 3.855 9.488 8.763.157.037.313.074.47.113 2.623-4.235 8.1-5.761 12.547-3.384 4.391 2.347 6.206 7.658 4.302 12.176.12.105.24.21.359.317 4.238-2.506 9.749-1.353 12.617 2.766 2.873 4.125 2.06 9.735-1.745 12.88.06.15.117.302.174.454 4.929-.234 9.278 3.392 9.89 8.396.608 4.983-2.709 9.541-7.514 10.54-.017.16-.035.32-.054.478 4.496 2.104 6.667 7.38 4.863 12.107-1.783 4.67-6.81 7.128-11.505 5.774l-.27.397c2.979 3.924 2.508 9.555-1.204 12.916a9.485 9.485 0 01-12.94-.183l-.425.227c.825 4.887-2.223 9.663-7.086 10.882-4.85 1.216-9.76-1.546-11.326-6.228a41.254 41.254 0 01-.476.002c-1.532 4.739-6.474 7.544-11.357 6.32-4.83-1.21-7.87-5.932-7.101-10.785a40.431 40.431 0 01-.428-.223 9.485 9.485 0 01-13.009.25c-3.688-3.339-4.177-8.919-1.261-12.838-.093-.131-.184-.263-.275-.395-4.72 1.415-9.803-1.045-11.598-5.747-1.792-4.694.338-9.933 4.776-12.064l-.06-.478c-4.856-.959-8.22-5.544-7.607-10.56.607-4.97 4.903-8.582 9.792-8.4.056-.152.112-.304.17-.455-3.87-3.133-4.712-8.79-1.82-12.941 2.85-4.092 8.307-5.258 12.534-2.816.117-.107.236-.213.355-.32-1.966-4.536-.156-9.902 4.264-12.265 4.418-2.362 9.853-.871 12.496 3.301.156-.04.312-.08.469-.118h0z" stroke="#FEC957" stroke-width="4" fill="#FEC957"/><circle stroke="#FFF" stroke-width="6" cx="38" cy="38" r="7.2"/><circle stroke="#FFF" stroke-width="6" cx="62" cy="62" r="7.2"/><path d="M68.72 31.28L31.28 68.72" stroke="#FFF" stroke-width="6"/></g></svg>