<svg width="100" height="100" xmlns="http://www.w3.org/2000/svg"><g fill="none" fill-rule="evenodd" stroke-linecap="round" stroke-linejoin="round" stroke-width="4"><path d="M3 88.997A3.003 3.003 0 016 86h13.2c1.657 0 3 1.342 3 2.997V98H3v-9.003z" stroke="#6DAEFF" fill="#6DAEFF"/><path d="M22 72.996A3.003 3.003 0 0125 70h13.2c1.657 0 3 1.35 3 2.996V98H22V72.996z" stroke="#54A0FF" fill="#54A0FF"/><path d="M41 37.001A3.005 3.005 0 0144 34h13.2c1.657 0 3 1.337 3 3.001V98H41V37.001z" stroke="#4A95F2" fill="#4A95F2"/><path d="M60 23.995A3.002 3.002 0 0163 21h13.2c1.657 0 3 1.336 3 2.995V98H60V23.995z" stroke="#448BE3" fill="#448BE3"/><path d="M79 5.005C79 3.345 80.35 2 82 2h13.2c1.657 0 3 1.339 3 3.005V98H79V5.005z" stroke="#3C7FD2" fill="#3C7FD2"/></g></svg>