<svg width="100" height="100" xmlns="http://www.w3.org/2000/svg"><g fill="none" fill-rule="evenodd" stroke-linecap="round" stroke-linejoin="round" stroke-width="4"><path d="M78.8 54.8h16.327A2.873 2.873 0 0098 51.924V4.876A2.877 2.877 0 0095.127 2H4.873A2.873 2.873 0 002 4.876v47.048A2.877 2.877 0 004.873 54.8H21.2V21.2h57.6v33.6h0z" stroke="#6DAEFF" fill="#6DAEFF"/><path d="M78.8 35.6h2.41c3.963 0 7.19-3.224 7.19-7.2 0-3.968-3.22-7.2-7.19-7.2H18.79c-3.963 0-7.19 3.224-7.19 7.2 0 3.968 3.22 7.2 7.19 7.2h2.41V21.2h57.6v14.4h0z" stroke="#3D82D7" fill="#3D82D7"/><path stroke="#D1DDEB" fill="#D1DDEB" d="M78.8 21.2V98l-9.538-9.42L59.51 98 50 88.58 40.28 98l-9.389-9.42L21.2 98V21.2z"/><path d="M30.8 35.6h25.92M30.8 45.2h21.12M30.8 54.8h25.92M30.8 64.4h21.12" stroke="#A4B8CE"/></g></svg>