<svg width="100" height="100" xmlns="http://www.w3.org/2000/svg"><g fill="none" fill-rule="evenodd" stroke-linecap="round" stroke-linejoin="round"><rect stroke="#FEB557" stroke-width="4" fill="#FEB557" x="2" y="2" width="96" height="96" rx="23"/><path d="M54.81 26.99c-2.32-.133-3.38-.133-5.168-.133H38.114v45.714h12.72c1.59 0 2.85 0 4.506-.132 6.824-.398 12.72-4.704 12.72-11.992 0-6.228-3.445-10.931-10.6-11.992 5.499-.86 8.877-4.902 8.877-10.666 0-6.36-4.637-10.336-11.527-10.8zM57.828 48.648H38.55M42.828 20.312v6.233M51.828 20.312v6.233M42.257 73.455v6.233M51.257 73.455v6.233" stroke="#FFF" stroke-width="6"/></g></svg>