<svg width="100" height="100" xmlns="http://www.w3.org/2000/svg"><g fill="none" fill-rule="evenodd" stroke-linecap="round" stroke-linejoin="round" stroke-width="4"><path d="M50.16 87.314s0 0 0 0h41.117a3.03 3.03 0 003.043-3.023v-7.509c0-5.579-4.54-10.109-10.14-10.109H72.022c-12.738 0-10.878-8.425-10.878-15.567 0-4.934 2.765-8.613 5.592-12.404A21.994 21.994 0 0072.24 24.12c0-12.18-9.875-22.06-22.08-22.12-12.205.06-22.08 9.94-22.08 22.12A21.994 21.994 0 0033.584 38.7c2.827 3.792 5.592 7.47 5.592 12.405 0 7.142 1.86 15.567-10.878 15.567H16.14c-5.6 0-10.14 4.53-10.14 10.109v7.509a3.03 3.03 0 003.043 3.023H50.16zM12 88h76.276v5.053a5.052 5.052 0 01-5.049 5.052H17.05A5.054 5.054 0 0112 93.053V88z" stroke="#7B6247" fill="#7B6247"/><path d="M13.574 67h73.17c4.36 1.133 7.576 5.086 7.576 9.782v7.509a3.03 3.03 0 01-3.043 3.023H50.16h0H9.043A3.03 3.03 0 016 84.291v-7.509c0-4.696 3.216-8.649 7.574-9.782z" stroke="#957959" fill="#957959"/></g></svg>