<svg width="100" height="100" xmlns="http://www.w3.org/2000/svg"><g fill="none" fill-rule="evenodd" stroke-linecap="round" stroke-linejoin="round" stroke-width="4"><path d="M51.92 30.388s23.194 0 38.4-19.422V78.12c-15.422-19.21-38.4-19.21-38.4-19.21V30.389zM11.6 56.04H6.8A4.799 4.799 0 012 51.238V37.802A4.804 4.804 0 016.8 33h4.8M30.8 61.8H19.28v24.96a3.835 3.835 0 003.836 3.84h10.011c1.852 0 3.973-2.564 2.039-4.8 0 0-4.366-5.166-4.366-6.892V61.8z" stroke="#D1DDEB" fill="#D1DDEB"/><rect stroke="#EC7F77" fill="#EC7F77" x="13.52" y="27.24" width="38.4" height="34.56" rx="3"/><rect stroke="#A4B8CE" fill="#A4B8CE" x="90.32" y="9" width="7.68" height="71.04" rx="3.84"/></g></svg>