<svg height="512pt" viewBox="0 -4 512 512" width="512pt" xmlns="http://www.w3.org/2000/svg"><path d="m497 0h-359.773438c-8.285156 0-15 6.714844-15 15v48.210938h-48.511718c-8.285156 0-15 6.714843-15 15v48.207031h-43.714844c-8.285156 0-15 6.714843-15 15v347.898437c0 8.285156 6.714844 15 15 15h359.773438c8.285156 0 15-6.714844 15-15v-48.210937h43.714843c8.285157 0 15-6.714844 15-15v-48.207031h48.511719c8.285156 0 15-6.714844 15-15v-347.898438c0-8.285156-6.714844-15-15-15zm-344.773438 30h329.773438v220.824219l-134.871094-116.648438c-3.160156-2.734375-7.320312-4.027343-11.472656-3.5625-4.148438.460938-7.921875 2.632813-10.40625 5.996094l-156.078125 211.289063h-16.945313zm207.546876 444.316406h-329.773438v-317.898437h28.714844v269.6875c0 8.285156 6.714844 15 15 15h286.058594zm58.714843-63.210937h-329.773437v-317.894531h33.511718v269.6875c0 8.285156 6.714844 15 15 15h281.261719zm-212.019531-63.207031 133.289062-180.4375 142.242188 123.027343v57.410157zm0 0"/><path d="m233.203125 160.519531c29.398437 0 53.316406-23.835937 53.316406-53.132812 0-29.300781-23.917969-53.136719-53.316406-53.136719s-53.316406 23.835938-53.316406 53.136719c0 29.296875 23.917969 53.132812 53.316406 53.132812zm0-76.269531c12.859375 0 23.316406 10.378906 23.316406 23.136719 0 12.753906-10.457031 23.132812-23.316406 23.132812-12.855469 0-23.316406-10.378906-23.316406-23.132812 0-12.757813 10.460937-23.136719 23.316406-23.136719zm0 0"/></svg>