<svg width="100" height="100" xmlns="http://www.w3.org/2000/svg"><g fill="none" fill-rule="evenodd" stroke-linecap="round" stroke-linejoin="round"><path d="M49.94 89.88C72 89.88 89.88 72 89.88 49.94 89.88 27.882 72 10 49.94 10 27.882 10 10 27.882 10 49.94 10 72 27.882 89.88 49.94 89.88h0z" stroke="#FEC957" stroke-width="4" fill="#FEC957"/><path d="M49.94 75.357c14.038 0 25.417-11.38 25.417-25.417S63.977 24.524 49.94 24.524 24.524 35.904 24.524 49.94c0 14.038 11.38 25.417 25.416 25.417h0z" stroke="#FF8D8D" stroke-width="4" fill="#FF8D8D"/><path d="M49.94 60.833c6.016 0 10.893-4.877 10.893-10.893 0-6.016-4.877-10.892-10.893-10.892-6.016 0-10.892 4.876-10.892 10.892 0 6.016 4.876 10.893 10.892 10.893h0z" stroke="#FFF" stroke-width="4" fill="#FFF"/><path d="M49.5 50.5L8 92M46 48h6v6zM3 91h6v6" stroke="#576574" stroke-width="6"/></g></svg>