<svg width="100" height="100" xmlns="http://www.w3.org/2000/svg"><g fill="none" fill-rule="evenodd" stroke-linecap="round" stroke-linejoin="round" stroke-width="6"><path d="M50 2.916V101M78 8H22M64 97H36M3 55L21.53 8.674c.486.21 1.021.326 1.584.326.488 0 .955-.087 1.387-.247L43 55M57 55L75.53 8.674c.486.21 1.021.326 1.584.326.488 0 .955-.087 1.387-.247L97 55" stroke="#FEC957"/><path d="M43 55c0 11.046-8.954 20-20 20S3 66.046 3 55h40zM97 55c0 11.046-8.954 20-20 20s-20-8.954-20-20h40z" stroke="#FF9F43" fill="#FF9F43"/></g></svg>