<svg width="100" height="100" xmlns="http://www.w3.org/2000/svg"><g fill="none" fill-rule="evenodd" stroke-linecap="round" stroke-linejoin="round" stroke-width="4"><path stroke="#6FCCB3" fill="#6FCCB3" d="M10 79h80v6H10z"/><path stroke="#63BBA4" fill="#63BBA4" d="M6 73h88v6H6z"/><path stroke="#55AB94" fill="#55AB94" d="M2 15h96v57.6H2z"/><ellipse stroke="#3A816D" fill="#3A816D" cx="49.518" cy="44.237" rx="15.435" ry="21.237"/><path d="M19.25 65.474h61.5c0-5.864 4.59-10.618 10.25-10.618V33.619c-5.66 0-10.25-4.755-10.25-10.619h-61.5c0 5.864-4.59 10.619-10.25 10.619v21.237c5.66 0 10.25 4.754 10.25 10.618h0z" stroke="#3A816D"/><ellipse stroke="#3A816D" fill="#3A816D" cx="23.471" cy="44.237" rx="2.894" ry="3.034"/><ellipse stroke="#3A816D" fill="#3A816D" cx="74.6" cy="44.237" rx="2.894" ry="3.034"/></g></svg>