<svg width="100" height="100" xmlns="http://www.w3.org/2000/svg"><g fill="none" fill-rule="evenodd" stroke-linecap="round" stroke-linejoin="round" stroke-width="4"><path d="M78.8 28.126a12.337 12.337 0 016.639-1.926h2.793c5.305 0 9.606 4.3 9.606 9.6v19.09c0 5.303-4.292 9.601-9.606 9.601H85.44c-2.608 0-5.027-.804-7.024-2.179.254-1.6.385-3.24.385-4.912V28.126h0z" stroke="#4A95F2"/><path d="M61 85.583V94H18v-9.345C8.454 79.321 2 69.116 2 57.4V16.6h76.8v40.8c0 12.434-7.277 23.17-17.8 28.183z" stroke="#4A95F2" fill="#4A95F2"/><path stroke="#6DAEFF" fill="#6DAEFF" d="M2 7h76.8v9.6H2z"/></g></svg>