<svg width="100" height="100" xmlns="http://www.w3.org/2000/svg"><g fill="none" fill-rule="evenodd" stroke-linecap="round" stroke-linejoin="round" stroke-width="4"><path d="M68.84 54.666V98l-19.2-19.346L30.44 98V54.666c1.101.202 2.11.492 2.858 1.037 2.483 1.809 3.175 7.33 6.066 8.486.061.026.124.05.187.07 2.942.955 6.83-3.248 10.089-3.248 3.26 0 7.147 4.203 10.09 3.245.062-.019.125-.043.186-.07 2.891-1.153 3.583-6.674 6.066-8.483.747-.545 1.757-.835 2.858-1.037h0z" stroke="#E46565" fill="#E46565"/><path d="M82.28 33.2c0 3.26-5.235 5.654-6.19 8.597-.988 3.05 1.804 8.056-.043 10.595-.914 1.255-2.73 1.627-4.647 1.9-2 .284-4.11.458-5.418 1.41-2.483 1.81-3.175 7.33-6.066 8.484-.061.027-.124.051-.187.07-2.942.958-6.83-3.245-10.089-3.245-3.26 0-7.147 4.203-10.09 3.248a1.746 1.746 0 01-.186-.07c-2.891-1.156-3.583-6.677-6.066-8.486-1.308-.953-3.419-1.127-5.418-1.41-1.917-.273-3.733-.646-4.647-1.901-1.847-2.54.945-7.545-.044-10.595C22.234 38.854 17 36.46 17 33.2s5.235-5.654 6.19-8.597c.988-3.05-1.804-8.056.043-10.595 1.864-2.563 7.502-1.444 10.065-3.31 2.536-1.848 3.204-7.565 6.252-8.557 2.943-.955 6.83 3.248 10.09 3.248 3.259 0 7.147-4.203 10.09-3.248 3.048.992 3.715 6.709 6.251 8.556 2.563 1.867 8.202.748 10.066 3.311 1.847 2.54-.946 7.545.043 10.595.956 2.943 6.19 5.337 6.19 8.597h0z" stroke="#FEB557" fill="#FEB557"/><path d="M49.16 52.88c10.869 0 19.68-8.811 19.68-19.68s-8.811-19.68-19.68-19.68-19.68 8.811-19.68 19.68 8.811 19.68 19.68 19.68h0z" stroke="#FEC957" fill="#FEC957"/></g></svg>