<svg width="100" height="100" xmlns="http://www.w3.org/2000/svg"><g fill="none" fill-rule="evenodd" stroke-linecap="round" stroke-linejoin="round" stroke-width="4"><path d="M98 85.01A3.01 3.01 0 0095 82H81.8c-1.657 0-3 1.337-3 3.01V98H98V85.01z" stroke="#D25757" fill="#D25757"/><path d="M79 65.007A3.008 3.008 0 0076 62H62.8c-1.657 0-3 1.346-3 3.007V98H79V65.007z" stroke="#E46565" fill="#E46565"/><path d="M60 44.991A3 3 0 0057 42H43.8c-1.657 0-3 1.343-3 2.991V98H60V44.991z" stroke="#F07373" fill="#F07373"/><path d="M40 25.003A3.006 3.006 0 0037 22H23.8c-1.657 0-3 1.351-3 3.003V98H40V25.003z" stroke="#FC7F7F" fill="#FC7F7F"/><path d="M21 5.005C21 3.345 19.65 2 18 2H4.8c-1.657 0-3 1.339-3 3.005V98H21V5.005z" stroke="#FF8D8D" fill="#FF8D8D"/><path d="M92.312 18.205l4.988-4.987c.375-.375.68-.249.68.284L98 31.019c0 .54-.43.964-.963.963l-17.517-.019c-.54 0-.66-.305-.285-.681l4.971-4.971-15.365-15.366a2.877 2.877 0 01.003-4.067l4.036-4.035a2.879 2.879 0 014.067-.003l15.365 15.365h0z" stroke="#A4B8CE" fill="#A4B8CE"/></g></svg>