<svg version="1.1" id="Layer_1" xmlns="http://www.w3.org/2000/svg" x="0" y="0" viewBox="0 0 56 56" xml:space="preserve"><style>.st3{fill:azure;stroke:#4b92db;stroke-miterlimit:10}</style><path class="st3" d="M27 39l-9 9c-1 1-2.5 1-3.5 0l-5.7-5.7c-1-1-1-2.5 0-3.5l9-9c1-1 2.5-1 3.5 0l5.7 5.7c1 1 1 2.6 0 3.5zM48.6 17.4l-9 9c-1 1-2.5 1-3.5 0l-5.7-5.7c-1-1-1-2.5 0-3.5l9-9c1-1 2.5-1 3.5 0l5.7 5.7c1 1 1 2.6 0 3.5z"/><path d="M37.6 22.3L22.7 37.2c-.7.7-1.7.7-2.4 0l-.6-.6c-.7-.7-.7-1.7 0-2.4l14.9-14.9c.7-.7 1.7-.7 2.4 0l.6.6c.6.7.6 1.8 0 2.4z" fill="#4b92db" stroke="#fff" stroke-miterlimit="10"/></svg>