<svg width="100" height="100" xmlns="http://www.w3.org/2000/svg"><g fill="none" fill-rule="evenodd" stroke-linecap="round" stroke-linejoin="round" stroke-width="4"><path d="M23.662 82.724c-1.075 3.871-3.657 8.258-5.355 9.938-2.796 2.767-16.096 4.85-16.096 4.85S4.455 84.207 7.11 81.58c1.62-1.605 6.11-4.198 10.063-5.278l6.489 6.422z" stroke="#FF8D8D" fill="#FF8D8D"/><path stroke="#576574" fill="#576574" d="M34.523 79.383L26.52 83.93 15.93 73.45l4.595-7.92z"/><path d="M56.858 69.62l2.508 9.28c.424 1.57-.18 3.778-1.33 4.916l-5.868 5.809c-1.158 1.146-2.881 1.018-3.857-.3l-6.203-8.372c2.177-1.486 7.407-5.198 14.75-11.333h0zM30.314 43.401l-9.3-2.462c-1.585-.419-3.816.178-4.967 1.317l-5.868 5.808c-1.158 1.147-1.029 2.852.303 3.818l8.409 6.103c1.462-2.131 5.121-7.231 11.423-14.584h0z" stroke="#3A816D" fill="#3A816D"/><path d="M48.123 24.361C69.41 3.291 95.857 1.556 97.506 3.188c1.65 1.633-.165 27.87-20.994 48.488-20.83 20.617-35.528 30.028-35.528 30.028-1.348.915-3.386.722-4.548-.427l-11.961-11.84-5.889-5.828c-1.16-1.147-1.367-3.173-.443-4.507 0 0 8.692-13.67 29.98-34.74h0z" stroke="#55AB94" fill="#55AB94"/><path d="M66.714 33.666a5.982 5.982 0 008.398 0 5.835 5.835 0 000-8.312 5.982 5.982 0 00-8.398 0 5.835 5.835 0 000 8.312h0z" stroke="#FFF" fill="#FFF"/></g></svg>