<svg width="100" height="100" xmlns="http://www.w3.org/2000/svg"><g fill="#957959" fill-rule="evenodd" stroke-linecap="round" stroke-linejoin="round" stroke="#957959" stroke-width="4"><path d="M88.058 35.04c-1.111-2.339-4.22-8.741-6.434-11.902-2.235-3.193-7.169-8.28-8.983-10.117l2.066-1.447c.866-.606 1.025-1.872.357-2.827l-3.635-5.19c-.674-.963-1.915-1.238-2.784-.63 0 0-9.048 5.196-13.118 8.046-4.318 3.024-12.047 9.575-12.047 9.575-.872.611-1.03 1.876-.361 2.83l3.635 5.192c.673.962 1.914 1.237 2.782.63l1.94-1.359c.755 1.52 2.398 4.777 4.049 7.712L4.165 71.515a4.797 4.797 0 00-1.18 6.686 4.804 4.804 0 006.687 1.178L61.02 43.425c2.214 2.588 4.7 5.219 5.869 6.438l-1.936 1.355c-.868.608-1.034 1.868-.36 2.83l3.634 5.19c.67.956 1.911 1.24 2.784.63 0 0 8.939-5.057 13.148-8.004 4.18-2.926 12.017-9.617 12.017-9.617.868-.608 1.035-1.869.361-2.831l-3.634-5.19c-.67-.956-1.914-1.239-2.779-.633l-2.067 1.447h0zM90.23 88.4h3.917a2.996 2.996 0 013.002 2.998v3.604A2.994 2.994 0 0194.147 98H52.152a2.996 2.996 0 01-3.003-2.998v-3.604a2.994 2.994 0 013.003-2.998h3.916a2.995 2.995 0 01-.199-1.078v-3.604a2.994 2.994 0 013.007-2.998h28.547a2.998 2.998 0 013.006 2.998v3.604a3 3 0 01-.198 1.078z"/></g></svg>