<svg version="1.1" id="Capa_1" xmlns="http://www.w3.org/2000/svg" x="0" y="0" viewBox="0 0 512.1 512.1" xml:space="preserve"><style>.st2,.st3{fill:#007fff;stroke:#4b92db;stroke-miterlimit:10}.st3{fill:#4b92db}</style><path d="M468.6 245.6c-15.4 83.9-46.7 123.9-58.2 151.5l.1.3c0 26.5 31.5 105.9 44.1 114.8H234c-1.4-18.3-7.4-35.9-17.5-51.2l-.4-1c-38.5 13.5-81.4 20.3-97 15.2-27-8.8-18-26.5-18-44.1s-9-8.8-18-17.7c-9-8.8 9-17.7 9-17.7-18 0-18 0-18-26.5 0-4.8-1.9-9.3-5.3-12.6-3.4-3.3-8-5.1-12.8-5-44.9-8.8 16.9-46.9 18-88.3.2-8.9-.6-17.9-2.6-26.6-1.3-6.6-3.1-12.7-4.6-19-1.7-6.7-2.9-13.6-3.4-20.6-.6-14.7 1-29.4 4.9-43.5C86.8 79.1 144.6 27.2 218.5 7.4 273.6-7.3 332.2.1 382 27.9c72.4 43.3 101.4 137.9 86.6 217.7z" fill="#d1d4d1" stroke="#4b92db" stroke-miterlimit="10"/><path d="M230.9 459.2c-28.6-12.2 15.6-23.2 27.2-29.7 20.2-8.8 22.7-17.4 36.5-25.6 41 9-50.6 55.5-63.7 55.3z" fill="#c0bfff"/><path class="st2" d="M136.5 207.5c-2.9 9.7-13.1 4.4-22.1 4.6-16.6 3.1-30.5 13.7-42.9 24.6-1.3-6.6-3.1-12.7-4.6-19 14-16.1 69.5-37.9 69.6-10.2zM373.6 269.1c-8.1 9.1-44.9 26.7-30.1 38.3 7.9 8.7 29.3-17.2 40.1-23.6 7.9-3.6 4.5-22.1-10-14.7zM427.3 163.9c-6.2-7.4-19.7-56.9-33.9-37.8-2-3.1-6-4.5-9.5-3.2-.2-16.3-36.4-.8-52.6.6-9.6-.4-14.3 17.9 1.6 17.7 0-.1 43.2-8.6 43.5-8.7l-17.2 43c-61.1-48.4-41.4-46-80.4 16.1-9.1-14.2-19.1-62-33.9-49.8-5.8-3.4-63 46.4-63.5 51-.1 0-18.4-45.6-18.6-45.8-18.7-17-19.6 8.3-8.3 26.5 8.4 21.5 15.1 44.6 27.3 24.2 6.5 21.4 56.5-36 63.5-37.8 6.1 8.1 19 63.8 34.1 38.8 13.1 19.7 30.2-29 36.5-35.1 6.9 3.8 35.9 33.1 43.5 30.6 14.6 13.6 29.8-52.9 34.4-57.6 3.8 9.4 30 66.2 33.5 27.3zM293.4 223c-24.9-13.1-15.2 14.6.2 32.4 16.5 23.1 22 40.7 32.4 37.5 22.6-3.2-32.6-64-32.6-69.9z"/><path class="st2" d="M399.8 183.9c-7.4 4.7-39.6 9.4-32.3 23.4-18.3 5.9 12 33.7 18 44.9 35.9 16-.7-33-7.6-40.7 53.7-15.8 30-30.3 21.9-27.6zM284.8 61.7c10.2.6 46.3 18.6 46.2 0 0-12.6-28.3-11.7-41-16.9-8.8-3.7-18.4 11.2-5.2 16.9zM207.5 70.8c10-3.9 61.5-4.5 52.1-21.6-3.9-10.4-22.2-1-39.8 1.3-28.5 2.1-23.5 18.5-12.3 20.3zM154.5 123.7c7.2 1.5 24.9-29.1 30.4-34.6 7-10.4-7.7-19.3-14.3-10.4-7.4 13.1-39.5 40.4-16.1 45zM260.5 203.2c-29.7 1.7-72.9-5.8-70.6 8.8 1.3 15.3 27 6.7 52 8.8 38.8 4.1 28.1-17.3 18.6-17.6zM373.7 110.4c37.1 6.1-7.8-33.3-18.8-37-30.5 3.5 13.1 31.2 18.8 37zM172.2 123.7c-22.9 11 .5 21.3 20.6 17.7 24.5-1.1 42.3 4.9 41-10.8-.9-13.7-54.7-4.3-61.6-6.9zM260.5 123.7c-43 26.3 80.5 22.9 34.9 0h-34.9zM297.5 220.7c2.2-.7 44.1-8.2 46.4-9.6 18-21.8-14.1-16.3-37.4-10.2-27.9 1.8-21.4 20.7-9 19.8z"/><path class="st2" d="M193.5 93.7c62 36.9 43.7 45.9 77.6-8.7 7.3 7.1 58.4 65.7 48.6 23.6L276 64.9c-12.5-15.2-29 29.7-36 37.7-8.1-5.9-63.9-45.3-46.5-8.9z"/><circle class="st3" cx="269.3" cy="53.1" r="26.5"/><circle transform="rotate(-80.781 242.803 132.596)" class="st3" cx="242.8" cy="132.6" r="26.5"/><circle class="st3" cx="313.4" cy="132.6" r="26.5"/><circle class="st3" cx="357.6" cy="203.2" r="26.5"/><circle class="st3" cx="189.9" cy="70.8" r="26.5"/><circle class="st3" cx="154.5" cy="132.6" r="26.5"/><circle class="st3" cx="181" cy="212" r="26.5"/><circle class="st3" cx="278.1" cy="212" r="26.5"/><circle class="st3" cx="419.4" cy="185.5" r="26.5"/><circle class="st3" cx="392.9" cy="114.9" r="26.5"/><circle class="st3" cx="339.9" cy="70.8" r="26.5"/><circle class="st3" cx="331.1" cy="300.3" r="26.5"/><circle class="st3" cx="392.9" cy="265" r="26.5"/></svg>