<svg version="1.1" id="Layer_1" xmlns="http://www.w3.org/2000/svg" x="0" y="0" viewBox="0 0 46 46" xml:space="preserve"><style>.st0{fill:#039;stroke:#039;stroke-width:.25;stroke-miterlimit:10}</style><path class="st0" d="M8.3 28.8c0 1.1 0 1.8.1 2.4H7c.1-.6.1-1.3.1-2.4v-5.7c0-.9 0-2.1.1-3.3-.6 2.8-1.3 4.6-2.6 6.5-.3-.5-.4-.8-.8-1.2.9-1.2 1.7-2.7 2.3-4.5.2-.7.6-2.2.8-2.9h-1c-.6 0-1.1 0-1.6.1v-1.3c.5.1.9.1 1.6.1h1.2v-1.9c0-.9 0-1.5-.1-2.1h1.4c-.1.6-.1 1.2-.1 2.1v1.9h1.1c.5 0 .9 0 1.3-.1v1.3c-.4-.1-.8-.1-1.3-.1H8.3v1.1c1.2 1.4 1.7 2.1 2.5 3.3l-.9.8c-.5-.9-.9-1.7-1.6-2.7v8.6zm5.5-6.7c-.7 2.9-1.5 4.5-3 6.8-.2-.4-.5-.6-.9-1 1.5-1.8 2.1-3.1 2.8-6.2l1.1.4zm-1.2-2.3c-.8 0-1.2 0-1.8.1v-1.5c.5.1.9.1 1.8.1H20c.8 0 1.3 0 1.8-.1v1.5c-.6-.1-1.1-.1-1.8-.1h-3.2v9.1c0 .9 0 .9-.1 1.2-.2.5-.7.7-1.8.7-.4 0-.8 0-1.6-.1-.1-.5-.1-.8-.4-1.3 1 .1 1.4.2 2.1.2.5 0 .6-.1.6-.5v-9.2h-3zm-.8-6.2c.5.1.8.1 1.5.1h5.8c.7 0 1 0 1.5-.1V15h-7.4c-.6 0-1.1 0-1.5.1v-1.5zm9.1 15.1c-1-3.3-1.5-4.7-2.6-6.6l1.1-.4c.8 1.3 1.9 4.2 2.6 6.3l-1.1.7zM27.8 22.3h-2.3c-1 0-1.4 0-1.9.1v-1.3c.6.1 1.1.1 1.9.1h5.1c.7 0 1.1 0 1.7-.1v1.3c-.6-.1-1-.1-1.8-.1h-1.6v2.2h1.3c.7 0 1 0 1.5-.1v1.3c-.5-.1-.9-.1-1.6-.1h-1.3v3c1.2.6 3.1.8 6.9.8 2.4 0 4.1-.1 5.8-.3-.3.5-.3.8-.4 1.4-1.2.1-2.8.1-4.7.1-3.8 0-6.1-.2-7.4-.7-1.4-.5-2.4-1.3-3.4-2.7-.4 1.6-.8 2.4-1.5 3.5-.3-.3-.5-.5-1-.8.8-1.1 1.2-2 1.5-3.1.2-.8.4-2.2.4-3.1v-.5l1.2.2c0 .3 0 .4-.1.7-.1.6-.1.9-.2 1.8.5.8 1 1.4 1.9 2.1v-5.7zM26.6 20c-.9 0-1.3 0-1.8.1.1-.5.1-1 .1-1.8v-3.1c0-.8 0-1.3-.1-1.8.5.1.9.1 1.8.1h3.1c.9 0 1.2 0 1.8-.1-.1.6-.1 1-.1 1.9v3.1c0 .8 0 1.2.1 1.8-.6-.2-1-.2-1.9-.2h-3zm-.6-3.8h4.3v-1.7H26v1.7zm0 2.8h4.3v-1.8H26V19zm11.3-.9c-.1.4-.1.4-.1 2.7 0 2.7-.3 4.1-1 5.1-.9 1.3-2 2.2-4 3.1-.3-.5-.4-.7-.8-1 1.1-.4 1.7-.8 2.4-1.3 1.2-.9 1.7-1.7 2-2.8.1-.6.2-2.1.2-3.3 0-1.2 0-2.2-.1-2.5h1.4zm-3 7.5h-1.2c.1-.5.1-.9.1-1.8v-5.5c0-.8 0-1.2-.1-1.8.6 0 .9.1 1.7.1h.6c.3-.8.4-1.3.6-1.9h-1.7c-.8 0-1.4 0-1.9.1v-1.3c.7.1 1.2.1 2 .1h4.8c.8 0 1.3 0 1.9-.1v1.3c-.6-.1-1.2-.1-1.8-.1h-2.1c-.2.7-.3 1.2-.6 1.9h1.9c.8 0 1.1 0 1.7-.1-.1.5-.1 1-.1 1.8v5.4c0 .9 0 1.4.1 2H39v-8.1h-4.7v8zm3.2-.2c1.5.9 2.7 1.8 3.7 2.5l-.6 1.1c-1.4-1.2-1.9-1.5-3.6-2.7l.5-.9z"/></svg>