<svg version="1.1" id="Layer_1" xmlns="http://www.w3.org/2000/svg" x="0" y="0" viewBox="0 0 56 56" xml:space="preserve"><style>.st6,.st7{fill:none;stroke-linecap:round;stroke-miterlimit:10}.st6{stroke:#4b92db;stroke-width:4}.st7{stroke:#c9c}</style><path fill="#fff" stroke="#4b92db" stroke-miterlimit="10" d="M5.3 10.2h46V47h-46z"/><path d="M16.1 22.6H9.6c-1.6 0-2.9-1-2.9-2.3v-5.9C6.7 13 8 12 9.6 12h6.6c1.6 0 2.9 1 2.9 2.3v5.9c-.1 1.3-1.4 2.4-3 2.4z" fill="#4b92db" stroke="#4b92db" stroke-miterlimit="10"/><path class="st6" d="M48.5 44.9V16.3L30.7 33.8 19 45.4M29.5 35.1h19"/><path class="st7" d="M21.4 15.1h23.5M21.4 18.8h19.1M21.4 22.6h14.9M7.3 26.2h23.5M7.3 29.9h18.9M7.3 33.7H22M6.3 39.9h10.5"/></svg>