<svg width="100" height="100" xmlns="http://www.w3.org/2000/svg"><g fill="none" fill-rule="evenodd" stroke-linecap="round" stroke-width="4"><path d="M83.8 21.2v67.2h-72c-1.57 0-2.965.754-3.84 1.92H7V6.795A4.795 4.795 0 0111.804 2H93.4v19.2h-9.6 0z" stroke="#C8D6E5" fill="#C8D6E5" stroke-linejoin="round"/><path d="M64.195 65.36c-.53-8.853-12.002-7.565-13.71-12.155-.142-1.571-.474-3.784-.474-3.784l2.67-4.89s1.36-.785 1.618-2.94c.14-1.157-.443-2.025-.78-2.23.91-2.738 2.737-12.242-7.841-12.401-8.63.159-9.79 5.12-7.9 12.4-.335.206-.86 1.074-.722 2.231.26 2.155 1.782 2.94 1.782 2.94l2.407 4.672s-.182 2.43-.324 4.002c-1.708 4.59-13.229 3.302-13.761 12.155h37.035z" stroke="#A4B8CE" fill="#A4B8CE" stroke-linejoin="round"/><path stroke="#FEC957" fill="#FEC957" d="M84 21h9.6v19.2H84z"/><path stroke="#FF8D8D" fill="#FF8D8D" d="M84 40h9.6v19.2H84z"/><path stroke="#4A95F2" fill="#4A95F2" d="M84 60h9.6v19.2H84z"/><path d="M11.8 88.4a4.8 4.8 0 100 9.6h72v-9.6h-72 0z" stroke="#A4B8CE" fill="#A4B8CE" stroke-linejoin="round"/><path stroke="#FFF" fill="#FFF" d="M84 79h9.6v19.2H84z"/></g></svg>