<svg width="100" height="100" xmlns="http://www.w3.org/2000/svg"><g fill="none" fill-rule="evenodd" stroke-linecap="round" stroke-linejoin="round" stroke-width="4"><rect stroke="#63BBA4" fill="#63BBA4" x="21.01" y="8.02" width="19.01" height="10.139" rx="1"/><rect stroke="#3A816D" fill="#3A816D" x="40.02" y="2.95" width="47.525" height="15.208" rx="1"/><path stroke="#C8D6E5" d="M81.264 78.99H18.689l-1.068-8.747M11.54 19.476l-1.388-10.7L2.035 2.9"/><path d="M21.01 98a9.505 9.505 0 100-19.01 9.505 9.505 0 000 19.01z" stroke="#C8D6E5" fill="#C8D6E5"/><path d="M21.01 91.347a2.851 2.851 0 100-5.703 2.851 2.851 0 000 5.703z" stroke="#C8D6E5" fill="#C8D6E5"/><circle stroke="#C8D6E5" fill="#C8D6E5" cx="80.891" cy="88.495" r="9.505"/><path d="M80.891 91.347a2.851 2.851 0 100-5.703 2.851 2.851 0 000 5.703z" stroke="#C8D6E5" fill="#D8D8D8"/><path d="M11.505 18.158h82.85c1.659 0 2.849 1.34 2.66 2.971L91.76 66.384c-.382 3.287-3.383 5.953-6.696 5.953H17.88l-6.376-54.179z" stroke="#C8D6E5" fill="#C8D6E5"/></g></svg>