<svg width="100" height="100" xmlns="http://www.w3.org/2000/svg"><g fill="none" fill-rule="evenodd" stroke-linecap="round" stroke-linejoin="round" stroke-width="4"><path d="M2 85.01A3.01 3.01 0 015 82h13.2c1.657 0 3 1.337 3 3.01V98H2V85.01z" stroke="#6FCCB3" fill="#6FCCB3"/><path d="M21 65.007A3.008 3.008 0 0124 62h13.2c1.657 0 3 1.346 3 3.007V98H21V65.007z" stroke="#63BBA4" fill="#63BBA4"/><path d="M40 44.991A3 3 0 0143 42h13.2c1.657 0 3 1.343 3 2.991V98H40V44.991z" stroke="#55AB94" fill="#55AB94"/><path d="M60 25.003A3.006 3.006 0 0163 22h13.2c1.657 0 3 1.351 3 3.003V98H60V25.003z" stroke="#459680" fill="#459680"/><path d="M79 5.005C79 3.345 80.35 2 82 2h13.2c1.657 0 3 1.339 3 3.005V98H79V5.005z" stroke="#3A816D" fill="#3A816D"/><path d="M26.312 15.777l4.987 4.988c.375.375.68.248.681-.285L32 2.963c0-.54-.431-.964-.964-.963l-17.517.02c-.54 0-.66.305-.284.68l4.97 4.971L2.842 23.037a2.877 2.877 0 00.002 4.067L6.88 31.14a2.879 2.879 0 004.067.003l15.366-15.366h0z" stroke="#A4B8CE" fill="#A4B8CE"/></g></svg>