<svg width="100" height="100" xmlns="http://www.w3.org/2000/svg"><g fill="none" fill-rule="evenodd" stroke-linecap="round" stroke-linejoin="round" stroke-width="4"><path d="M87.525 13.603C79.133 5.497 67.575 2 50 2S20.867 5.497 12.475 13.603l-.475.476V49.682c0 21.775 15.042 41.166 37.525 48.16L50 98l.475-.159C72.958 90.848 88 71.457 88 49.682V14.08l-.475-.476z" stroke="#C8D6E5" fill="#C8D6E5" fill-rule="nonzero"/><path d="M49.333 87.333l-.31-.159c-16.8-6.36-27.69-21.305-27.69-38V18.33l.311-.159c6.067-4.77 14.934-6.837 27.69-6.837.577.155 1.022.155 1.333 0 12.755 0 21.622 2.067 27.689 6.837l.31.16v30.844c0 16.695-10.888 31.64-27.688 38l-.311.16c-.305-.138-.75-.138-1.334 0z" stroke="#FFF" fill="#FFF" fill-rule="nonzero"/><path d="M56.7 39.3v-8.372a.93.93 0 00-.932-.928H45.232a.93.93 0 00-.932.928V39.3h-8.372a.93.93 0 00-.928.932v10.536a.93.93 0 00.928.932H44.3v8.372a.93.93 0 00.932.928h10.536a.93.93 0 00.932-.928V51.7h8.372a.93.93 0 00.928-.932V40.232a.93.93 0 00-.928-.932H56.7h0z" stroke="#E46565" fill="#E46565"/></g></svg>