<svg width="100" height="100" xmlns="http://www.w3.org/2000/svg"><g fill="none" fill-rule="evenodd" stroke-linecap="round" stroke-linejoin="round" stroke-width="4"><path d="M38.458 87c.566-1.355 2.927-2.482 2.927-4 0-1.567-2.517-2.718-2.976-4.133-.476-1.466.867-3.873-.021-5.094-.896-1.232-3.607-.694-4.84-1.592-1.219-.888-1.54-3.636-3.005-4.113-1.415-.46-3.284 1.561-4.85 1.561-1.168 0-2.503-1.121-3.693-1.503V2h51.551L91 19.172V87H38.458h0z" stroke="#C8D6E5" fill="#C8D6E5"/><path stroke="#8DA1B7" fill="#8DA1B7" d="M90 19H74V3z"/><path d="M41.385 83c0 1.567-2.517 2.718-2.976 4.133-.476 1.466.867 3.873-.021 5.094-.44.603-1.312.782-2.234.914-.961.136-1.976.22-2.605.678-1.194.87-1.526 3.524-2.917 4.078a.82.82 0 01-.09.034c-1.414.46-3.283-1.56-4.85-1.56-1.567 0-3.436 2.02-4.85 1.561a.84.84 0 01-.09-.034c-1.39-.555-1.723-3.21-2.916-4.08-.63-.457-1.644-.541-2.605-.677-.922-.132-1.795-.31-2.234-.914-.888-1.22.454-3.628-.021-5.094C12.516 85.718 10 84.567 10 83c0-1.567 2.517-2.718 2.976-4.133.475-1.466-.867-3.873.02-5.094.897-1.232 3.608-.694 4.84-1.592 1.219-.888 1.54-3.636 3.006-4.113 1.414-.46 3.283 1.561 4.85 1.561 1.567 0 3.436-2.02 4.85-1.561 1.467.477 1.787 3.225 3.007 4.113 1.232.898 3.943.36 4.839 1.592.888 1.22-.455 3.628.02 5.094.46 1.415 2.977 2.566 2.977 4.133h0z" stroke="#FEB557" fill="#FEB557"/><path d="M34 47h46M34 59h46M34 35h46" stroke="#A4B8CE"/></g></svg>