<svg version="1.1" id="_x31_" xmlns="http://www.w3.org/2000/svg" x="0" y="0" viewBox="0 0 512 512" xml:space="preserve"><style>.st1{fill:#4b92db}</style><path d="M407.3 343.4c-3.9 0-7.9-1.1-11.3-3.2L327 297c-5-3.1-6.5-9.7-3.4-14.7s9.7-6.5 14.7-3.4l69 43.1V189.9l-69 43.1c-4.9 3.1-11.6 1.6-14.7-3.4-3.1-5-1.6-11.6 3.4-14.7l69-43.1c6.6-4.1 14.9-4.3 21.7-.6 6.8 3.8 11 10.9 11 18.7v132.2c0 7.7-4.2 14.9-11 18.7-3.2 1.7-6.8 2.6-10.4 2.6h0z" fill="#4b92db" stroke="#4b92db" stroke-miterlimit="10"/><path class="st1" d="M256 512C114.8 512 0 397.2 0 256S114.8 0 256 0s256 114.8 256 256-114.8 256-256 256zm0-490.7C126.6 21.3 21.3 126.6 21.3 256S126.6 490.7 256 490.7 490.7 385.4 490.7 256 385.4 21.3 256 21.3z"/><path class="st1" d="M298.7 362.7H128c-23.5 0-42.7-19.1-42.7-42.7V192c0-23.5 19.1-42.7 42.7-42.7h170.7c23.5 0 42.7 19.1 42.7 42.7v128c-.1 23.5-19.2 42.7-42.7 42.7zM128 170.7c-11.8 0-21.3 9.6-21.3 21.3v128c0 11.8 9.6 21.3 21.3 21.3h170.7c11.8 0 21.3-9.6 21.3-21.3V192c0-11.8-9.6-21.3-21.3-21.3H128z"/></svg>