<svg xmlns="http://www.w3.org/2000/svg" viewBox="0 0 496.485 496.485"><g fill="#6f6f6f"><path d="M339.565 0H156.92l-28.78 28.796 11.31 11.481 24.111-24.095h76.598v70.765h16.167V16.182h76.443l24.095 24.095 11.497-11.481zM371.029 496.485h53.745l-67.739-64.947h-33.11l15.872 21.877H156.688l15.872-21.877h-33.11l-67.739 64.947h53.729l19.937-27.462h205.731z"/></g><path d="M384 68.174a497.133 497.133 0 00-271.531 0c-32.318 9.185-54.427 39.052-54.427 72.657v218.903c0 41.72 33.823 75.543 75.543 75.543h229.314c41.72 0 75.543-33.823 75.543-75.543V140.831c.001-33.606-22.108-63.472-54.442-72.657z" fill="#f3f3f3"/><path d="M58.042 286.673v73.061c0 41.72 33.823 75.543 75.543 75.543h229.314c41.72 0 75.543-33.823 75.543-75.543v-73.061h-380.4z" fill="#ffbd49"/><path d="M406.094 266.892V140.831c0-19.285-12.722-36.368-30.922-41.534-41.286-11.714-83.999-17.656-126.929-17.656s-85.644 5.942-126.929 17.656c-18.199 5.167-30.922 22.249-30.922 41.534v126.061h315.702z" fill="#168de2"/><g fill="#fff"><path d="M90.391 266.892h315.687v-71.494c0-6.734-5.167-12.893-12.04-13.188-7.168-.434-13.188 5.306-13.188 12.474v23.118c0 6.02-5.011 10.597-11.186 10.457h-.28c-6.02.14-11.171-4.437-11.171-10.457v-25.569c0-6.873-5.011-12.893-11.745-13.328-7.184-.279-13.064 5.275-13.25 12.272v34.133c0 7.168-5.973 12.893-13.219 12.583-6.765-.403-11.854-6.454-11.854-13.219v-32.597c-.202-6.578-5.213-12.381-11.823-12.8-7.308-.279-13.188 5.446-13.188 12.614l-.14 27.772c0 7.168-5.88 12.909-13.188 12.614-6.734-.434-11.885-6.454-11.885-13.328v-30.068c-.14-6.734-5.741-12.179-12.474-12.179-7.028 0-12.614 5.741-12.614 12.614v35.824c0 5.725-4.732 10.457-10.612 10.457h-.853c-5.741.434-10.612-4.298-10.612-9.883v-35.033c0-6.873-5.011-12.893-11.745-13.328-7.308-.279-13.328 5.446-13.328 12.614v26.128c0 5.741-4.732 10.457-10.457 10.457h-.853c-6.16 0-11.171-5.011-11.171-11.031v-20.108c0-6.734-5.151-12.893-11.885-13.188-7.168-.434-13.328 5.306-13.328 12.474v23.118c0 6.02-5.011 10.597-11.031 10.457h-.435c-6.02.14-11.031-4.437-11.031-10.457v-25.569c0-6.873-5.151-12.893-11.9-13.328-7.308-.279-13.188 5.446-13.188 12.614v75.357h-.013zM438.443 286.673H58.042v58.104c0 8.114 6.222 15.546 14.507 15.888 8.626.512 15.888-6.392 15.888-15.034v.171c0-7.246 6.035-12.769 13.467-12.598h.342c7.261-.171 13.467 5.353 13.467 12.598v2.762c0 8.285 6.051 15.546 14.165 16.058 8.657.341 15.748-6.361 15.981-14.801v-13.095c0-8.642 7.184-15.546 15.934-15.158 8.161.481 14.274 7.773 14.274 15.934v11.233c.233 7.928 6.284 14.926 14.243 15.438 8.813.341 15.888-6.563 15.888-15.189l.171-5.43c0-8.642 7.075-15.546 15.888-15.205 8.114.528 14.336 7.773 14.336 16.058v8.192c.171 8.114 6.904 14.677 15.019 14.677 8.456 0 15.189-6.904 15.189-15.189V336.96c0-6.904 5.694-12.614 12.784-12.614 9.356 0 13.808 5.523 13.808 11.916v14.181c0 8.285 6.051 15.546 14.165 16.058 8.813.341 16.058-6.563 16.058-15.189v-3.444c0-6.904 5.694-12.598 12.598-12.598h1.039c7.432 0 13.467 6.035 13.467 13.296v-3.801c0 8.114 6.222 15.546 14.336 15.888 8.626.512 16.058-6.392 16.058-15.019v.171c0-7.246 6.035-12.769 13.297-12.598h.512c7.246-.171 13.297 5.353 13.297 12.598v2.762c0 8.285 6.222 15.546 14.336 16.058 8.813.341 15.888-6.563 15.888-15.205l-.001-62.747z" opacity=".25"/></g><circle cx="135.618" cy="350.332" r="37.64" fill="#e95353"/><path d="M135.618 395.497c-24.933 0-45.211-20.294-45.211-45.211 0-24.933 20.278-45.227 45.211-45.227s45.227 20.294 45.227 45.227c-.016 24.917-20.294 45.211-45.227 45.211zm0-75.295c-16.586 0-30.068 13.498-30.068 30.068s13.483 30.068 30.068 30.068c16.586 0 30.068-13.498 30.068-30.068s-13.498-30.068-30.068-30.068z" fill="#fff"/><circle cx="360.867" cy="350.332" r="37.64" fill="#e95353"/><path d="M360.867 395.497c-24.933 0-45.227-20.294-45.227-45.211 0-24.933 20.278-45.227 45.227-45.227 24.933 0 45.227 20.294 45.227 45.227 0 24.917-20.294 45.211-45.227 45.211zm0-75.295c-16.586 0-30.068 13.498-30.068 30.068s13.483 30.068 30.068 30.068c16.586 0 30.068-13.498 30.068-30.068s-13.482-30.068-30.068-30.068z" fill="#fff"/></svg>