<svg width="100" height="100" xmlns="http://www.w3.org/2000/svg"><g fill="none" fill-rule="evenodd" stroke-linecap="round" stroke-linejoin="round" stroke-width="4"><rect stroke="#C8D6E5" fill="#C8D6E5" x="2" y="2" width="96" height="96" rx="3"/><path stroke="#FFF" fill="#FFF" d="M11.6 30.8h19.2V50H11.6zM30.8 30.8H50V50H30.8zM50 30.8h19.2V50H50zM69.2 30.8h19.2V50H69.2zM69.2 50h19.2v19.2H69.2zM50 50h19.2v19.2H50zM11.6 50h19.2v19.2H11.6zM11.6 69.2h19.2v19.2H11.6zM30.8 69.2H50v19.2H30.8zM50 69.2h19.2v19.2H50z"/><path d="M21.2 2h9.6v4.8c0 2.651-2.154 4.8-4.8 4.8h0a4.803 4.803 0 01-4.8-4.8V2zM69.2 2h9.6v4.8c0 2.651-2.154 4.8-4.8 4.8h0a4.803 4.803 0 01-4.8-4.8V2z" stroke="#8DA1B7" fill="#8DA1B7"/><path stroke="#FF8D8D" fill="#FF8D8D" d="M30.8 50H50v19.2H30.8z"/></g></svg>