<svg width="100" height="100" xmlns="http://www.w3.org/2000/svg"><g fill="none" fill-rule="evenodd"><path stroke="#C8D6E5" stroke-width="4" fill="#C8D6E5" stroke-linecap="round" stroke-linejoin="round" d="M15 9h70v88.073H15z"/><path stroke="#A4B8CE" stroke-width="4" fill="#A4B8CE" stroke-linecap="round" stroke-linejoin="round" d="M60 2h16.154v7.046H60z"/><path d="M50.537 34a1.95 1.95 0 011.947 1.72c.1.577.828 4.538 2.664 8.308 1.723 3.54 4.71 8.032 5.468 9.158a12.017 12.017 0 012.458 7.293c0 6.725-5.525 12.177-12.341 12.177-.066 0-.13 0-.196-.002l-.196.002C43.525 72.656 38 67.204 38 60.479c0-2.735.914-5.26 2.458-7.293.759-1.126 3.745-5.619 5.468-9.158 1.836-3.77 2.564-7.731 2.664-8.308A1.95 1.95 0 0150.537 34h0z" stroke="#A4B8CE" stroke-width="6" fill="#A4B8CE" stroke-linecap="round" stroke-linejoin="round"/><path d="M10.1 9.046h79.266M10.1 97.12h79.266" stroke="#A4B8CE" stroke-width="4" stroke-linecap="round" stroke-linejoin="round"/><path stroke="#A4B8CE" stroke-width="4" fill="#A4B8CE" d="M15 9h70v9H15zM15 88h70v9H15z"/></g></svg>