<svg width="100" height="100" xmlns="http://www.w3.org/2000/svg"><g fill="none" fill-rule="evenodd" stroke-linecap="round" stroke-linejoin="round" stroke-width="4"><path d="M65.092 57.613l20.627-26.755L68.882 14.02 42.059 34.565a34.134 34.134 0 0114.416 8.61 34.133 34.133 0 018.617 14.438h0z" stroke="#3A816D" fill="#3A816D"/><path d="M32.232 68.112L2.447 97.897" stroke="#A4B8CE"/><path d="M56.475 43.175c-13.39-13.39-35.098-13.39-48.487 0l48.487 48.488c13.39-13.39 13.39-35.098 0-48.488h0zM68.25 3.693a2.94 2.94 0 014.161.004L95.953 27.24a2.945 2.945 0 01.005 4.16l-2.77 2.771a2.94 2.94 0 01-4.161-.004L65.485 10.624a2.945 2.945 0 01-.005-4.16l2.77-2.771h0z" stroke="#55AB94" fill="#55AB94"/></g></svg>