<svg version="1.1" id="Layer_1" xmlns="http://www.w3.org/2000/svg" x="0" y="0" viewBox="0 0 24 24" xml:space="preserve"><style>.st2{fill:#039;stroke:#039;stroke-miterlimit:10}</style><path d="M12.5 14.4h0c-2.6 0-4.7-2.1-4.7-4.7V6.9c0-2.6 2.1-4.7 4.7-4.7h0c2.6 0 4.7 2.1 4.7 4.7v2.8c0 2.6-2.1 4.7-4.7 4.7z" fill="#fff" stroke="#039" stroke-miterlimit="10"/><path d="M14.6 21.7h-4.2c-2.9 0-5.3-2.4-5.3-5.3v-2.6c0-2.9 2.4-5.3 5.3-5.3h4.2c2.9 0 5.3 2.4 5.3 5.3v2.6c0 2.9-2.4 5.3-5.3 5.3z" fill="azure" stroke="#007fff" stroke-miterlimit="10"/><path class="st2" d="M12.6 15.1h-.3c-1 0-1.9-.8-1.9-1.9 0-1 .8-1.9 1.9-1.9h.3c1 0 1.9.8 1.9 1.9 0 1.1-.8 1.9-1.9 1.9zM12.5 18.1c-.3 0-.6-.3-.6-.6v-1.8c0-.3.3-.6.6-.6s.6.3.6.6v1.8c-.1.3-.3.6-.6.6z"/></svg>