<svg width="100" height="100" xmlns="http://www.w3.org/2000/svg"><g fill="none" fill-rule="evenodd"><path d="M49.576 97.383c0-5.867-4.744-10.604-10.596-10.604H4.088V8.943h6.7v70.633H39.88a9.693 9.693 0 019.695 9.703c0-5.37 4.34-9.703 9.695-9.703h29.093V8.943h6.7v77.836H60.17c-5.852 0-10.595 4.737-10.595 10.604z" stroke="#A4B8CE" stroke-width="4" fill="#A4B8CE" stroke-linecap="round" stroke-linejoin="round"/><path d="M49.576 89.279c0-5.37-4.34-9.703-9.695-9.703H10.788V2h29.1c5.35 0 9.688 4.35 9.688 9.694C49.576 6.35 53.913 2 59.264 2h29.1v77.576H59.27a9.693 9.693 0 00-9.695 9.703z" fill="#C8D6E5"/></g></svg>