<svg width="100" height="100" xmlns="http://www.w3.org/2000/svg"><g fill="none" fill-rule="evenodd" stroke-linecap="round" stroke-linejoin="round" stroke-width="4"><path d="M6 50.54C6 46.927 8.938 44 12.545 44h0a6.542 6.542 0 016.546 6.54v19.642h-6.546A6.542 6.542 0 016 63.642V50.54zM80 50.54c0-3.612 2.938-6.54 6.545-6.54h0a6.542 6.542 0 016.546 6.54v13.103c0 3.611-2.938 6.539-6.546 6.539H80V50.539z" stroke="#576574" fill="#576574"/><path d="M49.873 70v16.982M26 88.296c1.584-.8 3.782-1.296 6.21-1.296h34.894c2.345 0 4.475.462 6.044 1.213" stroke="#576574"/><circle stroke="#576574" fill="#576574" cx="23.455" cy="93" r="5"/><circle stroke="#576574" fill="#576574" cx="75.818" cy="93" r="5"/><circle stroke="#576574" fill="#576574" cx="50" cy="93" r="5"/><path d="M19 22.009C19 10.959 27.949 2 39.003 2h21.084c11.048 0 20.004 8.949 20.004 20.009v39.336H19V22.01z" stroke="#798592" fill="#798592"/><path stroke="#485563" fill="#485563" d="M19 61h61.091v8.727H19z"/></g></svg>