<svg xmlns="http://www.w3.org/2000/svg" preserveAspectRatio="none" viewBox="-0.5 -0.5 86 101"><path class="svg_main_path" d="M-.14 68.37c.91-3.38 3.18-6.2 6.26-7.77 3.07-1.56 6.66-1.72 9.86-.43 4.65 2.3 8.26 6.34 10.07 11.28 8.31-24.04 20.94-46.29 37.26-65.62 4.63-4.28 11.1-5.83 17.12-4.1 1.54.25 2.84 1.28 3.46 2.74.61 1.46.45 3.13-.44 4.44C61.27 34.4 44.78 64.48 35.11 97.08a19.856 19.856 0 01-18.13 0C12.68 87.34 6.9 78.35-.14 70.42a2.08 2.08 0 010-2.05z" fill="#f7f7c6" stroke="#000" stroke-miterlimit="10" pointer-events="all"/></svg>