<svg xmlns="http://www.w3.org/2000/svg" preserveAspectRatio="none" viewBox="-0.5 -0.5 91 62"><path class="svg_main_path" d="M12.05 30.57c-3.32 1.21-7.04.13-9.15-2.64a7.697 7.697 0 010-9.37c2.11-2.77 5.83-3.85 9.15-2.64-.03-4.89 3.03-9.28 7.69-11.02 4.65-1.74 9.92-.47 13.21 3.2 2.12-5.2 7.24-8.6 12.94-8.6 5.7 0 10.83 3.4 12.94 8.6 3.39-2.99 8.21-3.84 12.44-2.18 4.23 1.66 7.12 5.54 7.47 10 3.31-1.21 7.04-.13 9.15 2.64a7.726 7.726 0 010 9.37c-2.11 2.77-5.84 3.85-9.15 2.64-.36 4.72-3.57 8.76-8.13 10.25-4.57 1.5-9.6.15-12.77-3.4-2.52 4.11-7.06 6.63-11.95 6.63s-9.42-2.52-11.94-6.63c-2.41 4.74-9.26 7.06-15.31 5.17-6.05-1.88-9-7.27-6.59-12.02z" fill="#f7f7c6" stroke="#000" stroke-linejoin="round" stroke-miterlimit="10" pointer-events="all"/><ellipse class="svg_main_path" cx="15.03" cy="47.19" rx="5.973" ry="2.638" fill="#f7f7c6" stroke="#000" pointer-events="all"/><ellipse class="svg_main_path" cx="8.06" cy="53.54" rx="3.783" ry="1.759" fill="#f7f7c6" stroke="#000" pointer-events="all"/><ellipse class="svg_main_path" cx="2.39" cy="58.23" rx="2.389" ry="1.27" fill="#f7f7c6" stroke="#000" pointer-events="all"/></svg>