<svg xmlns="http://www.w3.org/2000/svg" preserveAspectRatio="none" viewBox="-0.5 -0.5 101 101"><path class="svg_main_path" d="M-.21 50c0-27.61 22.39-50 50-50 13.26 0 25.98 5.27 35.36 14.64A50.042 50.042 0 0199.79 50c0 13.26-5.27 25.98-14.64 35.36A50.042 50.042 0 0149.79 100c-13.26 0-25.98-5.27-35.36-14.64A50.042 50.042 0 01-.21 50zm50-38.14c-21.06 0-38.14 17.08-38.14 38.14 0 21.06 17.08 38.14 38.14 38.14 21.06 0 38.14-17.08 38.14-38.14 0-21.06-17.08-38.14-38.14-38.14z" fill="#f7f7c6" stroke="#000" stroke-miterlimit="10" pointer-events="all"/></svg>