<?xml version="1.0" encoding="utf-8"?>
<!-- Generator: Adobe Illustrator 24.0.1, SVG Export Plug-In . SVG Version: 6.00 Build 0)  -->
<svg version="1.1" id="Layer_1" xmlns="http://www.w3.org/2000/svg" xmlns:xlink="http://www.w3.org/1999/xlink" x="0px" y="0px"
	 viewBox="0 0 56 56" style="enable-background:new 0 0 56 56;" xml:space="preserve">
<style type="text/css">
	.st0{display:none;}
	.st1{display:inline;}
	.st2{fill:none;stroke:#000000;stroke-width:5;stroke-miterlimit:10;}
	.st3{fill:#FFFFFF;stroke:#4B92DB;stroke-miterlimit:10;}
	.st4{fill:none;stroke:#000000;stroke-miterlimit:10;}
	.st5{fill:#4B92DB;stroke:#4B92DB;stroke-miterlimit:10;}
	.st6{fill:none;stroke:#4B92DB;stroke-width:4;stroke-linecap:round;stroke-miterlimit:10;}
	.st7{fill:none;stroke:#CC99CC;stroke-linecap:round;stroke-miterlimit:10;}
</style>
<g id="Layer_1_1_" class="st0">
	<g class="st1">
		<path pointer-events="none" class="st2" d="M2.5,52.5l50-50"/>
	</g>
</g>
<g>
	<rect x="5.3" y="10.2" class="st3" width="46" height="36.8"/>
	<path class="st4" d="M29.9,24.8"/>
	<path class="st5" d="M16.1,22.6H9.6c-1.6,0-2.9-1-2.9-2.3v-5.9C6.7,13,8,12,9.6,12h6.6c1.6,0,2.9,1,2.9,2.3v5.9
		C19,21.5,17.7,22.6,16.1,22.6z"/>
	<polyline class="st6" points="48.5,44.9 48.5,16.3 30.7,33.8 19,45.4 	"/>
	<line class="st6" x1="29.5" y1="35.1" x2="48.5" y2="35.1"/>
	<line class="st7" x1="21.4" y1="15.1" x2="44.9" y2="15.1"/>
	<line class="st7" x1="21.4" y1="18.8" x2="40.5" y2="18.8"/>
	<line class="st7" x1="21.4" y1="22.6" x2="36.3" y2="22.6"/>
	<line class="st7" x1="7.3" y1="26.2" x2="30.8" y2="26.2"/>
	<line class="st7" x1="7.3" y1="29.9" x2="26.2" y2="29.9"/>
	<line class="st7" x1="7.3" y1="33.7" x2="22" y2="33.7"/>
	<line class="st7" x1="6.3" y1="39.9" x2="16.8" y2="39.9"/>
</g>
</svg>
