<?xml version="1.0" encoding="utf-8"?>
<!-- Generator: Adobe Illustrator 24.0.1, SVG Export Plug-In . SVG Version: 6.00 Build 0)  -->
<svg version="1.1" id="Layer_1" xmlns="http://www.w3.org/2000/svg" xmlns:xlink="http://www.w3.org/1999/xlink" x="0px" y="0px"
	 viewBox="0 0 56 56" style="enable-background:new 0 0 56 56;" xml:space="preserve">
<style type="text/css">
	.st0{fill:#CCFFFF;stroke:#4B92DB;stroke-miterlimit:10;}
	.st1{display:none;}
	.st2{display:inline;}
	.st3{fill:none;stroke:#000000;stroke-width:5;stroke-miterlimit:10;}
	.st4{fill:none;stroke:#000000;stroke-miterlimit:10;}
	.st5{fill:#FFFFFF;stroke:#4B92DB;stroke-miterlimit:10;}
	.st6{fill:#00D5F4;stroke:#4B92DB;stroke-miterlimit:10;}
	.st7{fill:#00D5F4;}
	.st8{fill:none;stroke:#4B92DB;stroke-miterlimit:10;}
	.st9{fill:#FFFFFF;}
	.st10{fill:#003399;stroke:#003399;stroke-miterlimit:10;}
</style>
<path class="st0" d="M47.4,45.3H9.2c-3.1,0-5.6-2.5-5.6-5.6V14.9c0-3.1,2.5-5.6,5.6-5.6h38.3c3.1,0,5.6,2.5,5.6,5.6v24.9
	C53,42.8,50.5,45.3,47.4,45.3z"/>
<g id="Layer_1_1_" class="st1">
	<g class="st2">
		<path pointer-events="none" class="st3" d="M2.5,52.5l50-50"/>
	</g>
</g>
<path class="st4" d="M36.8,29.7"/>
<path class="st5" d="M-9,51.9"/>
<path class="st6" d="M3.4,40.3"/>
<path class="st7" d="M40.7,16.7"/>
<path class="st7" d="M51.8,41.7"/>
<path class="st7" d="M3.6,32.6"/>
<path class="st8" d="M53,38.4c0,3.8-3.1,6.9-6.8,6.9h-6.7H10.1c-3.8,0-6.8-3.1-6.8-6.9V16.2c0-3.8,3.1-6.9,6.8-6.9h36
	c3.8,0,6.8,3.1,6.8,6.9v22.2H53z"/>
<path class="st7" d="M52.3,41.7"/>
<path class="st5" d="M26.9,45c0,0-0.6-13.9,6.7-16c0.3-0.1-10.8-8.8-10.8-8.8C9.2,23.5,9.2,45,9.2,45C26.4,45,26.9,45,26.9,45z"/>
<path class="st8" d="M31.8,45.3"/>
<path class="st8" d="M14.1,30.3"/>
<rect x="9.7" y="44.4" class="st9" width="16.7" height="1.5"/>
<path class="st10" d="M32.1,29.9L22,19.9c-0.2-0.1-0.1-0.4,0.1-0.6L29,13c0.2-0.2,0.5-0.2,0.7-0.1l10.1,10c0.2,0.1,0.1,0.4-0.1,0.6
	l-6.9,6.3C32.5,30,32.2,30,32.1,29.9z"/>
</svg>
