<?xml version="1.0" encoding="utf-8"?>
<!-- Generator: Adobe Illustrator 24.0.1, SVG Export Plug-In . SVG Version: 6.00 Build 0)  -->
<svg version="1.1" id="Layer_1" xmlns="http://www.w3.org/2000/svg" xmlns:xlink="http://www.w3.org/1999/xlink" x="0px" y="0px"
	 viewBox="0 0 56 56" style="enable-background:new 0 0 56 56;" xml:space="preserve">
<style type="text/css">
	.st0{fill:#FFFFFF;stroke:#4B92DB;stroke-miterlimit:10;}
	.st1{display:none;}
	.st2{display:inline;}
	.st3{fill:none;stroke:#000000;stroke-width:5;stroke-miterlimit:10;}
	.st4{fill:none;stroke:#000000;stroke-miterlimit:10;}
	.st5{fill:#00D5F4;stroke:#4B92DB;stroke-miterlimit:10;}
	.st6{fill:#00D5F4;}
	.st7{fill:#00CCFF;}
	.st8{fill:none;stroke:#4B92DB;stroke-miterlimit:10;}
	.st9{fill:#4B92DB;stroke:#4B92DB;stroke-miterlimit:10;}
</style>
<path class="st0" d="M52.8,38.4c0,3.8-3.1,6.9-6.8,6.9h-6.7H10c-3.8,0-6.8-3.1-6.8-6.9V16.2c0-3.8,3.1-6.9,6.8-6.9h36
	c3.8,0,6.8,3.1,6.8,6.9V38.4z"/>
<g id="Layer_1_1_" class="st1">
	<g class="st2">
		<path pointer-events="none" class="st3" d="M2.5,52.5l50-50"/>
	</g>
</g>
<path class="st4" d="M29.9,22.4"/>
<path class="st0" d="M-9,51.9"/>
<path class="st5" d="M3.4,40.3"/>
<path class="st6" d="M40.7,16.7"/>
<path class="st6" d="M51.8,41.7"/>
<path class="st6" d="M3.6,32.6"/>
<path class="st7" d="M14.6,25.3c-1.9,0-10.9,8.5-11.2,9.3c-1,2.7-0.2,6.4,1.7,8.6c3,3.2,16.2,1.4,24.2,2.1c9.4,0.5,16.4,0.1,19-0.7
	c1-0.3,2.7-1,3.9-2.8c0.2-0.3,0.2-1.3,0.2-1.4l0.3-12c-2.6-5.9-6.3-11.6-11.2-11.6c-5.3,0-9.8,15.6-14.8,15.2
	C24.6,31.8,18.5,25.2,14.6,25.3z"/>
<path class="st8" d="M53,38.4c0,3.8-3.1,6.9-6.8,6.9h-6.7H10.1c-3.8,0-6.8-3.1-6.8-6.9V16.2c0-3.8,3.1-6.9,6.8-6.9h36
	c3.8,0,6.8,3.1,6.8,6.9v22.2H53z"/>
<path class="st6" d="M52.3,41.7"/>
<circle class="st9" cx="14" cy="16.7" r="4.2"/>
</svg>
