<?xml version="1.0" encoding="utf-8"?>
<!-- Generator: Adobe Illustrator 24.0.1, SVG Export Plug-In . SVG Version: 6.00 Build 0)  -->
<svg version="1.1" id="Layer_1" xmlns="http://www.w3.org/2000/svg" xmlns:xlink="http://www.w3.org/1999/xlink" x="0px" y="0px"
	 viewBox="0 0 56 56" style="enable-background:new 0 0 56 56;" xml:space="preserve">
<style type="text/css">
	.st0{display:none;}
	.st1{display:inline;}
	.st2{fill:none;stroke:#000000;stroke-width:5;stroke-miterlimit:10;}
	.st3{fill:#F0FFFF;stroke:#4B92DB;stroke-miterlimit:10;}
	.st4{fill:#4B92DB;stroke:#FFFFFF;stroke-miterlimit:10;}
</style>
<g id="Layer_1_1_" class="st0">
	<g class="st1">
		<path pointer-events="none" class="st2" d="M2.5,52.5l50-50"/>
	</g>
</g>
<path class="st3" d="M27,39l-9,9c-1,1-2.5,1-3.5,0l-5.7-5.7c-1-1-1-2.5,0-3.5l9-9c1-1,2.5-1,3.5,0l5.7,5.7C28,36.5,28,38.1,27,39z"
	/>
<path class="st3" d="M48.6,17.4l-9,9c-1,1-2.5,1-3.5,0l-5.7-5.7c-1-1-1-2.5,0-3.5l9-9c1-1,2.5-1,3.5,0l5.7,5.7
	C49.6,14.9,49.6,16.5,48.6,17.4z"/>
<path class="st4" d="M37.6,22.3L22.7,37.2c-0.7,0.7-1.7,0.7-2.4,0l-0.6-0.6c-0.7-0.7-0.7-1.7,0-2.4l14.9-14.9c0.7-0.7,1.7-0.7,2.4,0
	l0.6,0.6C38.2,20.6,38.2,21.7,37.6,22.3z"/>
</svg>
