<svg xmlns="http://www.w3.org/2000/svg" xmlns:xlink="http://www.w3.org/1999/xlink" version="1.1" preserveAspectRatio="none" viewBox="-0.5 -0.5 86 101"><defs/><g><path class="svg_main_path" d="M -0.14 68.37 C 0.77 64.99 3.04 62.17 6.12 60.6 C 9.19 59.04 12.78 58.88 15.98 60.17 C 20.63 62.47 24.24 66.51 26.05 71.45 C 34.36 47.41 46.99 25.16 63.31 5.83 C 67.94 1.55 74.41 0 80.43 1.73 C 81.97 1.98 83.27 3.01 83.89 4.47 C 84.5 5.93 84.34 7.6 83.45 8.91 C 61.27 34.4 44.78 64.48 35.11 97.08 C 29.41 100 22.68 100 16.98 97.08 C 12.68 87.34 6.9 78.35 -0.14 70.42 C -0.5 69.79 -0.5 69.01 -0.14 68.37 Z" fill="#f7f7c6" stroke="#000000" stroke-miterlimit="10" pointer-events="all"/></g></svg>