<svg id="color" enable-background="new 0 0 24 24" height="512" viewBox="0 0 24 24" width="512" xmlns="http://www.w3.org/2000/svg"><path d="m21 1h-18c-1.654 0-3 1.346-3 3v16c0 1.654 1.346 3 3 3h18c1.654 0 3-1.346 3-3v-16c0-1.654-1.346-3-3-3z" fill="#607d8b"/><path d="m21 21h-18c-.551 0-1-.448-1-1v-14h20v14c0 .552-.449 1-1 1z" fill="#fff"/><path d="m13.75 19h-7.5c-1.241 0-2.25-1.009-2.25-2.25v-5.5c0-1.241 1.009-2.25 2.25-2.25h7.5c1.241 0 2.25 1.009 2.25 2.25v5.5c0 1.241-1.009 2.25-2.25 2.25z" fill="#2196f3"/><path d="m19.25 18c-.102 0-.205-.021-.301-.063l-3-1.75c-.273-.119-.449-.389-.449-.687v-3c0-.298.176-.568.449-.687l3-1.75c.231-.101.499-.079.711.06.213.138.34.374.34.627v6.5c0 .253-.127.489-.339.627-.124.081-.267.123-.411.123z" fill="#2196f3"/><path d="m12 1h-9c-1.654 0-3 1.346-3 3v16c0 1.654 1.346 3 3 3h9v-2h-9c-.551 0-1-.448-1-1v-14h10z" fill="#546d79"/><path d="m12 6h-10v14c0 .552.449 1 1 1h9v-2h-5.75c-1.241 0-2.25-1.009-2.25-2.25v-5.5c0-1.241 1.009-2.25 2.25-2.25h5.75z" fill="#dedede"/><path d="m12 9h-5.75c-1.241 0-2.25 1.009-2.25 2.25v5.5c0 1.241 1.009 2.25 2.25 2.25h5.75z" fill="#1d83d4"/></svg>