                        <svg version="1.1" id="Layer_1" xmlns="http://www.w3.org/2000/svg"
                            xmlns:xlink="http://www.w3.org/1999/xlink" x="0px" y="0px" viewBox="0 0 633.7 254.6"
                            style="enable-background:new 0 0 633.1 232.5" xml:space="preserve">

                            <path d="M111.8,197.7H49.1c-0.2,0-0.4-0.2-0.4-0.4V157c0-0.2,0.2-0.4,0.4-0.4h62.7c0.2,0,0.4,0.2,0.4,0.4v40.4
                        C112.2,197.6,112,197.7,111.8,197.7z"
                                style="fill:azure;stroke:#007fff;stroke-width:.25;stroke-miterlimit:10" />
                            <text transform="matrix(0.9322 0 0 1 54.4922 172.0348)" class="st1 st2">
                                项目策划
                            </text>
                            <text transform="matrix(0.9322 0 0 1 54.4922 179.5743)" class="st1 st3">

                            </text>
                            <text transform="matrix(0.9322 0 0 1 54.4922 187.0055)" class="st1 st3">
                                客户需求
                            </text>
                            <path class="st4" d="M161.8,232.2h-33.2c-1.3,0-2.4-1.1-2.4-2.4v-10.7c0-1.3,1.1-2.4,2.4-2.4h33.2c1.3,0,2.4,1.1,2.4,2.4v10.7
                        C164.3,231.2,163.2,232.2,161.8,232.2z" />
                            <text transform="matrix(0.9322 0 0 1 128.1084 227.6632)" class="st1 st2">
                                建议二
                            </text>
                            <path
                                d="M83.9,197.7c0,10,2.3,14.6,4.4,16.9c5.9,6.5,14.3,0.3,28.3,5.6c4.2,1.6,7.5,3.7,9.6,5.2"
                                style="fill:none;stroke:#007fff;stroke-width:1.0026;stroke-miterlimit:10" />
                            <g id='demo-yellowtip-1' class="demo-yellowtip1">
                                <path pointer-events="none" d="M41.7,42.4V12.3h33.4v35.1H46.4L41.7,42.4z"
                                    style="fill:#fff2cc;stroke:#039;stroke-width:.2447;stroke-miterlimit:10" />
                                <path pointer-events="none" d="M46.4,47.4c-0.4-1.2,0.3-2.4,1.7-3.2l-6.4-1.8"
                                    style="fill:none;stroke:#039;stroke-width:.2447;stroke-miterlimit:10" />
                                <rect x="44.3" y="16.5" class="st19" width="10.1" height="3.2" />
                                <rect x="57" y="16.5" class="st19" width="10.1" height="3.2" />
                            </g>
                            <g id='demo-yellowtip-3' class="demo-yellowtip2">
                                <path pointer-events="none" class="st10"
                                    d="M124.3,42.4V12.3h33.4v35.1h-28.6L124.3,42.4z" />
                                <path pointer-events="none" class="st10"
                                    d="M129.1,47.4c-0.4-1.2,0.3-2.4,1.7-3.2l-6.5-1.8" />
                                <rect x="126.6" y="17.2" class="st19" width="10.1" height="3.2" />
                                <rect x="138.9" y="26.4" class="st19" width="10.1" height="3.2" />
                                <rect x="130.5" y="38.8" class="st19" width="10.1" height="3.2" />
                            </g>
                            <g id='demo-yellowtip-2' class="demo-yellowtip3">
                                <path pointer-events="none" class="st9" d="M81.5,42.4V12.3h33.4v35.1H86.3L81.5,42.4z" />
                                <path pointer-events="none" class="st9"
                                    d="M86.3,47.4c-0.4-1.2,0.3-2.4,1.7-3.2l-6.5-1.8" />
                                <rect x="86.6" y="28" width="23" height="4"
                                    style="stroke:#039;stroke-width:.269;stroke-miterlimit:10" />
                            </g>
                            <path d="M172.9,167.7" style="fill:#ffc" />

                            <g>
                                <path class="st36" d="M581.8,197.5h-23.9c-5.1,0-9.2-4.1-9.2-9.2v-13.8c0-5.1,4.1-9.2,9.2-9.2h23.9c5.1,0,9.2,4.1,9.2,9.2v13.8
                        C591,193.4,586.9,197.5,581.8,197.5z" />
                                <path class="st4" d="M628.8,167.2h-23.2c-1,0-1.8-1.3-1.8-2.8v-5c0-1.6,0.8-2.8,1.8-2.8h23.2c1,0,1.8,1.3,1.8,2.8v5
                        C630.7,165.9,629.8,167.2,628.8,167.2z" />
                                <path class="st4" d="M628.8,183.1h-23.2c-1,0-1.8-1.3-1.8-2.8v-5c0-1.6,0.8-2.8,1.8-2.8h23.2c1,0,1.8,1.3,1.8,2.8v5
                        C630.7,181.8,629.8,183.1,628.8,183.1z" />
                                <path class="st4" d="M628.8,201.3h-23.2c-1,0-1.8-1.3-1.8-2.8v-5c0-1.6,0.8-2.8,1.8-2.8h23.2c1,0,1.8,1.3,1.8,2.8v5
                        C630.7,200,629.8,201.3,628.8,201.3z" />
                                <rect x="518.1" y="159.1" class="st5" width="17.4" height="10.7" />
                                <path class="st5"
                                    d="M535.5,187.3H518v-10.7h17.4c0,1.9,0,3.8,0,5.7C535.5,183.9,535.5,185.6,535.5,187.3z" />
                                <rect x="518.1" y="195.6" class="st5" width="17.4" height="10.7" />
                                <path class="st6" d="M574.1,176.8" />
                                <path class="st6" d="M560.7,160.1" />
                                <path class="st0" d="M547.4,182.4" />
                                <path class="st0" d="M536.8,190" />
                                <path class="st0" d="M567.8,198.9" />
                                <path class="st6" d="M543.7,195.3" />
                                <path class="st88" d="M535.7,181.3c4.8,0.1,12.2,0.7,13.1,1" />
                                <path class="st88" d="M535.4,200.7c3.5,0.6,8.1-3.9,8.5-10.2c0.3-6.2,4.6-7.9,4.7-8" />
                                <path class="st88" d="M535.9,163.7c3.5-0.6,8.1,3.9,8.5,10.2c0.3,6.2,4.6,7.9,4.7,8" />
                                <path class="st88" d="M604.7,198.7c-3.5,0.6-8.1-3.9-8.5-10.2c-0.3-6.2-4.6-7.9-4.7-8" />
                                <path class="st88" d="M604.3,161.8c-3.5-0.6-8.1,3.9-8.5,10.2c-0.3,6.2-4.6,7.9-4.7,8" />
                                <path class="st88" d="M591.6,180c4.8,0.1,11.4-2.5,12.3-2.2" />
                                <g>
                                    <path d="M626.1,249.2c0,2.6-2.2,4.7-4.8,4.7h-4.7H596c-2.7,0-4.8-2.1-4.8-4.7v-15c0-2.6,2.2-4.7,4.8-4.7h25.4
                            c2.7,0,4.8,2.1,4.8,4.7L626.1,249.2L626.1,249.2z"
                                        style="fill:#fff;stroke:#4b92db;stroke-width:.6888;stroke-miterlimit:10" />
                                    <path d="M610,238.4"
                                        style="fill:none;stroke:#000;stroke-width:.6888;stroke-miterlimit:10" />
                                    <path d="M591.4,250.5"
                                        style="fill:#00d5f4;stroke:#4b92db;stroke-width:.6888;stroke-miterlimit:10" />
                                    <path class="st11" d="M617.6,234.6" />
                                    <path class="st11" d="M625.4,251.4" />
                                    <path class="st11" d="M591.5,245.3" />
                                    <path d="M599.2,240.4c-1.3,0-7.7,5.7-7.9,6.3c-0.7,1.8-0.1,4.3,1.2,5.8c2.1,2.2,11.4,0.9,17,1.4
                            c6.6,0.3,11.5,0.1,13.4-0.5c0.7-0.2,1.9-0.7,2.7-1.9c0.1-0.2,0.1-0.9,0.1-0.9l0.2-8.1c-1.8-4-4.4-7.8-7.9-7.8
                            c-3.7,0-6.9,10.5-10.4,10.2C606.3,244.8,602,240.3,599.2,240.4z"
                                        style="fill:#a4e700;stroke:#61d000;stroke-miterlimit:10" />
                                    <path d="M626.3,249.2c0,2.6-2.2,4.7-4.8,4.7h-4.7h-20.7c-2.7,0-4.8-2.1-4.8-4.7v-15c0-2.6,2.2-4.7,4.8-4.7h25.3
                            c2.7,0,4.8,2.1,4.8,4.7L626.3,249.2L626.3,249.2z"
                                        style="fill:none;stroke:#4b92db;stroke-width:.6888;stroke-miterlimit:10" />
                                    <path class="st11" d="M625.8,251.4" />
                                    <ellipse cx="598.8" cy="234.6" rx="3" ry="2.8"
                                        style="fill:#4b92db;stroke:#4b92db;stroke-width:.6888;stroke-miterlimit:10" />
                                </g>
                                <path
                                    d="M609.3,228.7c0,1.8,0.1-5.3-3.5-10.2c-3.6-4.9-10.5-1-11.2-3.9c-1.1-4.7,0.8-34.3-3-34.1"
                                    style="fill:none;stroke:#039;stroke-width:.7368;stroke-miterlimit:10" />
                                <g>
                                    <path d="M624.2,148.3h-79.6c-2.8,0-5-2.2-5-5v-5.7c0-2.8,2.2-5,5-5h79.6c2.8,0,5,2.2,5,5v5.7
                            C629.2,146,626.9,148.3,624.2,148.3z"
                                        style="fill:#69f;stroke:#039;stroke-width:.286;stroke-miterlimit:10" />
                                    <text transform="matrix(0.9322 0 0 1 554.9715 142.8829)"
                                        style="font-size:11.5345px;font-family:'STYuanti-SC-Light';fill:#fff">
                                        即时协作脑图
                                    </text>
                                </g>
                            </g>

                            <g class="demo-brain">
                                <path d="M581.5,180.7c-0.8,4.6-2.5,6.8-3.2,8.3l0,0c0,1.4,1.7,5.8,2.4,6.3h-12c-0.1-1-0.4-2-1-2.8v-0.1
                        c-2.1,0.7-4.4,1.1-5.3,0.8c-1.5-0.5-1-1.4-1-2.4s-0.5-0.5-1-1s0.5-1,0.5-1c-1,0-1,0-1-1.4c0-0.3-0.1-0.5-0.3-0.7s-0.4-0.3-0.7-0.3
                        c-2.5-0.5,0.9-2.6,1-4.8c0-0.5,0-1-0.1-1.5c-0.1-0.4-0.2-0.7-0.3-1c-0.1-0.4-0.2-0.7-0.2-1.1c0-0.8,0.1-1.6,0.3-2.4
                        c1-4.1,4.2-6.9,8.2-8c3-0.8,6.2-0.4,8.9,1.1C580.7,171.2,582.3,176.4,581.5,180.7z"
                                    style="fill:#d1d4d1;stroke:#039;stroke-width:5.458265e-02;stroke-miterlimit:10" />
                                <path class="st2"
                                    d="M568.5,192.4c-1.6-0.7,0.8-1.3,1.5-1.6c1.1-0.5,1.2-0.9,2-1.4C574.2,189.9,569.2,192.4,568.5,192.4z" />
                                <path class="st2" d="M563.4,178.7c-0.2,0.5-0.7,0.2-1.2,0.3c-0.9,0.2-1.7,0.7-2.3,1.3c-0.1-0.4-0.2-0.7-0.3-1
                            C560.3,178.3,563.4,177.1,563.4,178.7z" />
                                <path class="st2"
                                    d="M576.3,182c-0.4,0.5-2.4,1.5-1.6,2.1c0.4,0.5,1.6-0.9,2.2-1.3C577.3,182.6,577.1,181.6,576.3,182z" />
                                <path class="st2" d="M579.2,176.3c-0.3-0.4-1.1-3.1-1.8-2.1c-0.1-0.2-0.3-0.2-0.5-0.2c0-0.9-2,0-2.9,0c-0.5,0-0.8,1,0.1,1l2.4-0.5
                            l-0.9,2.3c-3.3-2.6-2.3-2.5-4.4,0.9c-0.5-0.8-1-3.4-1.9-2.7c-0.3-0.2-3.4,2.5-3.5,2.8l-1-2.5c-1-0.9-1.1,0.5-0.5,1.4
                            c0.5,1.2,0.8,2.4,1.5,1.3c0.4,1.2,3.1-2,3.5-2.1c0.3,0.4,1,3.5,1.9,2.1c0.7,1.1,1.7-1.6,2-1.9c0.4,0.2,2,1.8,2.4,1.7
                            c0.8,0.7,1.6-2.9,1.9-3.1C577.6,175.3,579.1,178.4,579.2,176.3L579.2,176.3z" />
                                <path class="st2"
                                    d="M571.9,179.5c-1.4-0.7-0.8,0.8,0,1.8c0.9,1.3,1.2,2.2,1.8,2C575,183.1,571.9,179.8,571.9,179.5z" />
                                <path class="st2" d="M577.7,177.4c-0.4,0.3-2.2,0.5-1.8,1.3c-1,0.3,0.7,1.8,1,2.5c2,0.9,0-1.8-0.4-2.2
                            C579.5,178,578.2,177.2,577.7,177.4L577.7,177.4z" />
                                <path class="st2"
                                    d="M571.5,170.7c0.6,0,2.5,1,2.5,0c0-0.7-1.5-0.6-2.2-0.9C571.3,169.6,570.8,170.4,571.5,170.7z" />
                                <path class="st2"
                                    d="M567.3,171.2c0.5-0.2,3.4-0.2,2.8-1.2c-0.2-0.6-1.2-0.1-2.2,0.1C566.4,170.2,566.6,171.1,567.3,171.2z" />
                                <path class="st2"
                                    d="M564.4,174.1c0.4,0.1,1.4-1.6,1.7-1.9c0.4-0.6-0.4-1.1-0.8-0.6C564.8,172.3,563.1,173.8,564.4,174.1z" />
                                <path class="st2"
                                    d="M570.1,178.4c-1.6,0.1-4-0.3-3.9,0.5c0.1,0.8,1.5,0.4,2.8,0.5C571.2,179.6,570.7,178.4,570.1,178.4z" />
                                <path class="st2" d="M576.3,173.4c2,0.3-0.4-1.8-1-2C573.6,171.5,576,173,576.3,173.4z" />
                                <path class="st2"
                                    d="M565.3,174.1c-1.2,0.6,0,1.2,1.1,1c1.3-0.1,2.3,0.3,2.2-0.6C568.6,173.7,565.7,174.2,565.3,174.1z" />
                                <path class="st2"
                                    d="M570.1,174.1c-2.3,1.4,4.4,1.2,1.9,0C571.8,174.1,570.2,174.1,570.1,174.1z" />
                                <path class="st2"
                                    d="M572.2,179.4c0.1,0,2.4-0.4,2.5-0.5c1-1.2-0.8-0.9-2-0.6C571.1,178.4,571.5,179.4,572.2,179.4z" />
                                <path class="st2" d="M566.5,172.4c3.4,2,2.4,2.5,4.2-0.5c0.4,0.4,3.2,3.6,2.7,1.3c-0.1-0.1-2.2-2.2-2.4-2.4c-0.7-0.8-1.6,1.6-2,2.1
                            C568.6,172.6,565.5,170.5,566.5,172.4L566.5,172.4z" />
                                <g>
                                    <circle class="st3" cx="570.6" cy="170.2" r="1.4" />
                                    <circle class="st3" cx="569.2" cy="174.6" r="1.4" />
                                    <circle class="st3" cx="573" cy="174.6" r="1.4" />
                                    <circle class="st3" cx="575.4" cy="178.4" r="1.4" />
                                    <circle class="st3" cx="566.3" cy="171.2" r="1.4" />
                                    <circle class="st3" cx="564.4" cy="174.6" r="1.4" />
                                    <circle class="st3" cx="565.8" cy="178.9" r="1.4" />
                                    <circle class="st3" cx="571.1" cy="178.9" r="1.4" />
                                    <circle class="st3" cx="578.8" cy="177.5" r="1.4" />
                                    <circle class="st3" cx="577.4" cy="173.6" r="1.4" />
                                    <circle class="st3" cx="574.5" cy="171.2" r="1.4" />
                                    <circle class="st3" cx="574" cy="183.7" r="1.4" />
                                    <circle class="st3" cx="577.4" cy="181.8" r="1.4" />
                                </g>
                            </g>

                            <g class="demo-richtext">
                                <rect x="0.5" y="90" class="st21" width="46" height="36.8" />
                                <path d="M25.1,104.6" style="fill:none;stroke:#000;stroke-miterlimit:10" />
                                <path d="M11.3,102.4H4.8c-1.6,0-2.9-1-2.9-2.3v-5.9c0-1.4,1.3-2.4,2.9-2.4h6.6c1.6,0,2.9,1,2.9,2.3v5.9
                            C14.2,101.3,12.9,102.4,11.3,102.4z"
                                    style="fill:#4b92db;stroke:#4b92db;stroke-miterlimit:10" />
                                <polyline class="st24" points="43.7,124.7 43.7,96.1 25.9,113.6 14.2,125.2 	" />
                                <line class="st24" x1="24.7" y1="114.9" x2="43.7" y2="114.9" />
                                <line class="st25" x1="16.6" y1="94.9" x2="40.1" y2="94.9" />
                                <line class="st25" x1="16.6" y1="98.6" x2="35.7" y2="98.6" />
                                <line class="st25" x1="16.6" y1="102.4" x2="31.5" y2="102.4" />
                                <line class="st25" x1="2.5" y1="106" x2="26" y2="106" />
                                <line class="st25" x1="2.5" y1="109.7" x2="21.4" y2="109.7" />
                                <line class="st25" x1="2.5" y1="113.5" x2="17.2" y2="113.5" />
                                <line class="st25" x1="1.5" y1="119.7" x2="12" y2="119.7" />
                            </g>

                            <g class="demo-chat">
                                <g>
                                    <path class="st33" d="M603.4,15.7c1.8-0.7,3.2-1.8,4.3-3c1-1.3,1.6-2.7,1.6-4.2s-0.5-2.9-1.6-4.2c-1-1.3-2.5-2.3-4.3-3
                                s-3.8-1.1-5.9-1.1s-4.1,0.4-5.9,1.1c-1.8,0.7-3.2,1.8-4.3,3c-1,1.3-1.6,2.7-1.6,4.2c0,1.3,0.4,2.5,1.2,3.6s1.9,2.1,3.2,2.9
                                c-0.1,0.3-0.2,0.5-0.3,0.7s-0.3,0.4-0.4,0.6c-0.2,0.2-0.3,0.4-0.4,0.5c-0.1,0.1-0.2,0.3-0.4,0.5s-0.3,0.3-0.4,0.4c0,0,0,0-0.1,0.1
                                c0,0.1-0.1,0.1-0.1,0.1s0,0-0.1,0.1c0.1,0,0.1,0,0.1,0v0.1v0.1v0.1v0.1c0,0.1,0.1,0.3,0.2,0.3s0.2,0.1,0.3,0.1h0.1
                                c0.6-0.1,1-0.2,1.4-0.3c1.7-0.4,3.2-1.1,4.6-2.1c1,0.2,2,0.3,2.9,0.3C599.6,16.8,601.6,16.4,603.4,15.7z M594.1,14.3l-0.7,0.5
                                c-0.3,0.2-0.7,0.4-1,0.6L593,14l-1.6-0.9c-1.1-0.6-1.9-1.3-2.5-2.1c-0.6-0.8-0.9-1.7-0.9-2.6c0-1.1,0.4-2.1,1.3-3.1
                                c0.9-1,2-1.7,3.5-2.3s3.1-0.8,4.7-0.8s3.3,0.3,4.7,0.8c1.5,0.6,2.6,1.3,3.5,2.3s1.3,2,1.3,3.1s-0.4,2.1-1.3,3.1
                                c-0.9,1-2,1.7-3.5,2.3s-3.1,0.8-4.7,0.8c-0.8,0-1.7-0.1-2.5-0.2L594.1,14.3z" />
                                    <path class="st33" d="M614.4,16.3c0.8-1.1,1.2-2.3,1.2-3.6s-0.4-2.6-1.2-3.7c-0.8-1.2-2-2.1-3.4-2.9c0.3,0.8,0.4,1.6,0.4,2.5
                                c0,1.4-0.4,2.8-1.1,4.1c-0.7,1.3-1.8,2.4-3.2,3.4c-1.3,0.9-2.7,1.6-4.4,2.1c-1.6,0.5-3.3,0.7-5.1,0.7c-0.3,0-0.8,0-1.5-0.1
                                c2.2,1.4,4.8,2.1,7.8,2.1c1,0,1.9-0.1,2.9-0.3c1.4,1,2.9,1.6,4.6,2.1c0.4,0.1,0.9,0.2,1.4,0.3c0.1,0,0.3,0,0.4-0.1
                                c0.1-0.1,0.2-0.2,0.2-0.4c0-0.1,0-0.1,0-0.1s0,0,0-0.1s0-0.1,0-0.1v-0.1c0,0,0-0.1-0.1-0.1l-0.1-0.1c0,0,0,0-0.1-0.1l-0.1-0.1
                                c-0.1-0.1-0.2-0.2-0.4-0.4c-0.2-0.2-0.3-0.4-0.4-0.5c-0.1-0.1-0.2-0.3-0.4-0.5s-0.3-0.4-0.4-0.6s-0.2-0.5-0.3-0.7
                                C612.5,18.4,613.6,17.4,614.4,16.3z" />
                                    <circle class="st33" cx="592.5" cy="8.6" r="1.2" />
                                    <circle class="st33" cx="601.9" cy="8.6" r="1.2" />
                                    <circle class="st33" cx="597.3" cy="8.6" r="1.2" />
                                </g>
                            </g>
                            <g class="demo-user-action2">
                                <g>
                                    <path d="M558.4,19.9H549c-1.3,0-2.3-1-2.3-2.3v-7c0-1.3,1-2.3,2.3-2.3h9.4c1.3,0,2.3,1,2.3,2.3v7
                            C560.8,18.9,559.7,19.9,558.4,19.9z M549.1,9.4c-0.6,0-1.2,0.5-1.2,1.2v7c0,0.6,0.5,1.2,1.2,1.2h9.4c0.6,0,1.2-0.5,1.2-1.2v-7
                            c0-0.6-0.5-1.2-1.2-1.2C558.5,9.4,549.1,9.4,549.1,9.4z"
                                        style="fill:#039;stroke:#4b92db;stroke-width:5.482563e-02;stroke-miterlimit:10" />
                                </g>
                                <g>
                                    <path d="M564.3,18.9c-0.2,0-0.4-0.1-0.6-0.2l-3.8-2.4c-0.3-0.2-0.4-0.5-0.2-0.8s0.5-0.4,0.8-0.2l3.8,2.4v-7.2l-3.8,2.4
                            c-0.3,0.2-0.6,0.1-0.8-0.2s-0.1-0.6,0.2-0.8l3.8-2.4c0.4-0.2,0.8-0.2,1.2,0s0.6,0.6,0.6,1v7.2c0,0.4-0.2,0.8-0.6,1
                            C564.7,18.8,564.5,18.9,564.3,18.9L564.3,18.9z" />
                                </g>
                                <g>
                                    <path d="M556.1,28.1c-7.7,0-14-6.3-14-14s6.3-14,14-14s14,6.3,14,14S563.8,28.1,556.1,28.1z M556.1,1.2
                            c-7.1,0-12.9,5.8-12.9,12.9S549,27,556.1,27c7.1,0,12.9-5.8,12.9-12.9S563.2,1.2,556.1,1.2z"
                                        style="stroke:azure;stroke-width:5.482563e-02;stroke-miterlimit:10" />
                                </g>
                            </g>
                            <path class="st36" d="M626.2,109.1H594c-3.8,0-6.8-3-6.8-6.8V58.9c0-3.8,3-6.8,6.8-6.8h32.2c3.8,0,6.8,3,6.8,6.8v43.4
                        C633,106.1,629.9,109.1,626.2,109.1z" />
                            <path class="st36" d="M571.7,109.1h-32.2c-3.8,0-6.8-3-6.8-6.8V58.9c0-3.8,3-6.8,6.8-6.8h32.2c3.8,0,6.8,3,6.8,6.8v43.4
                        C578.5,106.1,575.5,109.1,571.7,109.1z" />
                            <rect class="demo-progress1" x="593.1" y="71.6" width="13.4" height="3.7"
                                style="fill:#fc0;stroke:#039;stroke-width:.196;stroke-miterlimit:10" />
                            <rect class="demo-progress2" x="593.1" y="79.5" width="24.6" height="3.9"
                                style="fill:#6c0;stroke:#039;stroke-width:.2719;stroke-miterlimit:10" />
                            <rect class="demo-progress3" x="593.1" y="87.9" width="6" height="3.8"
                                style="fill:#f06;stroke:#039;stroke-width:.132;stroke-miterlimit:10" />
                            <text transform="matrix(0.9854 0 0 1 541.4053 65.5441)" class="st40"
                                style="font-size:7.4612px">
                                待办事项
                            </text>
                            <text transform="matrix(1.216 0 0 1 591.6885 64.7081)" class="st40"
                                style="font-size:7.1484px">
                                进行中
                            </text>
                            <rect x="542.9" y="72.7" width="13.4" height="3.9"
                                style="stroke:#039;stroke-width:.2025;stroke-miterlimit:10" />
                            <rect x="542.9" y="80.6" width="22.5" height="3.3"
                                style="stroke:#039;stroke-width:.2388;stroke-miterlimit:10" />
                            <rect x="542.9" y="87.9" width="27.3" height="3.8"
                                style="stroke:#039;stroke-width:.2826;stroke-miterlimit:10" />
                            <g class="demo-user-action1">
                                <path d="M79.5,224.5H6.4c-2.4,0-4.4-2-4.4-4.4v-4.4c0-2.4,2-4.4,4.4-4.4h73.1c2.4,0,4.4,2,4.4,4.4v4.4
                        C83.9,222.5,81.9,224.5,79.5,224.5z"
                                    style="fill:#ffa445;stroke:#039;stroke-width:.25;stroke-miterlimit:10" />
                                <text transform="matrix(0.9322 0 0 1 6.2007 221.6881)" class="st1 st2">
                                    Alice正在编辑
                                </text>
                            </g>
                            <g class="demo-user-action3">
                                <path
                                    d="M112.2,177.8c1.6,1.6,4,3.7,7.2,4.8c6.8,2.4,11.5-1.4,15.3,2.4c1.1,1.1,2.4,3.1,3.1,7.2"
                                    style="fill:azure;stroke:#007fff;stroke-width:1.0026;stroke-miterlimit:10" />
                                <path class="st4" d="M154,207.8h-33.2c-1.3,0-2.4-1.1-2.4-2.4v-10.7c0-1.3,1.1-2.4,2.4-2.4H154c1.3,0,2.4,1.1,2.4,2.4v10.7
                        C156.5,206.7,155.4,207.8,154,207.8z" />
                                <text transform="matrix(0.9322 0 0 1 120.3193 203.2072)" class="st1 st2">
                                    建议一
                                </text>
                                <path
                                    d="M170,183h-48.1c-2,0-3.6-1.6-3.6-3.6v-5.9c0-2,1.6-3.6,3.6-3.6h48.1c2,0,3.6,1.6,3.6,3.6v5.9 "
                                    style="fill:#73ffd3;stroke:#039;stroke-width:.2055;stroke-miterlimit:10" />
                                <text transform="matrix(1 0 0 1 120 180)" class="st1 st2">
                                    John添加
                                </text>
                            </g>
                            <g class="demo-user-action2">
                                <path class="st21" d="M91.8,94.7" />
                                <g>
                                    <path class="st26" d="M131.8,103.8c0,2.6-2.2,4.7-4.8,4.7h-4.7h-20.6c-2.7,0-4.8-2.1-4.8-4.7v-15c0-2.6,2.2-4.7,4.8-4.7H127
                                c2.7,0,4.8,2.1,4.8,4.7V103.8z" />
                                    <path class="st27" d="M115.7,93" />
                                    <path class="st28" d="M97.1,105.1" />
                                    <path class="st29" d="M123.3,89.2" />
                                    <path class="st29" d="M131.1,106" />
                                    <path class="st29" d="M97.2,99.9" />
                                    <path class="st30" d="M105,95c-1.3,0-7.7,5.7-7.9,6.3c-0.7,1.8-0.1,4.3,1.2,5.8c2.1,2.2,11.4,0.9,17,1.4c6.6,0.3,11.5,0.1,13.4-0.5
                                c0.7-0.2,1.9-0.7,2.7-1.9c0.1-0.2,0.1-0.9,0.1-0.9l0.2-8.1c-1.8-4-4.4-7.8-7.9-7.8c-3.7,0-6.9,10.5-10.4,10.2
                                C112,99.4,107.7,94.9,105,95z" />
                                    <path class="st31" d="M132,103.8c0,2.6-2.2,4.7-4.8,4.7h-4.7h-20.7c-2.7,0-4.8-2.1-4.8-4.7v-15c0-2.6,2.2-4.7,4.8-4.7h25.3
                                c2.7,0,4.8,2.1,4.8,4.7L132,103.8L132,103.8z" />
                                    <path class="st29" d="M131.5,106" />
                                    <ellipse class="st32" cx="104.5" cy="89.2" rx="3" ry="2.8" />
                                </g>
                                <path class="st48" d="M152.9,126.4H73.4c-2.8,0-5-2.2-5-5v-5.7c0-2.8,2.2-5,5-5H153c2.8,0,5,2.2,5,5v5.7
                            C157.9,124.2,155.7,126.4,152.9,126.4z" />
                                <text transform="matrix(0.9322 0 0 1 72.5249 122.0792)" class="st1 st2">
                                    Jasmine粘贴图片
                                </text>
                            </g>
                            <path class="st48" d="M625.6,48.8H546c-2.8,0-5-2.2-5-5v-5.7c0-2.8,2.2-5,5-5h79.6c2.8,0,5,2.2,5,5v5.7
                        C630.6,46.5,628.4,48.8,625.6,48.8z" />
                            <text transform="matrix(0.9322 0 0 1 542.9121 44.9537)" class="st1 st2">
                                音视频通话进行中
                            </text>
                            <path d="M137.9,66.8H58.3c-2.8,0-5-2.2-5-5v-5.7c0-2.8,2.2-5,5-5h79.6c2.8,0,5,2.2,5,5v5.7
                        C142.9,64.5,140.7,66.8,137.9,66.8z"
                                style="fill:#ff7b5c;stroke:#039;stroke-width:.286;stroke-miterlimit:10" />
                            <text transform="matrix(0.9322 0 0 1 59.2029 62.995)" class="st1 st2" style="fill:#d4e7ff">
                                Design Thinking
                            </text>
                            <g>
                                <path class="st48" d="M624.2,127.8h-79.6c-2.8,0-5-2.2-5-5v-5.7c0-2.8,2.2-5,5-5h79.6c2.8,0,5,2.2,5,5v5.7
                            C629.2,125.6,626.9,127.8,624.2,127.8z" />
                                <text transform="matrix(0.9322 0 0 1 554.9424 122.4166)" class="st51 st1 st2">
                                    即时协作待办
                                </text>
                            </g>
                        </svg>

