<?xml version="1.0" encoding="utf-8"?>
<!-- Generator: Adobe Illustrator 24.0.1, SVG Export Plug-In . SVG Version: 6.00 Build 0)  -->
<svg version="1.1" xmlns="http://www.w3.org/2000/svg" xmlns:xlink="http://www.w3.org/1999/xlink" x="0px" y="0px"
	 viewBox="0 0 171.3 112.7" style="enable-background:new 0 0 171.3 112.7;" xml:space="preserve">
<style type="text/css">
	.st0{fill:#FFFFFF;stroke:#000000;stroke-miterlimit:10;}
	.st1{fill:#FFFFFF;stroke:#003399;stroke-miterlimit:10;}
	.st2{fill:#F0FFFF;stroke:#003399;stroke-width:3.4382;stroke-miterlimit:10;}
	.st3{fill:#FFFFFF;stroke:#003399;stroke-width:0.7238;stroke-miterlimit:10;}
	.st4{fill:#007FFF;stroke:#F0FFFF;stroke-width:2.5261;stroke-miterlimit:10;}
	.st5{fill:#007FFF;stroke:#F0FFFF;stroke-width:1.4477;stroke-miterlimit:10;}
	.st6{fill:#003399;}
	.st7{font-family:'STLibianSC-Regular';}
	.st8{font-size:30px;}
	.st9{display:none;}
	.st10{display:inline;}
	.st11{font-family:'ArialRoundedMTBold';}
	.st12{font-size:18px;}
	.st13{display:inline;fill:#4B92DB;}
</style>
<g id="Layer_1">
	<path class="st0" d="M131.7,104.6l-12-42c-0.5-1.8-2.3-2.7-4.1-2.2l-1.8,0.4c-1.7,0.4-2.8,2.2-2.3,4l12,42c0.5,1.8,2.3,2.7,4.1,2.2
		l1.8-0.4C131.2,108.2,132.2,106.4,131.7,104.6z"/>
	<path class="st1" d="M32.6,64.9l-12,42c-0.5,1.8-2.3,2.7-4.1,2.2l-1.8-0.4c-1.7-0.4-2.8-2.2-2.3-4l12-42c0.5-1.8,2.3-2.7,4.1-2.2
		l1.8,0.4C32.1,61.4,33.1,63.2,32.6,64.9z"/>
	<rect x="7.2" y="1.7" class="st2" width="127.4" height="72.6"/>
	<path class="st3" d="M135,78.6H4.8c-2.4,0-4.4-1-4.4-2.3v-2.7c0-1.3,2-2.3,4.4-2.3H135c2.4,0,4.4,1,4.4,2.3v2.7
		C139.4,77.5,137.4,78.6,135,78.6z"/>
</g>
<g id="Layer_5">
	<ellipse transform="matrix(0.4628 -0.8865 0.8865 0.4628 8.5414 82.4755)" class="st4" cx="72.3" cy="34.2" rx="18" ry="18.1"/>
	<ellipse transform="matrix(0.4628 -0.8865 0.8865 0.4628 -2.8254 67.4845)" class="st5" cx="54.3" cy="36.1" rx="10.3" ry="10.4"/>
	<ellipse transform="matrix(0.4628 -0.8865 0.8865 0.4628 -0.9015 95.7791)" class="st5" cx="78.6" cy="48.6" rx="10.3" ry="10.4"/>
	<ellipse transform="matrix(0.4628 -0.8865 0.8865 0.4628 20.4072 80.3244)" class="st5" cx="76.5" cy="23.3" rx="10.3" ry="10.4"/>
	<text transform="matrix(1 0 0 1 141.3216 28.0541)"><tspan x="0" y="0" class="st6 st7 st8">彩</tspan><tspan x="0" y="36" class="st6 st7 st8">板</tspan></text>
</g>
<g id="Layer_4" class="st9">
</g>
<g id="Layer_2" class="st9">
	<text transform="matrix(1 0 0 1 58.4857 33.9212)" class="st10 st11 st12">WE</text>
	<text transform="matrix(1 0 0 1 47.3324 71.6141)" class="st10 st11 st12">TEAM</text>
	<text transform="matrix(1 0 0 1 44.1156 108.9485)" class="st10 st11 st12">WORK</text>
	<circle class="st13" cx="74.4" cy="70" r="17.6"/>
	<circle class="st13" cx="130.3" cy="64.6" r="17.6"/>
</g>
</svg>
