
<svg id="theboard" xmlns="http://www.w3.org/2000/svg" preserveAspectRatio="none" viewBox="0 0 633.7 254.6"><path d="M111.8 197.7H49.1c-.2 0-.4-.2-.4-.4V157c0-.2.2-.4.4-.4h62.7c.2 0 .4.2.4.4v40.4c0 .2-.2.3-.4.3z" fill="azure" stroke="#007fff" stroke-width=".25" stroke-miterlimit="10"/><text transform="matrix(.9322 0 0 1 54.492 172.035)" class="st1 st2">项目策划</text><text transform="matrix(.9322 0 0 1 54.492 179.574)" class="st1 st3"></text><text transform="matrix(.9322 0 0 1 54.492 187.006)" class="st1 st3">客户需求</text><path class="st4" d="M161.8 232.2h-33.2c-1.3 0-2.4-1.1-2.4-2.4v-10.7c0-1.3 1.1-2.4 2.4-2.4h33.2c1.3 0 2.4 1.1 2.4 2.4v10.7c.1 1.4-1 2.4-2.4 2.4z"/><text transform="matrix(.9322 0 0 1 128.108 227.663)" class="st1 st2">建议二</text><path d="M83.9 197.7c0 10 2.3 14.6 4.4 16.9 5.9 6.5 14.3.3 28.3 5.6 4.2 1.6 7.5 3.7 9.6 5.2" fill="none" stroke="#007fff" stroke-width="1.003" stroke-miterlimit="10"/><g class="demo-yellowtip1"><path pointer-events="none" d="M41.7 42.4V12.3h33.4v35.1H46.4l-4.7-5z" fill="#fff2cc" stroke="#039" stroke-width=".245" stroke-miterlimit="10"/><path pointer-events="none" d="M46.4 47.4c-.4-1.2.3-2.4 1.7-3.2l-6.4-1.8" fill="none" stroke="#039" stroke-width=".245" stroke-miterlimit="10"/><path class="st19" d="M44.3 16.5h10.1v3.2H44.3zM57 16.5h10.1v3.2H57z"/></g><g class="demo-yellowtip2"><path pointer-events="none" class="st10" d="M124.3 42.4V12.3h33.4v35.1h-28.6l-4.8-5z"/><path pointer-events="none" class="st10" d="M129.1 47.4c-.4-1.2.3-2.4 1.7-3.2l-6.5-1.8"/><path class="st19" d="M126.6 17.2h10.1v3.2h-10.1zM138.9 26.4H149v3.2h-10.1zM130.5 38.8h10.1V42h-10.1z"/></g><g class="demo-yellowtip3"><path pointer-events="none" class="st9" d="M81.5 42.4V12.3h33.4v35.1H86.3l-4.8-5z"/><path pointer-events="none" class="st9" d="M86.3 47.4c-.4-1.2.3-2.4 1.7-3.2l-6.5-1.8"/><path stroke="#039" stroke-width=".269" stroke-miterlimit="10" d="M86.6 28h23v4h-23z"/></g><path class="st36" d="M581.8 197.5h-23.9c-5.1 0-9.2-4.1-9.2-9.2v-13.8c0-5.1 4.1-9.2 9.2-9.2h23.9c5.1 0 9.2 4.1 9.2 9.2v13.8c0 5.1-4.1 9.2-9.2 9.2z"/><path class="st4" d="M628.8 167.2h-23.2c-1 0-1.8-1.3-1.8-2.8v-5c0-1.6.8-2.8 1.8-2.8h23.2c1 0 1.8 1.3 1.8 2.8v5c.1 1.5-.8 2.8-1.8 2.8zM628.8 183.1h-23.2c-1 0-1.8-1.3-1.8-2.8v-5c0-1.6.8-2.8 1.8-2.8h23.2c1 0 1.8 1.3 1.8 2.8v5c.1 1.5-.8 2.8-1.8 2.8zM628.8 201.3h-23.2c-1 0-1.8-1.3-1.8-2.8v-5c0-1.6.8-2.8 1.8-2.8h23.2c1 0 1.8 1.3 1.8 2.8v5c.1 1.5-.8 2.8-1.8 2.8z"/><path class="st5" d="M518.1 159.1h17.4v10.7h-17.4zM535.5 187.3H518v-10.7h17.4v5.7c.1 1.6.1 3.3.1 5zM518.1 195.6h17.4v10.7h-17.4z"/><path class="st88" d="M535.7 181.3c4.8.1 12.2.7 13.1 1M535.4 200.7c3.5.6 8.1-3.9 8.5-10.2.3-6.2 4.6-7.9 4.7-8M535.9 163.7c3.5-.6 8.1 3.9 8.5 10.2.3 6.2 4.6 7.9 4.7 8M604.7 198.7c-3.5.6-8.1-3.9-8.5-10.2-.3-6.2-4.6-7.9-4.7-8M604.3 161.8c-3.5-.6-8.1 3.9-8.5 10.2-.3 6.2-4.6 7.9-4.7 8M591.6 180c4.8.1 11.4-2.5 12.3-2.2"/><g stroke-miterlimit="10"><path d="M626.1 249.2c0 2.6-2.2 4.7-4.8 4.7H596c-2.7 0-4.8-2.1-4.8-4.7v-15c0-2.6 2.2-4.7 4.8-4.7h25.4c2.7 0 4.8 2.1 4.8 4.7l-.1 15h0z" fill="#fff" stroke="#4b92db" stroke-width=".689"/><path d="M599.2 240.4c-1.3 0-7.7 5.7-7.9 6.3-.7 1.8-.1 4.3 1.2 5.8 2.1 2.2 11.4.9 17 1.4 6.6.3 11.5.1 13.4-.5.7-.2 1.9-.7 2.7-1.9.1-.2.1-.9.1-.9l.2-8.1c-1.8-4-4.4-7.8-7.9-7.8-3.7 0-6.9 10.5-10.4 10.2-1.3-.1-5.6-4.6-8.4-4.5z" fill="#a4e700" stroke="#61d000"/><path d="M626.3 249.2c0 2.6-2.2 4.7-4.8 4.7h-25.4c-2.7 0-4.8-2.1-4.8-4.7v-15c0-2.6 2.2-4.7 4.8-4.7h25.3c2.7 0 4.8 2.1 4.8 4.7l.1 15h0z" fill="none" stroke="#4b92db" stroke-width=".689"/><ellipse cx="598.8" cy="234.6" rx="3" ry="2.8" fill="#4b92db" stroke="#4b92db" stroke-width=".689"/></g><path d="M609.3 228.7c0 1.8.1-5.3-3.5-10.2-3.6-4.9-10.5-1-11.2-3.9-1.1-4.7.8-34.3-3-34.1" fill="none" stroke="#039" stroke-width=".737" stroke-miterlimit="10"/><path d="M624.2 148.3h-79.6c-2.8 0-5-2.2-5-5v-5.7c0-2.8 2.2-5 5-5h79.6c2.8 0 5 2.2 5 5v5.7c0 2.7-2.3 5-5 5z" fill="#69f" stroke="#039" stroke-width=".286" stroke-miterlimit="10"/><text transform="matrix(.9322 0 0 1 554.971 142.883)" font-size="11.534" font-family="STYuanti-SC-Light" fill="#fff">即时协作脑图</text><g class="demo-brain"><path d="M581.5 180.7c-.8 4.6-2.5 6.8-3.2 8.3h0c0 1.4 1.7 5.8 2.4 6.3h-12c-.1-1-.4-2-1-2.8v-.1c-2.1.7-4.4 1.1-5.3.8-1.5-.5-1-1.4-1-2.4s-.5-.5-1-1 .5-1 .5-1c-1 0-1 0-1-1.4 0-.3-.1-.5-.3-.7s-.4-.3-.7-.3c-2.5-.5.9-2.6 1-4.8 0-.5 0-1-.1-1.5-.1-.4-.2-.7-.3-1-.1-.4-.2-.7-.2-1.1 0-.8.1-1.6.3-2.4 1-4.1 4.2-6.9 8.2-8 3-.8 6.2-.4 8.9 1.1 4 2.5 5.6 7.7 4.8 12z" fill="#d1d4d1" stroke="#039" stroke-width=".055" stroke-miterlimit="10"/><path class="st2" d="M568.5 192.4c-1.6-.7.8-1.3 1.5-1.6 1.1-.5 1.2-.9 2-1.4 2.2.5-2.8 3-3.5 3zM563.4 178.7c-.2.5-.7.2-1.2.3-.9.2-1.7.7-2.3 1.3-.1-.4-.2-.7-.3-1 .7-1 3.8-2.2 3.8-.6zM576.3 182c-.4.5-2.4 1.5-1.6 2.1.4.5 1.6-.9 2.2-1.3.4-.2.2-1.2-.6-.8zM579.2 176.3c-.3-.4-1.1-3.1-1.8-2.1-.1-.2-.3-.2-.5-.2 0-.9-2 0-2.9 0-.5 0-.8 1 .1 1l2.4-.5-.9 2.3c-3.3-2.6-2.3-2.5-4.4.9-.5-.8-1-3.4-1.9-2.7-.3-.2-3.4 2.5-3.5 2.8l-1-2.5c-1-.9-1.1.5-.5 1.4.5 1.2.8 2.4 1.5 1.3.4 1.2 3.1-2 3.5-2.1.3.4 1 3.5 1.9 2.1.7 1.1 1.7-1.6 2-1.9.4.2 2 1.8 2.4 1.7.8.7 1.6-2.9 1.9-3.1.1.6 1.6 3.7 1.7 1.6zM571.9 179.5c-1.4-.7-.8.8 0 1.8.9 1.3 1.2 2.2 1.8 2 1.3-.2-1.8-3.5-1.8-3.8z"/><path class="st2" d="M577.7 177.4c-.4.3-2.2.5-1.8 1.3-1 .3.7 1.8 1 2.5 2 .9 0-1.8-.4-2.2 3-1 1.7-1.8 1.2-1.6zM571.5 170.7c.6 0 2.5 1 2.5 0 0-.7-1.5-.6-2.2-.9-.5-.2-1 .6-.3.9zM567.3 171.2c.5-.2 3.4-.2 2.8-1.2-.2-.6-1.2-.1-2.2.1-1.5.1-1.3 1-.6 1.1zM564.4 174.1c.4.1 1.4-1.6 1.7-1.9.4-.6-.4-1.1-.8-.6-.5.7-2.2 2.2-.9 2.5zM570.1 178.4c-1.6.1-4-.3-3.9.5.1.8 1.5.4 2.8.5 2.2.2 1.7-1 1.1-1zM576.3 173.4c2 .3-.4-1.8-1-2-1.7.1.7 1.6 1 2zM565.3 174.1c-1.2.6 0 1.2 1.1 1 1.3-.1 2.3.3 2.2-.6 0-.8-2.9-.3-3.3-.4zM570.1 174.1c-2.3 1.4 4.4 1.2 1.9 0h-1.9zM572.2 179.4c.1 0 2.4-.4 2.5-.5 1-1.2-.8-.9-2-.6-1.6.1-1.2 1.1-.5 1.1z"/><path class="st2" d="M566.5 172.4c3.4 2 2.4 2.5 4.2-.5.4.4 3.2 3.6 2.7 1.3l-2.4-2.4c-.7-.8-1.6 1.6-2 2.1-.4-.3-3.5-2.4-2.5-.5z"/><circle class="st3" cx="570.6" cy="170.2" r="1.4"/><circle class="st3" cx="569.2" cy="174.6" r="1.4"/><circle class="st3" cx="573" cy="174.6" r="1.4"/><circle class="st3" cx="575.4" cy="178.4" r="1.4"/><circle class="st3" cx="566.3" cy="171.2" r="1.4"/><circle class="st3" cx="564.4" cy="174.6" r="1.4"/><circle class="st3" cx="565.8" cy="178.9" r="1.4"/><circle class="st3" cx="571.1" cy="178.9" r="1.4"/><circle class="st3" cx="578.8" cy="177.5" r="1.4"/><circle class="st3" cx="577.4" cy="173.6" r="1.4"/><circle class="st3" cx="574.5" cy="171.2" r="1.4"/><circle class="st3" cx="574" cy="183.7" r="1.4"/><circle class="st3" cx="577.4" cy="181.8" r="1.4"/></g><g class="demo-richtext"><path class="st21" d="M.5 90h46v36.8H.5z"/><path d="M11.3 102.4H4.8c-1.6 0-2.9-1-2.9-2.3v-5.9c0-1.4 1.3-2.4 2.9-2.4h6.6c1.6 0 2.9 1 2.9 2.3v5.9c-.1 1.3-1.4 2.4-3 2.4z" fill="#4b92db" stroke="#4b92db" stroke-miterlimit="10"/><path class="st24" d="M43.7 124.7V96.1l-17.8 17.5-11.7 11.6M24.7 114.9h19"/><path class="st25" d="M16.6 94.9h23.5M16.6 98.6h19.1M16.6 102.4h14.9M2.5 106H26M2.5 109.7h18.9M2.5 113.5h14.7M1.5 119.7H12"/></g><g class="demo-chat"><path class="st33" d="M603.4 15.7c1.8-.7 3.2-1.8 4.3-3 1-1.3 1.6-2.7 1.6-4.2s-.5-2.9-1.6-4.2c-1-1.3-2.5-2.3-4.3-3S599.6.2 597.5.2s-4.1.4-5.9 1.1c-1.8.7-3.2 1.8-4.3 3-1 1.3-1.6 2.7-1.6 4.2 0 1.3.4 2.5 1.2 3.6s1.9 2.1 3.2 2.9c-.1.3-.2.5-.3.7s-.3.4-.4.6c-.2.2-.3.4-.4.5-.1.1-.2.3-.4.5l-.4.4-.1.1c0 .1-.1.1-.1.1l-.1.1h.1v.4c0 .1.1.3.2.3s.2.1.3.1h.1c.6-.1 1-.2 1.4-.3 1.7-.4 3.2-1.1 4.6-2.1 1 .2 2 .3 2.9.3 2.1.1 4.1-.3 5.9-1zm-9.3-1.4l-.7.5c-.3.2-.7.4-1 .6l.6-1.4-1.6-.9c-1.1-.6-1.9-1.3-2.5-2.1-.6-.8-.9-1.7-.9-2.6 0-1.1.4-2.1 1.3-3.1s2-1.7 3.5-2.3 3.1-.8 4.7-.8 3.3.3 4.7.8c1.5.6 2.6 1.3 3.5 2.3s1.3 2 1.3 3.1-.4 2.1-1.3 3.1-2 1.7-3.5 2.3-3.1.8-4.7.8c-.8 0-1.7-.1-2.5-.2l-.9-.1z"/><path class="st33" d="M614.4 16.3c.8-1.1 1.2-2.3 1.2-3.6s-.4-2.6-1.2-3.7c-.8-1.2-2-2.1-3.4-2.9.3.8.4 1.6.4 2.5 0 1.4-.4 2.8-1.1 4.1-.7 1.3-1.8 2.4-3.2 3.4-1.3.9-2.7 1.6-4.4 2.1-1.6.5-3.3.7-5.1.7-.3 0-.8 0-1.5-.1 2.2 1.4 4.8 2.1 7.8 2.1 1 0 1.9-.1 2.9-.3 1.4 1 2.9 1.6 4.6 2.1.4.1.9.2 1.4.3.1 0 .3 0 .4-.1.1-.1.2-.2.2-.4v-.4s0-.1-.1-.1l-.1-.1-.1-.1-.1-.1-.4-.4c-.2-.2-.3-.4-.4-.5-.1-.1-.2-.3-.4-.5s-.3-.4-.4-.6-.2-.5-.3-.7c1.4-.6 2.5-1.6 3.3-2.7z"/><circle class="st33" cx="592.5" cy="8.6" r="1.2"/><circle class="st33" cx="601.9" cy="8.6" r="1.2"/><circle class="st33" cx="597.3" cy="8.6" r="1.2"/></g><g class="demo-user-action2"><path d="M558.4 19.9H549c-1.3 0-2.3-1-2.3-2.3v-7c0-1.3 1-2.3 2.3-2.3h9.4c1.3 0 2.3 1 2.3 2.3v7c.1 1.3-1 2.3-2.3 2.3zm-9.3-10.5c-.6 0-1.2.5-1.2 1.2v7c0 .6.5 1.2 1.2 1.2h9.4c.6 0 1.2-.5 1.2-1.2v-7c0-.6-.5-1.2-1.2-1.2h-9.4z" fill="#039" stroke="#4b92db" stroke-width=".055" stroke-miterlimit="10"/><path d="M564.3 18.9c-.2 0-.4-.1-.6-.2l-3.8-2.4c-.3-.2-.4-.5-.2-.8s.5-.4.8-.2l3.8 2.4v-7.2l-3.8 2.4c-.3.2-.6.1-.8-.2s-.1-.6.2-.8l3.8-2.4c.4-.2.8-.2 1.2 0s.6.6.6 1v7.2c0 .4-.2.8-.6 1-.2.1-.4.2-.6.2z"/><path d="M556.1 28.1c-7.7 0-14-6.3-14-14s6.3-14 14-14 14 6.3 14 14-6.3 14-14 14zm0-26.9c-7.1 0-12.9 5.8-12.9 12.9S549 27 556.1 27c7.1 0 12.9-5.8 12.9-12.9s-5.8-12.9-12.9-12.9z" stroke="azure" stroke-width=".055" stroke-miterlimit="10"/></g><path class="st36" d="M626.2 109.1H594c-3.8 0-6.8-3-6.8-6.8V58.9c0-3.8 3-6.8 6.8-6.8h32.2c3.8 0 6.8 3 6.8 6.8v43.4c0 3.8-3.1 6.8-6.8 6.8zM571.7 109.1h-32.2c-3.8 0-6.8-3-6.8-6.8V58.9c0-3.8 3-6.8 6.8-6.8h32.2c3.8 0 6.8 3 6.8 6.8v43.4c0 3.8-3 6.8-6.8 6.8z"/><path class="demo-progress1" fill="#fc0" stroke="#039" stroke-width=".196" stroke-miterlimit="10" d="M593.1 71.6h13.4v3.7h-13.4z"/><path class="demo-progress2" fill="#6c0" stroke="#039" stroke-width=".272" stroke-miterlimit="10" d="M593.1 79.5h24.6v3.9h-24.6z"/><path class="demo-progress3" fill="#f06" stroke="#039" stroke-width=".132" stroke-miterlimit="10" d="M593.1 87.9h6v3.8h-6z"/><text transform="matrix(.9854 0 0 1 541.405 65.544)" class="st40" font-size="7.461">待办事项</text><text transform="matrix(1.216 0 0 1 591.688 64.708)" class="st40" font-size="7.148">进行中</text><path stroke="#039" stroke-width=".203" stroke-miterlimit="10" d="M542.9 72.7h13.4v3.9h-13.4z"/><path stroke="#039" stroke-width=".239" stroke-miterlimit="10" d="M542.9 80.6h22.5v3.3h-22.5z"/><path stroke="#039" stroke-width=".283" stroke-miterlimit="10" d="M542.9 87.9h27.3v3.8h-27.3z"/><g class="demo-user-action1"><path d="M79.5 224.5H6.4c-2.4 0-4.4-2-4.4-4.4v-4.4c0-2.4 2-4.4 4.4-4.4h73.1c2.4 0 4.4 2 4.4 4.4v4.4c0 2.4-2 4.4-4.4 4.4z" fill="#ffa445" stroke="#039" stroke-width=".25" stroke-miterlimit="10"/><text transform="matrix(.9322 0 0 1 6.2 221.688)" class="st1 st2">Alice正在编辑</text></g><g class="demo-user-action3"><path d="M112.2 177.8c1.6 1.6 4 3.7 7.2 4.8 6.8 2.4 11.5-1.4 15.3 2.4 1.1 1.1 2.4 3.1 3.1 7.2" fill="azure" stroke="#007fff" stroke-width="1.003" stroke-miterlimit="10"/><path class="st4" d="M154 207.8h-33.2c-1.3 0-2.4-1.1-2.4-2.4v-10.7c0-1.3 1.1-2.4 2.4-2.4H154c1.3 0 2.4 1.1 2.4 2.4v10.7c.1 1.3-1 2.4-2.4 2.4z"/><text transform="matrix(.9322 0 0 1 120.32 203.207)" class="st1 st2">建议一</text><path d="M170 183h-48.1c-2 0-3.6-1.6-3.6-3.6v-5.9c0-2 1.6-3.6 3.6-3.6H170c2 0 3.6 1.6 3.6 3.6v5.9" fill="#73ffd3" stroke="#039" stroke-width=".205" stroke-miterlimit="10"/><text transform="translate(120 180)" class="st1 st2">John添加</text></g><g class="demo-user-action2"><path class="st26" d="M131.8 103.8c0 2.6-2.2 4.7-4.8 4.7h-25.3c-2.7 0-4.8-2.1-4.8-4.7v-15c0-2.6 2.2-4.7 4.8-4.7H127c2.7 0 4.8 2.1 4.8 4.7v15z"/><path class="st30" d="M105 95c-1.3 0-7.7 5.7-7.9 6.3-.7 1.8-.1 4.3 1.2 5.8 2.1 2.2 11.4.9 17 1.4 6.6.3 11.5.1 13.4-.5.7-.2 1.9-.7 2.7-1.9.1-.2.1-.9.1-.9l.2-8.1c-1.8-4-4.4-7.8-7.9-7.8-3.7 0-6.9 10.5-10.4 10.2-1.4-.1-5.7-4.6-8.4-4.5z"/><path class="st31" d="M132 103.8c0 2.6-2.2 4.7-4.8 4.7h-25.4c-2.7 0-4.8-2.1-4.8-4.7v-15c0-2.6 2.2-4.7 4.8-4.7h25.3c2.7 0 4.8 2.1 4.8 4.7l.1 15z"/><ellipse class="st32" cx="104.5" cy="89.2" rx="3" ry="2.8"/><path class="st48" d="M152.9 126.4H73.4c-2.8 0-5-2.2-5-5v-5.7c0-2.8 2.2-5 5-5H153c2.8 0 5 2.2 5 5v5.7c-.1 2.8-2.3 5-5.1 5z"/><text transform="matrix(.9322 0 0 1 72.525 122.08)" class="st1 st2">Jasmine粘贴图片</text></g><path class="st48" d="M625.6 48.8H546c-2.8 0-5-2.2-5-5v-5.7c0-2.8 2.2-5 5-5h79.6c2.8 0 5 2.2 5 5v5.7c0 2.7-2.2 5-5 5z"/><text transform="matrix(.9322 0 0 1 542.912 44.954)" class="st1 st2">音视频通话进行中</text><path d="M137.9 66.8H58.3c-2.8 0-5-2.2-5-5v-5.7c0-2.8 2.2-5 5-5h79.6c2.8 0 5 2.2 5 5v5.7c0 2.7-2.2 5-5 5z" fill="#ff7b5c" stroke="#039" stroke-width=".286" stroke-miterlimit="10"/><text transform="matrix(.9322 0 0 1 59.203 62.995)" class="st1 st2" fill="#d4e7ff">Design Thinking</text><g><path class="st48" d="M624.2 127.8h-79.6c-2.8 0-5-2.2-5-5v-5.7c0-2.8 2.2-5 5-5h79.6c2.8 0 5 2.2 5 5v5.7c0 2.8-2.3 5-5 5z"/><text transform="matrix(.9322 0 0 1 554.942 122.417)" class="st51 st1 st2">即时协作待办</text></g></svg>
