<?xml version="1.0" encoding="utf-8"?>
<!-- Generator: Adobe Illustrator 24.0.1, SVG Export Plug-In . SVG Version: 6.00 Build 0)  -->
<svg version="1.1" id="theboard" xmlns="http://www.w3.org/2000/svg" xmlns:xlink="http://www.w3.org/1999/xlink" x="0px" y="0px"
	 viewBox="0 0 325.5 254.5" style="enable-background:new 0 0 325.5 254.5;" xml:space="preserve">
<style type="text/css">
	.st0{fill:#F0FFFF;stroke:#007FFF;stroke-width:0.25;stroke-miterlimit:10;}
	.st1{font-family:'KozGoPr6N-Regular-83pv-RKSJ-H';}
	.st2{font-size:12px;}
	.st3{fill:none;stroke:#007FFF;stroke-width:1.003;stroke-miterlimit:10;}
	.st4{fill:#FFF2CC;stroke:#003399;stroke-width:0.245;stroke-miterlimit:10;}
	.st5{fill:none;stroke:#003399;stroke-width:0.245;stroke-miterlimit:10;}
	.st6{stroke:#003399;stroke-width:0.269;stroke-miterlimit:10;}
	.st7{fill:#FFFFFF;stroke:#4B92DB;stroke-width:0.689;stroke-miterlimit:10;}
	.st8{fill:#A4E700;stroke:#61D000;stroke-miterlimit:10;}
	.st9{fill:none;stroke:#4B92DB;stroke-width:0.689;stroke-miterlimit:10;}
	.st10{fill:#4B92DB;stroke:#4B92DB;stroke-width:0.689;stroke-miterlimit:10;}
	.st11{fill:none;stroke:#003399;stroke-width:0.737;stroke-miterlimit:10;}
	.st12{fill:#6699FF;stroke:#003399;stroke-width:0.286;stroke-miterlimit:10;}
	.st13{fill:#FFFFFF;}
	.st14{font-family:'STYuanti-SC-Light';}
	.st15{font-size:11.534px;}
	.st16{fill:#D1D4D1;stroke:#003399;stroke-width:5.500000e-02;stroke-miterlimit:10;}
	.st17{fill:#4B92DB;stroke:#4B92DB;stroke-miterlimit:10;}
	.st18{fill:#003399;stroke:#4B92DB;stroke-width:5.500000e-02;stroke-miterlimit:10;}
	.st19{stroke:#F0FFFF;stroke-width:5.500000e-02;stroke-miterlimit:10;}
	.st20{fill:#FFCC00;stroke:#003399;stroke-width:0.196;stroke-miterlimit:10;}
	.st21{fill:#66CC00;stroke:#003399;stroke-width:0.272;stroke-miterlimit:10;}
	.st22{fill:#FF0066;stroke:#003399;stroke-width:0.132;stroke-miterlimit:10;}
	.st23{font-size:7.461px;}
	.st24{font-size:7.148px;}
	.st25{stroke:#003399;stroke-width:0.203;stroke-miterlimit:10;}
	.st26{stroke:#003399;stroke-width:0.239;stroke-miterlimit:10;}
	.st27{stroke:#003399;stroke-width:0.283;stroke-miterlimit:10;}
	.st28{fill:#FFA445;stroke:#003399;stroke-width:0.25;stroke-miterlimit:10;}
	.st29{enable-background:new    ;}
	.st30{font-family:'ArialMT';}
	.st31{fill:#F0FFFF;stroke:#007FFF;stroke-width:1.003;stroke-miterlimit:10;}
	.st32{fill:#73FFD3;stroke:#003399;stroke-width:0.205;stroke-miterlimit:10;}
	.st33{fill:#FF7B5C;stroke:#003399;stroke-width:0.286;stroke-miterlimit:10;}
	.st34{fill:#D4E7FF;}
</style>
<path class="st0" d="M111.3,196.9H48.6c-0.2,0-0.4-0.2-0.4-0.4v-40.3c0-0.2,0.2-0.4,0.4-0.4h62.7c0.2,0,0.4,0.2,0.4,0.4v40.4
	C111.7,196.8,111.5,196.9,111.3,196.9z"/>
<text transform="matrix(0.9322 0 0 1 53.9922 171.2317)" class="st1 st2">项目策划</text>
<text transform="matrix(0.9322 0 0 1 53.9922 186.2024)" class="st1 st2">客户需求</text>
<path d="M161.3,231.4h-33.2c-1.3,0-2.4-1.1-2.4-2.4v-10.7c0-1.3,1.1-2.4,2.4-2.4h33.2c1.3,0,2.4,1.1,2.4,2.4V229
	C163.8,230.4,162.7,231.4,161.3,231.4z"/>
<text transform="matrix(0.9322 0 0 1 127.6084 226.8596)" class="st1 st2">建议二</text>
<path class="st3" d="M83.4,196.9c0,10,2.3,14.6,4.4,16.9c5.9,6.5,14.3,0.3,28.3,5.6c4.2,1.6,7.5,3.7,9.6,5.2"/>
<g>
	<path pointer-events="none" class="st4" d="M41.2,41.6V11.5h33.4v35.1H45.9C45.9,46.6,41.2,41.6,41.2,41.6z"/>
	<path pointer-events="none" class="st5" d="M45.9,46.6c-0.4-1.2,0.3-2.4,1.7-3.2l-6.4-1.8"/>
	<path d="M43.8,15.7h10.1v3.2H43.8V15.7z M56.5,15.7h10.1v3.2H56.5V15.7z"/>
</g>
<g>
	<path pointer-events="none" d="M123.8,41.6V11.5h33.4v35.1h-28.6C128.6,46.6,123.8,41.6,123.8,41.6z"/>
	<path pointer-events="none" d="M128.6,46.6c-0.4-1.2,0.3-2.4,1.7-3.2l-6.5-1.8"/>
	<path d="M126.1,16.4h10.1v3.2h-10.1V16.4z M138.4,25.6h10.1v3.2h-10.1V25.6z M130,38h10.1v3.2H130V38z"/>
</g>
<g>
	<path pointer-events="none" d="M81,41.6V11.5h33.4v35.1H85.8C85.8,46.6,81,41.6,81,41.6z"/>
	<path pointer-events="none" d="M85.8,46.6c-0.4-1.2,0.3-2.4,1.7-3.2L81,41.6"/>
	<path class="st6" d="M86.1,27.2h23v4h-23V27.2z"/>
</g>
<path d="M274.3,197.4h-23.9c-5.1,0-9.2-4.1-9.2-9.2v-13.8c0-5.1,4.1-9.2,9.2-9.2h23.9c5.1,0,9.2,4.1,9.2,9.2v13.8
	C283.5,193.3,279.4,197.4,274.3,197.4z"/>
<path d="M321.3,167.1h-23.2c-1,0-1.8-1.3-1.8-2.8v-5c0-1.6,0.8-2.8,1.8-2.8h23.2c1,0,1.8,1.3,1.8,2.8v5
	C323.2,165.8,322.3,167.1,321.3,167.1z M321.3,183h-23.2c-1,0-1.8-1.3-1.8-2.8v-5c0-1.6,0.8-2.8,1.8-2.8h23.2c1,0,1.8,1.3,1.8,2.8v5
	C323.2,181.7,322.3,183,321.3,183z M321.3,201.2h-23.2c-1,0-1.8-1.3-1.8-2.8v-5c0-1.6,0.8-2.8,1.8-2.8h23.2c1,0,1.8,1.3,1.8,2.8v5
	C323.2,199.9,322.3,201.2,321.3,201.2z"/>
<path d="M210.6,159H228v10.7h-17.4V159z M228,187.2h-17.5v-10.7h17.4v5.7C228,183.8,228,185.5,228,187.2z M210.6,195.5H228v10.7
	h-17.4V195.5z"/>
<path d="M228.2,181.2c4.8,0.1,12.2,0.7,13.1,1 M227.9,200.6c3.5,0.6,8.1-3.9,8.5-10.2c0.3-6.2,4.6-7.9,4.7-8 M228.4,163.6
	c3.5-0.6,8.1,3.9,8.5,10.2c0.3,6.2,4.6,7.9,4.7,8 M297.2,198.6c-3.5,0.6-8.1-3.9-8.5-10.2c-0.3-6.2-4.6-7.9-4.7-8 M296.8,161.7
	c-3.5-0.6-8.1,3.9-8.5,10.2c-0.3,6.2-4.6,7.9-4.7,8 M284.1,179.9c4.8,0.1,11.4-2.5,12.3-2.2"/>
<g>
	<path class="st7" d="M318.6,249.1c0,2.6-2.2,4.7-4.8,4.7h-25.3c-2.7,0-4.8-2.1-4.8-4.7v-15c0-2.6,2.2-4.7,4.8-4.7h25.4
		c2.7,0,4.8,2.1,4.8,4.7L318.6,249.1L318.6,249.1L318.6,249.1z"/>
	<path class="st8" d="M291.7,240.3c-1.3,0-7.7,5.7-7.9,6.3c-0.7,1.8-0.1,4.3,1.2,5.8c2.1,2.2,11.4,0.9,17,1.4
		c6.6,0.3,11.5,0.1,13.4-0.5c0.7-0.2,1.9-0.7,2.7-1.9c0.1-0.2,0.1-0.9,0.1-0.9l0.2-8.1c-1.8-4-4.4-7.8-7.9-7.8
		c-3.7,0-6.9,10.5-10.4,10.2C298.8,244.7,294.5,240.2,291.7,240.3L291.7,240.3z"/>
	<path class="st9" d="M318.8,249.1c0,2.6-2.2,4.7-4.8,4.7h-25.4c-2.7,0-4.8-2.1-4.8-4.7v-15c0-2.6,2.2-4.7,4.8-4.7h25.3
		c2.7,0,4.8,2.1,4.8,4.7L318.8,249.1L318.8,249.1L318.8,249.1z"/>
	<ellipse class="st10" cx="291.3" cy="234.5" rx="3" ry="2.8"/>
</g>
<path class="st11" d="M301.8,228.6c0,1.8,0.1-5.3-3.5-10.2s-10.5-1-11.2-3.9c-1.1-4.7,0.8-34.3-3-34.1"/>
<path class="st12" d="M316.7,148.2h-79.6c-2.8,0-5-2.2-5-5v-5.7c0-2.8,2.2-5,5-5h79.6c2.8,0,5,2.2,5,5v5.7
	C321.7,145.9,319.4,148.2,316.7,148.2z"/>
<text transform="matrix(0.9322 0 0 1 247.4707 142.8104)" class="st13 st14 st15">即时协作脑图</text>
<g>
	<path class="st16" d="M274,180.6c-0.8,4.6-2.5,6.8-3.2,8.3l0,0c0,1.4,1.7,5.8,2.4,6.3h-12c-0.1-1-0.4-2-1-2.8v-0.1
		c-2.1,0.7-4.4,1.1-5.3,0.8c-1.5-0.5-1-1.4-1-2.4s-0.5-0.5-1-1s0.5-1,0.5-1c-1,0-1,0-1-1.4c0-0.3-0.1-0.5-0.3-0.7s-0.4-0.3-0.7-0.3
		c-2.5-0.5,0.9-2.6,1-4.8c0-0.5,0-1-0.1-1.5c-0.1-0.4-0.2-0.7-0.3-1c-0.1-0.4-0.2-0.7-0.2-1.1c0-0.8,0.1-1.6,0.3-2.4
		c1-4.1,4.2-6.9,8.2-8c3-0.8,6.2-0.4,8.9,1.1C273.2,171.1,274.8,176.3,274,180.6L274,180.6z"/>
	<path d="M261,192.3c-1.6-0.7,0.8-1.3,1.5-1.6c1.1-0.5,1.2-0.9,2-1.4C266.7,189.8,261.7,192.3,261,192.3z M255.9,178.6
		c-0.2,0.5-0.7,0.2-1.2,0.3c-0.9,0.2-1.7,0.7-2.3,1.3c-0.1-0.4-0.2-0.7-0.3-1C252.8,178.2,255.9,177,255.9,178.6z M268.8,181.9
		c-0.4,0.5-2.4,1.5-1.6,2.1c0.4,0.5,1.6-0.9,2.2-1.3C269.8,182.5,269.6,181.5,268.8,181.9L268.8,181.9z M271.7,176.2
		c-0.3-0.4-1.1-3.1-1.8-2.1c-0.1-0.2-0.3-0.2-0.5-0.2c0-0.9-2,0-2.9,0c-0.5,0-0.8,1,0.1,1l2.4-0.5l-0.9,2.3
		c-3.3-2.6-2.3-2.5-4.4,0.9c-0.5-0.8-1-3.4-1.9-2.7c-0.3-0.2-3.4,2.5-3.5,2.8l-1-2.5c-1-0.9-1.1,0.5-0.5,1.4
		c0.5,1.2,0.8,2.4,1.5,1.3c0.4,1.2,3.1-2,3.5-2.1c0.3,0.4,1,3.5,1.9,2.1c0.7,1.1,1.7-1.6,2-1.9c0.4,0.2,2,1.8,2.4,1.7
		c0.8,0.7,1.6-2.9,1.9-3.1C270.1,175.2,271.6,178.3,271.7,176.2z M264.4,179.4c-1.4-0.7-0.8,0.8,0,1.8c0.9,1.3,1.2,2.2,1.8,2
		C267.5,183,264.4,179.7,264.4,179.4z"/>
	<path d="M270.2,177.3c-0.4,0.3-2.2,0.5-1.8,1.3c-1,0.3,0.7,1.8,1,2.5c2,0.9,0-1.8-0.4-2.2C272,177.9,270.7,177.1,270.2,177.3z
		 M264,170.6c0.6,0,2.5,1,2.5,0c0-0.7-1.5-0.6-2.2-0.9C263.8,169.5,263.3,170.3,264,170.6z M259.8,171.1c0.5-0.2,3.4-0.2,2.8-1.2
		c-0.2-0.6-1.2-0.1-2.2,0.1C258.9,170.1,259.1,171,259.8,171.1L259.8,171.1z M256.9,174c0.4,0.1,1.4-1.6,1.7-1.9
		c0.4-0.6-0.4-1.1-0.8-0.6C257.3,172.2,255.6,173.7,256.9,174z M262.6,178.3c-1.6,0.1-4-0.3-3.9,0.5s1.5,0.4,2.8,0.5
		C263.7,179.5,263.2,178.3,262.6,178.3L262.6,178.3z M268.8,173.3c2,0.3-0.4-1.8-1-2C266.1,171.4,268.5,172.9,268.8,173.3z
		 M257.8,174c-1.2,0.6,0,1.2,1.1,1c1.3-0.1,2.3,0.3,2.2-0.6C261.1,173.6,258.2,174.1,257.8,174z M262.6,174c-2.3,1.4,4.4,1.2,1.9,0
		H262.6z M264.7,179.3c0.1,0,2.4-0.4,2.5-0.5c1-1.2-0.8-0.9-2-0.6C263.6,178.3,264,179.3,264.7,179.3z"/>
	<path d="M259,172.3c3.4,2,2.4,2.5,4.2-0.5c0.4,0.4,3.2,3.6,2.7,1.3l-2.4-2.4c-0.7-0.8-1.6,1.6-2,2.1
		C261.1,172.5,258,170.4,259,172.3L259,172.3z"/>
	<circle cx="263.1" cy="170.1" r="1.4"/>
	<circle cx="261.7" cy="174.5" r="1.4"/>
	<circle cx="265.5" cy="174.5" r="1.4"/>
	<circle cx="267.9" cy="178.3" r="1.4"/>
	<circle cx="258.8" cy="171.1" r="1.4"/>
	<circle cx="256.9" cy="174.5" r="1.4"/>
	<circle cx="258.3" cy="178.8" r="1.4"/>
	<circle cx="263.6" cy="178.8" r="1.4"/>
	<circle cx="271.3" cy="177.4" r="1.4"/>
	<circle cx="269.9" cy="173.5" r="1.4"/>
	<circle cx="267" cy="171.1" r="1.4"/>
	<circle cx="266.5" cy="183.6" r="1.4"/>
	<circle cx="269.9" cy="181.7" r="1.4"/>
</g>
<g>
	<path d="M0,89.2h46V126H0V89.2z"/>
	<path class="st17" d="M10.8,101.6H4.3c-1.6,0-2.9-1-2.9-2.3v-5.9C1.4,92,2.7,91,4.3,91h6.6c1.6,0,2.9,1,2.9,2.3v5.9
		C13.7,100.5,12.4,101.6,10.8,101.6z"/>
	<path d="M43.2,123.9V95.3l-17.8,17.5l-11.7,11.6 M24.2,114.1h19"/>
	<path d="M16.1,94.1h23.5 M16.1,97.8h19.1 M16.1,101.6H31 M2,105.2h23.5 M2,108.9h18.9 M2,112.7h14.7 M1,118.9h10.5"/>
</g>
<g>
	<path d="M295.9,15.6c1.8-0.7,3.2-1.8,4.3-3c1-1.3,1.6-2.7,1.6-4.2s-0.5-2.9-1.6-4.2c-1-1.3-2.5-2.3-4.3-3s-3.8-1.1-5.9-1.1
		s-4.1,0.4-5.9,1.1c-1.8,0.7-3.2,1.8-4.3,3c-1,1.3-1.6,2.7-1.6,4.2c0,1.3,0.4,2.5,1.2,3.6s1.9,2.1,3.2,2.9c-0.1,0.3-0.2,0.5-0.3,0.7
		s-0.3,0.4-0.4,0.6c-0.2,0.2-0.3,0.4-0.4,0.5c-0.1,0.1-0.2,0.3-0.4,0.5l-0.4,0.4l-0.1,0.1c0,0.1-0.1,0.1-0.1,0.1l-0.1,0.1h0.1v0.4
		c0,0.1,0.1,0.3,0.2,0.3s0.2,0.1,0.3,0.1h0.1c0.6-0.1,1-0.2,1.4-0.3c1.7-0.4,3.2-1.1,4.6-2.1c1,0.2,2,0.3,2.9,0.3
		C292.1,16.7,294.1,16.3,295.9,15.6z M286.6,14.2l-0.7,0.5c-0.3,0.2-0.7,0.4-1,0.6l0.6-1.4l-1.6-0.9c-1.1-0.6-1.9-1.3-2.5-2.1
		c-0.6-0.8-0.9-1.7-0.9-2.6c0-1.1,0.4-2.1,1.3-3.1s2-1.7,3.5-2.3s3.1-0.8,4.7-0.8s3.3,0.3,4.7,0.8c1.5,0.6,2.6,1.3,3.5,2.3
		s1.3,2,1.3,3.1s-0.4,2.1-1.3,3.1s-2,1.7-3.5,2.3s-3.1,0.8-4.7,0.8c-0.8,0-1.7-0.1-2.5-0.2L286.6,14.2L286.6,14.2z"/>
	<path d="M306.9,16.2c0.8-1.1,1.2-2.3,1.2-3.6s-0.4-2.6-1.2-3.7c-0.8-1.2-2-2.1-3.4-2.9c0.3,0.8,0.4,1.6,0.4,2.5
		c0,1.4-0.4,2.8-1.1,4.1c-0.7,1.3-1.8,2.4-3.2,3.4c-1.3,0.9-2.7,1.6-4.4,2.1c-1.6,0.5-3.3,0.7-5.1,0.7c-0.3,0-0.8,0-1.5-0.1
		c2.2,1.4,4.8,2.1,7.8,2.1c1,0,1.9-0.1,2.9-0.3c1.4,1,2.9,1.6,4.6,2.1c0.4,0.1,0.9,0.2,1.4,0.3c0.1,0,0.3,0,0.4-0.1
		c0.1-0.1,0.2-0.2,0.2-0.4V22c0,0,0-0.1-0.1-0.1l-0.1-0.1l-0.1-0.1l-0.1-0.1l-0.4-0.4c-0.2-0.2-0.3-0.4-0.4-0.5
		c-0.1-0.1-0.2-0.3-0.4-0.5s-0.3-0.4-0.4-0.6s-0.2-0.5-0.3-0.7C305,18.3,306.1,17.3,306.9,16.2L306.9,16.2z"/>
	<circle cx="285" cy="8.5" r="1.2"/>
	<circle cx="294.4" cy="8.5" r="1.2"/>
	<circle cx="289.8" cy="8.5" r="1.2"/>
</g>
<g>
	<path class="st18" d="M250.9,19.8h-9.4c-1.3,0-2.3-1-2.3-2.3v-7c0-1.3,1-2.3,2.3-2.3h9.4c1.3,0,2.3,1,2.3,2.3v7
		C253.3,18.8,252.2,19.8,250.9,19.8z M241.6,9.3c-0.6,0-1.2,0.5-1.2,1.2v7c0,0.6,0.5,1.2,1.2,1.2h9.4c0.6,0,1.2-0.5,1.2-1.2v-7
		c0-0.6-0.5-1.2-1.2-1.2C251,9.3,241.6,9.3,241.6,9.3z"/>
	<path d="M256.8,18.8c-0.2,0-0.4-0.1-0.6-0.2l-3.8-2.4c-0.3-0.2-0.4-0.5-0.2-0.8s0.5-0.4,0.8-0.2l3.8,2.4v-7.2l-3.8,2.4
		c-0.3,0.2-0.6,0.1-0.8-0.2s-0.1-0.6,0.2-0.8l3.8-2.4c0.4-0.2,0.8-0.2,1.2,0s0.6,0.6,0.6,1v7.2c0,0.4-0.2,0.8-0.6,1
		C257.2,18.7,257,18.8,256.8,18.8L256.8,18.8z"/>
	<path class="st19" d="M248.6,28c-7.7,0-14-6.3-14-14s6.3-14,14-14s14,6.3,14,14S256.3,28,248.6,28z M248.6,1.1
		c-7.1,0-12.9,5.8-12.9,12.9s5.8,12.9,12.9,12.9s12.9-5.8,12.9-12.9S255.7,1.1,248.6,1.1z"/>
</g>
<path d="M318.7,109h-32.2c-3.8,0-6.8-3-6.8-6.8V58.8c0-3.8,3-6.8,6.8-6.8h32.2c3.8,0,6.8,3,6.8,6.8v43.4
	C325.5,106,322.4,109,318.7,109z M264.2,109H232c-3.8,0-6.8-3-6.8-6.8V58.8c0-3.8,3-6.8,6.8-6.8h32.2c3.8,0,6.8,3,6.8,6.8v43.4
	C271,106,268,109,264.2,109z"/>
<path class="st20" d="M285.6,71.5H299v3.7h-13.4V71.5z"/>
<path class="st21" d="M285.6,79.4h24.6v3.9h-24.6V79.4z"/>
<path class="st22" d="M285.6,87.8h6v3.8h-6V87.8z"/>
<text transform="matrix(0.9854 0 0 1 233.9053 65.4716)" class="st1 st23">待办事项</text>
<text transform="matrix(1.216 0 0 1 284.1875 64.6356)" class="st1 st24">进行中</text>
<path class="st25" d="M235.4,72.6h13.4v3.9h-13.4V72.6z"/>
<path class="st26" d="M235.4,80.5h22.5v3.3h-22.5V80.5z"/>
<path class="st27" d="M235.4,87.8h27.3v3.8h-27.3V87.8z"/>
<g>
	<path class="st28" d="M79,223.7H5.9c-2.4,0-4.4-2-4.4-4.4v-4.4c0-2.4,2-4.4,4.4-4.4H79c2.4,0,4.4,2,4.4,4.4v4.4
		C83.4,221.7,81.4,223.7,79,223.7z"/>
	<text transform="matrix(0.9322 0 0 1 5.7002 220.8845)" class="st29"><tspan x="0" y="0" class="st30 st2">Alice</tspan><tspan x="26" y="0" class="st1 st2">正在编辑</tspan></text>
</g>
<g>
	<path class="st31" d="M111.7,177c1.6,1.6,4,3.7,7.2,4.8c6.8,2.4,11.5-1.4,15.3,2.4c1.1,1.1,2.4,3.1,3.1,7.2"/>
	<path d="M153.5,207h-33.2c-1.3,0-2.4-1.1-2.4-2.4v-10.7c0-1.3,1.1-2.4,2.4-2.4h33.2c1.3,0,2.4,1.1,2.4,2.4v10.7
		C156,205.9,154.9,207,153.5,207z"/>
	<text transform="matrix(0.9322 0 0 1 119.8203 202.4036)" class="st1 st2">建议一</text>
	<path class="st32" d="M169.5,182.2h-48.1c-2,0-3.6-1.6-3.6-3.6v-5.9c0-2,1.6-3.6,3.6-3.6h48.1c2,0,3.6,1.6,3.6,3.6v5.9"/>
	<text transform="matrix(1 0 0 1 119.5 179.1964)" class="st29"><tspan x="0" y="0" class="st30 st2">John</tspan><tspan x="26" y="0" class="st1 st2">添加</tspan></text>
</g>
<g>
	<path d="M131.3,103c0,2.6-2.2,4.7-4.8,4.7h-25.3c-2.7,0-4.8-2.1-4.8-4.7V88c0-2.6,2.2-4.7,4.8-4.7h25.3c2.7,0,4.8,2.1,4.8,4.7V103z
		"/>
	<path d="M104.5,94.2c-1.3,0-7.7,5.7-7.9,6.3c-0.7,1.8-0.1,4.3,1.2,5.8c2.1,2.2,11.4,0.9,17,1.4c6.6,0.3,11.5,0.1,13.4-0.5
		c0.7-0.2,1.9-0.7,2.7-1.9c0.1-0.2,0.1-0.9,0.1-0.9l0.2-8.1c-1.8-4-4.4-7.8-7.9-7.8c-3.7,0-6.9,10.5-10.4,10.2
		C111.5,98.6,107.2,94.1,104.5,94.2z"/>
	<path d="M131.5,103c0,2.6-2.2,4.7-4.8,4.7h-25.4c-2.7,0-4.8-2.1-4.8-4.7V88c0-2.6,2.2-4.7,4.8-4.7h25.3c2.7,0,4.8,2.1,4.8,4.7
		L131.5,103z"/>
	<ellipse cx="104" cy="88.4" rx="3" ry="2.8"/>
	<path d="M152.4,125.6H72.9c-2.8,0-5-2.2-5-5v-5.7c0-2.8,2.2-5,5-5h79.6c2.8,0,5,2.2,5,5v5.7C157.4,123.4,155.2,125.6,152.4,125.6z"
		/>
	<text transform="matrix(0.9322 0 0 1 72.0254 121.2766)" class="st29"><tspan x="0" y="0" class="st30 st2">Jasmine</tspan><tspan x="44.7" y="0" class="st1 st2">粘贴图片</tspan></text>
</g>
<path d="M318.1,48.7h-79.6c-2.8,0-5-2.2-5-5V38c0-2.8,2.2-5,5-5h79.6c2.8,0,5,2.2,5,5v5.7C323.1,46.4,320.9,48.7,318.1,48.7z"/>
<text transform="matrix(0.9322 0 0 1 235.4121 44.8817)" class="st1 st2">音视频通话进行中</text>
<path class="st33" d="M137.4,66H57.8c-2.8,0-5-2.2-5-5v-5.7c0-2.8,2.2-5,5-5h79.6c2.8,0,5,2.2,5,5V61C142.4,63.7,140.2,66,137.4,66z
	"/>
<text transform="matrix(0.9322 0 0 1 58.7031 62.1917)" class="st34 st30 st2">Design Thinking</text>
<g>
	<path d="M316.7,127.7h-79.6c-2.8,0-5-2.2-5-5V117c0-2.8,2.2-5,5-5h79.6c2.8,0,5,2.2,5,5v5.7C321.7,125.5,319.4,127.7,316.7,127.7z"
		/>
	<text transform="matrix(0.9322 0 0 1 247.4424 122.3446)" class="st1 st2">即时协作待办</text>
</g>
</svg>
