<svg xmlns="http://www.w3.org/2000/svg" height="254.465" width="348.866" preserveAspectRatio="none"><path stroke-miterlimit="10" stroke-width=".25" stroke="#007fff" fill="azure" d="M111.3 198.205H48.6c-.2 0-.4-.2-.4-.4v-40.3c0-.2.2-.4.4-.4h62.7c.2 0 .4.2.4.4v40.4c0 .2-.2.3-.4.3z"/><text y="166.588" x="55.921" class="st1 st2" transform="scale(.9655 1.03573)" font-size="11.586" stroke-width=".966">项目策划</text><text y="181.043" x="55.921" class="st1 st3" transform="scale(.9655 1.03573)" font-size="11.586" stroke-width=".966">客户需求</text><path d="M161.3 232.705h-33.2c-1.3 0-2.4-1.1-2.4-2.4v-10.7c0-1.3 1.1-2.4 2.4-2.4h33.2c1.3 0 2.4 1.1 2.4 2.4v10.7c.1 1.4-1 2.4-2.4 2.4z" class="st4"/><text y="220.298" x="132.167" class="st1 st2" transform="scale(.9655 1.03573)" font-size="11.586" stroke-width=".966">建议二</text><path stroke-miterlimit="10" stroke-width="1.003" stroke="#007fff" fill="none" d="M83.4 198.205c0 10 2.3 14.6 4.4 16.9 5.9 6.5 14.3.3 28.3 5.6 4.2 1.6 7.5 3.7 9.6 5.2"/><g class="demo-yellowtip1"><path stroke-miterlimit="10" stroke-width=".245" stroke="#039" fill="#fff2cc" d="M41.2 42.905v-30.1h33.4v35.1H45.9z" pointer-events="none"/><path stroke-miterlimit="10" stroke-width=".245" stroke="#039" fill="none" d="M45.9 47.905c-.4-1.2.3-2.4 1.7-3.2l-6.4-1.8" pointer-events="none"/><path d="M43.8 17.005h10.1v3.2H43.8zm12.7 0h10.1v3.2H56.5z" class="st19"/></g><g class="demo-yellowtip2"><path d="M123.8 42.905v-30.1h33.4v35.1h-28.6z" class="st10" pointer-events="none"/><path d="M128.6 47.905c-.4-1.2.3-2.4 1.7-3.2l-6.5-1.8" class="st10" pointer-events="none"/><path d="M126.1 17.705h10.1v3.2h-10.1zm12.3 9.2h10.1v3.2h-10.1zm-8.4 12.4h10.1v3.2H130z" class="st19"/></g><g class="demo-yellowtip3"><path d="M81 42.905v-30.1h33.4v35.1H85.8z" class="st9" pointer-events="none"/><path d="M85.8 47.905c-.4-1.2.3-2.4 1.7-3.2l-6.5-1.8" class="st9" pointer-events="none"/><path d="M86.1 28.505h23v4h-23z" stroke-miterlimit="10" stroke-width=".269" stroke="#039"/></g><path d="M297.666 197.428h-23.9c-5.1 0-9.2-4.1-9.2-9.2v-13.8c0-5.1 4.1-9.2 9.2-9.2h23.9c5.1 0 9.2 4.1 9.2 9.2v13.8c0 5.1-4.1 9.2-9.2 9.2z" class="st36"/><path d="M344.666 167.127h-23.2c-1 0-1.8-1.3-1.8-2.8v-5c0-1.6.8-2.8 1.8-2.8h23.2c1 0 1.8 1.3 1.8 2.8v5c.1 1.5-.8 2.8-1.8 2.8zm0 15.9h-23.2c-1 0-1.8-1.3-1.8-2.8v-5c0-1.6.8-2.8 1.8-2.8h23.2c1 0 1.8 1.3 1.8 2.8v5c.1 1.5-.8 2.8-1.8 2.8zm0 18.2h-23.2c-1 0-1.8-1.3-1.8-2.8v-5c0-1.6.8-2.8 1.8-2.8h23.2c1 0 1.8 1.3 1.8 2.8v5c.1 1.5-.8 2.8-1.8 2.8z" class="st4"/><path d="M233.966 159.028h17.4v10.7h-17.4zm17.4 28.2h-17.5v-10.7h17.4v5.7c.1 1.6.1 3.3.1 5zm-17.4 8.3h17.4v10.7h-17.4z" class="st5"/><path d="M251.566 181.227c4.8.1 12.2.7 13.1 1m-13.4 18.4c3.5.6 8.1-3.9 8.5-10.2.3-6.2 4.6-7.9 4.7-8m-12.7-18.8c3.5-.6 8.1 3.9 8.5 10.2.3 6.2 4.6 7.9 4.7 8m55.6 16.8c-3.5.6-8.1-3.9-8.5-10.2-.3-6.2-4.6-7.9-4.7-8m12.8-18.7c-3.5-.6-8.1 3.9-8.5 10.2-.3 6.2-4.6 7.9-4.7 8m.5 0c4.8.1 11.4-2.5 12.3-2.2" class="st88"/><g transform="translate(-284.134 -.072)" stroke-miterlimit="10"><path stroke-width=".689" stroke="#4b92db" fill="#fff" d="M626.1 249.2c0 2.6-2.2 4.7-4.8 4.7H596c-2.7 0-4.8-2.1-4.8-4.7v-15c0-2.6 2.2-4.7 4.8-4.7h25.4c2.7 0 4.8 2.1 4.8 4.7z"/><path stroke="#61d000" fill="#a4e700" d="M599.2 240.4c-1.3 0-7.7 5.7-7.9 6.3-.7 1.8-.1 4.3 1.2 5.8 2.1 2.2 11.4.9 17 1.4 6.6.3 11.5.1 13.4-.5.7-.2 1.9-.7 2.7-1.9.1-.2.1-.9.1-.9l.2-8.1c-1.8-4-4.4-7.8-7.9-7.8-3.7 0-6.9 10.5-10.4 10.2-1.3-.1-5.6-4.6-8.4-4.5z"/><path stroke-width=".689" stroke="#4b92db" fill="none" d="M626.3 249.2c0 2.6-2.2 4.7-4.8 4.7h-25.4c-2.7 0-4.8-2.1-4.8-4.7v-15c0-2.6 2.2-4.7 4.8-4.7h25.3c2.7 0 4.8 2.1 4.8 4.7z"/><ellipse stroke-width=".689" stroke="#4b92db" fill="#4b92db" ry="2.8" rx="3" cy="234.6" cx="598.8"/></g><path stroke-miterlimit="10" stroke-width=".737" stroke="#039" fill="none" d="M325.166 228.627c0 1.8.1-5.3-3.5-10.2-3.6-4.9-10.5-1-11.2-3.9-1.1-4.7.8-34.3-3-34.1"/><path stroke-miterlimit="10" stroke-width=".286" stroke="#039" fill="#69f" d="M340.066 148.227h-79.6c-2.8 0-5-2.2-5-5v-5.7c0-2.8 2.2-5 5-5h79.6c2.8 0 5 2.2 5 5v5.7c0 2.7-2.3 5-5 5z"/><text y="137.884" x="280.513" fill="#fff" font-family="STYuanti-SC-Light" font-size="11.136" transform="scale(.9655 1.03573)" stroke-width=".966">即时协作脑图</text><g transform="translate(-284.134 -.072)" class="demo-brain"><path stroke-miterlimit="10" stroke-width=".055" stroke="#039" fill="#d1d4d1" d="M581.5 180.7c-.8 4.6-2.5 6.8-3.2 8.3v0c0 1.4 1.7 5.8 2.4 6.3h-12c-.1-1-.4-2-1-2.8v-.1c-2.1.7-4.4 1.1-5.3.8-1.5-.5-1-1.4-1-2.4s-.5-.5-1-1 .5-1 .5-1c-1 0-1 0-1-1.4 0-.3-.1-.5-.3-.7-.2-.2-.4-.3-.7-.3-2.5-.5.9-2.6 1-4.8 0-.5 0-1-.1-1.5-.1-.4-.2-.7-.3-1-.1-.4-.2-.7-.2-1.1 0-.8.1-1.6.3-2.4 1-4.1 4.2-6.9 8.2-8 3-.8 6.2-.4 8.9 1.1 4 2.5 5.6 7.7 4.8 12z"/><path d="M568.5 192.4c-1.6-.7.8-1.3 1.5-1.6 1.1-.5 1.2-.9 2-1.4 2.2.5-2.8 3-3.5 3zm-5.1-13.7c-.2.5-.7.2-1.2.3-.9.2-1.7.7-2.3 1.3-.1-.4-.2-.7-.3-1 .7-1 3.8-2.2 3.8-.6zm12.9 3.3c-.4.5-2.4 1.5-1.6 2.1.4.5 1.6-.9 2.2-1.3.4-.2.2-1.2-.6-.8zm2.9-5.7c-.3-.4-1.1-3.1-1.8-2.1-.1-.2-.3-.2-.5-.2 0-.9-2 0-2.9 0-.5 0-.8 1 .1 1l2.4-.5-.9 2.3c-3.3-2.6-2.3-2.5-4.4.9-.5-.8-1-3.4-1.9-2.7-.3-.2-3.4 2.5-3.5 2.8l-1-2.5c-1-.9-1.1.5-.5 1.4.5 1.2.8 2.4 1.5 1.3.4 1.2 3.1-2 3.5-2.1.3.4 1 3.5 1.9 2.1.7 1.1 1.7-1.6 2-1.9.4.2 2 1.8 2.4 1.7.8.7 1.6-2.9 1.9-3.1.1.6 1.6 3.7 1.7 1.6zm-7.3 3.2c-1.4-.7-.8.8 0 1.8.9 1.3 1.2 2.2 1.8 2 1.3-.2-1.8-3.5-1.8-3.8z" class="st2"/><path d="M577.7 177.4c-.4.3-2.2.5-1.8 1.3-1 .3.7 1.8 1 2.5 2 .9 0-1.8-.4-2.2 3-1 1.7-1.8 1.2-1.6zm-6.2-6.7c.6 0 2.5 1 2.5 0 0-.7-1.5-.6-2.2-.9-.5-.2-1 .6-.3.9zm-4.2.5c.5-.2 3.4-.2 2.8-1.2-.2-.6-1.2-.1-2.2.1-1.5.1-1.3 1-.6 1.1zm-2.9 2.9c.4.1 1.4-1.6 1.7-1.9.4-.6-.4-1.1-.8-.6-.5.7-2.2 2.2-.9 2.5zm5.7 4.3c-1.6.1-4-.3-3.9.5.1.8 1.5.4 2.8.5 2.2.2 1.7-1 1.1-1zm6.2-5c2 .3-.4-1.8-1-2-1.7.1.7 1.6 1 2zm-11 .7c-1.2.6 0 1.2 1.1 1 1.3-.1 2.3.3 2.2-.6 0-.8-2.9-.3-3.3-.4zm4.8 0c-2.3 1.4 4.4 1.2 1.9 0zm2.1 5.3c.1 0 2.4-.4 2.5-.5 1-1.2-.8-.9-2-.6-1.6.1-1.2 1.1-.5 1.1z" class="st2"/><path d="M566.5 172.4c3.4 2 2.4 2.5 4.2-.5.4.4 3.2 3.6 2.7 1.3l-2.4-2.4c-.7-.8-1.6 1.6-2 2.1-.4-.3-3.5-2.4-2.5-.5z" class="st2"/><circle r="1.4" cy="170.2" cx="570.6" class="st3"/><circle r="1.4" cy="174.6" cx="569.2" class="st3"/><circle r="1.4" cy="174.6" cx="573" class="st3"/><circle r="1.4" cy="178.4" cx="575.4" class="st3"/><circle r="1.4" cy="171.2" cx="566.3" class="st3"/><circle r="1.4" cy="174.6" cx="564.4" class="st3"/><circle r="1.4" cy="178.9" cx="565.8" class="st3"/><circle r="1.4" cy="178.9" cx="571.1" class="st3"/><circle r="1.4" cy="177.5" cx="578.8" class="st3"/><circle r="1.4" cy="173.6" cx="577.4" class="st3"/><circle r="1.4" cy="171.2" cx="574.5" class="st3"/><circle r="1.4" cy="183.7" cx="574" class="st3"/><circle r="1.4" cy="181.8" cx="577.4" class="st3"/></g><g class="demo-richtext"><path d="M0 90.505h46v36.8H0z" class="st21"/><path stroke-miterlimit="10" stroke="#4b92db" fill="#4b92db" d="M10.8 102.905H4.3c-1.6 0-2.9-1-2.9-2.3v-5.9c0-1.4 1.3-2.4 2.9-2.4h6.6c1.6 0 2.9 1 2.9 2.3v5.9c-.1 1.3-1.4 2.4-3 2.4z"/><path d="M43.2 125.205v-28.6l-17.8 17.5-11.7 11.6m10.5-10.3h19" class="st24"/><path d="M16.1 95.405h23.5m-23.5 3.7h19.1m-19.1 3.8H31m-29 3.6h23.5m-23.5 3.7h18.9m-18.9 3.8h14.7m-15.7 6.2h10.5" class="st25"/></g><g transform="translate(-284.134 -.072)" class="demo-chat"><path d="M603.4 15.7c1.8-.7 3.2-1.8 4.3-3 1-1.3 1.6-2.7 1.6-4.2s-.5-2.9-1.6-4.2c-1-1.3-2.5-2.3-4.3-3-1.8-.7-3.8-1.1-5.9-1.1-2.1 0-4.1.4-5.9 1.1-1.8.7-3.2 1.8-4.3 3-1 1.3-1.6 2.7-1.6 4.2 0 1.3.4 2.5 1.2 3.6.8 1.1 1.9 2.1 3.2 2.9-.1.3-.2.5-.3.7-.1.2-.3.4-.4.6-.2.2-.3.4-.4.5-.1.1-.2.3-.4.5l-.4.4-.1.1c0 .1-.1.1-.1.1l-.1.1h.1v.4c0 .1.1.3.2.3s.2.1.3.1h.1c.6-.1 1-.2 1.4-.3 1.7-.4 3.2-1.1 4.6-2.1 1 .2 2 .3 2.9.3 2.1.1 4.1-.3 5.9-1zm-9.3-1.4l-.7.5c-.3.2-.7.4-1 .6l.6-1.4-1.6-.9c-1.1-.6-1.9-1.3-2.5-2.1-.6-.8-.9-1.7-.9-2.6 0-1.1.4-2.1 1.3-3.1s2-1.7 3.5-2.3c1.5-.6 3.1-.8 4.7-.8s3.3.3 4.7.8c1.5.6 2.6 1.3 3.5 2.3.9 1 1.3 2 1.3 3.1s-.4 2.1-1.3 3.1-2 1.7-3.5 2.3c-1.5.6-3.1.8-4.7.8-.8 0-1.7-.1-2.5-.2z" class="st33"/><path d="M614.4 16.3c.8-1.1 1.2-2.3 1.2-3.6 0-1.3-.4-2.6-1.2-3.7-.8-1.2-2-2.1-3.4-2.9.3.8.4 1.6.4 2.5 0 1.4-.4 2.8-1.1 4.1-.7 1.3-1.8 2.4-3.2 3.4-1.3.9-2.7 1.6-4.4 2.1-1.6.5-3.3.7-5.1.7-.3 0-.8 0-1.5-.1 2.2 1.4 4.8 2.1 7.8 2.1 1 0 1.9-.1 2.9-.3 1.4 1 2.9 1.6 4.6 2.1.4.1.9.2 1.4.3.1 0 .3 0 .4-.1.1-.1.2-.2.2-.4v-.4s0-.1-.1-.1l-.1-.1-.1-.1-.1-.1-.4-.4c-.2-.2-.3-.4-.4-.5-.1-.1-.2-.3-.4-.5s-.3-.4-.4-.6c-.1-.2-.2-.5-.3-.7 1.4-.6 2.5-1.6 3.3-2.7z" class="st33"/><circle r="1.2" cy="8.6" cx="592.5" class="st33"/><circle r="1.2" cy="8.6" cx="601.9" class="st33"/><circle r="1.2" cy="8.6" cx="597.3" class="st33"/></g><g class="demo-user-action2"><path stroke-miterlimit="10" stroke-width=".055" stroke="#4b92db" fill="#039" d="M274.266 19.827h-9.4c-1.3 0-2.3-1-2.3-2.3v-7c0-1.3 1-2.3 2.3-2.3h9.4c1.3 0 2.3 1 2.3 2.3v7c.1 1.3-1 2.3-2.3 2.3zm-9.3-10.5c-.6 0-1.2.5-1.2 1.2v7c0 .6.5 1.2 1.2 1.2h9.4c.6 0 1.2-.5 1.2-1.2v-7c0-.6-.5-1.2-1.2-1.2z"/><path d="M280.166 18.827c-.2 0-.4-.1-.6-.2l-3.8-2.4c-.3-.2-.4-.5-.2-.8.2-.3.5-.4.8-.2l3.8 2.4v-7.2l-3.8 2.4c-.3.2-.6.1-.8-.2-.2-.3-.1-.6.2-.8l3.8-2.4c.4-.2.8-.2 1.2 0 .4.2.6.6.6 1v7.2c0 .4-.2.8-.6 1-.2.1-.4.2-.6.2z"/><path stroke-miterlimit="10" stroke-width=".055" stroke="azure" d="M271.966 28.027c-7.7 0-14-6.3-14-14s6.3-14 14-14 14 6.3 14 14-6.3 14-14 14zm0-26.9c-7.1 0-12.9 5.8-12.9 12.9 0 7.1 5.8 12.9 12.9 12.9 7.1 0 12.9-5.8 12.9-12.9 0-7.1-5.8-12.9-12.9-12.9z"/></g><path d="M342.066 109.028h-32.2c-3.8 0-6.8-3-6.8-6.8v-43.4c0-3.8 3-6.8 6.8-6.8h32.2c3.8 0 6.8 3 6.8 6.8v43.4c0 3.8-3.1 6.8-6.8 6.8zm-54.5 0h-32.2c-3.8 0-6.8-3-6.8-6.8v-43.4c0-3.8 3-6.8 6.8-6.8h32.2c3.8 0 6.8 3 6.8 6.8v43.4c0 3.8-3 6.8-6.8 6.8z" class="st36"/><path d="M308.966 71.528h13.4v3.7h-13.4z" stroke-miterlimit="10" stroke-width=".196" stroke="#039" fill="#fc0" class="demo-progress1"/><path d="M308.966 79.427h24.6v3.9h-24.6z" stroke-miterlimit="10" stroke-width=".272" stroke="#039" fill="#6c0" class="demo-progress2"/><path d="M308.966 87.828h6v3.8h-6z" stroke-miterlimit="10" stroke-width=".132" stroke="#039" fill="#f06" class="demo-progress3"/><text y="64.992" x="259.17" font-size="7.406" class="st40" transform="scale(.99267 1.00738)" stroke-width=".993">待办事项</text><text y="71.275" x="278.904" font-size="7.882" class="st40" transform="scale(1.10272 .90685)" stroke-width="1.103">进行中</text><path d="M258.766 72.627h13.4v3.9h-13.4z" stroke-miterlimit="10" stroke-width=".203" stroke="#039"/><path d="M258.766 80.528h22.5v3.3h-22.5z" stroke-miterlimit="10" stroke-width=".239" stroke="#039"/><path d="M258.766 87.828h27.3v3.8h-27.3z" stroke-miterlimit="10" stroke-width=".283" stroke="#039"/><g class="demo-user-action1"><path stroke-miterlimit="10" stroke-width=".25" stroke="#039" fill="#ffa445" d="M79 225.005H5.9c-2.4 0-4.4-2-4.4-4.4v-4.4c0-2.4 2-4.4 4.4-4.4H79c2.4 0 4.4 2 4.4 4.4v4.4c0 2.4-2 4.4-4.4 4.4z"/><text class="st1 st2" transform="matrix(.9322 0 0 1 5.7 222.193)">Alice正在编辑</text></g><g class="demo-user-action3"><path stroke-miterlimit="10" stroke-width="1.003" stroke="#007fff" fill="azure" d="M111.7 178.305c1.6 1.6 4 3.7 7.2 4.8 6.8 2.4 11.5-1.4 15.3 2.4 1.1 1.1 2.4 3.1 3.1 7.2"/><path d="M153.5 208.305h-33.2c-1.3 0-2.4-1.1-2.4-2.4v-10.7c0-1.3 1.1-2.4 2.4-2.4h33.2c1.3 0 2.4 1.1 2.4 2.4v10.7c.1 1.3-1 2.4-2.4 2.4z" class="st4"/><text class="st1 st2" transform="matrix(.9322 0 0 1 119.82 203.712)">建议一</text><path stroke-miterlimit="10" stroke-width=".205" stroke="#039" fill="#73ffd3" d="M169.5 183.505h-48.1c-2 0-3.6-1.6-3.6-3.6v-5.9c0-2 1.6-3.6 3.6-3.6h48.1c2 0 3.6 1.6 3.6 3.6v5.9"/><text class="st1 st2" transform="translate(119.5 180.505)">John添加</text></g><g transform="translate(-.5 .505)" class="demo-user-action2"><path d="M131.8 103.8c0 2.6-2.2 4.7-4.8 4.7h-25.3c-2.7 0-4.8-2.1-4.8-4.7v-15c0-2.6 2.2-4.7 4.8-4.7H127c2.7 0 4.8 2.1 4.8 4.7z" class="st26"/><path d="M105 95c-1.3 0-7.7 5.7-7.9 6.3-.7 1.8-.1 4.3 1.2 5.8 2.1 2.2 11.4.9 17 1.4 6.6.3 11.5.1 13.4-.5.7-.2 1.9-.7 2.7-1.9.1-.2.1-.9.1-.9l.2-8.1c-1.8-4-4.4-7.8-7.9-7.8-3.7 0-6.9 10.5-10.4 10.2-1.4-.1-5.7-4.6-8.4-4.5z" class="st30"/><path d="M132 103.8c0 2.6-2.2 4.7-4.8 4.7h-25.4c-2.7 0-4.8-2.1-4.8-4.7v-15c0-2.6 2.2-4.7 4.8-4.7h25.3c2.7 0 4.8 2.1 4.8 4.7z" class="st31"/><ellipse ry="2.8" rx="3" cy="89.2" cx="104.5" class="st32"/><path d="M152.9 126.4H73.4c-2.8 0-5-2.2-5-5v-5.7c0-2.8 2.2-5 5-5H153c2.8 0 5 2.2 5 5v5.7c-.1 2.8-2.3 5-5.1 5z" class="st48"/><text class="st1 st2" transform="matrix(.9322 0 0 1 72.525 122.08)">Jasmine粘贴图片</text></g><path d="M341.466 48.727h-79.6c-2.8 0-5-2.2-5-5v-5.7c0-2.8 2.2-5 5-5h79.6c2.8 0 5 2.2 5 5v5.7c0 2.7-2.2 5-5 5z" class="st48"/><text y="43.333" x="268.023" class="st1 st2" transform="scale(.9655 1.03573)" font-size="11.586" stroke-width=".966">音视频通话进行中</text><path stroke-miterlimit="10" stroke-width=".286" stroke="#039" fill="#ff7b5c" d="M137.4 67.305H57.8c-2.8 0-5-2.2-5-5v-5.7c0-2.8 2.2-5 5-5h79.6c2.8 0 5 2.2 5 5v5.7c0 2.7-2.2 5-5 5z"/><text y="61.31" x="60.8" fill="#d4e7ff" class="st1 st2" transform="scale(.9655 1.03573)" font-size="11.586" stroke-width=".966">Design Thinking</text><path d="M340.066 127.727h-79.6c-2.8 0-5-2.2-5-5v-5.7c0-2.8 2.2-5 5-5h79.6c2.8 0 5 2.2 5 5v5.7c0 2.8-2.3 5-5 5z" class="st48"/><text class="st51 st1 st2" transform="matrix(.9322 0 0 1 270.808 122.344)">即时协作待办</text></svg>